<?xml version="1.0" standalone="no"?>
<!DOCTYPE svg PUBLIC "-//W3C//DTD SVG 1.1//EN" "http://www.w3.org/Graphics/SVG/1.1/DTD/svg11.dtd" >
<svg>
<metadata>
Created by FontForge 20120731 at Thu Aug  4 16:49:41 2016
 By www
(c) Copyright SoftMaker Software GmbH and its licensors
</metadata>
<defs>
<font id="Savoy" horiz-adv-x="500" >
  <font-face 
    font-family="Savoy"
    font-weight="400"
    font-stretch="normal"
    units-per-em="1000"
    panose-1="0 0 4 0 0 0 0 0 0 0"
    ascent="800"
    descent="-200"
    x-height="415"
    cap-height="669"
    bbox="-113 -327 1131 907"
    underline-thickness="43"
    underline-position="-88"
    unicode-range="U+0020-FB04"
  />
<missing-glyph 
d="M63 0v773h375v-773h-375zM125 63h250v648h-250v-648z" />
    <glyph glyph-name=".notdef" 
d="M63 0v773h375v-773h-375zM125 63h250v648h-250v-648z" />
    <glyph glyph-name="NULL" horiz-adv-x="0" 
 />
    <glyph glyph-name="nonmarkingreturn" horiz-adv-x="250" 
 />
    <glyph glyph-name="space" unicode=" " horiz-adv-x="250" 
 />
    <glyph glyph-name="exclam" unicode="!" horiz-adv-x="253" 
d="M140 221h-25l-39 308q-5 39 -5 70q0 36 16 58.5t41 22.5t40.5 -22.5t15.5 -59.5q0 -38 -4 -69zM128 103q23 0 40 -17t17 -41t-17 -41t-41 -17t-41 17t-17 41t17 41t42 17z" />
    <glyph glyph-name="quotedbl" unicode="&#x22;" horiz-adv-x="333" 
d="M108 399h-35l-21 268h78zM259 399h-35l-21 268h77z" />
    <glyph glyph-name="numbersign" unicode="#" horiz-adv-x="591" 
d="M394 229l-44 -229h-39l45 229h-153l-45 -229h-38l44 229h-117l6 35h120l27 152h-117l5 35h120l42 216h38l-42 -216h153l42 216h39l-42 -216h111l-6 -35h-114l-26 -152h111l-6 -35h-114zM365 264l26 152h-153l-27 -152h154z" />
    <glyph glyph-name="dollar" unicode="$" 
d="M234 669v54h25v-54q62 -1 140 -21l12 -116h-18q-12 51 -38 75q-35 32 -85 32h-11v-262q107 -51 144 -90q44 -47 44 -111q0 -95 -85 -151q-34 -22 -103 -35v-81h-25v81q-85 1 -166 39l-18 134h18q12 -68 57 -107t109 -37v274q-169 76 -169 195q0 142 169 181zM234 389v250
q-43 -10 -68 -37q-34 -36 -34 -81q0 -47 36 -84q23 -24 66 -48zM259 280v-261q51 9 74 31q39 36 39 95q0 86 -113 135z" />
    <glyph glyph-name="percent" unicode="%" horiz-adv-x="780" 
d="M533 667h37l-324 -667h-34zM171 684q63 0 107.5 -47.5t44.5 -114.5t-44.5 -114t-108.5 -47q-63 0 -106 47t-43 117q0 66 44 112.5t106 46.5zM171 655q-40 0 -62.5 -35t-22.5 -97q0 -135 85 -135q41 0 63.5 35t22.5 98q0 134 -86 134zM608 306q63 0 107.5 -47.5
t44.5 -114.5t-44.5 -114t-108.5 -47q-63 0 -106 47t-43 117q0 66 44 112.5t106 46.5zM608 275q-40 0 -62.5 -35t-22.5 -97q0 -135 85 -135q41 0 63.5 35t22.5 98q0 134 -86 134z" />
    <glyph glyph-name="ampersand" unicode="&#x26;" horiz-adv-x="823" 
d="M496 226l92 135q38 56 38 85q0 26 -39 29q-4 0 -14 1l1 23l121 -2q15 0 123 2l-1 -23q-63 -1 -99.5 -21t-76.5 -73l-131 -174l64 -83q68 -88 142 -88q28 0 58.5 17t46.5 42l10 -17q-70 -97 -164 -97q-89 0 -157 90q-15 20 -35 46q-4 5 -18 21q-63 -79 -116.5 -112.5
t-117.5 -33.5q-77 0 -127 46q-64 59 -64 150q0 125 156 209q-77 74 -77 136q0 56 44.5 94t110.5 38q57 0 91.5 -29.5t34.5 -76.5q0 -37 -23.5 -66.5t-82.5 -64.5q68 -49 105 -84t90 -101q3 -4 15 -18zM442 158q-97 139 -234 225q-108 -61 -108 -150q0 -34 20.5 -74t50.5 -64
q50 -40 112 -40q42 0 75 21.5t84 81.5zM267 443q64 42 64 112q0 86 -77 86q-34 0 -56 -21t-22 -53q0 -59 91 -124z" />
    <glyph glyph-name="quotesingle" unicode="'" horiz-adv-x="192" 
d="M114 399h-37l-21 268h80z" />
    <glyph glyph-name="parenleft" unicode="(" horiz-adv-x="329" 
d="M269 -147l-14 -14q-208 208 -208 453q0 247 208 452l14 -14q-92 -121 -125 -214q-36 -102 -36 -224q0 -142 49 -258q32 -76 112 -181z" />
    <glyph glyph-name="parenright" unicode=")" horiz-adv-x="329" 
d="M60 730l14 14q208 -205 208 -452t-208 -453l-14 14q93 123 125 215q36 102 36 224q0 143 -49 258q-32 75 -112 180z" />
    <glyph glyph-name="asterisk" unicode="*" horiz-adv-x="421" 
d="M226 571l59 22q27 10 40 10q36 0 36 -34q0 -14 -10 -24.5t-24 -10.5q-19 0 -39 9zM203 546l40 -49q23 -28 23 -49q0 -14 -10 -23.5t-24 -9.5q-37 0 -37 49q0 9 1 14zM177 556l-35 -54q-25 -39 -48 -39q-14 0 -24 10.5t-10 24.5q0 32 50 43zM174 590l-61 16q-54 14 -54 44
q0 35 37 35q23 0 44 -36zM206 600l-3 64q-1 6 -1 12q0 54 36 54q14 0 25 -10.5t11 -23.5q0 -17 -23 -44z" />
    <glyph glyph-name="plus" unicode="+" 
d="M23 363h205v192h45v-192h205v-43h-205v-193h-45v193h-205v43z" />
    <glyph glyph-name="comma" unicode="," horiz-adv-x="247" 
d="M48 -166l-4 21q45 4 73.5 34t28.5 73q0 38 -34 42q-67 7 -67 53q0 23 18 38.5t45 15.5q39 0 63.5 -29.5t24.5 -76.5q0 -70 -40 -116.5t-108 -54.5z" />
    <glyph glyph-name="hyphen" unicode="-" horiz-adv-x="207" 
d="M0 187l13 53h194l-14 -53h-193z" />
    <glyph glyph-name="period" unicode="." horiz-adv-x="247" 
d="M124 103q23 0 40 -17t17 -41t-17 -41t-41 -17t-41 17t-17 41t17 41t42 17z" />
    <glyph glyph-name="slash" unicode="/" horiz-adv-x="493" 
d="M421 730h48l-452 -877h-48z" />
    <glyph glyph-name="zero" unicode="0" 
d="M251 667q86 0 142 -86q72 -110 72 -251q0 -139 -72 -251q-55 -86 -142 -86t-143 86q-72 111 -72 255q0 138 72 247q57 86 143 86zM251 642q-61 0 -97.5 -84.5t-36.5 -225.5q0 -145 36 -229.5t97 -84.5t97.5 84t36.5 227t-36 228t-97 85z" />
    <glyph glyph-name="one" unicode="1" 
d="M247 96v485q-31 -16 -72 -38q-25 -13 -60 -28l-8 19q100 53 138.5 78t73.5 62l9 -3v-575q0 -52 11 -64t60 -13q10 0 34 -1v-20l-149 2q-18 0 -148 -2v20q20 1 35 1q46 -1 61 14.5t15 62.5z" />
    <glyph glyph-name="two" unicode="2" 
d="M127 74h290q17 0 23.5 6t23.5 40h17l-27 -120h-422v18q82 66 183 191q113 140 113 258q0 66 -33 105t-89 39q-35 0 -62.5 -18.5t-68.5 -68.5l-13 10q43 71 87 102t102 31q71 0 115 -47.5t44 -125.5q0 -72 -40 -139.5t-152 -184.5q-24 -25 -91 -96z" />
    <glyph glyph-name="three" unicode="3" 
d="M158 329v22q161 20 161 148q0 51 -30.5 83.5t-78.5 32.5q-57 0 -112 -56l-16 12q82 96 173 96q59 0 99.5 -37.5t40.5 -92.5q0 -90 -120 -164q68 -13 102 -38q56 -41 56 -112q0 -92 -82 -167q-69 -63 -161 -63q-86 0 -143 47q-20 16 -20 27q0 8 14.5 20.5t24.5 12.5
t37 -37q33 -46 96 -46q70 0 116 62q36 49 36 104q0 42 -23 77.5t-60 52t-110 16.5z" />
    <glyph glyph-name="four" unicode="4" 
d="M380 270h93v-65h-93v-205h-76v205h-282v41l323 414h35v-390zM304 270v291l-224 -291h224z" />
    <glyph glyph-name="five" unicode="5" 
d="M205 660h230l-15 -73h-214l-36 -101q96 -49 131 -78q102 -84 102 -189q0 -92 -65.5 -159t-156.5 -67q-72 0 -131 48q-22 18 -22 27q0 7 12 20.5t18 13.5q9 0 32 -26q49 -55 105 -55q58 0 99.5 45.5t41.5 109.5q0 86 -70 150q-33 30 -147 86z" />
    <glyph glyph-name="six" unicode="6" 
d="M463 674l8 -20q-143 -42 -235 -144t-100 -227q45 47 80.5 65.5t78.5 18.5q67 0 112.5 -50.5t45.5 -124.5q0 -78 -63 -138.5t-145 -60.5q-88 0 -142.5 67t-54.5 175q0 203 188 337q98 70 227 102zM135 237l-1 -28q-2 -68 24 -120q36 -71 102 -71q47 0 81 44t34 105
q0 63 -34 104t-87 41q-71 0 -119 -75z" />
    <glyph glyph-name="seven" unicode="7" 
d="M144 -11l-33 17l307 579h-297q-27 0 -35.5 -5t-17.5 -25q-2 -4 -7 -16h-21l20 121h426l9 -8z" />
    <glyph glyph-name="eight" unicode="8" 
d="M294 353q139 -87 139 -185q0 -71 -55.5 -123t-131.5 -52q-73 0 -126 45.5t-53 107.5t53 111q23 21 77 60q-121 78 -121 180q0 75 60 128q48 42 122 42q71 0 118.5 -40.5t47.5 -100.5q0 -70 -63 -125q-28 -24 -67 -48zM275 367l29 22q55 42 55 127q0 55 -29.5 91t-75.5 36
q-44 0 -76.5 -34t-32.5 -81q0 -44 28 -79t102 -82zM217 307q-30 -29 -41 -41q-45 -50 -45 -113q0 -59 33.5 -98t83.5 -39q45 0 78 34t33 81q0 46 -33 89q-20 26 -81 68q-8 5 -28 19z" />
    <glyph glyph-name="nine" unicode="9" 
d="M48 -23l-6 23q138 33 227.5 140t97.5 248q-53 -58 -86 -77.5t-76 -19.5q-67 0 -113 47.5t-46 117.5q0 85 60.5 148t140.5 63q89 0 147 -71.5t58 -181.5q0 -183 -156 -319q-89 -78 -248 -118zM364 424q0 84 -23 134q-38 84 -109 84q-45 0 -78 -43t-33 -102
q0 -62 35.5 -106t84.5 -44q69 0 123 77z" />
    <glyph glyph-name="colon" unicode=":" horiz-adv-x="247" 
d="M124 103q23 0 40 -17t17 -41t-17 -41t-41 -17t-41 17t-17 41t17 41t42 17zM124 404q23 0 40 -17t17 -41t-17 -41t-41 -17t-41 17t-17 41t17 41t42 17z" />
    <glyph glyph-name="semicolon" unicode=";" horiz-adv-x="247" 
d="M48 -166l-4 21q45 4 73.5 34t28.5 73q0 38 -34 42q-67 7 -67 53q0 23 18 38.5t45 15.5q39 0 63.5 -29.5t24.5 -76.5q0 -70 -40 -116.5t-108 -54.5zM118 404q23 0 40 -17t17 -41t-17 -41t-41 -17t-41 17t-17 41t17 41t42 17z" />
    <glyph glyph-name="less" unicode="&#x3c;" 
d="M457 613v-38l-312 -203l312 -208v-100l-414 277v6z" />
    <glyph glyph-name="equal" unicode="=" 
d="M23 433h455v-42h-455v42zM23 292h455v-42h-455v42z" />
    <glyph glyph-name="greater" unicode="&#x3e;" 
d="M43 64v38l312 202l-312 209v100l414 -277v-6z" />
    <glyph glyph-name="question" unicode="?" horiz-adv-x="349" 
d="M134 199h-22v167q70 6 106 28q53 33 53 91q0 44 -32.5 78t-73.5 34q-6 0 -28 -4q-10 -3 -17 -3q-18 0 -32.5 14t-14.5 31q0 19 17 32t41 13q65 0 118 -71q66 -89 66 -179q0 -69 -46 -109q-14 -12 -26 -17q-8 -3 -59 -17q-35 -10 -42 -23t-8 -65zM134 103q23 0 40 -17
t17 -41t-17 -41t-41 -17t-41 17t-17 41t17 41t42 17z" />
    <glyph glyph-name="at" unicode="@" horiz-adv-x="774" 
d="M598 108l26 -12q-48 -40 -83 -62q-77 -49 -173 -49q-133 0 -225.5 96t-92.5 233q0 89 45.5 173t120.5 135q92 62 218 62q130 0 210.5 -73.5t80.5 -192.5q0 -107 -62.5 -193.5t-140.5 -86.5q-29 0 -47 24t-18 62v13q-65 -101 -138 -101q-40 0 -65 35t-25 91
q0 95 61.5 178.5t131.5 83.5q55 0 88 -55l8 44q28 1 50 7l-56 -234q-11 -46 -11 -69q0 -47 36 -47q41 0 87 54q67 79 67 190q0 107 -70.5 173t-183.5 66q-156 0 -251 -107q-38 -43 -65.5 -115t-27.5 -131t28.5 -119t75.5 -99q77 -65 181 -65q80 0 151 43q24 14 69 48z
M476 367l16 51q1 3 1 8q0 32 -16.5 52t-42.5 20q-56 0 -104 -84q-51 -90 -51 -173q0 -34 15.5 -55t40.5 -21q45 0 85 58.5t52 123.5q2 8 4 20z" />
    <glyph glyph-name="A" unicode="A" horiz-adv-x="632" 
d="M402 249h-221l-50 -164q-3 -10 -3 -19q0 -22 14 -30.5t71 -13.5v-24q-55 2 -129 2q-56 0 -91 -2v24q43 2 64 23q18 17 34 63l179 507l-10 29q29 19 50 46q9 12 16 12q9 0 13 -10l214 -600q14 -39 34.5 -54t57.5 -16v-24q-52 2 -118 2q-67 0 -123 -2v24l22 1q42 2 42 28
q0 10 -8 33zM387 284l-100 288l-93 -288h193z" />
    <glyph glyph-name="B" unicode="B" horiz-adv-x="591" 
d="M33 645v24l106 -2q19 0 58 1.5t58 1.5q94 0 155 -28q38 -18 62 -52.5t24 -72.5q0 -46 -31 -79.5t-108 -73.5q61 -11 101 -30q47 -22 75 -64.5t28 -92.5q0 -79 -65.5 -130t-168.5 -51q-27 0 -81.5 2t-81.5 2q-50 0 -131 -2v24h25q62 0 62 95v433q0 95 -62 95h-25zM207 373
h62q62 0 96 45t34 101q0 72 -50 100q-34 19 -96 19q-34 0 -40 -4.5t-6 -30.5v-230zM207 341v-214q0 -53 19 -74q26 -29 82 -29q62 0 106 36q50 41 50 122q0 98 -74 135q-48 24 -101 24h-82z" />
    <glyph glyph-name="C" unicode="C" horiz-adv-x="684" 
d="M646 627l10 -125l-17 -1q-17 63 -51 94q-58 52 -162 52q-142 0 -217 -93q-67 -83 -67 -202q0 -122 65 -214q39 -55 99 -87t125 -32q46 0 90 16t69.5 42.5t47.5 94.5l16 -5l-15 -122q-87 -58 -231 -58q-156 0 -260.5 99.5t-104.5 247.5t107.5 246.5t268.5 98.5
q113 0 227 -52z" />
    <glyph glyph-name="D" unicode="D" horiz-adv-x="741" 
d="M120 117v433q0 95 -62 95h-23v24l112 -2q25 0 76 2t76 2q180 0 289.5 -94t109.5 -248q0 -148 -104.5 -240.5t-270.5 -92.5q-18 0 -87 3q-23 1 -81 1q-66 0 -122 -2v24h25q62 0 62 95zM207 599v-466q0 -55 19 -77q26 -30 106 -30q127 0 203 94q64 79 64 194
q0 114 -53.5 195.5t-145.5 109.5q-58 18 -137 18q-39 0 -47.5 -6t-8.5 -32z" />
    <glyph glyph-name="E" unicode="E" horiz-adv-x="573" 
d="M207 632v-272h126q45 0 62.5 18.5t19.5 67.5h21q-2 -69 -2 -102q0 -36 2 -104h-21q-2 48 -18.5 66.5t-58.5 18.5h-131v-186q0 -82 55 -98q26 -8 105 -8q89 0 123 19.5t59 84.5h20l-31 -139q-37 2 -115 2h-274q-79 0 -116 -2v24h25q62 0 62 95v433q0 95 -62 95h-25v24
q37 -2 116 -2h226q78 0 116 2l6 -142l-18 -3q-19 108 -115 108h-157z" />
    <glyph glyph-name="F" unicode="F" horiz-adv-x="520" 
d="M207 632v-272h124q49 0 66.5 18t18.5 67h21q-1 -33 -1 -88q0 -58 1 -117h-21q-4 85 -74 85h-135v-208q0 -95 62 -95h31v-24q-57 2 -136 2q-77 0 -131 -2v24h25q62 0 62 95v433q0 95 -62 95h-25v24q59 -2 132 -2h219q71 0 116 2v-140h-20q-8 55 -32.5 79t-73.5 24h-167z
" />
    <glyph glyph-name="G" unicode="G" horiz-adv-x="734" 
d="M653 627l14 -131h-18q-12 63 -54 98q-65 54 -168 54q-127 0 -204.5 -81.5t-77.5 -215.5q0 -137 80.5 -232.5t196.5 -95.5q79 0 143 36v100q0 57 -5 71q-12 29 -59 30q-4 0 -15 1v23q58 -2 111 -2q50 0 120 2l1 -23q-40 -1 -52.5 -18t-12.5 -75v-66q0 -7 1 -15v-7
q-1 -9 1 -14q1 -1 9 -4l6 -3l-2 -15q-166 -54 -269 -54q-151 0 -253.5 98t-102.5 244q0 157 113 254q109 93 264 93q97 0 233 -52z" />
    <glyph glyph-name="H" unicode="H" horiz-adv-x="824" 
d="M617 325h-410v-208q0 -95 62 -95h25v-24l-146 2q-53 0 -115 -2v24h25q62 0 62 95v433q0 95 -62 95h-25v24q54 -2 134 -2q76 0 127 2v-24h-25q-62 0 -62 -95v-190h410v190q0 95 -62 95h-25v24q46 -2 149 -2q75 0 112 2v-24h-25q-62 0 -62 -95v-433q0 -95 62 -95h25v-24
q-62 2 -113 2q-35 0 -148 -2v24h25q62 0 62 95v208z" />
    <glyph glyph-name="I" unicode="I" horiz-adv-x="327" 
d="M207 550v-433q0 -95 62 -95h25v-24l-135 2q-37 0 -126 -2v24h25q62 0 62 95v433q0 95 -62 95h-25v24q56 -2 121 -2q43 0 140 2v-24h-25q-62 0 -62 -95z" />
    <glyph glyph-name="J" unicode="J" horiz-adv-x="313" 
d="M207 550v-501q0 -94 -39 -167q-23 -43 -65.5 -68t-91.5 -25q-43 0 -73 21t-30 50q0 11 17.5 25t31.5 14q16 0 27 -36q13 -43 54 -43q51 0 69 62q13 45 13 133v535q0 95 -62 95h-31v24q44 -2 117 -2q90 0 150 2v-24h-25q-62 0 -62 -95z" />
    <glyph glyph-name="K" unicode="K" horiz-adv-x="655" 
d="M207 340l246 253q15 15 15 29q0 22 -47 25v22q43 -2 105 -2q63 0 108 2l-1 -22q-51 -6 -83 -24q-37 -21 -91 -77l-167 -173l266 -293q53 -58 109 -58h4v-24l-79 2q-10 0 -78 -2l-287 322h-20v-203q0 -95 62 -95h25v-24q-52 2 -125 2q-77 0 -136 -2v24h25q62 0 62 95v433
q0 95 -62 95h-25v24q57 -2 126 -2q50 0 135 2v-24h-25q-62 0 -62 -95v-210z" />
    <glyph glyph-name="L" unicode="L" horiz-adv-x="561" 
d="M573 141l-37 -142l-116 1h-253q-87 0 -134 -2v24h25q62 0 62 95v433q0 95 -62 95h-25v24q42 -2 113 -2q91 0 148 2v-24h-25q-62 0 -62 -95v-391q0 -63 16 -87q26 -39 131 -39q87 0 133 24.5t68 91.5z" />
    <glyph glyph-name="M" unicode="M" horiz-adv-x="900" 
d="M445 109l269 560l73 -2q8 0 72 2v-24q-50 -4 -64.5 -23.5t-14.5 -83.5v-27l10 -402q1 -51 23.5 -69.5t79.5 -17.5v-24l-148 2q-28 0 -139 -2v24q61 2 80 20.5t17 76.5l-2 49l-8 371l-258 -546h-32l-242 533l-29 -384q-1 -13 -1 -34q0 -44 20.5 -63.5t69.5 -22.5v-24
q-57 2 -132 2q-64 0 -107 -2v24q63 0 85.5 25.5t29.5 104.5l34 381q2 22 2 31q0 46 -19.5 63.5t-69.5 17.5v24l81 -2q9 0 75 2z" />
    <glyph glyph-name="N" unicode="N" horiz-adv-x="773" 
d="M167 669l463 -524v405q0 78 -54 91q-15 4 -49 4h-6v24q49 -2 123 -2q68 0 113 2v-24h-6q-41 0 -64.5 -27.5t-23.5 -73.5v-557h-19l-493 561v-285q0 -159 20 -199.5t99 -41.5v-24q-47 2 -116 2q-77 0 -137 -2v24h15q45 0 62 17q23 23 23 78v349q0 88 -5 111.5t-25 40.5
q-31 26 -83 27v24l81 -2q10 0 82 2z" />
    <glyph glyph-name="O" unicode="O" horiz-adv-x="772" 
d="M382 680q138 0 242.5 -98.5t104.5 -244.5q0 -141 -101 -244.5t-239 -103.5q-144 0 -245 102t-101 248q0 136 102 238.5t237 102.5zM371 649q-121 0 -182 -100q-49 -81 -49 -185q0 -126 66 -229q73 -114 192 -114q50 0 97.5 23t75.5 62q59 81 59 202q0 131 -70 236
t-189 105z" />
    <glyph glyph-name="P" unicode="P" horiz-adv-x="533" 
d="M207 637v-520q0 -95 62 -95h25v-24q-41 2 -122 2q-92 0 -139 -2v24h25q62 0 62 95v433q0 95 -62 95h-25v24q61 -2 96 -2q39 0 94 2q28 1 61 1q100 0 162 -50.5t62 -130.5q0 -90 -61.5 -145t-161.5 -55h-23v21q61 4 96 30q60 44 60 130q0 78 -44 123t-120 45q-28 0 -47 -1
z" />
    <glyph glyph-name="Q" unicode="Q" horiz-adv-x="771" 
d="M749 -144l9 -13q-46 -50 -97 -50q-43 0 -93 35q-8 5 -64 55q-87 77 -108 91t-54 19q-94 15 -164 68q-135 103 -135 272q0 141 101 244t238 103q139 0 243 -99t104 -245q0 -144 -101 -245q-54 -54 -146 -90q24 -16 163 -119q47 -36 65 -36t39 10zM370 649q-104 0 -166 -79
t-62 -212q0 -125 66 -225q75 -113 188 -113q112 0 178 87q56 73 56 196q0 140 -69.5 243t-190.5 103z" />
    <glyph glyph-name="R" unicode="R" horiz-adv-x="651" 
d="M207 325v-208q0 -95 62 -95h25v-24q-52 2 -125 2q-78 0 -136 -2v24h25q62 0 62 95v433q0 95 -62 95h-25v24l105 -2q5 0 29.5 1t42.5 1l78 1q103 1 164 -40q65 -44 65 -124q0 -74 -51 -121q-25 -23 -83 -47l157 -227q62 -89 141 -89v-24q-36 2 -81 2q-8 0 -70 -2
q-55 38 -114 132l-120 191h-27q-16 0 -39 2q-6 0 -23 2zM207 634v-276q37 -8 61 -8q68 0 114 41.5t46 103.5q0 61 -47.5 101.5t-120.5 40.5q-14 0 -53 -3z" />
    <glyph glyph-name="S" unicode="S" horiz-adv-x="468" 
d="M389 656l12 -114h-17q-16 50 -41 73q-35 32 -88 32q-52 0 -87.5 -32t-35.5 -79q0 -49 33 -88q22 -27 91 -64q99 -54 135 -97t36 -107q0 -83 -62 -138.5t-156 -55.5q-103 0 -171 45l-11 132h15q25 -67 54 -97q44 -46 113 -46q56 0 95.5 38.5t39.5 93.5q0 43 -26 74.5
t-90 66.5q-87 48 -118 80q-52 55 -52 130q0 77 56 127t143 50q57 0 132 -24z" />
    <glyph glyph-name="T" unicode="T" horiz-adv-x="629" 
d="M272 632h-138q-60 0 -85.5 -17.5t-34.5 -64.5h-20q11 78 12 140h21q14 -23 47 -23h481q33 0 47 23h21q1 -62 12 -140h-20q-9 47 -34.5 64.5t-85.5 17.5h-138v-515q0 -95 62 -95h33v-24q-54 2 -138 2q-83 0 -137 -2v24h33q62 0 62 95v515z" />
    <glyph glyph-name="U" unicode="U" horiz-adv-x="737" 
d="M201 550v-291q0 -115 52.5 -177t149.5 -62q96 0 142 64q24 33 30 78q4 24 4 85v303q0 95 -62 95h-25v24q34 -2 82 -2q35 0 137 2v-24h-25q-62 0 -62 -95v-302q0 -72 -6 -99q-10 -47 -47 -87q-70 -75 -201 -75q-132 0 -199 68q-57 58 -57 185v310q0 95 -62 95h-25v24
q48 -2 124 -2q83 0 137 2v-24h-25q-62 0 -62 -95z" />
    <glyph glyph-name="V" unicode="V" horiz-adv-x="616" 
d="M344 127l158 413q14 37 14 58q0 44 -74 47v24q41 -2 114 -2q49 0 77 2v-24q-32 -4 -48.5 -25.5t-45.5 -96.5l-208 -540h-30l-214 557q-23 59 -41.5 80.5t-47.5 23.5l-18 1v24q44 -2 112 -2q78 0 129 2v-24q-36 -1 -47 -5q-16 -6 -16 -21q0 -14 15 -53z" />
    <glyph glyph-name="W" unicode="W" horiz-adv-x="900" 
d="M484 281l-143 -298h-17l-226 554q-31 77 -48.5 92.5t-66.5 15.5h-3v24q58 -2 127 -2q62 0 108 2v-24q-28 -1 -36 -4q-18 -6 -18 -26q0 -4 19 -52l184 -467l102 228l-93 213q-31 70 -50 89t-61 19v24q45 -2 102 -2q48 0 115 2v-24q-47 0 -47 -22q0 -10 16 -46l63 -143
l55 129q13 30 13 54q0 28 -65 28v24q33 -2 83 -2q62 0 100 2v-24h-16q-24 0 -40.5 -19.5t-44.5 -81.5l-67 -149l119 -290l159 458q11 32 11 46q0 25 -22 33q-13 4 -45 5v22q31 -2 84 -2q51 0 82 2v-24q-29 -2 -40 -16.5t-37 -84.5l-207 -561h-17z" />
    <glyph glyph-name="X" unicode="X" horiz-adv-x="667" 
d="M341 396l89 117q61 80 61 106q0 16 -11.5 20.5t-47.5 5.5v24q74 -2 115 -2q57 0 108 2v-24q-45 2 -75.5 -17t-74.5 -76l-142 -182l190 -248q51 -67 75 -83q15 -10 56 -17v-24q-47 2 -114 2q-74 0 -129 -2v24q51 1 51 24q0 13 -27 49l-154 203l-146 -193q-27 -36 -27 -50
q0 -33 69 -33v-24q-79 2 -114 2t-108 -2v24q42 4 69 19t56 54l177 233l-177 231q-41 54 -62 68t-63 18v24q78 -2 121 -2q39 0 136 2v-24h-21q-40 0 -40 -25q0 -16 17 -38z" />
    <glyph glyph-name="Y" unicode="Y" horiz-adv-x="585" 
d="M324 376l136 185q23 31 23 54q0 30 -62 30v24q47 -2 106 -2q52 0 88 2v-24q-40 -2 -68 -29q-10 -10 -48 -60l-160 -214v-225q0 -95 62 -95h25v-24q-77 2 -124 2q-46 0 -128 -2v24h16q62 0 62 95v209l-172 230q-65 86 -111 89v24q56 -2 118 -2q61 0 112 2v-24
q-52 0 -52 -21q0 -19 18 -42z" />
    <glyph glyph-name="Z" unicode="Z" horiz-adv-x="629" 
d="M133 35h354q37 0 57 8t42 34q26 31 45 76h17l-44 -155q-44 2 -116 2h-490l477 632h-257q-89 0 -120.5 -18.5t-53.5 -83.5h-17l28 145h18q7 -8 20 -8h518z" />
    <glyph glyph-name="bracketleft" unicode="[" horiz-adv-x="289" 
d="M67 -147v877l93 -2q11 0 93 2v-23q-92 0 -108 -7t-16 -47v-723q0 -40 16 -47t108 -6v-24l-93 2q-11 0 -93 -2z" />
    <glyph glyph-name="backslash" unicode="\" horiz-adv-x="493" 
d="M25 730h48l452 -877h-48z" />
    <glyph glyph-name="bracketright" unicode="]" horiz-adv-x="289" 
d="M223 730v-877l-93 2q-11 0 -93 -2v24q92 -1 108 6t16 47v723q0 40 -15.5 47t-108.5 7v23l93 -2q11 0 93 2z" />
    <glyph glyph-name="asciicircum" unicode="^" 
d="M524 286h-38l-202 312l-209 -312h-100l277 414h6z" />
    <glyph glyph-name="underscore" unicode="_" 
d="M23 -88h455v-43h-455v43z" />
    <glyph glyph-name="grave" unicode="`" 
d="M278 481l-11 -10l-160 145q-20 18 -20 32q0 10 9 18.5t20 8.5q16 0 30 -19z" />
    <glyph glyph-name="a" unicode="a" horiz-adv-x="438" 
d="M434 45l10 -12q-42 -47 -89 -47q-30 0 -48 22q-13 16 -18 53q-83 -74 -149 -74q-40 0 -69.5 26t-29.5 61q0 61 92 102q50 22 153 58v34q0 56 -22 81.5t-64 25.5q-38 0 -62 -22q-14 -13 -23 -50q-3 -14 -20 -23q-26 -14 -38 -14q-18 0 -18 24q0 45 105 96q84 41 113 41
q35 0 63 -18q39 -25 39 -84v-206q0 -84 42 -84q13 0 33 10zM286 84v124q-55 -16 -100 -34q-67 -27 -67 -76q0 -28 21 -47.5t50 -19.5q23 0 39.5 9t56.5 44z" />
    <glyph glyph-name="b" unicode="b" horiz-adv-x="517" 
d="M143 727v-375q85 74 152 74q76 0 127.5 -56t51.5 -139t-52 -153q-67 -91 -174 -91q-65 0 -130 21q-18 4 -19 4q-9 0 -17 -12h-12v573q0 48 -4 59q-10 25 -48 28v22q61 12 116 48zM143 332v-179q0 -59 18 -89q33 -54 97 -54q62 0 101 49t39 125q0 78 -45.5 132t-111.5 54
q-42 0 -98 -38z" />
    <glyph glyph-name="c" unicode="c" horiz-adv-x="433" 
d="M397 90l14 -14q-88 -90 -177 -90q-77 0 -134 62.5t-57 146.5q0 97 69 164t168 67q53 0 96 -17.5t43 -39.5q0 -16 -13 -32.5t-26 -16.5q-14 0 -29 21q-45 61 -99 61q-55 0 -93.5 -49.5t-38.5 -120.5q0 -77 49.5 -130t121.5 -53q58 0 106 41z" />
    <glyph glyph-name="d" unicode="d" horiz-adv-x="537" 
d="M378 -11v66q-82 -69 -156 -69t-127 54.5t-53 130.5q0 95 56 162q78 93 189 93q52 0 91 -23v170q0 48 -4 59q-10 25 -48 28v22q62 13 116 48l9 -3v-627q0 -33 2 -41q6 -23 28 -23q9 0 36 3v-20q-73 -11 -130 -32zM378 115v195q0 38 -27 60q-38 31 -81 31q-36 0 -70 -19.5
t-54 -51.5q-27 -43 -27 -112q0 -76 48.5 -130.5t115.5 -54.5q42 0 68.5 22.5t26.5 59.5z" />
    <glyph glyph-name="e" unicode="e" horiz-adv-x="447" 
d="M341 272h-224q-2 -32 -2 -39q0 -83 44.5 -138t111.5 -55q63 0 132 54l11 -13q-95 -94 -184 -94q-83 0 -135.5 57t-52.5 148q0 102 57 168.5t145 66.5q70 0 119 -39t49 -95q0 -15 -9.5 -18t-61.5 -3zM119 295h177q36 0 36 29q0 32 -27 56t-64 24q-67 0 -102 -54
q-14 -21 -20 -55z" />
    <glyph glyph-name="f" unicode="f" horiz-adv-x="308" 
d="M165 370v-293q0 -33 7 -44q9 -15 38 -15h55v-20q-42 2 -117 2q-79 0 -123 -2v20h22q29 0 38 15q7 11 7 44v293h-61v15q36 8 47 22q8 9 12 36q1 7 8 83q6 70 67.5 137.5t119.5 67.5q21 0 40.5 -10t19.5 -21q0 -15 -13.5 -34t-23.5 -19q-7 0 -19 7q-26 16 -45 16
q-55 0 -70 -55q-9 -33 -9 -110v-92h136v-43h-136z" />
    <glyph glyph-name="g" unicode="g" horiz-adv-x="460" 
d="M465 361h-102q23 -34 23 -74q0 -59 -49 -100.5t-118 -41.5q-19 0 -51 4q-39 -26 -39 -50q0 -27 31 -35q23 -6 87 -6h24q15 0 39 1h28q130 0 130 -95q0 -68 -77.5 -119t-181.5 -51q-80 0 -132.5 29.5t-52.5 74.5q0 69 107 99q-33 13 -48 26q-32 22 -32 53q0 10 11 37
q43 18 77 45q-98 35 -98 123q0 62 51.5 103.5t127.5 41.5q53 0 123 -33l122 6v-38zM211 402q-41 0 -67.5 -31.5t-26.5 -79.5q0 -52 29 -88t72 -36q42 0 66.5 32t24.5 86q0 53 -27 85t-71 32zM286 -7q-101 0 -136 -11q-22 -7 -37 -26t-15 -40q0 -40 42 -66.5t104 -26.5
q70 0 118 30.5t48 74.5q0 19 -13 33q-30 32 -111 32z" />
    <glyph glyph-name="h" unicode="h" horiz-adv-x="517" 
d="M158 727v-381q89 81 153 81q53 0 89 -42t36 -105v-203q0 -33 7 -44q9 -15 38 -15h22v-20q-42 2 -110 2q-53 0 -83 -2v20h8q29 0 38 15q7 11 7 44v138q0 56 -3 75.5t-16 40.5q-24 41 -69 41q-57 0 -117 -52v-243q0 -33 7 -44q9 -15 38 -15h22v-20q-38 2 -97 2
q-65 0 -109 -2v20h22q29 0 38 15q7 11 7 44v496q0 48 -4 59q-10 25 -48 28v22q59 13 115 48z" />
    <glyph glyph-name="i" unicode="i" horiz-adv-x="246" 
d="M161 434v-357q0 -33 7 -44q9 -15 38 -15h22v-20q-38 2 -97 2q-65 0 -109 -2v20h22q29 0 38 15q7 11 7 44v203q0 48 -4 59q-10 25 -48 28v21q55 12 115 48zM127 654q18 0 31 -13t13 -31q0 -19 -13 -32t-31 -13q-19 0 -32 13t-13 32q0 18 13 31t32 13z" />
    <glyph glyph-name="j" unicode="j" horiz-adv-x="219" 
d="M33 367v21q57 12 115 48l9 -2v-427q0 -80 -34.5 -129.5t-114.5 -70.5l-7 17q55 19 70 59q14 37 14 76v321q0 48 -4 59q-10 25 -48 28zM123 654q18 0 31 -13t13 -31q0 -19 -13 -32t-31 -13q-19 0 -32 13t-13 32q0 18 13 31t32 13z" />
    <glyph glyph-name="k" unicode="k" horiz-adv-x="476" 
d="M147 727v-498q5 1 15.5 3t15.5 7q15 15 50 45l66 58q20 18 20 29q0 20 -43 24v20q45 -2 94 -2q48 0 91 2v-20q-48 -3 -115 -60l-108 -91l151 -167q33 -30 49 -40q28 -18 59 -19v-20q-64 2 -72 2q-9 0 -65 -2l-190 208h-18v-129q0 -33 7 -44q9 -15 38 -15h22v-20
q-46 2 -101 2q-57 0 -106 -2v20h22q29 0 38 15q7 11 7 44v496q0 48 -4 59q-10 25 -48 28v22q62 13 116 48z" />
    <glyph glyph-name="l" unicode="l" horiz-adv-x="244" 
d="M34 661v21q62 13 116 48l9 -3v-650q0 -33 7 -44q9 -15 38 -15h22v-20q-46 2 -101 2q-58 0 -106 -2v20h22q29 0 38 15q7 11 7 44v496q0 48 -4 59q-10 26 -48 29z" />
    <glyph glyph-name="m" unicode="m" horiz-adv-x="787" 
d="M161 433v-72q97 65 163 65q69 0 105 -71q66 40 88 51q42 21 82 21q50 0 78 -33.5t28 -94.5v-222q0 -33 7 -44q9 -15 38 -15h22v-20q-70 2 -112 2q-53 0 -95 -2v20h22q29 0 38 15q7 11 7 44v187q0 56 -20 82q-25 33 -66 33q-35 0 -114 -47v-255q0 -33 7 -44q9 -15 38 -15
h22v-20q-63 2 -104 2q-38 0 -103 -2v20h22q29 0 38 15q7 11 7 44v189q0 52 -23.5 81.5t-64.5 29.5q-52 0 -110 -43v-257q0 -33 7 -44q9 -15 38 -15h22v-20q-38 2 -97 2q-65 0 -109 -2v20h22q29 0 38 15q7 11 7 44v203q0 47 -4 59q-10 25 -48 28v21q55 12 115 48z" />
    <glyph glyph-name="n" unicode="n" horiz-adv-x="525" 
d="M161 433v-78q98 71 175 71q47 0 77 -35.5t30 -91.5v-222q0 -33 7 -44q9 -15 38 -15h22v-20q-52 2 -106 2q-52 0 -100 -2v20h22q29 0 38 15q7 11 7 44v188q0 54 -19 79q-25 32 -75 32q-52 0 -116 -43v-256q0 -33 7 -44q9 -15 38 -15h22v-20q-38 2 -97 2q-65 0 -109 -2v20
h22q29 0 38 15q7 11 7 44v203q0 47 -4 59q-10 25 -48 28v21q55 12 115 48z" />
    <glyph glyph-name="o" unicode="o" horiz-adv-x="539" 
d="M271 426q92 0 158 -64.5t66 -153.5q0 -91 -66 -156t-158 -65q-97 0 -162.5 65t-65.5 161q0 88 58 146q67 67 170 67zM261 401q-61 0 -97.5 -48t-36.5 -129q0 -74 31 -131q44 -81 121 -81q60 0 95.5 48.5t35.5 129.5q0 91 -42 151t-107 60z" />
    <glyph glyph-name="p" unicode="p" horiz-adv-x="532" 
d="M34 367v21q56 12 114 48l9 -3v-83q28 33 72 55t83 22q73 0 125 -58t52 -141q0 -93 -73 -167t-165 -74q-47 0 -94 15v-141q0 -33 8 -44q9 -15 38 -15h36v-20q-55 2 -124 2q-57 0 -95 -2v20h20q29 0 38 15q7 11 7 44l-1 449q-2 31 -12 43.5t-38 13.5zM157 326v-200
q0 -59 20 -81q29 -32 86 -32q67 0 107.5 47.5t40.5 127.5q0 84 -41 135t-108 51q-60 0 -105 -48z" />
    <glyph glyph-name="q" unicode="q" horiz-adv-x="509" 
d="M374 -139v177q-87 -52 -151 -52q-77 0 -128.5 56t-51.5 141q0 97 74 170t172 73q37 0 106 -26l43 36l9 -3v-572q0 -33 7 -44q9 -15 38 -15h24v-20l-109 2q-22 0 -114 -2v20h36q29 0 38 15q7 11 7 44zM372 60v216q0 66 -17 88q-30 40 -93 40q-61 0 -103 -52t-42 -128
q0 -79 50.5 -134.5t121.5 -55.5q51 0 83 26z" />
    <glyph glyph-name="r" unicode="r" horiz-adv-x="343" 
d="M161 433v-93q73 91 131 91q46 0 46 -41q0 -24 -12 -40t-31 -16q-11 0 -26.5 11.5t-32.5 11.5q-30 0 -52.5 -23.5t-22.5 -55.5v-201q0 -33 7 -44q9 -15 38 -15h48v-20l-135 2q-55 0 -97 -2v20h22q29 0 38 15q7 11 7 44v203q0 47 -4 59q-10 25 -48 28v21q55 12 115 48z" />
    <glyph glyph-name="s" unicode="s" horiz-adv-x="365" 
d="M314 401v-90h-17q-14 40 -23 54q-27 40 -84 40q-30 0 -51 -20t-21 -49q0 -24 15.5 -39.5t57.5 -35.5q81 -38 110.5 -68.5t29.5 -76.5q0 -55 -45 -92.5t-111 -37.5q-74 0 -128 40l-5 105h16q25 -118 123 -118q35 0 57.5 20.5t22.5 52.5q0 29 -21.5 49.5t-83.5 50.5
q-51 25 -72 47q-31 33 -31 75q0 50 40.5 84.5t99.5 34.5q54 0 121 -26z" />
    <glyph glyph-name="t" unicode="t" horiz-adv-x="303" 
d="M159 413h140v-43h-144v-262q0 -75 63 -75q33 0 69 23l9 -13q-61 -56 -118 -56q-59 0 -82 43q-10 19 -10 96v244h-55v17q73 53 119 121l9 -2v-93z" />
    <glyph glyph-name="u" unicode="u" horiz-adv-x="499" 
d="M352 -11v74q-95 -76 -165 -76q-32 0 -60 15.5t-39 40.5q-14 31 -14 78v204q0 38 -8 52q-11 17 -47 26v17q82 3 119 16l9 -2v-305q0 -43 23.5 -68.5t62.5 -25.5q49 0 119 66v224q0 39 -10 54.5t-47 23.5v17q77 2 120 16l9 -2v-349q0 -30 5 -41t22 -11q8 0 40 5v-20
q-47 -10 -130 -31z" />
    <glyph glyph-name="v" unicode="v" horiz-adv-x="406" 
d="M227 96l88 220q11 28 11 43q0 35 -53 36v20q34 -2 73 -2t75 2v-20q-27 -2 -41 -16q-17 -16 -34 -59l-136 -337h-18l-136 352q-14 36 -27.5 48t-39.5 12v20q44 -2 84 -2q23 0 101 2v-20q-47 -3 -47 -30q0 -4 12 -36z" />
    <glyph glyph-name="w" unicode="w" horiz-adv-x="691" 
d="M228 89l95 236l-12 25q-11 23 -22.5 31.5t-37.5 13.5v20q67 -2 96 -2q27 0 91 2v-20q-50 -4 -50 -24q0 -8 9 -30l101 -252l91 241q7 19 7 30q0 23 -19 30q-11 4 -39 5v20q56 -2 83 -2q25 0 85 2v-20q-36 -2 -54.5 -17t-32.5 -52l-134 -343h-25l-121 301l-122 -301h-25
l-140 350q-13 33 -24.5 44t-38.5 18v20q43 -2 87 -2q43 0 85 2v-20q-43 -3 -43 -22q0 -10 9 -32z" />
    <glyph glyph-name="x" unicode="x" horiz-adv-x="464" 
d="M246 251l83 98q12 14 12 24q0 17 -41 22v20q56 -2 83 -2q40 0 83 2v-20q-62 -6 -97 -46l-105 -120l114 -144q32 -40 52 -54q17 -12 41 -13v-20q-68 2 -105 2q-52 0 -97 -2v20h4q36 0 36 29q0 12 -9 23l-85 105l-93 -105q-16 -18 -16 -28q0 -23 47 -24v-20q-68 2 -94 2
q-39 0 -72 -2v20q61 3 102 52l107 127l-103 129q-36 45 -51.5 56t-42.5 13v20q67 -2 99 -2q31 0 95 2v-20q-42 -3 -42 -18q0 -8 16 -28z" />
    <glyph glyph-name="y" unicode="y" horiz-adv-x="408" 
d="M221 109l89 199q13 29 13 51q0 34 -53 36v20q56 -2 78 -2q21 0 78 2v-20q-29 -1 -45.5 -16t-33.5 -54l-212 -478q-25 -57 -59 -57q-19 0 -34 15t-15 35t13 33.5t32 13.5q10 0 22 -6t16 -6q8 0 13 12l58 129l-121 309q-16 41 -29.5 54.5t-41.5 15.5v20q43 -2 89 -2
q30 0 96 2v-20q-51 -4 -51 -30q0 -9 3 -17z" />
    <glyph glyph-name="z" unicode="z" horiz-adv-x="385" 
d="M119 30h75q69 0 92 2q27 2 41.5 17t43.5 72l18 -5l-25 -116h-351l243 383h-128q-40 0 -52.5 -9t-33.5 -55h-16l14 115h18q4 -21 33 -21h273z" />
    <glyph glyph-name="braceleft" unicode="{" 
d="M104 311v15q56 3 77.5 21.5t21.5 64.5q0 16 -1 43t-1 83q0 75 10 110t38 54q17 12 38.5 15t95.5 4q4 0 18 1v-22q-61 -1 -88.5 -15t-38.5 -49q-8 -26 -8 -66v-152q0 -82 -76 -98v-3q51 -10 69 -58q8 -21 8 -147v-29v-20q-1 -11 -1 -12q0 -81 23 -109q27 -33 112 -33v-22
q-78 2 -96 3t-33 6q-72 24 -72 139q0 11 2 73q1 72 2 116q1 46 -22 65.5t-78 21.5z" />
    <glyph glyph-name="bar" unicode="|" 
d="M223 667h54v-834h-54v834z" />
    <glyph glyph-name="braceright" unicode="}" 
d="M396 326v-15q-57 -3 -78.5 -21t-20.5 -63l3 -193q2 -120 -80 -140q-20 -5 -121 -7v22q62 -1 91 15t38 56q5 19 5 65l1 157q-1 100 76 115v3q-56 11 -71 62q-5 17 -5 60v148q0 62 -30 85.5t-105 24.5v22q10 -1 18 -1h40q48 0 72 -8q34 -12 52 -46.5t18 -128.5
q0 -53 -1 -79t-1 -48q0 -45 21.5 -63.5t77.5 -21.5z" />
    <glyph glyph-name="asciitilde" unicode="~" horiz-adv-x="667" 
d="M529 734l14 -9q-24 -43 -62 -69.5t-74 -26.5q-18 0 -93 24q-56 18 -86 18t-52 -17q-12 -9 -39 -41l-14 9q59 97 138 97q25 0 90 -22q53 -18 80 -18q54 0 98 55z" />
    <glyph glyph-name="Adieresis" unicode="&#xc4;" horiz-adv-x="632" 
d="M402 249h-221l-50 -164q-3 -10 -3 -19q0 -22 14 -30.5t71 -13.5v-24q-55 2 -129 2q-56 0 -91 -2v24q43 2 64 23q18 17 34 63l179 507l-10 29q29 19 50 46q9 12 16 12q9 0 13 -10l214 -600q14 -39 34.5 -54t57.5 -16v-24q-52 2 -118 2q-67 0 -123 -2v24l22 1q42 2 42 28
q0 10 -8 33zM387 284l-100 288l-93 -288h193zM417 867q19 0 32.5 -14t13.5 -33t-13.5 -33t-33.5 -14q-19 0 -33 14t-14 33q0 20 14 33.5t34 13.5zM224 867q19 0 32.5 -14t13.5 -33t-13.5 -33t-33.5 -14q-19 0 -33 14t-14 33q0 20 14 33.5t34 13.5z" />
    <glyph glyph-name="Aring" unicode="&#xc5;" horiz-adv-x="632" 
d="M402 249h-221l-50 -164q-3 -10 -3 -19q0 -22 14 -30.5t71 -13.5v-24q-55 2 -129 2q-56 0 -91 -2v24q43 2 64 23q18 17 34 63l179 507l-10 29q29 19 50 46q9 12 16 12q9 0 13 -10l214 -600q14 -39 34.5 -54t57.5 -16v-24q-52 2 -118 2q-67 0 -123 -2v24l22 1q42 2 42 28
q0 10 -8 33zM387 284l-100 288l-93 -288h193zM313 907q34 0 59.5 -26t25.5 -61q0 -36 -25.5 -61.5t-61.5 -25.5q-35 0 -60.5 25.5t-25.5 61.5t25.5 61.5t62.5 25.5zM312 877q-24 0 -40.5 -16.5t-16.5 -40.5q0 -23 16.5 -40t39.5 -17t40 17t17 40t-16.5 40t-39.5 17z" />
    <glyph glyph-name="Ccedilla" unicode="&#xc7;" horiz-adv-x="684" 
d="M654 167l-15 -122q-33 -25 -97.5 -41.5t-132.5 -16.5q-14 -13 -14 -22q0 -10 25 -43q32 -42 32 -63q0 -23 -26 -51q-34 -37 -75 -37q-64 0 -64 39q0 27 27 27q12 0 33 -13q25 -16 36 -16q8 0 15.5 7.5t7.5 15.5t-19 35q-4 5 -27 38q-18 26 -18 39q0 18 32 45
q-145 12 -238 109.5t-93 236.5q0 148 107.5 246.5t268.5 98.5q113 0 227 -52l10 -125l-17 -1q-17 63 -51 94q-58 52 -162 52q-142 0 -217 -93q-67 -83 -67 -202q0 -122 65 -214q39 -55 99 -87t125 -32q46 0 90 16t69.5 42.5t47.5 94.5z" />
    <glyph glyph-name="Eacute" unicode="&#xc9;" horiz-adv-x="573" 
d="M207 632v-272h126q45 0 62.5 18.5t19.5 67.5h21q-2 -69 -2 -102q0 -36 2 -104h-21q-2 48 -18.5 66.5t-58.5 18.5h-131v-186q0 -82 55 -98q26 -8 105 -8q89 0 123 19.5t59 84.5h20l-31 -139q-37 2 -115 2h-274q-79 0 -116 -2v24h25q62 0 62 95v433q0 95 -62 95h-25v24
q37 -2 116 -2h226q78 0 116 2l6 -142l-18 -3q-19 108 -115 108h-157zM252 756l174 134q13 10 28 10q27 0 27 -26q0 -19 -17 -28l-201 -105z" />
    <glyph glyph-name="Ntilde" unicode="&#xd1;" horiz-adv-x="773" 
d="M167 669l463 -524v405q0 78 -54 91q-15 4 -49 4h-6v24q49 -2 123 -2q68 0 113 2v-24h-6q-41 0 -64.5 -27.5t-23.5 -73.5v-557h-19l-493 561v-285q0 -159 20 -199.5t99 -41.5v-24q-47 2 -116 2q-77 0 -137 -2v24h15q45 0 62 17q23 23 23 78v349q0 88 -5 111.5t-25 40.5
q-31 26 -83 27v24l81 -2q10 0 82 2zM267 776l-18 6q29 87 90 87q35 0 88.5 -24.5t73.5 -24.5q29 0 53 43l18 -4q-24 -88 -93 -88q-27 0 -76 20l-11 4q-58 24 -73 24q-23 0 -52 -43z" />
    <glyph glyph-name="Odieresis" unicode="&#xd6;" horiz-adv-x="772" 
d="M382 680q138 0 242.5 -98.5t104.5 -244.5q0 -141 -101 -244.5t-239 -103.5q-144 0 -245 102t-101 248q0 136 102 238.5t237 102.5zM371 649q-121 0 -182 -100q-49 -81 -49 -185q0 -126 66 -229q73 -114 192 -114q50 0 97.5 23t75.5 62q59 81 59 202q0 131 -70 236
t-189 105zM487 867q19 0 32.5 -14t13.5 -33t-13.5 -33t-33.5 -14q-19 0 -33 14t-14 33q0 20 14 33.5t34 13.5zM294 867q19 0 32.5 -14t13.5 -33t-13.5 -33t-33.5 -14q-19 0 -33 14t-14 33q0 20 14 33.5t34 13.5z" />
    <glyph glyph-name="Udieresis" unicode="&#xdc;" horiz-adv-x="737" 
d="M201 550v-291q0 -115 52.5 -177t149.5 -62q96 0 142 64q24 33 30 78q4 24 4 85v303q0 95 -62 95h-25v24q34 -2 82 -2q35 0 137 2v-24h-25q-62 0 -62 -95v-302q0 -72 -6 -99q-10 -47 -47 -87q-70 -75 -201 -75q-132 0 -199 68q-57 58 -57 185v310q0 95 -62 95h-25v24
q48 -2 124 -2q83 0 137 2v-24h-25q-62 0 -62 -95zM487 867q19 0 32.5 -14t13.5 -33t-13.5 -33t-33.5 -14q-19 0 -33 14t-14 33q0 20 14 33.5t34 13.5zM294 867q19 0 32.5 -14t13.5 -33t-13.5 -33t-33.5 -14q-19 0 -33 14t-14 33q0 20 14 33.5t34 13.5z" />
    <glyph glyph-name="aacute" unicode="&#xe1;" horiz-adv-x="438" 
d="M434 45l10 -12q-42 -47 -89 -47q-30 0 -48 22q-13 16 -18 53q-83 -74 -149 -74q-40 0 -69.5 26t-29.5 61q0 61 92 102q50 22 153 58v34q0 56 -22 81.5t-64 25.5q-38 0 -62 -22q-14 -13 -23 -50q-3 -14 -20 -23q-26 -14 -38 -14q-18 0 -18 24q0 45 105 96q84 41 113 41
q35 0 63 -18q39 -25 39 -84v-206q0 -84 42 -84q13 0 33 10zM286 84v124q-55 -16 -100 -34q-67 -27 -67 -76q0 -28 21 -47.5t50 -19.5q23 0 39.5 9t56.5 44zM241 471l-10 10l131 175q14 19 30 19q29 0 29 -27q0 -15 -19 -32z" />
    <glyph glyph-name="agrave" unicode="&#xe0;" horiz-adv-x="438" 
d="M434 45l10 -12q-42 -47 -89 -47q-30 0 -48 22q-13 16 -18 53q-83 -74 -149 -74q-40 0 -69.5 26t-29.5 61q0 61 92 102q50 22 153 58v34q0 56 -22 81.5t-64 25.5q-38 0 -62 -22q-14 -13 -23 -50q-3 -14 -20 -23q-26 -14 -38 -14q-18 0 -18 24q0 45 105 96q84 41 113 41
q35 0 63 -18q39 -25 39 -84v-206q0 -84 42 -84q13 0 33 10zM286 84v124q-55 -16 -100 -34q-67 -27 -67 -76q0 -28 21 -47.5t50 -19.5q23 0 39.5 9t56.5 44zM267 481l-11 -10l-160 145q-20 18 -20 32q0 10 9 18.5t20 8.5q16 0 30 -19z" />
    <glyph glyph-name="acircumflex" unicode="&#xe2;" horiz-adv-x="438" 
d="M434 45l10 -12q-42 -47 -89 -47q-30 0 -48 22q-13 16 -18 53q-83 -74 -149 -74q-40 0 -69.5 26t-29.5 61q0 61 92 102q50 22 153 58v34q0 56 -22 81.5t-64 25.5q-38 0 -62 -22q-14 -13 -23 -50q-3 -14 -20 -23q-26 -14 -38 -14q-18 0 -18 24q0 45 105 96q84 41 113 41
q35 0 63 -18q39 -25 39 -84v-206q0 -84 42 -84q13 0 33 10zM286 84v124q-55 -16 -100 -34q-67 -27 -67 -76q0 -28 21 -47.5t50 -19.5q23 0 39.5 9t56.5 44zM236 609l-108 -138l-14 9l122 224l114 -224l-14 -9z" />
    <glyph glyph-name="adieresis" unicode="&#xe4;" horiz-adv-x="438" 
d="M434 45l10 -12q-42 -47 -89 -47q-30 0 -48 22q-13 16 -18 53q-83 -74 -149 -74q-40 0 -69.5 26t-29.5 61q0 61 92 102q50 22 153 58v34q0 56 -22 81.5t-64 25.5q-38 0 -62 -22q-14 -13 -23 -50q-3 -14 -20 -23q-26 -14 -38 -14q-18 0 -18 24q0 45 105 96q84 41 113 41
q35 0 63 -18q39 -25 39 -84v-206q0 -84 42 -84q13 0 33 10zM286 84v124q-55 -16 -100 -34q-67 -27 -67 -76q0 -28 21 -47.5t50 -19.5q23 0 39.5 9t56.5 44zM329 614q17 0 30 -13t13 -31t-13 -31t-31 -13t-31 13t-13 31t13 31t32 13zM148 614q17 0 30 -13t13 -31t-13 -31
t-31 -13t-31 13t-13 31t13 31t32 13z" />
    <glyph glyph-name="atilde" unicode="&#xe3;" horiz-adv-x="438" 
d="M434 45l10 -12q-42 -47 -89 -47q-30 0 -48 22q-13 16 -18 53q-83 -74 -149 -74q-40 0 -69.5 26t-29.5 61q0 61 92 102q50 22 153 58v34q0 56 -22 81.5t-64 25.5q-38 0 -62 -22q-14 -13 -23 -50q-3 -14 -20 -23q-26 -14 -38 -14q-18 0 -18 24q0 45 105 96q84 41 113 41
q35 0 63 -18q39 -25 39 -84v-206q0 -84 42 -84q13 0 33 10zM286 84v124q-55 -16 -100 -34q-67 -27 -67 -76q0 -28 21 -47.5t50 -19.5q23 0 39.5 9t56.5 44zM114 525l-19 7q31 90 86 90q25 0 114 -42q23 -11 35 -11q27 0 54 49l19 -8q-34 -92 -86 -92q-27 0 -75 25
q-56 29 -72 29q-33 0 -56 -47z" />
    <glyph glyph-name="aring" unicode="&#xe5;" horiz-adv-x="438" 
d="M434 45l10 -12q-42 -47 -89 -47q-30 0 -48 22q-13 16 -18 53q-83 -74 -149 -74q-40 0 -69.5 26t-29.5 61q0 61 92 102q50 22 153 58v34q0 56 -22 81.5t-64 25.5q-38 0 -62 -22q-14 -13 -23 -50q-3 -14 -20 -23q-26 -14 -38 -14q-18 0 -18 24q0 45 105 96q84 41 113 41
q35 0 63 -18q39 -25 39 -84v-206q0 -84 42 -84q13 0 33 10zM286 84v124q-55 -16 -100 -34q-67 -27 -67 -76q0 -28 21 -47.5t50 -19.5q23 0 39.5 9t56.5 44zM233 657q35 0 60 -25.5t25 -60.5q0 -36 -25.5 -61.5t-61.5 -25.5q-35 0 -60.5 25.5t-25.5 60.5q0 37 25.5 62
t62.5 25zM232 627q-24 0 -40.5 -16.5t-16.5 -40.5q0 -22 17 -39t39 -17q23 0 40 17t17 40t-16.5 39.5t-39.5 16.5z" />
    <glyph glyph-name="ccedilla" unicode="&#xe7;" horiz-adv-x="433" 
d="M397 90l14 -14q-72 -75 -153 -88q-12 -11 -12 -19q0 -10 24 -41q29 -38 29 -58q0 -19 -24 -46q-31 -34 -69 -34q-58 0 -58 35q0 24 24 24q10 0 30 -12q25 -15 34 -15q8 0 15.5 7.5t7.5 14.5q0 10 -18 34q-2 3 -25 35q-17 24 -17 36q0 16 26 38q-76 5 -129 66t-53 143
q0 96 69 163t168 67q53 0 96 -17.5t43 -39.5q0 -16 -13 -32.5t-26 -16.5q-14 0 -29 21q-45 61 -99 61q-55 0 -93.5 -49.5t-38.5 -119.5q0 -77 49.5 -130t121.5 -53q57 0 106 40z" />
    <glyph glyph-name="eacute" unicode="&#xe9;" horiz-adv-x="447" 
d="M341 272h-224q-2 -32 -2 -39q0 -83 44.5 -138t111.5 -55q63 0 132 54l11 -13q-95 -94 -184 -94q-83 0 -135.5 57t-52.5 148q0 102 57 168.5t145 66.5q70 0 119 -39t49 -95q0 -15 -9.5 -18t-61.5 -3zM119 295h177q36 0 36 29q0 32 -27 56t-64 24q-67 0 -102 -54
q-14 -21 -20 -55zM245 471l-10 10l131 175q14 19 30 19q29 0 29 -27q0 -15 -19 -32z" />
    <glyph glyph-name="egrave" unicode="&#xe8;" horiz-adv-x="447" 
d="M341 272h-224q-2 -32 -2 -39q0 -83 44.5 -138t111.5 -55q63 0 132 54l11 -13q-95 -94 -184 -94q-83 0 -135.5 57t-52.5 148q0 102 57 168.5t145 66.5q70 0 119 -39t49 -95q0 -15 -9.5 -18t-61.5 -3zM119 295h177q36 0 36 29q0 32 -27 56t-64 24q-67 0 -102 -54
q-14 -21 -20 -55zM259 481l-11 -10l-160 145q-20 18 -20 32q0 10 9 18.5t20 8.5q16 0 30 -19z" />
    <glyph glyph-name="ecircumflex" unicode="&#xea;" horiz-adv-x="447" 
d="M341 272h-224q-2 -32 -2 -39q0 -83 44.5 -138t111.5 -55q63 0 132 54l11 -13q-95 -94 -184 -94q-83 0 -135.5 57t-52.5 148q0 102 57 168.5t145 66.5q70 0 119 -39t49 -95q0 -15 -9.5 -18t-61.5 -3zM119 295h177q36 0 36 29q0 32 -27 56t-64 24q-67 0 -102 -54
q-14 -21 -20 -55zM251 609l-108 -138l-14 9l122 224l114 -224l-14 -9z" />
    <glyph glyph-name="edieresis" unicode="&#xeb;" horiz-adv-x="447" 
d="M341 272h-224q-2 -32 -2 -39q0 -83 44.5 -138t111.5 -55q63 0 132 54l11 -13q-95 -94 -184 -94q-83 0 -135.5 57t-52.5 148q0 102 57 168.5t145 66.5q70 0 119 -39t49 -95q0 -15 -9.5 -18t-61.5 -3zM119 295h177q36 0 36 29q0 32 -27 56t-64 24q-67 0 -102 -54
q-14 -21 -20 -55zM352 614q17 0 30 -13t13 -31t-13 -31t-31 -13t-31 13t-13 31t13 31t32 13zM171 614q17 0 30 -13t13 -31t-13 -31t-31 -13t-31 13t-13 31t13 31t32 13z" />
    <glyph glyph-name="iacute" unicode="&#xed;" horiz-adv-x="246" 
d="M161 434v-357q0 -33 7 -44q9 -15 38 -15h22v-20q-38 2 -97 2q-65 0 -109 -2v20h22q29 0 38 15q7 11 7 44v203q0 48 -4 59q-10 25 -48 28v21q55 12 115 48zM115 471l-10 10l131 175q14 19 30 19q29 0 29 -27q0 -15 -19 -32z" />
    <glyph glyph-name="igrave" unicode="&#xec;" horiz-adv-x="246" 
d="M160 434v-357q0 -33 7 -44q9 -15 38 -15h22v-20q-38 2 -97 2q-65 0 -109 -2v20h22q29 0 38 15q7 11 7 44v203q0 47 -4 59q-9 25 -47 28v21q53 12 114 48zM141 481l-11 -10l-160 145q-20 18 -20 32q0 10 9 18.5t20 8.5q16 0 30 -19z" />
    <glyph glyph-name="icircumflex" unicode="&#xee;" horiz-adv-x="246" 
d="M160 434v-357q0 -33 7 -44q9 -15 38 -15h22v-20q-38 2 -97 2q-65 0 -109 -2v20h22q29 0 38 15q7 11 7 44v203q0 47 -4 59q-9 25 -47 28v21q53 12 114 48zM120 609l-108 -138l-14 9l122 224l114 -224l-14 -9z" />
    <glyph glyph-name="idieresis" unicode="&#xef;" horiz-adv-x="246" 
d="M161 434v-357q0 -33 7 -44q9 -15 38 -15h22v-20q-38 2 -97 2q-65 0 -109 -2v20h22q29 0 38 15q7 11 7 44v203q0 48 -4 59q-10 25 -48 28v21q55 12 115 48zM205 614q17 0 30 -13t13 -31t-13 -31t-31 -13t-31 13t-13 31t13 31t32 13zM50 614q17 0 30 -13t13 -31t-13 -31
t-31 -13t-31 13t-13 31t13 31t32 13z" />
    <glyph glyph-name="ntilde" unicode="&#xf1;" horiz-adv-x="525" 
d="M161 433v-78q98 71 175 71q47 0 77 -35.5t30 -91.5v-222q0 -33 7 -44q9 -15 38 -15h22v-20q-52 2 -106 2q-52 0 -100 -2v20h22q29 0 38 15q7 11 7 44v188q0 54 -19 79q-25 32 -75 32q-52 0 -116 -43v-256q0 -33 7 -44q9 -15 38 -15h22v-20q-38 2 -97 2q-65 0 -109 -2v20
h22q29 0 38 15q7 11 7 44v203q0 47 -4 59q-10 25 -48 28v21q55 12 115 48zM157 525l-19 7q31 90 86 90q25 0 114 -42q23 -11 35 -11q27 0 54 49l19 -8q-34 -92 -86 -92q-27 0 -75 25q-56 29 -72 29q-33 0 -56 -47z" />
    <glyph glyph-name="oacute" unicode="&#xf3;" horiz-adv-x="539" 
d="M271 426q92 0 158 -64.5t66 -153.5q0 -91 -66 -156t-158 -65q-97 0 -162.5 65t-65.5 161q0 88 58 146q67 67 170 67zM261 401q-61 0 -97.5 -48t-36.5 -129q0 -74 31 -131q44 -81 121 -81q60 0 95.5 48.5t35.5 129.5q0 91 -42 151t-107 60zM268 471l-10 10l131 175
q14 19 30 19q29 0 29 -27q0 -15 -19 -32z" />
    <glyph glyph-name="ograve" unicode="&#xf2;" horiz-adv-x="539" 
d="M271 426q92 0 158 -64.5t66 -153.5q0 -91 -66 -156t-158 -65q-97 0 -162.5 65t-65.5 161q0 88 58 146q67 67 170 67zM261 401q-61 0 -97.5 -48t-36.5 -129q0 -74 31 -131q44 -81 121 -81q60 0 95.5 48.5t35.5 129.5q0 91 -42 151t-107 60zM284 481l-11 -10l-160 145
q-20 18 -20 32q0 10 9 18.5t20 8.5q16 0 30 -19z" />
    <glyph glyph-name="ocircumflex" unicode="&#xf4;" horiz-adv-x="539" 
d="M271 426q92 0 158 -64.5t66 -153.5q0 -91 -66 -156t-158 -65q-97 0 -162.5 65t-65.5 161q0 88 58 146q67 67 170 67zM261 401q-61 0 -97.5 -48t-36.5 -129q0 -74 31 -131q44 -81 121 -81q60 0 95.5 48.5t35.5 129.5q0 91 -42 151t-107 60zM283 609l-108 -138l-14 9
l122 224l114 -224l-14 -9z" />
    <glyph glyph-name="odieresis" unicode="&#xf6;" horiz-adv-x="539" 
d="M271 426q92 0 158 -64.5t66 -153.5q0 -91 -66 -156t-158 -65q-97 0 -162.5 65t-65.5 161q0 88 58 146q67 67 170 67zM261 401q-61 0 -97.5 -48t-36.5 -129q0 -74 31 -131q44 -81 121 -81q60 0 95.5 48.5t35.5 129.5q0 91 -42 151t-107 60zM364 614q17 0 30 -13t13 -31
t-13 -31t-31 -13t-31 13t-13 31t13 31t32 13zM183 614q17 0 30 -13t13 -31t-13 -31t-31 -13t-31 13t-13 31t13 31t32 13z" />
    <glyph glyph-name="otilde" unicode="&#xf5;" horiz-adv-x="539" 
d="M271 426q92 0 158 -64.5t66 -153.5q0 -91 -66 -156t-158 -65q-97 0 -162.5 65t-65.5 161q0 88 58 146q67 67 170 67zM261 401q-61 0 -97.5 -48t-36.5 -129q0 -74 31 -131q44 -81 121 -81q60 0 95.5 48.5t35.5 129.5q0 91 -42 151t-107 60zM157 525l-19 7q31 90 86 90
q25 0 114 -42q23 -11 35 -11q27 0 54 49l19 -8q-34 -92 -86 -92q-27 0 -75 25q-56 29 -72 29q-33 0 -56 -47z" />
    <glyph glyph-name="uacute" unicode="&#xfa;" horiz-adv-x="499" 
d="M352 -11v74q-95 -76 -165 -76q-32 0 -60 15.5t-39 40.5q-14 31 -14 78v204q0 38 -8 52q-11 17 -47 26v17q82 3 119 16l9 -2v-305q0 -43 23.5 -68.5t62.5 -25.5q49 0 119 66v224q0 39 -10 54.5t-47 23.5v17q77 2 120 16l9 -2v-349q0 -30 5 -41t22 -11q8 0 40 5v-20
q-47 -10 -130 -31zM249 471l-10 10l131 175q14 19 30 19q29 0 29 -27q0 -15 -19 -32z" />
    <glyph glyph-name="ugrave" unicode="&#xf9;" horiz-adv-x="499" 
d="M352 -11v74q-95 -76 -165 -76q-32 0 -60 15.5t-39 40.5q-14 31 -14 78v204q0 38 -8 52q-11 17 -47 26v17q82 3 119 16l9 -2v-305q0 -43 23.5 -68.5t62.5 -25.5q49 0 119 66v224q0 39 -10 54.5t-47 23.5v17q77 2 120 16l9 -2v-349q0 -30 5 -41t22 -11q8 0 40 5v-20
q-47 -10 -130 -31zM269 481l-11 -10l-160 145q-20 18 -20 32q0 10 9 18.5t20 8.5q16 0 30 -19z" />
    <glyph glyph-name="ucircumflex" unicode="&#xfb;" horiz-adv-x="499" 
d="M352 -11v74q-95 -76 -165 -76q-32 0 -60 15.5t-39 40.5q-14 31 -14 78v204q0 38 -8 52q-11 17 -47 26v17q82 3 119 16l9 -2v-305q0 -43 23.5 -68.5t62.5 -25.5q49 0 119 66v224q0 39 -10 54.5t-47 23.5v17q77 2 120 16l9 -2v-349q0 -30 5 -41t22 -11q8 0 40 5v-20
q-47 -10 -130 -31zM254 609l-108 -138l-14 9l122 224l114 -224l-14 -9z" />
    <glyph glyph-name="udieresis" unicode="&#xfc;" horiz-adv-x="499" 
d="M352 -11v74q-95 -76 -165 -76q-32 0 -60 15.5t-39 40.5q-14 31 -14 78v204q0 38 -8 52q-11 17 -47 26v17q82 3 119 16l9 -2v-305q0 -43 23.5 -68.5t62.5 -25.5q49 0 119 66v224q0 39 -10 54.5t-47 23.5v17q77 2 120 16l9 -2v-349q0 -30 5 -41t22 -11q8 0 40 5v-20
q-47 -10 -130 -31zM345 614q17 0 30 -13t13 -31t-13 -31t-31 -13t-31 13t-13 31t13 31t32 13zM164 614q17 0 30 -13t13 -31t-13 -31t-31 -13t-31 13t-13 31t13 31t32 13z" />
    <glyph glyph-name="dagger" unicode="&#x2020;" 
d="M216 667h68q-14 -133 -12 -218h20q65 0 168 12v-65q-86 12 -171 12h-17v-160l6 -309q1 -35 6 -106h-68q5 66 6 106l6 309v160h-20q-85 0 -169 -12v65q107 -12 171 -12h18q2 81 -12 218z" />
    <glyph glyph-name="degree" unicode="&#xb0;" horiz-adv-x="432" 
d="M212 640q42 0 71.5 -27.5t29.5 -67.5q0 -39 -29 -67t-69 -28q-39 0 -67.5 29t-28.5 69q0 38 27 65t66 27zM216 620q-33 0 -54.5 -20.5t-21.5 -52.5q0 -31 23 -53.5t54 -22.5t53 22t22 53q0 30 -22.5 52t-53.5 22z" />
    <glyph glyph-name="cent" unicode="&#xa2;" 
d="M276 603v-61q14 1 33 1q50 0 91.5 -17.5t41.5 -37.5q0 -16 -13 -32t-25 -16q-13 0 -28 21q-41 59 -100 59v-341q21 -6 40 -6q57 0 105 44l14 -13q-76 -79 -159 -87v-80h-25v80q-72 7 -122.5 66t-50.5 137q0 77 48 137.5t125 79.5v66h25zM251 188v328q-45 -15 -72 -58.5
t-27 -101.5q0 -121 99 -168z" />
    <glyph glyph-name="sterling" unicode="&#xa3;" 
d="M254 360h127l-5 -35h-128q-13 -71 -32.5 -117t-69.5 -125q12 1 34 1q61 0 125 -44q41 -29 51 -33.5t28 -4.5q22 0 39 15.5t17 35.5q0 12 -4.5 18.5t-25.5 23.5q-8 8 -8 14q0 24 29 24q39 0 39 -52q0 -50 -35 -83t-88 -33q-40 0 -72.5 13t-88.5 52q-33 23 -49 23
q-9 0 -14 -5t-23 -30q-34 -48 -66 -48q-17 0 -17 15q0 24 22.5 47.5t57.5 35.5q22 8 29 22t21 79q11 53 22 156h-100l5 35h101q24 135 53 203q27 64 80 104t111 40q33 0 55 -17t22 -42q0 -35 -39 -35q-12 0 -14.5 3.5t-6.5 23.5q-7 37 -48 37q-64 0 -94 -114
q-26 -99 -40 -203z" />
    <glyph glyph-name="section" unicode="&#xa7;" horiz-adv-x="459" 
d="M286 689q49 0 81 -18t32 -46q0 -15 -9.5 -25.5t-23.5 -10.5q-27 0 -47 31q-16 25 -23 32q-14 14 -34 14q-29 0 -51 -27.5t-22 -64.5q0 -64 77.5 -187.5t106.5 -189t29 -116.5q0 -94 -64 -167.5t-146 -73.5q-48 0 -90.5 26t-42.5 56q0 16 10.5 27t24.5 11q18 0 32 -19
q4 -5 20 -34q19 -35 58 -35q35 0 57 29t22 75q0 55 -34 120q-19 35 -104 176q-70 115 -70 198q0 44 21.5 90.5t55.5 78.5q54 50 134 50zM165 608q-55 -57 -55 -135q0 -46 17.5 -87t81.5 -144q60 -96 83 -151.5t23 -102.5q0 -33 -18 -78q70 66 70 154q0 61 -24 114
q-24 50 -133 226q-51 82 -51 151q0 25 6 53z" />
    <glyph glyph-name="bullet" unicode="&#x2022;" horiz-adv-x="667" 
d="M337 477q55 0 95.5 -41t40.5 -97q0 -58 -40.5 -98.5t-97.5 -40.5t-98 40.5t-41 97.5q0 58 41 98.5t100 40.5z" />
    <glyph glyph-name="paragraph" unicode="&#xb6;" horiz-adv-x="583" 
d="M267 -54v388q-95 4 -147.5 53t-52.5 134q0 97 65 132q31 17 89 17q27 0 80 -2q27 -1 54 -1h120v-21q-29 -2 -40 -14t-11 -43q0 -6 -1 -15v-628q0 -33 7 -44q9 -15 38 -15h20v-20q-40 2 -54 2t-55 -2v756h-68v-756q-41 2 -55 2q-13 0 -54 -2v20h20q29 0 38 15q7 11 7 44z
" />
    <glyph glyph-name="germandbls" unicode="&#xdf;" horiz-adv-x="520" 
d="M89 367h-60v19q45 21 54 33t9 49q0 53 22 106.5t57 87.5q73 71 180 71q71 0 110 -28t39 -79q0 -60 -50 -109q-7 -6 -71 -52.5t-64 -85.5q0 -21 10.5 -36t80.5 -70q53 -41 69.5 -65t16.5 -59q0 -65 -42.5 -113t-100.5 -48q-38 0 -68 18t-30 42q0 10 8 17.5t18 7.5
q13 0 28 -23q22 -35 58 -35q28 0 48 25t20 59q0 31 -18 58q-15 22 -74 63q-85 58 -85 118q0 39 31 74q14 16 26 26t65 49q63 47 63 108q0 49 -33.5 80.5t-85.5 31.5q-40 0 -76.5 -21t-55.5 -54q-26 -45 -26 -160v-395q0 -33 7 -44q9 -15 38 -15h12v-20q-44 2 -101 2
q-56 0 -100 -2v20h26q29 0 38 15q7 11 7 44v290z" />
    <glyph glyph-name="registered" unicode="&#xae;" horiz-adv-x="776" 
d="M337 322v-108q0 -46 28 -46h20v-25q-46 1 -75 1q-28 0 -79 -1v25h19q28 0 28 46v239q0 46 -28 46h-19v25l62 -1q21 0 39 1t43 1q133 0 133 -97q0 -66 -70 -94l82 -120q33 -48 79 -46v-25q-22 1 -50 1q-23 0 -41 -1q-34 23 -66 75l-64 103h-20q-6 0 -10 1h-11zM337 494
v-142q18 -3 27 -3q35 0 59 21.5t24 53.5q0 31 -25 51.5t-62 20.5q-12 0 -23 -2zM392 677q141 0 242.5 -101.5t101.5 -242.5q0 -142 -102 -242.5t-246 -100.5t-246 100.5t-102 242.5q0 144 102 244t250 100zM390 648q-131 0 -222 -91.5t-91 -223.5q0 -130 91 -222t219 -92
t219 92t91 222q0 129 -90.5 222t-216.5 93z" />
    <glyph glyph-name="copyright" unicode="&#xa9;" horiz-adv-x="776" 
d="M523 499l6 -78l-20 -2q-20 81 -113 81q-68 0 -109 -43t-41 -113q0 -74 44.5 -125.5t108.5 -51.5q54 0 83 30q15 16 27 55l19 -5l-9 -75q-50 -35 -131 -35q-89 0 -148.5 56t-59.5 140t61 140t152 56q63 0 130 -30zM392 677q141 0 242.5 -101.5t101.5 -242.5
q0 -142 -102 -242.5t-246 -100.5t-246 100.5t-102 242.5q0 144 102 244t250 100zM390 648q-131 0 -222 -91.5t-91 -223.5q0 -130 91 -222t219 -92t219 92t91 222q0 129 -90.5 222t-216.5 93z" />
    <glyph glyph-name="trademark" unicode="&#x2122;" horiz-adv-x="988" 
d="M116 265v21h25q34 0 34 53v301h-81q-35 0 -49 -8q-17 -10 -23 -40h-20q8 50 8 89h19q8 -14 27 -14h299q19 0 27 14h19q0 -34 8 -89h-20q-6 30 -21.5 39t-50.5 9h-81v-301q0 -53 34 -53h25v-21q-39 2 -90 2q-50 0 -89 -2zM696 343l164 325q21 -1 48 -1q28 0 49 1v-20
q-34 -2 -43 -16q-6 -10 -6 -45v-15l7 -237q1 -28 14 -38.5t44 -10.5h5v-20l-96 1q-15 0 -90 -1v20q39 2 50 11.5t10 42.5l-1 29l-5 203l-153 -309h-26l-144 303l-17 -212q-1 -12 -1 -20q0 -27 13 -37t43 -11v-20q-40 1 -86 1q-40 0 -70 -1v20h6q39 0 52 19q9 14 13 56
l21 224q1 11 1 18q0 50 -51 45h-4v20q24 -1 54 -1q28 0 50 1z" />
    <glyph glyph-name="acute" unicode="&#xb4;" 
d="M232 471l-10 10l131 175q14 19 30 19q29 0 29 -27q0 -15 -19 -32z" />
    <glyph glyph-name="dieresis" unicode="&#xa8;" 
d="M341 614q17 0 30 -13t13 -31t-13 -31t-31 -13t-31 13t-13 31t13 31t32 13zM160 614q17 0 30 -13t13 -31t-13 -31t-31 -13t-31 13t-13 31t13 31t32 13z" />
    <glyph glyph-name="notequal" unicode="&#x2260;" 
d="M274 433l57 123l39 -18l-49 -105h156v-42h-176l-46 -99h223v-42h-243l-61 -132l-39 18l53 114h-165v42h185l46 99h-232v42h252z" />
    <glyph glyph-name="AE" unicode="&#xc6;" horiz-adv-x="889" 
d="M435 325h-181l-121 -217q-21 -38 -21 -57q0 -21 23 -27q8 -2 44 -2v-24q-47 2 -103 2q-57 0 -103 -2v24q45 1 64 12t41 51l274 487q16 28 16 41q0 28 -54 32v24l107 -2h290q79 0 116 2l6 -142l-20 -3q-19 108 -114 108h-177v-272h126q44 0 62 18.5t19 67.5h22l-2 -102
q0 -27 2 -104h-22q-2 48 -18.5 66.5t-58.5 18.5h-130v-187q0 -81 55 -97q26 -8 105 -8q89 0 123.5 19.5t58.5 83.5l20 -6l-31 -132q-44 2 -115 2h-274q-45 0 -116 -1v23h25q62 0 62 95v208zM435 360v273h-10l-151 -273h161z" />
    <glyph glyph-name="Oslash" unicode="&#xd8;" horiz-adv-x="772" 
d="M709 676l-83 -95q103 -101 103 -244q0 -141 -101 -244.5t-239 -103.5q-116 0 -215 75l-82 -93l-29 25l82 93q-47 46 -74.5 112t-27.5 134q0 139 101.5 242t237.5 103q115 0 216 -76l82 94zM574 522l-355 -406q75 -95 178 -95q112 0 174 85q59 80 59 202q0 116 -56 214z
M197 149l357 405q-69 95 -182 95q-121 0 -182 -101q-49 -81 -49 -186q0 -116 56 -213z" />
    <glyph glyph-name="infinity" unicode="&#x221e;" horiz-adv-x="667" 
d="M314 287q-43 -68 -75 -92.5t-77 -24.5q-63 0 -106.5 46t-43.5 113q0 73 47 124t114 51q93 0 168 -123q6 9 12 19q41 63 64 79q39 26 82 26q66 0 111.5 -48.5t45.5 -118.5q0 -73 -49 -124.5t-119 -51.5q-101 0 -174 125zM355 361l8 -14q70 -122 166 -122q43 0 72 31.5
t29 78.5q0 50 -36 80t-97 30q-49 0 -81.5 -19t-60.5 -65zM298 310q-12 20 -38 56q-57 74 -126 74q-41 0 -68.5 -30.5t-27.5 -75.5q0 -48 34.5 -76.5t91.5 -28.5q44 0 74.5 18.5t59.5 62.5z" />
    <glyph glyph-name="plusminus" unicode="&#xb1;" 
d="M23 374h205v193h45v-193h205v-43h-205v-189h-45v189h-205v43zM23 98h455v-43h-455v43z" />
    <glyph glyph-name="lessequal" unicode="&#x2264;" 
d="M457 615v-38l-311 -203l311 -208v-101l-414 277v7zM43 35h414v-35h-414v35z" />
    <glyph glyph-name="greaterequal" unicode="&#x2265;" 
d="M43 35h414v-35h-414v35zM43 65v38l311 203l-311 208v101l414 -279v-6z" />
    <glyph glyph-name="yen" unicode="&#xa5;" horiz-adv-x="573" 
d="M340 374h138l-5 -35h-140v-65h138l-5 -35h-133v-122q0 -95 62 -95h25v-24q-76 2 -124 2q-46 0 -128 -2v24h16q62 0 62 95v122h-139l5 35h134v65h-145l5 35h121l-136 182q-65 86 -111 89v24q56 -2 118 -2q61 0 112 2v-24q-52 0 -52 -21q0 -19 18 -42l141 -184l121 163
q23 31 23 54q0 30 -62 30v24q47 -2 106 -2q52 0 88 2v-24q-39 -2 -68 -29q-10 -9 -48 -60z" />
    <glyph glyph-name="partialdiff" unicode="&#x2202;" 
d="M146 669l10 17q94 -38 163 -104q63 -61 106.5 -163.5t43.5 -191.5q0 -104 -62.5 -172.5t-157.5 -68.5q-92 0 -154.5 66t-62.5 164t62 164.5t153 66.5q65 0 106 -34q7 -5 35 -39q-34 106 -90.5 174.5t-151.5 120.5zM253 424q-44 0 -79 -30q-28 -24 -47 -75.5t-19 -101.5
q0 -51 18 -101.5t45 -74.5q36 -32 77 -32q61 0 102.5 61.5t41.5 151.5q0 88 -39 145t-100 57z" />
    <glyph glyph-name="summation" unicode="&#x2211;" horiz-adv-x="667" 
d="M57 667h515v-160h-19q-9 77 -44.5 105.5t-123.5 28.5h-227l206 -387l-238 -439l264 -1q89 0 136.5 35t68.5 117h18l-33 -199h-523l243 449z" />
    <glyph glyph-name="product" unicode="&#x220f;" horiz-adv-x="667" 
d="M562 569v-704q0 -48 7 -60q12 -20 57 -20h24v-18h-260v18h22q46 0 58 19q8 13 8 61v704q0 38 -3 49q-7 26 -35 30q-10 1 -28 1h-156q-45 0 -55.5 -14t-10.5 -66l-1 -704q0 -48 8 -61q12 -19 57 -19h23v-18h-259v18h22q46 0 58 19q8 13 8 61v704q0 36 -3 48q-7 25 -31 30
q-11 2 -32 2h-25v18h636v-18h-23q-46 0 -58 -19q-8 -13 -8 -61z" />
    <glyph glyph-name="integral" unicode="&#x222b;" horiz-adv-x="501" 
d="M293 474v-458q0 -73 -3 -101q-6 -57 -28 -97q-45 -81 -131 -81q-52 0 -88 30.5t-36 73.5q0 24 15.5 40.5t38.5 16.5q21 0 36 -14.5t15 -34.5q0 -12 -6 -22q-6 -13 -6 -22q0 -30 31 -30q34 0 56 47.5t22 122.5v475q0 74 3 102q6 58 28 98q45 81 131 81q52 0 88 -30t36 -74
q0 -24 -15.5 -40.5t-38.5 -16.5q-21 0 -36 14.5t-15 34.5q0 11 6 22t6 22q0 30 -31 30q-36 0 -57 -51t-21 -138z" />
    <glyph glyph-name="ordfeminine" unicode="&#xaa;" horiz-adv-x="289" 
d="M280 434l10 -11q-29 -31 -60 -31q-37 0 -44 40q-48 -40 -89 -40q-27 0 -46.5 16.5t-19.5 38.5q0 38 60 63q17 8 92 34v18q0 60 -49 60q-24 0 -36 -13q-6 -5 -7.5 -8.5t-5.5 -19.5q-2 -8 -15.5 -16t-24.5 -8q-15 0 -15 18q0 27 67 59q53 25 72 25q31 0 49 -17t18 -46v-123
q0 -46 22 -46q7 0 22 7zM183 454v67q-96 -25 -96 -60q0 -15 11.5 -25.5t28.5 -10.5q20 0 56 29zM19 316l7 27h245l-7 -27h-245z" />
    <glyph glyph-name="ordmasculine" unicode="&#xba;" horiz-adv-x="351" 
d="M177 658q59 0 101 -39t42 -93q0 -56 -42 -95t-101 -39q-62 0 -103.5 39.5t-41.5 97.5q0 54 42 91.5t103 37.5zM171 636q-36 0 -57.5 -27.5t-21.5 -73.5q0 -52 25.5 -86.5t64.5 -34.5q35 0 56 27.5t21 73.5q0 53 -25 87t-63 34zM50 316l7 27h245l-7 -27h-245z" />
    <glyph glyph-name="Omega" unicode="&#x3a9;" horiz-adv-x="667" 
d="M688 120l-38 -120h-277v45q84 42 126 93q76 93 76 219q0 117 -64 205t-178 88q-125 0 -191 -107q-50 -82 -50 -184q0 -145 95 -243q35 -36 106 -71v-45h-277l-38 120h19q16 -46 49 -61q22 -10 78 -12l108 -3v6q-85 33 -130 75q-105 99 -105 234q0 66 31.5 131.5
t85.5 112.5q87 75 220 75q161 0 255 -109q80 -93 80 -208q0 -75 -35 -143t-96 -114q-35 -26 -104 -54v-6l114 4q57 2 81 16t40 56h19z" />
    <glyph glyph-name="ae" unicode="&#xe6;" horiz-adv-x="674" 
d="M635 109l13 -8q-85 -114 -195 -114q-46 0 -77.5 19t-63.5 66q-50 -47 -75 -60q-46 -25 -96 -25q-45 0 -74 26t-29 67q0 34 21 52.5t76 34.5q19 5 49 15l116 37v49q0 56 -22 81.5t-64 25.5q-38 0 -62 -22q-14 -13 -23 -50q-3 -14 -20 -23q-26 -14 -38 -14q-18 0 -18 24
q0 44 105 95q86 42 113 42q50 0 98 -70q80 69 152 69q52 0 89.5 -33t37.5 -78q0 -13 -8 -17.5t-53 -17.5l-223 -66q1 -48 4 -67q7 -34 31 -58q40 -40 99 -40q39 0 66 12t71 48zM363 239l165 51q35 11 35 33q0 29 -21.5 48.5t-52.5 19.5q-64 0 -100 -49q-22 -30 -26 -103z
M300 194l-112 -35q-43 -13 -57.5 -25.5t-14.5 -36.5q0 -29 21 -47.5t54 -18.5q73 0 96 56q10 25 13 107z" />
    <glyph glyph-name="oslash" unicode="&#xf8;" horiz-adv-x="539" 
d="M487 423l-57 -62q65 -67 65 -153q0 -91 -66 -156t-159 -65q-79 0 -142 47l-56 -60l-21 21l54 59q-62 65 -62 157q0 90 58 148q30 30 77 48.5t93 18.5q78 0 136 -46l58 62zM384 312l-217 -235q43 -65 112 -65q60 0 95.5 48t35.5 130q0 67 -26 122zM152 104l217 235
q-39 62 -108 62q-62 0 -98 -48.5t-36 -130.5q0 -65 25 -118z" />
    <glyph glyph-name="questiondown" unicode="&#xbf;" horiz-adv-x="349" 
d="M214 266h22v-167q-70 -6 -106 -28q-53 -33 -53 -91q0 -44 32.5 -78t73.5 -34q6 0 28 4q11 3 17 3q18 0 32.5 -14t14.5 -31q0 -19 -17 -32t-41 -13q-65 0 -118 71q-66 89 -66 179q0 69 46 109q14 12 26 17q8 3 59 17q35 10 42 23t8 65zM215 478q24 0 41 -17t17 -41
t-17 -41t-42 -17q-23 0 -40 17.5t-17 40.5q0 24 17 41t41 17z" />
    <glyph glyph-name="exclamdown" unicode="&#xa1;" horiz-adv-x="253" 
d="M114 244h25l39 -308q5 -39 5 -69q0 -37 -15.5 -59.5t-41.5 -22.5q-25 0 -40.5 22.5t-15.5 59.5q0 38 4 69zM127 478q24 0 41 -17t17 -41t-17 -41t-42 -17q-23 0 -40 17.5t-17 40.5q0 24 17 41t41 17z" />
    <glyph glyph-name="logicalnot" unicode="&#xac;" 
d="M371 0v226h-335v41h429v-267h-94z" />
    <glyph glyph-name="radical" unicode="&#x221a;" horiz-adv-x="667" 
d="M650 823v-28h-119l-185 -795h-82l-86 359h-161v28h228l79 -337l181 773h145z" />
    <glyph glyph-name="florin" unicode="&#x192;" horiz-adv-x="552" 
d="M419 451l-6 -30h-92l-43 -252q-33 -196 -100 -267q-46 -49 -99 -49q-34 0 -56 20t-22 50q0 40 30 40q27 0 27 -33q0 -8 -3 -18q-4 -14 -4 -16q0 -21 32 -21q68 0 97 107q19 73 72 404q0 -3 6 35h-93l6 28h22q46 0 65 15q10 8 30 75q26 89 63 128.5t92 39.5q37 0 60.5 -20
t23.5 -51q0 -38 -27 -38q-28 0 -28 34q0 8 6 21q3 7 3 14q0 22 -36 22t-61 -31q-28 -34 -47 -137l-13 -70h95z" />
    <glyph glyph-name="approxequal" unicode="&#x2248;" 
d="M457 478l16 -9q-61 -96 -144 -96q-22 0 -66 14q-92 29 -125 29q-24 0 -42 -11q-14 -8 -44 -38l-9 -9l-16 9q69 97 147 97q27 0 96 -22q56 -18 85 -18q57 0 102 54zM457 323l16 -9q-27 -43 -66.5 -69.5t-77.5 -26.5q-22 0 -66 14q-91 29 -125 29q-42 0 -86 -49
q-2 -2 -9 -10l-16 10q69 97 147 97q27 0 96 -22q56 -18 85 -18q57 0 102 54z" />
    <glyph glyph-name="approxequal" unicode="&#x22f2;" 
d="M457 478l16 -9q-61 -96 -144 -96q-22 0 -66 14q-92 29 -125 29q-24 0 -42 -11q-14 -8 -44 -38l-9 -9l-16 9q69 97 147 97q27 0 96 -22q56 -18 85 -18q57 0 102 54zM457 323l16 -9q-27 -43 -66.5 -69.5t-77.5 -26.5q-22 0 -66 14q-91 29 -125 29q-42 0 -86 -49
q-2 -2 -9 -10l-16 10q69 97 147 97q27 0 96 -22q56 -18 85 -18q57 0 102 54z" />
    <glyph glyph-name="guillemotleft" unicode="&#xab;" horiz-adv-x="398" 
d="M103 214l102 -138l-18 -21l-160 159l158 159l16 -17zM256 214l102 -138l-18 -21l-160 159l158 159l17 -17z" />
    <glyph glyph-name="guillemotright" unicode="&#xbb;" horiz-adv-x="398" 
d="M295 214l-98 142l16 17l158 -159l-160 -159l-18 21zM142 214l-99 142l17 17l158 -159l-160 -159l-18 21z" />
    <glyph glyph-name="ellipsis" unicode="&#x2026;" horiz-adv-x="740" 
d="M124 103q23 0 40 -17t17 -41t-17 -41t-41 -17t-41 17t-17 41t17 41t42 17zM371 103q23 0 40 -17t17 -41t-17 -41t-41 -17t-41 17t-17 41t17 41t42 17zM617 103q23 0 40 -17t17 -41t-17 -41t-41 -17t-41 17t-17 41t17 41t42 17z" />
    <glyph glyph-name="nonbreakingspace" unicode="&#xa0;" horiz-adv-x="250" 
 />
    <glyph glyph-name="Agrave" unicode="&#xc0;" horiz-adv-x="632" 
d="M402 249h-221l-50 -164q-3 -10 -3 -19q0 -22 14 -30.5t71 -13.5v-24q-55 2 -129 2q-56 0 -91 -2v24q43 2 64 23q18 17 34 63l179 507l-10 29q29 19 50 46q9 12 16 12q9 0 13 -10l214 -600q14 -39 34.5 -54t57.5 -16v-24q-52 2 -118 2q-67 0 -123 -2v24l22 1q42 2 42 28
q0 10 -8 33zM387 284l-100 288l-93 -288h193zM356 756l-10 -15l-202 105q-17 9 -17 28q0 26 28 26q14 0 27 -10z" />
    <glyph glyph-name="Atilde" unicode="&#xc3;" horiz-adv-x="632" 
d="M402 249h-221l-50 -164q-3 -10 -3 -19q0 -22 14 -30.5t71 -13.5v-24q-55 2 -129 2q-56 0 -91 -2v24q43 2 64 23q18 17 34 63l179 507l-10 29q29 19 50 46q9 12 16 12q9 0 13 -10l214 -600q14 -39 34.5 -54t57.5 -16v-24q-52 2 -118 2q-67 0 -123 -2v24l22 1q42 2 42 28
q0 10 -8 33zM387 284l-100 288l-93 -288h193zM185 776l-18 6q29 87 90 87q35 0 88.5 -24.5t73.5 -24.5q29 0 53 43l18 -4q-24 -88 -93 -88q-27 0 -76 20l-11 4q-58 24 -73 24q-23 0 -52 -43z" />
    <glyph glyph-name="Otilde" unicode="&#xd5;" horiz-adv-x="772" 
d="M382 680q138 0 242.5 -98.5t104.5 -244.5q0 -141 -101 -244.5t-239 -103.5q-144 0 -245 102t-101 248q0 136 102 238.5t237 102.5zM371 649q-121 0 -182 -100q-49 -81 -49 -185q0 -126 66 -229q73 -114 192 -114q50 0 97.5 23t75.5 62q59 81 59 202q0 131 -70 236
t-189 105zM256 776l-18 6q29 87 90 87q35 0 88.5 -24.5t73.5 -24.5q29 0 53 43l18 -4q-24 -88 -93 -88q-27 0 -76 20l-11 4q-58 24 -73 24q-23 0 -52 -43z" />
    <glyph glyph-name="OE" unicode="&#x152;" horiz-adv-x="985" 
d="M619 632v-272h126q44 0 62 18.5t19 67.5h22q-2 -61 -2 -97q0 -32 2 -109h-22q-2 48 -18.5 66.5t-58.5 18.5h-130v-187q0 -81 55 -97q26 -8 105 -8q88 0 122 19t63 84l17 -6l-31 -132q-44 2 -115 2h-242q-52 0 -116 -4q-48 -3 -84 -3q-151 0 -250.5 93.5t-99.5 236.5
t104.5 247t248.5 104q11 0 54 -2q106 -5 137 -5h200q71 0 116 2l6 -142l-18 -3q-19 108 -115 108h-157zM529 147v385q0 111 -127 111q-110 0 -185.5 -79.5t-75.5 -217.5q0 -115 52 -194q39 -59 98.5 -93.5t123.5 -34.5q66 0 94 37q20 26 20 86z" />
    <glyph glyph-name="oe" unicode="&#x153;" horiz-adv-x="778" 
d="M454 271v-34q0 -82 31 -131q37 -58 118 -58q71 0 127 56l14 -9q-78 -108 -181 -108q-46 0 -78 17t-72 63q-84 -80 -165 -80q-88 0 -146.5 62t-58.5 155t65 157.5t159 64.5q45 0 79 -16t79 -59q84 76 159 76q71 0 117 -51q34 -37 34 -74q0 -22 -23 -28q-11 -3 -42 -3h-216
zM455 294h178q16 0 21.5 3.5t5.5 17.5q0 36 -27 63.5t-62 27.5q-45 0 -77.5 -31.5t-38.5 -80.5zM260 403q-56 0 -93.5 -56t-37.5 -141q0 -61 24 -112q39 -82 111 -82q55 0 89.5 52t34.5 135q0 91 -33 144q-37 60 -95 60z" />
    <glyph glyph-name="endash" unicode="&#x2013;" horiz-adv-x="394" 
d="M20 187l13 53h341l-13 -53h-341z" />
    <glyph glyph-name="emdash" unicode="&#x2014;" horiz-adv-x="617" 
d="M0 187l13 53h604l-14 -53h-603z" />
    <glyph glyph-name="quotedblleft" unicode="&#x201c;" horiz-adv-x="409" 
d="M349 730l4 -17q-38 -4 -62 -29.5t-24 -61.5q0 -33 29 -36q56 -6 56 -45q0 -20 -15.5 -33t-37.5 -13q-34 0 -54.5 25t-20.5 65q0 59 34 98.5t91 46.5zM183 730l3 -17q-38 -4 -62 -29.5t-24 -61.5q0 -33 29 -36q56 -6 56 -45q0 -20 -15.5 -33t-37.5 -13q-34 0 -54.5 25
t-20.5 65q0 59 34 98.5t92 46.5z" />
    <glyph glyph-name="quotedblright" unicode="&#x201d;" horiz-adv-x="409" 
d="M61 495l-4 18q37 3 61.5 28.5t24.5 61.5q0 33 -29 36q-56 6 -56 45q0 20 15.5 33t37.5 13q34 0 54.5 -24.5t20.5 -65.5q0 -59 -34 -98.5t-91 -46.5zM227 495l-3 18q37 3 61.5 28.5t24.5 61.5q0 33 -29 36q-56 6 -56 45q0 20 15.5 33t37.5 13q34 0 54.5 -24.5t20.5 -65.5
q0 -59 -34 -98.5t-92 -46.5z" />
    <glyph glyph-name="quoteleft" unicode="&#x2018;" horiz-adv-x="243" 
d="M183 730l3 -17q-38 -4 -62 -29.5t-24 -61.5q0 -33 29 -36q56 -6 56 -45q0 -20 -15.5 -33t-37.5 -13q-34 0 -54.5 25t-20.5 65q0 59 34 98.5t92 46.5z" />
    <glyph glyph-name="quoteright" unicode="&#x2019;" horiz-adv-x="243" 
d="M61 495l-4 18q37 3 61.5 28.5t24.5 61.5q0 33 -29 36q-56 6 -56 45q0 20 15.5 33t37.5 13q34 0 54.5 -24.5t20.5 -65.5q0 -59 -34 -98.5t-91 -46.5z" />
    <glyph glyph-name="divide" unicode="&#xf7;" 
d="M23 363h455v-43h-455v43zM251 564q16 0 27.5 -11.5t11.5 -27.5t-11.5 -28t-28.5 -12q-16 0 -27.5 12t-11.5 28t12 27.5t28 11.5zM251 196q16 0 27.5 -11.5t11.5 -27.5t-11.5 -28t-28.5 -12q-16 0 -27.5 12t-11.5 28t12 27.5t28 11.5z" />
    <glyph glyph-name="lozenge" unicode="&#x25ca;" horiz-adv-x="667" 
d="M334 693l259 -359l-259 -360l-260 360zM334 604l-197 -270l197 -271l197 271z" />
    <glyph glyph-name="ydieresis" unicode="&#xff;" horiz-adv-x="408" 
d="M221 109l89 199q13 29 13 51q0 34 -53 36v20q56 -2 78 -2q21 0 78 2v-20q-29 -1 -45.5 -16t-33.5 -54l-212 -478q-25 -57 -59 -57q-19 0 -34 15t-15 35t13 33.5t32 13.5q10 0 22 -6t16 -6q8 0 13 12l58 129l-121 309q-16 41 -29.5 54.5t-41.5 15.5v20q43 -2 89 -2
q30 0 96 2v-20q-51 -4 -51 -30q0 -9 3 -17zM323 614q17 0 30 -13t13 -31t-13 -31t-31 -13t-31 13t-13 31t13 31t32 13zM142 614q17 0 30 -13t13 -31t-13 -31t-31 -13t-31 13t-13 31t13 31t32 13z" />
    <glyph glyph-name="Ydieresis" unicode="&#x178;" horiz-adv-x="585" 
d="M324 376l136 185q23 31 23 54q0 30 -62 30v24q47 -2 106 -2q52 0 88 2v-24q-40 -2 -68 -29q-10 -10 -48 -60l-160 -214v-225q0 -95 62 -95h25v-24q-77 2 -124 2q-46 0 -128 -2v24h16q62 0 62 95v209l-172 230q-65 86 -111 89v24q56 -2 118 -2q61 0 112 2v-24
q-52 0 -52 -21q0 -19 18 -42zM407 867q19 0 32.5 -14t13.5 -33t-13.5 -33t-33.5 -14q-19 0 -33 14t-14 33q0 20 14 33.5t34 13.5zM213 867q19 0 32.5 -14t13.5 -33t-13.5 -33t-33.5 -14q-19 0 -33 14t-14 33q0 20 14 33.5t34 13.5z" />
    <glyph glyph-name="fraction" unicode="&#x2044;" horiz-adv-x="128" 
d="M205 660h37l-321 -660h-34z" />
    <glyph glyph-name="currency" unicode="&#xa4;" horiz-adv-x="720" 
d="M72 358h-46l15 35h36q20 125 124.5 205.5t246.5 80.5q113 0 227 -52l10 -125l-17 -1q-16 62 -52 94q-58 52 -161 52q-118 0 -192 -67t-90 -187h395l-15 -35h-382v-3q0 -21 1 -32h366l-15 -35h-346q10 -57 36 -110q35 -72 102.5 -115.5t143.5 -43.5q46 0 90.5 16.5
t68.5 41.5q29 30 48 95l16 -5l-15 -122q-84 -58 -230 -58q-143 0 -243 83.5t-120 217.5h-48l15 35h31v35z" />
    <glyph glyph-name="guilsinglleft" unicode="&#x2039;" horiz-adv-x="244" 
d="M103 214l102 -138l-18 -21l-160 159l158 159l16 -17z" />
    <glyph glyph-name="guilsinglright" unicode="&#x203a;" horiz-adv-x="244" 
d="M142 214l-99 142l17 17l158 -159l-160 -159l-18 21z" />
    <glyph glyph-name="fi" unicode="&#xf001;" horiz-adv-x="532" 
d="M165 505v-92q111 -3 146 -3q79 0 127 26l9 -3v-356q0 -33 7 -44q9 -15 38 -15h22v-20q-38 2 -97 2q-65 0 -109 -2v20h22q29 0 38 15q7 11 7 44v206q0 48 -4 60q-10 27 -48 27h-158v-293q0 -33 7 -44q9 -15 38 -15h22v-20q-41 2 -102 2q-62 0 -105 -2v20h22q29 0 38 15
q7 11 7 44v293h-61v15q36 8 47 22q8 10 12 36q1 7 8 83q6 70 67.5 137.5t119.5 67.5q21 0 40.5 -10t19.5 -21q0 -15 -13.5 -34t-23.5 -19q-7 0 -19 7q-26 16 -45 16q-55 0 -70 -55q-9 -33 -9 -110zM413 654q18 0 31 -13t13 -31q0 -19 -13 -32t-31 -13q-19 0 -32 13t-13 32
q0 18 13 31t32 13z" />
    <glyph glyph-name="fl" unicode="&#xf002;" horiz-adv-x="533" 
d="M31 370v15q36 8 47 22q8 9 12 36q1 7 8 83q6 70 67.5 137.5t119.5 67.5q21 0 40.5 -10t19.5 -21q0 -2 -3 -13q47 12 97 43l9 -2v-651q0 -33 7 -44q9 -15 38 -15h22v-20q-46 2 -101 2q-57 0 -106 -2v20h22q29 0 38 15q7 11 7 44v496q0 46 -4 58q-8 27 -43 30
q-10 -14 -19 -14q-6 0 -20 7q-26 16 -45 16q-55 0 -70 -55q-9 -33 -9 -110v-92h136v-43h-136v-293q0 -33 7 -44q9 -15 38 -15h22v-20q-41 2 -102 2q-62 0 -105 -2v20h22q29 0 38 15q7 11 7 44v293h-61z" />
    <glyph glyph-name="daggerdbl" unicode="&#x2021;" 
d="M216 667h67q-12 -115 -12 -168v-16h21q68 0 168 12v-65q-84 12 -171 12h-18q0 -25 2 -72l2 -24q2 -30 8 -75q0 -1 2 -21l-5 -37q-4 -28 -5 -59q-2 -21 -3 -74q0 -6 -1 -21q9 -1 20 -1q91 0 169 13v-66q-96 12 -171 12h-18v-17q0 -54 12 -167h-67q11 108 11 169q0 7 1 15
h-21q-68 0 -168 -12v66q80 -13 171 -13q10 0 18 1q-1 6 -1 21q-1 58 -3 74q-1 25 -10 96q2 20 2 21q7 56 8 75q3 41 4 96h-20q-85 0 -169 -12v65q107 -12 171 -12h18q-1 9 -1 18v8q0 55 -11 158z" />
    <glyph glyph-name="middot.001" unicode="&#x2219;" 
d="M251 271q23 0 40 -17t17 -41t-17 -41t-41 -17t-41 17t-17 41t17 41t42 17z" />
    <glyph glyph-name="quotesinglbase" unicode="&#x201a;" horiz-adv-x="247" 
d="M48 -166l-4 21q45 4 73.5 34t28.5 73q0 38 -34 42q-67 7 -67 53q0 23 18 38.5t45 15.5q39 0 63.5 -29.5t24.5 -76.5q0 -70 -40 -116.5t-108 -54.5z" />
    <glyph glyph-name="quotedblbase" unicode="&#x201e;" horiz-adv-x="409" 
d="M61 -136l-4 17q38 4 62 29t24 62q0 33 -29 36q-56 6 -56 45q0 20 15.5 33t37.5 13q34 0 54.5 -24.5t20.5 -65.5q0 -59 -34 -98.5t-91 -46.5zM227 -136l-3 17q38 4 62 29.5t24 61.5q0 33 -29 36q-56 6 -56 45q0 20 15.5 33t37.5 13q34 0 54.5 -24.5t20.5 -65.5
q0 -60 -34 -99t-92 -46z" />
    <glyph glyph-name="perthousand" unicode="&#x2030;" horiz-adv-x="1166" 
d="M201 678q70 0 115 -52t45 -133q0 -78 -45.5 -127.5t-117.5 -49.5q-71 0 -117 50t-46 129q0 81 46.5 132t119.5 51zM94 528v-58q0 -137 105 -137q103 0 103 137v57q0 62 -27.5 97.5t-75.5 35.5q-49 0 -77 -35.5t-28 -96.5zM613 667l-418 -678h-26l418 678h26zM589 354
q70 0 115 -52.5t45 -132.5q0 -79 -45.5 -128.5t-117.5 -49.5q-71 0 -117 50t-46 129q0 82 46 133t120 51zM482 203v-57q0 -138 105 -138q103 0 103 138v57q0 62 -27.5 97.5t-75.5 35.5q-49 0 -77 -35.5t-28 -97.5zM971 354q70 0 115 -52.5t45 -132.5q0 -79 -45.5 -128.5
t-117.5 -49.5q-71 0 -117 50t-46 129q0 82 46 133t120 51zM864 203v-57q0 -138 105 -138q103 0 103 138v57q0 62 -27.5 97.5t-75.5 35.5q-49 0 -77 -35.5t-28 -97.5z" />
    <glyph glyph-name="Acircumflex" unicode="&#xc2;" horiz-adv-x="632" 
d="M402 249h-221l-50 -164q-3 -10 -3 -19q0 -22 14 -30.5t71 -13.5v-24q-55 2 -129 2q-56 0 -91 -2v24q43 2 64 23q18 17 34 63l179 507l-10 29q29 19 50 46q9 12 16 12q9 0 13 -10l214 -600q14 -39 34.5 -54t57.5 -16v-24q-52 2 -118 2q-67 0 -123 -2v24l22 1q42 2 42 28
q0 10 -8 33zM387 284l-100 288l-93 -288h193zM323 825l-142 -85l-14 9l156 151l147 -151l-15 -9z" />
    <glyph glyph-name="Ecircumflex" unicode="&#xca;" horiz-adv-x="573" 
d="M207 632v-272h126q45 0 62.5 18.5t19.5 67.5h21q-2 -69 -2 -102q0 -36 2 -104h-21q-2 48 -18.5 66.5t-58.5 18.5h-131v-186q0 -82 55 -98q26 -8 105 -8q89 0 123 19.5t59 84.5h20l-31 -139q-37 2 -115 2h-274q-79 0 -116 -2v24h25q62 0 62 95v433q0 95 -62 95h-25v24
q37 -2 116 -2h226q78 0 116 2l6 -142l-18 -3q-19 108 -115 108h-157zM298 825l-142 -85l-14 9l156 151l147 -151l-15 -9z" />
    <glyph glyph-name="Aacute" unicode="&#xc1;" horiz-adv-x="632" 
d="M402 249h-221l-50 -164q-3 -10 -3 -19q0 -22 14 -30.5t71 -13.5v-24q-55 2 -129 2q-56 0 -91 -2v24q43 2 64 23q18 17 34 63l179 507l-10 29q29 19 50 46q9 12 16 12q9 0 13 -10l214 -600q14 -39 34.5 -54t57.5 -16v-24q-52 2 -118 2q-67 0 -123 -2v24l22 1q42 2 42 28
q0 10 -8 33zM387 284l-100 288l-93 -288h193zM288 756l174 134q13 10 28 10q27 0 27 -26q0 -19 -17 -28l-201 -105z" />
    <glyph glyph-name="Edieresis" unicode="&#xcb;" horiz-adv-x="573" 
d="M207 632v-272h126q45 0 62.5 18.5t19.5 67.5h21q-2 -69 -2 -102q0 -36 2 -104h-21q-2 48 -18.5 66.5t-58.5 18.5h-131v-186q0 -82 55 -98q26 -8 105 -8q89 0 123 19.5t59 84.5h20l-31 -139q-37 2 -115 2h-274q-79 0 -116 -2v24h25q62 0 62 95v433q0 95 -62 95h-25v24
q37 -2 116 -2h226q78 0 116 2l6 -142l-18 -3q-19 108 -115 108h-157zM391 867q19 0 32.5 -14t13.5 -33t-13.5 -33t-33.5 -14q-19 0 -33 14t-14 33q0 20 14 33.5t34 13.5zM198 867q19 0 32.5 -14t13.5 -33t-13.5 -33t-33.5 -14q-19 0 -33 14t-14 33q0 20 14 33.5t34 13.5z
" />
    <glyph glyph-name="Egrave" unicode="&#xc8;" horiz-adv-x="573" 
d="M207 632v-272h126q45 0 62.5 18.5t19.5 67.5h21q-2 -69 -2 -102q0 -36 2 -104h-21q-2 48 -18.5 66.5t-58.5 18.5h-131v-186q0 -82 55 -98q26 -8 105 -8q89 0 123 19.5t59 84.5h20l-31 -139q-37 2 -115 2h-274q-79 0 -116 -2v24h25q62 0 62 95v433q0 95 -62 95h-25v24
q37 -2 116 -2h226q78 0 116 2l6 -142l-18 -3q-19 108 -115 108h-157zM340 756l-10 -15l-202 105q-17 9 -17 28q0 26 28 26q14 0 27 -10z" />
    <glyph glyph-name="Iacute" unicode="&#xcd;" horiz-adv-x="327" 
d="M207 550v-433q0 -95 62 -95h25v-24l-135 2q-37 0 -126 -2v24h25q62 0 62 95v433q0 95 -62 95h-25v24q56 -2 121 -2q43 0 140 2v-24h-25q-62 0 -62 -95zM152 756l174 134q13 10 28 10q27 0 27 -26q0 -19 -17 -28l-201 -105z" />
    <glyph glyph-name="Icircumflex" unicode="&#xce;" horiz-adv-x="327" 
d="M207 550v-433q0 -95 62 -95h25v-24l-135 2q-37 0 -126 -2v24h25q62 0 62 95v433q0 95 -62 95h-25v24q56 -2 121 -2q43 0 140 2v-24h-25q-62 0 -62 -95zM171 825l-142 -85l-14 9l156 151l147 -151l-15 -9z" />
    <glyph glyph-name="Idieresis" unicode="&#xcf;" horiz-adv-x="327" 
d="M207 550v-433q0 -95 62 -95h25v-24l-135 2q-37 0 -126 -2v24h25q62 0 62 95v433q0 95 -62 95h-25v24q56 -2 121 -2q43 0 140 2v-24h-25q-62 0 -62 -95zM248 867q19 0 32.5 -14t13.5 -33t-13.5 -33t-33.5 -14q-19 0 -33 14t-14 33q0 20 14 33.5t34 13.5zM95 867
q19 0 32.5 -14t13.5 -33t-13.5 -33t-33.5 -14q-19 0 -33 14t-14 33q0 20 14 33.5t34 13.5z" />
    <glyph glyph-name="Igrave" unicode="&#xcc;" horiz-adv-x="327" 
d="M207 550v-433q0 -95 62 -95h25v-24l-135 2q-37 0 -126 -2v24h25q62 0 62 95v433q0 95 -62 95h-25v24q56 -2 121 -2q43 0 140 2v-24h-25q-62 0 -62 -95zM187 756l-10 -15l-202 105q-17 9 -17 28q0 26 28 26q14 0 27 -10z" />
    <glyph glyph-name="Oacute" unicode="&#xd3;" horiz-adv-x="772" 
d="M382 680q138 0 242.5 -98.5t104.5 -244.5q0 -141 -101 -244.5t-239 -103.5q-144 0 -245 102t-101 248q0 136 102 238.5t237 102.5zM371 649q-121 0 -182 -100q-49 -81 -49 -185q0 -126 66 -229q73 -114 192 -114q50 0 97.5 23t75.5 62q59 81 59 202q0 131 -70 236
t-189 105zM355 756l174 134q13 10 28 10q27 0 27 -26q0 -19 -17 -28l-201 -105z" />
    <glyph glyph-name="Ocircumflex" unicode="&#xd4;" horiz-adv-x="772" 
d="M382 680q138 0 242.5 -98.5t104.5 -244.5q0 -141 -101 -244.5t-239 -103.5q-144 0 -245 102t-101 248q0 136 102 238.5t237 102.5zM371 649q-121 0 -182 -100q-49 -81 -49 -185q0 -126 66 -229q73 -114 192 -114q50 0 97.5 23t75.5 62q59 81 59 202q0 131 -70 236
t-189 105zM387 825l-142 -85l-14 9l156 151l147 -151l-15 -9z" />
    <glyph glyph-name="apple" unicode="&#xf000;" horiz-adv-x="667" 
d="M481 691v-10q0 -65 -44.5 -114t-102.5 -49h-2q-1 68 40.5 117t108.5 56zM624 457q-81 -63 -81 -139q0 -108 100 -149q-80 -196 -170 -196q-19 0 -81 27q-7 3 -37 3q-26 0 -36.5 -3t-52.5 -20q-19 -8 -39 -8q-65 0 -129.5 111.5t-64.5 223.5q0 65 27.5 119.5t73.5 79.5
q37 20 86 20q35 0 77 -17q32 -13 47 -13q17 0 44 10q58 22 92 22q91 0 144 -71z" />
    <glyph glyph-name="Ograve" unicode="&#xd2;" horiz-adv-x="772" 
d="M382 680q138 0 242.5 -98.5t104.5 -244.5q0 -141 -101 -244.5t-239 -103.5q-144 0 -245 102t-101 248q0 136 102 238.5t237 102.5zM371 649q-121 0 -182 -100q-49 -81 -49 -185q0 -126 66 -229q73 -114 192 -114q50 0 97.5 23t75.5 62q59 81 59 202q0 131 -70 236
t-189 105zM430 756l-10 -15l-202 105q-17 9 -17 28q0 26 28 26q14 0 27 -10z" />
    <glyph glyph-name="Uacute" unicode="&#xda;" horiz-adv-x="737" 
d="M201 550v-291q0 -115 52.5 -177t149.5 -62q96 0 142 64q24 33 30 78q4 24 4 85v303q0 95 -62 95h-25v24q34 -2 82 -2q35 0 137 2v-24h-25q-62 0 -62 -95v-302q0 -72 -6 -99q-10 -47 -47 -87q-70 -75 -201 -75q-132 0 -199 68q-57 58 -57 185v310q0 95 -62 95h-25v24
q48 -2 124 -2q83 0 137 2v-24h-25q-62 0 -62 -95zM368 756l174 134q13 10 28 10q27 0 27 -26q0 -19 -17 -28l-201 -105z" />
    <glyph glyph-name="Ucircumflex" unicode="&#xdb;" horiz-adv-x="737" 
d="M201 550v-291q0 -115 52.5 -177t149.5 -62q96 0 142 64q24 33 30 78q4 24 4 85v303q0 95 -62 95h-25v24q34 -2 82 -2q35 0 137 2v-24h-25q-62 0 -62 -95v-302q0 -72 -6 -99q-10 -47 -47 -87q-70 -75 -201 -75q-132 0 -199 68q-57 58 -57 185v310q0 95 -62 95h-25v24
q48 -2 124 -2q83 0 137 2v-24h-25q-62 0 -62 -95zM397 825l-142 -85l-14 9l156 151l147 -151l-15 -9z" />
    <glyph glyph-name="Ugrave" unicode="&#xd9;" horiz-adv-x="737" 
d="M201 550v-291q0 -115 52.5 -177t149.5 -62q96 0 142 64q24 33 30 78q4 24 4 85v303q0 95 -62 95h-25v24q34 -2 82 -2q35 0 137 2v-24h-25q-62 0 -62 -95v-302q0 -72 -6 -99q-10 -47 -47 -87q-70 -75 -201 -75q-132 0 -199 68q-57 58 -57 185v310q0 95 -62 95h-25v24
q48 -2 124 -2q83 0 137 2v-24h-25q-62 0 -62 -95zM419 756l-10 -15l-202 105q-17 9 -17 28q0 26 28 26q14 0 27 -10z" />
    <glyph glyph-name="dotlessi" unicode="&#x131;" horiz-adv-x="246" 
d="M161 434v-357q0 -33 7 -44q9 -15 38 -15h22v-20q-38 2 -97 2q-65 0 -109 -2v20h22q29 0 38 15q7 11 7 44v203q0 48 -4 59q-10 25 -48 28v21q55 12 115 48z" />
    <glyph glyph-name="circumflex" unicode="&#x2c6;" 
d="M254 609l-108 -138l-14 9l122 224l114 -224l-14 -9z" />
    <glyph glyph-name="tilde" unicode="&#x2dc;" 
d="M115 525l-19 7q31 90 86 90q25 0 114 -42q23 -11 35 -11q27 0 54 49l19 -8q-34 -92 -86 -92q-27 0 -75 25q-56 29 -72 29q-33 0 -56 -47z" />
    <glyph glyph-name="macron" unicode="&#x2c9;" 
d="M115 551l13 40h257l-20 -40h-250z" />
    <glyph glyph-name="breve" unicode="&#x2d8;" 
d="M361 645h19q-1 -58 -22 -91q-36 -58 -108 -58q-71 0 -107 58q-21 33 -22 91h19q8 -42 39 -68.5t71 -26.5q41 0 72 26.5t39 68.5z" />
    <glyph glyph-name="dotaccent" unicode="&#x2d9;" 
d="M251 614q17 0 30 -13t13 -31t-13 -31t-31 -13t-31 13t-13 31t13 31t32 13z" />
    <glyph glyph-name="ring" unicode="&#x2da;" 
d="M251 657q35 0 60 -25.5t25 -60.5q0 -36 -25.5 -61.5t-61.5 -25.5q-35 0 -60.5 25.5t-25.5 60.5q0 37 25.5 62t62.5 25zM250 627q-24 0 -40.5 -16.5t-16.5 -40.5q0 -22 17 -39t39 -17q23 0 40 17t17 40t-16.5 39.5t-39.5 16.5z" />
    <glyph glyph-name="cedilla" unicode="&#xb8;" 
d="M269 0h28l-7 -7q-17 -17 -17 -24q0 -10 24 -41q29 -38 29 -58t-24 -46q-31 -34 -69 -34q-58 0 -58 35q0 24 24 24q10 0 30 -12q25 -15 34 -15q8 0 15.5 7.5t7.5 14.5q0 10 -18 34q-2 3 -25 35q-17 24 -17 36q0 16 28 39q2 1 15 12z" />
    <glyph glyph-name="hungarumlaut" unicode="&#x2dd;" horiz-adv-x="539" 
d="M165 471l-12 9l105 171q15 24 32 24q11 0 19.5 -8t8.5 -18q0 -13 -13 -27zM298 471l-12 9l105 171q15 24 33 24q11 0 19.5 -8t8.5 -18q0 -12 -14 -27z" />
    <glyph glyph-name="ogonek" unicode="&#x2db;" 
d="M393 0h26q-61 -60 -61 -98q0 -25 18 -40t48 -15q17 0 39 6l5 -17q-44 -17 -74 -17q-41 0 -68 20t-27 50q0 55 94 111z" />
    <glyph glyph-name="caron" unicode="&#x2c7;" 
d="M246 566l108 138l14 -9l-122 -224l-114 224l14 9z" />
    <glyph glyph-name="Lslash" unicode="&#x141;" horiz-adv-x="561" 
d="M573 145l-38 -147q-44 2 -116 2h-252q-87 0 -134 -2v24h25q62 0 62 95v182l-79 -54v42l79 54v209q0 95 -62 95h-25v24q42 -2 113 -2q91 0 148 2v-24h-25q-62 0 -62 -95v-158l123 83v-42l-123 -83v-191q0 -78 29 -102t122 -24q82 0 129 24.5t71 91.5z" />
    <glyph glyph-name="lslash" unicode="&#x142;" horiz-adv-x="244" 
d="M86 385v188q0 48 -4 59q-10 26 -48 29v21q62 13 116 48l9 -3v-299l67 51v-41l-67 -51v-310q0 -33 7 -44q9 -15 38 -15h22v-20q-46 2 -101 2q-58 0 -106 -2v20h22q29 0 38 15q7 11 7 44v267l-67 -51v40z" />
    <glyph glyph-name="Scaron" unicode="&#x160;" horiz-adv-x="468" 
d="M389 656l12 -114h-17q-16 50 -41 73q-35 32 -88 32q-52 0 -87.5 -32t-35.5 -79q0 -49 33 -88q22 -27 91 -64q99 -54 135 -97t36 -107q0 -83 -62 -138.5t-156 -55.5q-103 0 -171 45l-11 132h15q25 -67 54 -97q44 -46 113 -46q56 0 95.5 38.5t39.5 93.5q0 43 -26 74.5
t-90 66.5q-87 48 -118 80q-52 55 -52 130q0 77 56 127t143 50q57 0 132 -24zM261 815l133 85l14 -9l-147 -151l-155 151l14 9z" />
    <glyph glyph-name="scaron" unicode="&#x161;" horiz-adv-x="365" 
d="M314 401v-90h-17q-14 40 -23 54q-27 40 -84 40q-30 0 -51 -20t-21 -49q0 -24 15.5 -39.5t57.5 -35.5q81 -38 110.5 -68.5t29.5 -76.5q0 -55 -45 -92.5t-111 -37.5q-74 0 -128 40l-5 105h16q25 -118 123 -118q35 0 57.5 20.5t22.5 52.5q0 29 -21.5 49.5t-83.5 50.5
q-51 25 -72 47q-31 33 -31 75q0 50 40.5 84.5t99.5 34.5q54 0 121 -26zM198 566l108 138l15 -9l-123 -224l-114 224l15 9z" />
    <glyph glyph-name="Zcaron" unicode="&#x17d;" horiz-adv-x="629" 
d="M133 35h354q37 0 57 8t42 34q26 31 45 76h17l-44 -155q-44 2 -116 2h-490l477 632h-257q-89 0 -120.5 -18.5t-53.5 -83.5h-17l28 145h18q7 -8 20 -8h518zM352 815l133 85l14 -9l-147 -151l-156 151l15 9z" />
    <glyph glyph-name="zcaron" unicode="&#x17e;" horiz-adv-x="385" 
d="M119 30h75q69 0 92 2q27 2 41.5 17t43.5 72l18 -5l-25 -116h-351l243 383h-128q-40 0 -52.5 -9t-33.5 -55h-16l14 115h18q4 -21 33 -21h273zM215 566l108 138l14 -9l-122 -224l-114 224l14 9z" />
    <glyph glyph-name="brokenbar" unicode="&#xa6;" 
d="M223 667h54v-335h-54v335zM223 153h54v-320h-54v320z" />
    <glyph glyph-name="Eth" unicode="&#xd0;" horiz-adv-x="741" 
d="M120 333h-78v33h78v184q0 95 -62 95h-23v24l112 -2q50 0 71 1q62 3 80 3q179 0 289 -94t110 -248q0 -148 -104.5 -240.5t-270.5 -92.5q-17 0 -86 3q-23 1 -81 1q-66 0 -122 -2v24h25q62 0 62 95v216zM207 333v-200q0 -56 18 -77q26 -30 106 -30q127 0 203 94
q64 79 64 194q0 114 -53 195.5t-146 109.5q-59 18 -136 18q-39 0 -47.5 -6t-8.5 -32v-233h168v-33h-168z" />
    <glyph glyph-name="eth" unicode="&#xf0;" horiz-adv-x="539" 
d="M168 572l97 50q-23 44 -56 97l16 10q20 -22 71 -92l97 50l14 -26l-93 -49q181 -254 181 -407q0 -91 -66 -154.5t-160 -63.5q-95 0 -160.5 65t-65.5 159q0 92 66 154t164 62q32 0 75 -14q-15 70 -70 181l-95 -51zM262 401q-61 0 -97.5 -48t-36.5 -129q0 -74 31 -131
q44 -81 121 -81q60 0 95.5 48.5t35.5 129.5q0 91 -42.5 151t-106.5 60z" />
    <glyph glyph-name="Yacute" unicode="&#xdd;" horiz-adv-x="585" 
d="M324 376l136 185q23 31 23 54q0 30 -62 30v24q47 -2 106 -2q52 0 88 2v-24q-40 -2 -68 -29q-10 -10 -48 -60l-160 -214v-225q0 -95 62 -95h25v-24q-77 2 -124 2q-46 0 -128 -2v24h16q62 0 62 95v209l-172 230q-65 86 -111 89v24q56 -2 118 -2q61 0 112 2v-24
q-52 0 -52 -21q0 -19 18 -42zM301 756l174 134q13 10 28 10q27 0 27 -26q0 -19 -17 -28l-201 -105z" />
    <glyph glyph-name="yacute" unicode="&#xfd;" horiz-adv-x="408" 
d="M221 109l89 199q13 29 13 51q0 34 -53 36v20q56 -2 78 -2q21 0 78 2v-20q-29 -1 -45.5 -16t-33.5 -54l-212 -478q-25 -57 -59 -57q-19 0 -34 15t-15 35t13 33.5t32 13.5q10 0 22 -6t16 -6q8 0 13 12l58 129l-121 309q-16 41 -29.5 54.5t-41.5 15.5v20q43 -2 89 -2
q30 0 96 2v-20q-51 -4 -51 -30q0 -9 3 -17zM230 471l-10 10l131 175q14 19 30 19q29 0 29 -27q0 -15 -19 -32z" />
    <glyph glyph-name="Thorn" unicode="&#xde;" horiz-adv-x="533" 
d="M207 490v-373q0 -95 62 -95h25v-24l-135 2q-38 0 -126 -2v24h25q62 0 62 95v433q0 95 -62 95h-25v24q56 -2 121 -2q42 0 140 2v-24h-25q-62 0 -62 -95v-28h16q16 0 38 1t25 1q98 0 160 -50.5t62 -130.5q0 -125 -113 -178q-47 -22 -133 -22v20q59 4 96 31q60 44 60 129
q0 93 -61 139q-40 30 -103 30q-21 0 -47 -2z" />
    <glyph glyph-name="thorn" unicode="&#xfe;" horiz-adv-x="533" 
d="M34 660v22q55 10 116 48l9 -3v-377q28 33 72 55t83 22q73 0 125 -58t52 -141q0 -93 -73 -167t-165 -74q-47 0 -94 15v-141q0 -33 8 -44q9 -15 38 -15h36v-20q-55 2 -122 2q-59 0 -100 -2v20h22q29 0 38 15q7 11 7 44l-1 743q-2 31 -12.5 43t-38.5 13zM159 326v-200
q0 -59 20 -81q29 -32 86 -32q67 0 107.5 47.5t40.5 127.5q0 84 -41 135t-108 51q-60 0 -105 -48z" />
    <glyph glyph-name="minus" unicode="&#x2212;" 
d="M23 363h455v-43h-455v43z" />
    <glyph glyph-name="multiply" unicode="&#xd7;" 
d="M92 530l158 -158l158 159l32 -32l-159 -158l158 -158l-30 -30l-158 158l-159 -159l-31 31l159 159l-158 157z" />
    <glyph glyph-name="onesuperior" unicode="&#xb9;" horiz-adv-x="332" 
d="M160 325v280q-12 -6 -41 -20q-11 -5 -41 -18l-7 17q103 51 137 85l10 -3v-341q0 -29 6.5 -36t35.5 -7h25v-19q-43 1 -98 1q-54 0 -97 -1v19h26q29 0 36.5 9.5t7.5 33.5z" />
    <glyph glyph-name="twosuperior" unicode="&#xb2;" horiz-adv-x="332" 
d="M96 314h175q10 0 13.5 3.5t13.5 24.5h17l-18 -78h-272v15q54 41 117 114q70 81 70 150q0 37 -20 59t-54 22q-38 0 -82 -52l-13 10q51 82 124 82q46 0 74.5 -29t28.5 -76q0 -43 -24.5 -81.5t-97.5 -111.5z" />
    <glyph glyph-name="threesuperior" unicode="&#xb3;" horiz-adv-x="332" 
d="M105 458v19q102 12 102 85q0 29 -18.5 47t-47.5 18q-36 0 -70 -34l-15 11q53 60 113 60q39 0 65.5 -23t26.5 -57q0 -53 -70 -95q94 -18 94 -90q0 -55 -47.5 -97t-109.5 -42q-37 0 -71.5 15.5t-34.5 31.5q0 7 10 15t18 8t26 -23q20 -26 58 -26q37 0 65 28.5t28 66.5
q0 53 -51 73q-23 9 -71 9z" />
    <glyph glyph-name="onehalf" unicode="&#xbd;" horiz-adv-x="791" 
d="M160 325v280q-12 -6 -41 -20q-11 -5 -41 -18l-7 17q103 51 137 85l10 -3v-341q0 -29 6.5 -36t35.5 -7h25v-19q-43 1 -98 1q-54 0 -97 -1v19h26q29 0 36.5 9.5t7.5 33.5zM536 660h37l-321 -660h-34zM556 50h175q10 0 13.5 3.5t13.5 24.5h17l-18 -78h-272v15
q48 35 117.5 114.5t69.5 149.5q0 37 -20 59t-54 22q-36 0 -82 -52l-13 9q52 83 124 83q46 0 74.5 -29t28.5 -76q0 -43 -25 -82t-97 -111z" />
    <glyph glyph-name="onequarter" unicode="&#xbc;" horiz-adv-x="791" 
d="M160 325v280q-12 -6 -41 -20q-11 -5 -41 -18l-7 17q103 51 137 85l10 -3v-341q0 -29 6.5 -36t35.5 -7h25v-19q-43 1 -98 1q-54 0 -97 -1v19h26q29 0 36.5 9.5t7.5 33.5zM536 660h37l-321 -660h-34zM711 166h58v-45h-58v-121h-55v121h-178v29l206 246h27v-230zM656 166
v159l-131 -159h131z" />
    <glyph glyph-name="threequarters" unicode="&#xbe;" horiz-adv-x="791" 
d="M105 458v19q102 12 102 85q0 29 -18.5 47t-47.5 18q-36 0 -70 -34l-15 11q53 60 113 60q39 0 65.5 -23t26.5 -57q0 -53 -70 -95q94 -18 94 -90q0 -55 -47.5 -97t-109.5 -42q-37 0 -71.5 15.5t-34.5 31.5q0 7 10 15t18 8t26 -23q20 -26 58 -26q37 0 65 28.5t28 66.5
q0 53 -51 73q-23 9 -71 9zM536 660h37l-321 -660h-34zM711 166h58v-45h-58v-121h-55v121h-178v29l206 246h27v-230zM656 166v159l-131 -159h131z" />
    <glyph glyph-name="franc" unicode="&#x20a3;" horiz-adv-x="750" 
d="M207 632v-272h90q49 0 67 18t18 67h21q-1 -33 -1 -88q0 -72 1 -117h-21q-4 85 -74 85h-101v-208q0 -95 62 -95h31v-24q-57 2 -136 2q-77 0 -131 -2v24h25q62 0 62 95v433q0 95 -62 95h-25v24q59 -2 132 -2h219q71 0 116 2v-140h-20q-8 55 -32.5 79t-73.5 24h-167z
M567 433v-93q73 91 131 91q46 0 46 -41q0 -24 -12 -40t-31 -16q-11 0 -26.5 11.5t-32.5 11.5q-30 0 -52.5 -23.5t-22.5 -55.5v-201q0 -33 7 -44q9 -15 38 -15h48v-20l-135 2q-55 0 -97 -2v20h22q29 0 38 15q7 11 7 44v203q0 47 -4 59q-10 25 -48 28v21q55 12 115 48z" />
    <glyph glyph-name="Gbreve" unicode="&#x11e;" horiz-adv-x="734" 
d="M653 627l14 -131h-18q-12 63 -54 98q-65 54 -168 54q-127 0 -204.5 -81.5t-77.5 -215.5q0 -137 80.5 -232.5t196.5 -95.5q79 0 143 36v100q0 57 -5 71q-12 29 -59 30q-4 0 -15 1v23q58 -2 111 -2q50 0 120 2l1 -23q-40 -1 -52.5 -18t-12.5 -75v-66q0 -7 1 -15v-7
q-1 -9 1 -14q1 -1 9 -4l6 -3l-2 -15q-166 -54 -269 -54q-151 0 -253.5 98t-102.5 244q0 157 113 254q109 93 264 93q97 0 233 -52zM279 887h21q30 -78 120 -78q91 0 121 78h21q-15 -134 -142 -134q-126 0 -141 134z" />
    <glyph glyph-name="gbreve" unicode="&#x11f;" horiz-adv-x="460" 
d="M465 361h-102q23 -34 23 -74q0 -59 -49 -100.5t-118 -41.5q-19 0 -51 4q-39 -26 -39 -50q0 -27 31 -35q23 -6 87 -6h24q15 0 39 1h28q130 0 130 -95q0 -68 -77.5 -119t-181.5 -51q-80 0 -132.5 29.5t-52.5 74.5q0 69 107 99q-33 13 -48 26q-32 22 -32 53q0 10 11 37
q43 18 77 45q-98 35 -98 123q0 62 51.5 103.5t127.5 41.5q53 0 123 -33l122 6v-38zM211 402q-41 0 -67.5 -31.5t-26.5 -79.5q0 -52 29 -88t72 -36q42 0 66.5 32t24.5 86q0 53 -27 85t-71 32zM286 -7q-101 0 -136 -11q-22 -7 -37 -26t-15 -40q0 -40 42 -66.5t104 -26.5
q70 0 118 30.5t48 74.5q0 19 -13 33q-30 32 -111 32zM330 645h19q-1 -58 -22 -91q-36 -58 -107 -58q-72 0 -109 62q-20 33 -21 87h19q9 -42 40 -68.5t71 -26.5t71 26.5t39 68.5z" />
    <glyph glyph-name="Scedilla" unicode="&#x15e;" horiz-adv-x="468" 
d="M401 542h-17q-16 50 -41 73q-35 32 -88 32q-52 0 -87.5 -32t-35.5 -79q0 -49 33 -88q22 -27 91 -64q99 -54 135 -97t36 -107q0 -74 -47.5 -124.5t-129.5 -65.5q-17 -17 -17 -25q0 -10 25 -43q32 -42 32 -63q0 -23 -26 -51q-34 -37 -75 -37q-64 0 -64 39q0 27 27 27
q12 0 33 -13q25 -16 36 -16q8 0 15.5 7.5t7.5 15.5t-19 35q-4 5 -27 38q-18 26 -18 40q0 17 30 42q-115 3 -172 45l-11 132h15q25 -67 54 -97q44 -46 113 -46q56 0 95.5 38.5t39.5 93.5q0 43 -26 74.5t-90 66.5q-87 48 -118 80q-52 55 -52 130q0 77 56 127t143 50
q57 0 132 -24z" />
    <glyph glyph-name="scedilla" unicode="&#x15f;" horiz-adv-x="365" 
d="M314 311h-17q-14 40 -23 54q-27 40 -84 40q-31 0 -51.5 -19.5t-20.5 -48.5q0 -25 15.5 -40.5t57.5 -35.5q81 -38 110.5 -68.5t29.5 -75.5q0 -49 -34 -83t-92 -45q-13 -13 -13 -20q0 -10 24 -41q29 -38 29 -58t-24 -46q-31 -34 -69 -34q-58 0 -58 35q0 24 24 24
q10 0 30 -12q25 -15 34 -15q8 0 15.5 7.5t7.5 14.5q0 9 -18 34q-16 21 -39 57q-3 7 -3 14q0 16 27 38q-29 -1 -68 11.5t-57 27.5l-5 105h16q25 -118 123 -118q35 0 57.5 20.5t22.5 52.5q0 29 -21.5 49.5t-83.5 50.5q-51 25 -72 47q-31 33 -31 75q0 50 40.5 84.5t99.5 34.5
q54 0 121 -26v-90z" />
    <glyph glyph-name="Cacute" unicode="&#x106;" horiz-adv-x="684" 
d="M646 627l10 -125l-17 -1q-17 63 -51 94q-58 52 -162 52q-142 0 -217 -93q-67 -83 -67 -202q0 -122 65 -214q39 -55 99 -87t125 -32q46 0 90 16t69.5 42.5t47.5 94.5l16 -5l-15 -122q-87 -58 -231 -58q-156 0 -260.5 99.5t-104.5 247.5t107.5 246.5t268.5 98.5
q113 0 227 -52zM369 739l-13 16l145 126q23 20 37 20q28 0 28 -27q0 -15 -25 -30z" />
    <glyph glyph-name="cacute" unicode="&#x107;" horiz-adv-x="433" 
d="M397 90l14 -14q-88 -90 -177 -90q-77 0 -134 62.5t-57 146.5q0 97 69 164t168 67q53 0 96 -17.5t43 -39.5q0 -16 -13 -32.5t-26 -16.5q-14 0 -29 21q-45 61 -99 61q-55 0 -93.5 -49.5t-38.5 -120.5q0 -77 49.5 -130t121.5 -53q58 0 106 41zM240 471l-12 9l105 171
q15 24 32 24q11 0 19.5 -8t8.5 -18q0 -13 -13 -27z" />
    <glyph glyph-name="Ccaron" unicode="&#x10c;" horiz-adv-x="684" 
d="M646 627l10 -125l-17 -1q-17 63 -51 94q-58 52 -162 52q-142 0 -217 -93q-67 -83 -67 -202q0 -122 65 -214q39 -55 99 -87t125 -32q46 0 90 16t69.5 42.5t47.5 94.5l16 -5l-15 -122q-87 -58 -231 -58q-156 0 -260.5 99.5t-104.5 247.5t107.5 246.5t268.5 98.5
q113 0 227 -52zM424 815l132 85l15 -9l-147 -151l-156 151l14 9z" />
    <glyph glyph-name="ccaron" unicode="&#x10d;" horiz-adv-x="433" 
d="M397 90l14 -14q-88 -90 -177 -90q-77 0 -134 62.5t-57 146.5q0 97 69 164t168 67q53 0 96 -17.5t43 -39.5q0 -16 -13 -32.5t-26 -16.5q-14 0 -29 21q-45 61 -99 61q-55 0 -93.5 -49.5t-38.5 -120.5q0 -77 49.5 -130t121.5 -53q58 0 106 41zM272 566l108 138l14 -9
l-122 -224l-114 224l14 9z" />
    <glyph glyph-name="sfthyphen" unicode="&#xad;" horiz-adv-x="207" 
d="M0 187l13 53h194l-14 -53h-193z" />
    <glyph glyph-name="overscore.001" unicode="&#xaf;" 
d="M23 842h455v-43h-455v43z" />
    <glyph glyph-name="mu1" unicode="&#xb5;" horiz-adv-x="445" 
d="M455 52v-16l-81 -46q-2 -1 -4 -1q-38 0 -48 65l-3 19q-55 -54 -85 -71t-69 -17q-81 0 -109 89q-1 -13 -1 -30q0 -42 14 -136q5 -34 5 -48q0 -50 -38 -50t-38 47q0 20 7 60q28 161 28 361v179h72v-286q0 -84 26 -113q23 -26 62 -26q67 0 122 79v346h71v-340q0 -37 3 -50
q8 -26 35 -26q15 0 31 11z" />
    <glyph glyph-name="mu1" unicode="&#x3bc;" horiz-adv-x="445" 
d="M455 52v-16l-81 -46q-2 -1 -4 -1q-38 0 -48 65l-3 19q-55 -54 -85 -71t-69 -17q-81 0 -109 89q-1 -13 -1 -30q0 -42 14 -136q5 -34 5 -48q0 -50 -38 -50t-38 47q0 20 7 60q28 161 28 361v179h72v-286q0 -84 26 -113q23 -26 62 -26q67 0 122 79v346h71v-340q0 -37 3 -50
q8 -26 35 -26q15 0 31 11z" />
    <glyph glyph-name="periodcentered" unicode="&#xb7;" 
d="M251 271q23 0 40 -17t17 -41t-17 -41t-41 -17t-41 17t-17 41t17 41t42 17z" />
    <glyph glyph-name="Amacron" unicode="&#x100;" horiz-adv-x="632" 
d="M402 249h-221l-50 -164q-3 -10 -3 -19q0 -22 14 -30.5t71 -13.5v-24q-55 2 -129 2q-56 0 -91 -2v24q43 2 64 23q18 17 34 63l179 507l-10 29q29 19 50 46q9 12 16 12q9 0 13 -10l214 -600q14 -39 34.5 -54t57.5 -16v-24q-52 2 -118 2q-67 0 -123 -2v24l22 1q42 2 42 28
q0 10 -8 33zM387 284l-100 288l-93 -288h193zM175 800l13 41h287l-20 -41h-280z" />
    <glyph glyph-name="amacron" unicode="&#x101;" horiz-adv-x="438" 
d="M434 45l10 -12q-42 -47 -89 -47q-30 0 -48 22q-13 16 -18 53q-83 -74 -149 -74q-40 0 -69.5 26t-29.5 61q0 61 92 102q50 22 153 58v34q0 56 -22 81.5t-64 25.5q-38 0 -62 -22q-14 -13 -23 -50q-3 -14 -20 -23q-26 -14 -38 -14q-18 0 -18 24q0 45 105 96q84 41 113 41
q35 0 63 -18q39 -25 39 -84v-206q0 -84 42 -84q13 0 33 10zM286 84v124q-55 -16 -100 -34q-67 -27 -67 -76q0 -28 21 -47.5t50 -19.5q23 0 39.5 9t56.5 44zM120 551l13 40h257l-20 -40h-250z" />
    <glyph glyph-name="Abreve" unicode="&#x102;" horiz-adv-x="632" 
d="M402 249h-221l-50 -164q-3 -10 -3 -19q0 -22 14 -30.5t71 -13.5v-24q-55 2 -129 2q-56 0 -91 -2v24q43 2 64 23q18 17 34 63l179 507l-10 29q29 19 50 46q9 12 16 12q9 0 13 -10l214 -600q14 -39 34.5 -54t57.5 -16v-24q-52 2 -118 2q-67 0 -123 -2v24l22 1q42 2 42 28
q0 10 -8 33zM387 284l-100 288l-93 -288h193zM171 887h21q30 -78 120 -78q91 0 121 78h21q-15 -134 -142 -134q-126 0 -141 134z" />
    <glyph glyph-name="abreve" unicode="&#x103;" horiz-adv-x="438" 
d="M434 45l10 -12q-42 -47 -89 -47q-30 0 -48 22q-13 16 -18 53q-83 -74 -149 -74q-40 0 -69.5 26t-29.5 61q0 61 92 102q50 22 153 58v34q0 56 -22 81.5t-64 25.5q-38 0 -62 -22q-14 -13 -23 -50q-3 -14 -20 -23q-26 -14 -38 -14q-18 0 -18 24q0 45 105 96q84 41 113 41
q35 0 63 -18q39 -25 39 -84v-206q0 -84 42 -84q13 0 33 10zM286 84v124q-55 -16 -100 -34q-67 -27 -67 -76q0 -28 21 -47.5t50 -19.5q23 0 39.5 9t56.5 44zM366 645h19q-1 -58 -22 -91q-36 -58 -108 -58q-71 0 -107 58q-21 33 -22 91h19q8 -42 39 -68.5t71 -26.5
q41 0 72 26.5t39 68.5z" />
    <glyph glyph-name="Aogonek" unicode="&#x104;" horiz-adv-x="632" 
d="M560 0l-16 -16q-51 -51 -51 -91q0 -26 19.5 -41.5t50.5 -15.5q19 0 43 7l5 -21q-46 -19 -81 -19q-44 0 -73.5 22t-29.5 54q0 60 102 121q-71 0 -125 -2v24l22 1q42 2 42 28q0 10 -8 33l-58 165h-221l-50 -164q-3 -10 -3 -19q0 -22 14 -30.5t71 -13.5v-24q-55 2 -129 2
q-56 0 -91 -2v24q43 2 64 23q18 17 34 63l179 507l-10 29q29 19 50 46q9 12 16 12q9 0 13 -10l214 -600q14 -39 34.5 -54t57.5 -16v-24q-45 2 -85 2zM387 284l-100 288l-93 -288h193z" />
    <glyph glyph-name="aogonek" unicode="&#x105;" horiz-adv-x="438" 
d="M434 45l10 -12q-42 -47 -89 -47q-12 0 -23 5q-51 -51 -51 -89q0 -25 18 -40t48 -15q17 0 40 6l4 -17q-44 -17 -74 -17q-41 0 -68 20t-27 50q0 55 94 111q-20 15 -27 61q-83 -74 -149 -74q-40 0 -69.5 26t-29.5 61q0 62 92 102q54 23 153 58v34q0 56 -22 81.5t-64 25.5
q-38 0 -62 -22q-14 -13 -23 -50q-3 -14 -20 -23q-26 -14 -38 -14q-18 0 -18 24q0 45 105 96q84 41 113 41q35 0 63 -18q39 -25 39 -84v-206q0 -84 42 -84q13 0 33 10zM286 84v124q-55 -16 -100 -34q-67 -27 -67 -76q0 -28 21 -47.5t50 -19.5q23 0 39.5 9t56.5 44z" />
    <glyph glyph-name="Ccircumflex" unicode="&#x108;" horiz-adv-x="684" 
d="M646 627l10 -125l-17 -1q-17 63 -51 94q-58 52 -162 52q-142 0 -217 -93q-67 -83 -67 -202q0 -122 65 -214q39 -55 99 -87t125 -32q46 0 90 16t69.5 42.5t47.5 94.5l16 -5l-15 -122q-87 -58 -231 -58q-156 0 -260.5 99.5t-104.5 247.5t107.5 246.5t268.5 98.5
q113 0 227 -52zM430 825l-142 -85l-14 9l156 151l147 -151l-14 -9z" />
    <glyph glyph-name="Cdotaccent" unicode="&#x10a;" horiz-adv-x="684" 
d="M646 627l10 -125l-17 -1q-17 63 -51 94q-58 52 -162 52q-142 0 -217 -93q-67 -83 -67 -202q0 -122 65 -214q39 -55 99 -87t125 -32q46 0 90 16t69.5 42.5t47.5 94.5l16 -5l-15 -122q-87 -58 -231 -58q-156 0 -260.5 99.5t-104.5 247.5t107.5 246.5t268.5 98.5
q113 0 227 -52zM420 867q19 0 32.5 -14t13.5 -33t-13.5 -33t-33.5 -14q-19 0 -33 14t-14 33q0 20 14 33.5t34 13.5z" />
    <glyph glyph-name="cdotaccent" unicode="&#x10b;" horiz-adv-x="433" 
d="M397 90l14 -14q-88 -90 -177 -90q-77 0 -134 62.5t-57 146.5q0 97 69 164t168 67q53 0 96 -17.5t43 -39.5q0 -16 -13 -32.5t-26 -16.5q-14 0 -29 21q-45 61 -99 61q-55 0 -93.5 -49.5t-38.5 -120.5q0 -77 49.5 -130t121.5 -53q58 0 106 41zM274 614q17 0 30 -13t13 -31
t-13 -31t-31 -13t-31 13t-13 31t13 31t32 13z" />
    <glyph glyph-name="Dcaron" unicode="&#x10e;" horiz-adv-x="741" 
d="M120 117v433q0 95 -62 95h-23v24l112 -2q25 0 76 2t76 2q180 0 289.5 -94t109.5 -248q0 -148 -104.5 -240.5t-270.5 -92.5q-18 0 -87 3q-23 1 -81 1q-66 0 -122 -2v24h25q62 0 62 95zM207 599v-466q0 -55 19 -77q26 -30 106 -30q127 0 203 94q64 79 64 194
q0 114 -53.5 195.5t-145.5 109.5q-58 18 -137 18q-39 0 -47.5 -6t-8.5 -32zM338 815l132 85l15 -9l-147 -151l-156 151l14 9z" />
    <glyph glyph-name="dcaron" unicode="&#x10f;" horiz-adv-x="590" 
d="M378 -11v66q-82 -69 -156 -69t-127 54.5t-53 130.5q0 95 56 162q78 93 189 93q52 0 91 -23v170q0 48 -4 59q-10 25 -48 28v22q62 13 116 48l9 -3v-627q0 -33 2 -41q6 -23 28 -23q9 0 36 3v-20q-73 -11 -130 -32zM378 115v195q0 38 -27 60q-38 31 -81 31q-36 0 -70 -19.5
t-54 -51.5q-27 -43 -27 -112q0 -76 48.5 -130.5t115.5 -54.5q42 0 68.5 22.5t26.5 59.5zM491 470l-3 19q35 10 56 37t21 62q0 37 -32 40q-63 6 -63 51q0 22 17 36.5t42 14.5q37 0 60.5 -28t23.5 -72q0 -61 -32.5 -103.5t-89.5 -56.5z" />
    <glyph glyph-name="Dcroat" unicode="&#x110;" horiz-adv-x="741" 
d="M120 333h-78v33h78v184q0 95 -62 95h-23v24l112 -2q50 0 71 1q62 3 80 3q179 0 289 -94t110 -248q0 -148 -104.5 -240.5t-270.5 -92.5q-17 0 -86 3q-23 1 -81 1q-66 0 -122 -2v24h25q62 0 62 95v216zM207 333v-200q0 -56 18 -77q26 -30 106 -30q127 0 203 94
q64 79 64 194q0 114 -53 195.5t-146 109.5q-59 18 -136 18q-39 0 -47.5 -6t-8.5 -32v-233h168v-33h-168z" />
    <glyph glyph-name="dcroat" unicode="&#x111;" horiz-adv-x="537" 
d="M378 541v32q0 48 -4 59q-10 25 -48 28v22q62 13 116 48l9 -3v-186h66v-30h-66v-411q0 -33 2 -41q6 -23 28 -23q9 0 36 3v-20q-73 -11 -130 -32l-9 2v66q-82 -69 -157 -69q-74 0 -127 54.5t-53 130.5q0 96 56 162q79 93 189 93q53 0 92 -23v108h-148v30h148zM378 115v195
q0 38 -27 60q-38 31 -82 31q-35 0 -69.5 -20t-54.5 -51q-27 -43 -27 -112q0 -76 48.5 -130.5t115.5 -54.5q43 0 69.5 22.5t26.5 59.5z" />
    <glyph glyph-name="Emacron" unicode="&#x112;" horiz-adv-x="573" 
d="M207 632v-272h126q45 0 62.5 18.5t19.5 67.5h21q-2 -69 -2 -102q0 -36 2 -104h-21q-2 48 -18.5 66.5t-58.5 18.5h-131v-186q0 -82 55 -98q26 -8 105 -8q89 0 123 19.5t59 84.5h20l-31 -139q-37 2 -115 2h-274q-79 0 -116 -2v24h25q62 0 62 95v433q0 95 -62 95h-25v24
q37 -2 116 -2h226q78 0 116 2l6 -142l-18 -3q-19 108 -115 108h-157zM153 800l13 41h287l-20 -41h-280z" />
    <glyph glyph-name="emacron" unicode="&#x113;" horiz-adv-x="447" 
d="M341 272h-224q-2 -32 -2 -39q0 -83 44.5 -138t111.5 -55q63 0 132 54l11 -13q-95 -94 -184 -94q-83 0 -135.5 57t-52.5 148q0 102 57 168.5t145 66.5q70 0 119 -39t49 -95q0 -15 -9.5 -18t-61.5 -3zM119 295h177q36 0 36 29q0 32 -27 56t-64 24q-67 0 -102 -54
q-14 -21 -20 -55zM128 551l14 40h256l-20 -40h-250z" />
    <glyph glyph-name="Ebreve" unicode="&#x114;" horiz-adv-x="573" 
d="M207 632v-272h126q45 0 62.5 18.5t19.5 67.5h21q-2 -69 -2 -102q0 -36 2 -104h-21q-2 48 -18.5 66.5t-58.5 18.5h-131v-186q0 -82 55 -98q26 -8 105 -8q89 0 123 19.5t59 84.5h20l-31 -139q-37 2 -115 2h-274q-79 0 -116 -2v24h25q62 0 62 95v433q0 95 -62 95h-25v24
q37 -2 116 -2h226q78 0 116 2l6 -142l-18 -3q-19 108 -115 108h-157zM155 887h21q30 -78 120 -78q91 0 121 78h21q-15 -134 -142 -134q-126 0 -141 134z" />
    <glyph glyph-name="ebreve" unicode="&#x115;" horiz-adv-x="447" 
d="M341 272h-224q-2 -32 -2 -39q0 -83 44.5 -138t111.5 -55q63 0 132 54l11 -13q-95 -94 -184 -94q-83 0 -135.5 57t-52.5 148q0 102 57 168.5t145 66.5q70 0 119 -39t49 -95q0 -15 -9.5 -18t-61.5 -3zM119 295h177q36 0 36 29q0 32 -27 56t-64 24q-67 0 -102 -54
q-14 -21 -20 -55zM357 645h19q-1 -58 -22 -91q-36 -58 -107 -58q-72 0 -109 62q-20 33 -21 87h19q8 -42 39 -68.5t72 -26.5q40 0 71 26.5t39 68.5z" />
    <glyph glyph-name="Edotaccent" unicode="&#x116;" horiz-adv-x="573" 
d="M207 632v-272h126q45 0 62.5 18.5t19.5 67.5h21q-2 -69 -2 -102q0 -36 2 -104h-21q-2 48 -18.5 66.5t-58.5 18.5h-131v-186q0 -82 55 -98q26 -8 105 -8q89 0 123 19.5t59 84.5h20l-31 -139q-37 2 -115 2h-274q-79 0 -116 -2v24h25q62 0 62 95v433q0 95 -62 95h-25v24
q37 -2 116 -2h226q78 0 116 2l6 -142l-18 -3q-19 108 -115 108h-157zM301 867q19 0 32.5 -14t13.5 -33t-13.5 -33t-33.5 -14q-19 0 -33 14t-14 33q0 20 14 33.5t34 13.5z" />
    <glyph glyph-name="edotaccent" unicode="&#x117;" horiz-adv-x="447" 
d="M341 272h-224q-2 -32 -2 -39q0 -83 44.5 -138t111.5 -55q63 0 132 54l11 -13q-95 -94 -184 -94q-83 0 -135.5 57t-52.5 148q0 102 57 168.5t145 66.5q70 0 119 -39t49 -95q0 -15 -9.5 -18t-61.5 -3zM119 295h177q36 0 36 29q0 32 -27 56t-64 24q-67 0 -102 -54
q-14 -21 -20 -55zM244 614q17 0 30 -13t13 -31t-13 -31t-31 -13t-31 13t-13 31t13 31t32 13z" />
    <glyph glyph-name="Eogonek" unicode="&#x118;" horiz-adv-x="573" 
d="M569 137l-31 -139q-21 1 -40 1q-14 0 -26 1q-41 -41 -54 -61.5t-13 -45.5q0 -26 19.5 -41.5t50.5 -15.5q19 0 43 7l5 -21q-46 -19 -81 -19q-44 0 -73.5 22t-29.5 54q0 59 102 121h-292q-79 0 -116 -2v24h25q62 0 62 95v433q0 95 -62 95h-25v24q37 -2 116 -2h226
q78 0 116 2l6 -142l-18 -3q-19 108 -115 108h-157v-272h126q45 0 62.5 18.5t19.5 67.5h21l-2 -102q0 -22 2 -104h-21q-2 48 -18.5 66.5t-58.5 18.5h-131v-186q0 -82 55 -98q26 -8 105 -8q89 0 123 19.5t59 84.5h20z" />
    <glyph glyph-name="eogonek" unicode="&#x119;" horiz-adv-x="447" 
d="M403 94l11 -13q-39 -39 -68 -57q-50 -41 -69 -67.5t-19 -55.5q0 -24 18 -39t48 -15q17 0 39 6l5 -17q-44 -17 -74 -17q-41 0 -68 20t-27 50q0 26 13.5 46.5t52.5 54.5q-18 -3 -34 -3q-84 0 -136.5 56.5t-52.5 147.5q0 103 57 169.5t145 66.5q70 0 119 -39t49 -95
q0 -15 -9.5 -18t-61.5 -3h-224q-2 -32 -2 -39q0 -83 44.5 -138t111.5 -55q63 0 132 54zM119 295h177q36 0 36 29q0 32 -27 56t-64 24q-67 0 -102 -54q-14 -21 -20 -55z" />
    <glyph glyph-name="Ecaron" unicode="&#x11a;" horiz-adv-x="573" 
d="M207 632v-272h126q45 0 62.5 18.5t19.5 67.5h21q-2 -69 -2 -102q0 -36 2 -104h-21q-2 48 -18.5 66.5t-58.5 18.5h-131v-186q0 -82 55 -98q26 -8 105 -8q89 0 123 19.5t59 84.5h20l-31 -139q-37 2 -115 2h-274q-79 0 -116 -2v24h25q62 0 62 95v433q0 95 -62 95h-25v24
q37 -2 116 -2h226q78 0 116 2l6 -142l-18 -3q-19 108 -115 108h-157zM301 815l132 85l15 -9l-147 -151l-156 151l14 9z" />
    <glyph glyph-name="ecaron" unicode="&#x11b;" horiz-adv-x="447" 
d="M341 272h-224q-2 -32 -2 -39q0 -83 44.5 -138t111.5 -55q63 0 132 54l11 -13q-95 -94 -184 -94q-83 0 -135.5 57t-52.5 148q0 102 57 168.5t145 66.5q70 0 119 -39t49 -95q0 -15 -9.5 -18t-61.5 -3zM119 295h177q36 0 36 29q0 32 -27 56t-64 24q-67 0 -102 -54
q-14 -21 -20 -55zM246 566l108 138l14 -9l-122 -224l-114 224l14 9z" />
    <glyph glyph-name="Gcircumflex" unicode="&#x11c;" horiz-adv-x="734" 
d="M653 627l14 -131h-18q-12 63 -54 98q-65 54 -168 54q-127 0 -204.5 -81.5t-77.5 -215.5q0 -137 80.5 -232.5t196.5 -95.5q79 0 143 36v100q0 57 -5 71q-12 29 -59 30q-4 0 -15 1v23q58 -2 111 -2q50 0 120 2l1 -23q-40 -1 -52.5 -18t-12.5 -75v-66q0 -7 1 -15v-7
q-1 -9 1 -14q1 -1 9 -4l6 -3l-2 -15q-166 -54 -269 -54q-151 0 -253.5 98t-102.5 244q0 157 113 254q109 93 264 93q97 0 233 -52zM422 825l-142 -85l-14 9l156 151l147 -151l-15 -9z" />
    <glyph glyph-name="gcircumflex" unicode="&#x11d;" horiz-adv-x="460" 
d="M465 361h-102q23 -34 23 -74q0 -59 -49 -100.5t-118 -41.5q-19 0 -51 4q-39 -26 -39 -50q0 -27 31 -35q23 -6 87 -6h24q15 0 39 1h28q130 0 130 -95q0 -68 -77.5 -119t-181.5 -51q-80 0 -132.5 29.5t-52.5 74.5q0 69 107 99q-33 13 -48 26q-32 22 -32 53q0 10 11 37
q43 18 77 45q-98 35 -98 123q0 62 51.5 103.5t127.5 41.5q53 0 123 -33l122 6v-38zM211 402q-41 0 -67.5 -31.5t-26.5 -79.5q0 -52 29 -88t72 -36q42 0 66.5 32t24.5 86q0 53 -27 85t-71 32zM286 -7q-101 0 -136 -11q-22 -7 -37 -26t-15 -40q0 -40 42 -66.5t104 -26.5
q70 0 118 30.5t48 74.5q0 19 -13 33q-30 32 -111 32zM231 609l-108 -138l-15 9l123 224l114 -224l-15 -9z" />
    <glyph glyph-name="Gdotaccent" unicode="&#x120;" horiz-adv-x="734" 
d="M653 627l14 -131h-18q-12 63 -54 98q-65 54 -168 54q-127 0 -204.5 -81.5t-77.5 -215.5q0 -137 80.5 -232.5t196.5 -95.5q79 0 143 36v100q0 57 -5 71q-12 29 -59 30q-4 0 -15 1v23q58 -2 111 -2q50 0 120 2l1 -23q-40 -1 -52.5 -18t-12.5 -75v-66q0 -7 1 -15v-7
q-1 -9 1 -14q1 -1 9 -4l6 -3l-2 -15q-166 -54 -269 -54q-151 0 -253.5 98t-102.5 244q0 157 113 254q109 93 264 93q97 0 233 -52zM425 867q19 0 32.5 -14t13.5 -33t-13.5 -33t-33.5 -14q-19 0 -33 14t-14 33q0 20 14 33.5t34 13.5z" />
    <glyph glyph-name="gdotaccent" unicode="&#x121;" horiz-adv-x="460" 
d="M465 361h-102q23 -34 23 -74q0 -59 -49 -100.5t-118 -41.5q-19 0 -51 4q-39 -26 -39 -50q0 -27 31 -35q23 -6 87 -6h24q15 0 39 1h28q130 0 130 -95q0 -68 -77.5 -119t-181.5 -51q-80 0 -132.5 29.5t-52.5 74.5q0 69 107 99q-33 13 -48 26q-32 22 -32 53q0 10 11 37
q43 18 77 45q-98 35 -98 123q0 62 51.5 103.5t127.5 41.5q53 0 123 -33l122 6v-38zM211 402q-41 0 -67.5 -31.5t-26.5 -79.5q0 -52 29 -88t72 -36q42 0 66.5 32t24.5 86q0 53 -27 85t-71 32zM286 -7q-101 0 -136 -11q-22 -7 -37 -26t-15 -40q0 -40 42 -66.5t104 -26.5
q70 0 118 30.5t48 74.5q0 19 -13 33q-30 32 -111 32zM227 614q17 0 30 -13t13 -31t-13 -31t-31 -13t-31 13t-13 31t13 31t32 13z" />
    <glyph glyph-name="Gcommaaccent" unicode="&#x122;" horiz-adv-x="734" 
d="M653 627l14 -131h-18q-12 63 -54 98q-65 54 -168 54q-127 0 -204.5 -81.5t-77.5 -215.5q0 -137 80.5 -232.5t196.5 -95.5q79 0 143 36v100q0 57 -5 71q-12 29 -59 30q-4 0 -15 1v23q58 -2 111 -2q50 0 120 2l1 -23q-40 -1 -52.5 -18t-12.5 -75v-66q0 -7 1 -15v-7
q-1 -9 1 -14q1 -1 9 -4l6 -3l-2 -15q-166 -54 -269 -54q-151 0 -253.5 98t-102.5 244q0 157 113 254q109 93 264 93q97 0 233 -52zM355 -327l-4 20q82 25 82 105q0 38 -34 42q-67 7 -67 53q0 23 18 38.5t45 15.5q39 0 63.5 -29.5t24.5 -76.5q0 -64 -34.5 -109t-93.5 -59z
" />
    <glyph glyph-name="gcommaaccent" unicode="&#x123;" horiz-adv-x="460" 
d="M465 361h-102q23 -34 23 -74q0 -59 -49 -100.5t-118 -41.5q-19 0 -51 4q-39 -26 -39 -50q0 -27 31 -35q23 -6 87 -6h24q15 0 39 1h28q130 0 130 -95q0 -68 -77.5 -119t-181.5 -51q-80 0 -132.5 29.5t-52.5 74.5q0 69 107 99q-33 13 -48 26q-32 22 -32 53q0 10 11 37
q43 18 77 45q-98 35 -98 123q0 62 51.5 103.5t127.5 41.5q53 0 123 -33l122 6v-38zM211 402q-41 0 -67.5 -31.5t-26.5 -79.5q0 -52 29 -88t72 -36q42 0 66.5 32t24.5 86q0 53 -27 85t-71 32zM286 -7q-101 0 -136 -11q-22 -7 -37 -26t-15 -40q0 -40 42 -66.5t104 -26.5
q70 0 118 30.5t48 74.5q0 19 -13 33q-30 32 -111 32zM287 750l3 -19q-77 -23 -77 -99q0 -37 32 -40q63 -6 63 -51q0 -22 -17 -36.5t-42 -14.5q-37 0 -60.5 28t-23.5 73q0 61 32.5 103.5t89.5 55.5z" />
    <glyph glyph-name="Hcircumflex" unicode="&#x124;" horiz-adv-x="824" 
d="M617 325h-410v-208q0 -95 62 -95h25v-24l-146 2q-53 0 -115 -2v24h25q62 0 62 95v433q0 95 -62 95h-25v24q54 -2 134 -2q76 0 127 2v-24h-25q-62 0 -62 -95v-190h410v190q0 95 -62 95h-25v24q46 -2 149 -2q75 0 112 2v-24h-25q-62 0 -62 -95v-433q0 -95 62 -95h25v-24
q-62 2 -113 2q-35 0 -148 -2v24h25q62 0 62 95v208zM426 825l-142 -85l-14 9l156 151l147 -151l-14 -9z" />
    <glyph glyph-name="Hbar" unicode="&#x126;" horiz-adv-x="824" 
d="M120 466h-105v33h105v51q0 95 -62 95h-25v24q54 -2 134 -2q76 0 127 2v-24h-25q-62 0 -62 -95v-51h410v51q0 95 -62 95h-25v24q46 -2 149 -2q75 0 112 2v-24h-25q-62 0 -62 -95v-51h104v-33h-104v-349q0 -95 62 -95h25v-24q-62 2 -113 2q-32 0 -148 -2v24h25q62 0 62 95
v208h-410v-208q0 -95 62 -95h25v-24l-146 2q-53 0 -115 -2v24h25q62 0 62 95v349zM207 466v-106h410v106h-410z" />
    <glyph glyph-name="hbar" unicode="&#x127;" horiz-adv-x="517" 
d="M86 511h-75v30h75v32q0 48 -4 59q-10 25 -48 28v22q59 13 115 48l9 -3v-186h140v-30h-140v-165q89 81 152 81q54 0 90 -42t36 -105v-203q0 -33 7 -44q9 -15 38 -15h22v-20q-41 2 -110 2q-53 0 -83 -2v20h8q29 0 38 15q7 11 7 44v138q0 57 -3 76t-16 40q-25 41 -69 41
q-57 0 -117 -52v-243q0 -33 7 -44q9 -15 38 -15h22v-20q-38 2 -97 2q-65 0 -109 -2v20h22q29 0 38 15q7 11 7 44v434z" />
    <glyph glyph-name="Imacron" unicode="&#x12a;" horiz-adv-x="327" 
d="M207 550v-433q0 -95 62 -95h25v-24l-135 2q-37 0 -126 -2v24h25q62 0 62 95v433q0 95 -62 95h-25v24q56 -2 121 -2q43 0 140 2v-24h-25q-62 0 -62 -95zM30 800l13 41h287l-20 -41h-280z" />
    <glyph glyph-name="imacron" unicode="&#x12b;" horiz-adv-x="246" 
d="M161 434v-357q0 -33 7 -44q9 -15 38 -15h22v-20q-38 2 -97 2q-65 0 -109 -2v20h22q29 0 38 15q7 11 7 44v203q0 48 -4 59q-10 25 -48 28v21q55 12 115 48zM5 551l13 40h244l-20 -40h-237z" />
    <glyph glyph-name="ibreve" unicode="&#x12d;" horiz-adv-x="246" 
d="M160 434v-357q0 -33 7 -44q9 -15 38 -15h22v-20q-38 2 -97 2q-65 0 -109 -2v20h22q29 0 38 15q7 11 7 44v203q0 47 -4 59q-9 25 -47 28v21q53 12 114 48zM230 645h19q-1 -58 -22 -91q-36 -58 -108 -58q-71 0 -107 58q-21 33 -22 91h19q8 -42 39 -68.5t71 -26.5
q41 0 72 26.5t39 68.5z" />
    <glyph glyph-name="Iogonek" unicode="&#x12e;" horiz-adv-x="327" 
d="M229 -1l-35 1q-66 -66 -66 -107q0 -25 19 -41t50 -16q20 0 43 7l6 -21q-47 -19 -82 -19q-44 0 -73.5 22t-29.5 54q0 61 102 121h-18q-5 0 -112 -2v24h25q62 0 62 95v433q0 95 -62 95h-25v24q56 -2 121 -2q43 0 140 2v-24h-25q-62 0 -62 -95v-433q0 -95 61 -95h25v-24z
" />
    <glyph glyph-name="iogonek" unicode="&#x12f;" horiz-adv-x="246" 
d="M227 18v-20l-74 2q-59 -60 -59 -99q0 -25 18 -40t47 -15q14 0 39 7l4 -17q-41 -18 -73 -18q-41 0 -68 20t-27 50q0 54 94 112q-24 0 -106 -2v20h21q30 0 39 15q7 11 7 44v202q0 48 -4 59q-10 26 -48 29v21q55 12 115 48l9 -3v-356q0 -33 7 -44q9 -15 38 -15h21zM127 654
q18 0 31 -13t13 -31q0 -19 -13 -32t-31 -13q-19 0 -32 13t-13 32q0 18 13 31t32 13z" />
    <glyph glyph-name="Idotaccent" unicode="&#x130;" horiz-adv-x="327" 
d="M207 550v-433q0 -95 62 -95h25v-24l-135 2q-37 0 -126 -2v24h25q62 0 62 95v433q0 95 -62 95h-25v24q56 -2 121 -2q43 0 140 2v-24h-25q-62 0 -62 -95zM171 867q19 0 32.5 -14t13.5 -33t-13.5 -33t-33.5 -14q-19 0 -33 14t-14 33q0 20 14 33.5t34 13.5z" />
    <glyph glyph-name="IJ" unicode="&#x132;" horiz-adv-x="640" 
d="M207 550v-433q0 -95 62 -95h25v-24l-135 2q-37 0 -126 -2v24h25q62 0 62 95v433q0 95 -62 95h-25v24q56 -2 121 -2q43 0 140 2v-24h-25q-62 0 -62 -95zM533 550v-501q0 -94 -39 -167q-23 -43 -65.5 -68t-91.5 -25q-43 0 -73 21t-30 50q0 11 17.5 25t31.5 14q16 0 27 -36
q13 -43 54 -43q51 0 69 62q13 45 13 133v535q0 95 -62 95h-31v24q44 -2 117 -2q90 0 150 2v-24h-25q-62 0 -62 -95z" />
    <glyph glyph-name="ij" unicode="&#x133;" horiz-adv-x="465" 
d="M161 434v-357q0 -33 7 -44q9 -15 38 -15h22v-20q-38 2 -97 2q-65 0 -109 -2v20h22q29 0 38 15q7 11 7 44v203q0 48 -4 59q-10 25 -48 28v21q55 12 115 48zM127 654q18 0 31 -13t13 -31q0 -19 -13 -32t-31 -13q-19 0 -32 13t-13 32q0 18 13 31t32 13zM279 367v21
q57 12 115 48l9 -2v-427q0 -80 -34.5 -129.5t-114.5 -70.5l-7 17q55 19 70 59q14 37 14 76v321q0 48 -4 59q-10 25 -48 28zM370 654q18 0 31 -13t13 -31q0 -19 -13 -32t-31 -13q-19 0 -32 13t-13 32q0 18 13 31t32 13z" />
    <glyph glyph-name="Kcommaaccent" unicode="&#x136;" horiz-adv-x="655" 
d="M207 340l246 253q15 15 15 29q0 22 -47 25v22q43 -2 105 -2q63 0 108 2l-1 -22q-51 -6 -83 -24q-37 -21 -91 -77l-167 -173l266 -293q53 -58 109 -58h4v-24l-79 2q-10 0 -78 -2l-287 322h-20v-203q0 -95 62 -95h25v-24q-52 2 -125 2q-77 0 -136 -2v24h25q62 0 62 95v433
q0 95 -62 95h-25v24q57 -2 126 -2q50 0 135 2v-24h-25q-62 0 -62 -95v-210zM261 -327l-4 20q82 25 82 105q0 38 -34 42q-67 7 -67 53q0 23 18 38.5t45 15.5q39 0 63.5 -29.5t24.5 -76.5q0 -64 -34.5 -109t-93.5 -59z" />
    <glyph glyph-name="kcommaaccent" unicode="&#x137;" horiz-adv-x="476" 
d="M147 727v-498q5 1 15.5 3t15.5 7q15 15 50 45l66 58q20 18 20 29q0 20 -43 24v20q45 -2 94 -2q48 0 91 2v-20q-48 -3 -115 -60l-108 -91l151 -167q33 -30 49 -40q28 -18 59 -19v-20q-64 2 -72 2q-9 0 -65 -2l-190 208h-18v-129q0 -33 7 -44q9 -15 38 -15h22v-20
q-46 2 -101 2q-57 0 -106 -2v20h22q29 0 38 15q7 11 7 44v496q0 48 -4 59q-10 25 -48 28v22q62 13 116 48zM178 -313l-4 19q77 23 77 99q0 37 -32 40q-63 6 -63 51q0 22 17 36.5t42 14.5q37 0 60.5 -28t23.5 -73q0 -61 -32.5 -103t-88.5 -56z" />
    <glyph glyph-name="kgreenlandic" unicode="&#x138;" horiz-adv-x="485" 
d="M256 300l172 -241q25 -36 64 -41v-18h-180v18q37 1 37 19q0 8 -10 22l-138 191l-57 -58v-102q0 -49 6 -60.5t31 -11.5h16v-18h-180v18h11q30 0 37 11.5t7 60.5v278q0 48 -7.5 59t-40.5 11h-8v18l128 1v-234l131 132q43 43 43 60q0 22 -49 24v18h155v-18q-31 0 -78 -48z
" />
    <glyph glyph-name="Lacute" unicode="&#x139;" horiz-adv-x="561" 
d="M573 141l-37 -142l-116 1h-253q-87 0 -134 -2v24h25q62 0 62 95v433q0 95 -62 95h-25v24q42 -2 113 -2q91 0 148 2v-24h-25q-62 0 -62 -95v-391q0 -63 16 -87q26 -39 131 -39q87 0 133 24.5t68 91.5zM163 739l-12 16l144 126q23 20 37 20q28 0 28 -27q0 -15 -25 -30z" />
    <glyph glyph-name="lacute" unicode="&#x13a;" horiz-adv-x="244" 
d="M34 661v21q62 13 116 48l9 -3v-650q0 -33 7 -44q9 -15 38 -15h22v-20q-46 2 -101 2q-58 0 -106 -2v20h22q29 0 38 15q7 11 7 44v496q0 48 -4 59q-10 26 -48 29zM99 739l-13 16l145 126q23 20 37 20q28 0 28 -27q0 -15 -25 -30z" />
    <glyph glyph-name="Lcommaaccent" unicode="&#x13b;" horiz-adv-x="561" 
d="M573 141l-37 -142l-116 1h-253q-87 0 -134 -2v24h25q62 0 62 95v433q0 95 -62 95h-25v24q42 -2 113 -2q91 0 148 2v-24h-25q-62 0 -62 -95v-391q0 -63 16 -87q26 -39 131 -39q87 0 133 24.5t68 91.5zM238 -327l-4 20q82 25 82 105q0 38 -34 42q-67 7 -67 53q0 23 18 38.5
t45 15.5q39 0 63.5 -29.5t24.5 -76.5q0 -64 -34.5 -109t-93.5 -59z" />
    <glyph glyph-name="lcommaaccent" unicode="&#x13c;" horiz-adv-x="244" 
d="M34 661v21q62 13 116 48l9 -3v-650q0 -33 7 -44q9 -15 38 -15h22v-20q-46 2 -101 2q-58 0 -106 -2v20h22q29 0 38 15q7 11 7 44v496q0 48 -4 59q-10 26 -48 29zM76 -313l-4 19q77 23 77 99q0 37 -32 40q-63 6 -63 51q0 22 17 36.5t42 14.5q37 0 60.5 -28t23.5 -73
q0 -61 -32.5 -103t-88.5 -56z" />
    <glyph glyph-name="Lcaron" unicode="&#x13d;" horiz-adv-x="561" 
d="M573 141l-37 -142l-116 1h-253q-87 0 -134 -2v24h25q62 0 62 95v433q0 95 -62 95h-25v24q42 -2 113 -2q91 0 148 2v-24h-25q-62 0 -62 -95v-391q0 -63 16 -87q26 -39 131 -39q87 0 133 24.5t68 91.5zM428 405l-4 20q37 11 59.5 39.5t22.5 65.5q0 38 -34 42q-67 7 -67 53
q0 23 18 38.5t45 15.5q39 0 63.5 -29.5t24.5 -76.5q0 -64 -34.5 -109t-93.5 -59z" />
    <glyph glyph-name="lcaron" unicode="&#x13e;" horiz-adv-x="311" 
d="M34 661v21q62 13 116 48l9 -3v-650q0 -33 7 -44q9 -15 38 -15h22v-20q-46 2 -101 2q-58 0 -106 -2v20h22q29 0 38 15q7 11 7 44v496q0 48 -4 59q-10 26 -48 29zM206 470l-4 19q77 25 77 99q0 37 -32 40q-63 6 -63 51q0 22 17 36.5t42 14.5q37 0 60.5 -28t23.5 -72
q0 -61 -32.5 -103.5t-88.5 -56.5z" />
    <glyph glyph-name="Ldot" unicode="&#x13f;" horiz-adv-x="561" 
d="M573 141l-37 -142l-116 1h-253q-87 0 -134 -2v24h25q62 0 62 95v433q0 95 -62 95h-25v24q42 -2 113 -2q91 0 148 2v-24h-25q-62 0 -62 -95v-391q0 -63 16 -87q26 -39 131 -39q87 0 133 24.5t68 91.5zM414 404q26 0 44.5 -19t18.5 -45t-19 -45t-45 -19t-45 19t-19 45
t19 45t46 19z" />
    <glyph glyph-name="ldot" unicode="&#x140;" horiz-adv-x="264" 
d="M34 661v21q62 13 116 48l9 -3v-650q0 -33 7 -44q9 -15 38 -15h22v-20q-46 2 -101 2q-58 0 -106 -2v20h22q29 0 38 15q7 11 7 44v496q0 48 -4 59q-10 26 -48 29zM237 404q23 0 40 -17t17 -41t-17 -41t-41 -17t-41 17t-17 41t17 41t42 17z" />
    <glyph glyph-name="Ncommaaccent" unicode="&#x145;" horiz-adv-x="773" 
d="M167 669l463 -524v405q0 78 -54 91q-15 4 -49 4h-6v24q49 -2 123 -2q68 0 113 2v-24h-6q-41 0 -64.5 -27.5t-23.5 -73.5v-557h-19l-493 561v-285q0 -159 20 -199.5t99 -41.5v-24q-47 2 -116 2q-77 0 -137 -2v24h15q45 0 62 17q23 23 23 78v349q0 88 -5 111.5t-25 40.5
q-31 26 -83 27v24l81 -2q10 0 82 2zM324 -327l-4 20q82 25 82 105q0 38 -34 42q-67 7 -67 53q0 23 18 38.5t45 15.5q39 0 63.5 -29.5t24.5 -76.5q0 -64 -34.5 -109t-93.5 -59z" />
    <glyph glyph-name="ncommaaccent" unicode="&#x146;" horiz-adv-x="525" 
d="M161 433v-78q98 71 175 71q47 0 77 -35.5t30 -91.5v-222q0 -33 7 -44q9 -15 38 -15h22v-20q-52 2 -106 2q-52 0 -100 -2v20h22q29 0 38 15q7 11 7 44v188q0 54 -19 79q-25 32 -75 32q-52 0 -116 -43v-256q0 -33 7 -44q9 -15 38 -15h22v-20q-38 2 -97 2q-65 0 -109 -2v20
h22q29 0 38 15q7 11 7 44v203q0 47 -4 59q-10 25 -48 28v21q55 12 115 48zM209 -313l-4 19q77 23 77 99q0 37 -32 40q-63 6 -63 51q0 22 17 36.5t42 14.5q37 0 60.5 -28t23.5 -73q0 -61 -32.5 -103t-88.5 -56z" />
    <glyph glyph-name="Ncaron" unicode="&#x147;" horiz-adv-x="773" 
d="M167 669l463 -524v405q0 78 -54 91q-15 4 -49 4h-6v24q49 -2 123 -2q68 0 113 2v-24h-6q-41 0 -64.5 -27.5t-23.5 -73.5v-557h-19l-493 561v-285q0 -159 20 -199.5t99 -41.5v-24q-47 2 -116 2q-77 0 -137 -2v24h15q45 0 62 17q23 23 23 78v349q0 88 -5 111.5t-25 40.5
q-31 26 -83 27v24l81 -2q10 0 82 2zM398 815l132 85l15 -9l-147 -151l-156 151l14 9z" />
    <glyph glyph-name="ncaron" unicode="&#x148;" horiz-adv-x="525" 
d="M161 433v-78q98 71 175 71q47 0 77 -35.5t30 -91.5v-222q0 -33 7 -44q9 -15 38 -15h22v-20q-52 2 -106 2q-52 0 -100 -2v20h22q29 0 38 15q7 11 7 44v188q0 54 -19 79q-25 32 -75 32q-52 0 -116 -43v-256q0 -33 7 -44q9 -15 38 -15h22v-20q-38 2 -97 2q-65 0 -109 -2v20
h22q29 0 38 15q7 11 7 44v203q0 47 -4 59q-10 25 -48 28v21q55 12 115 48zM278 566l108 138l14 -9l-122 -224l-114 224l14 9z" />
    <glyph glyph-name="napostrophe" unicode="&#x149;" horiz-adv-x="591" 
d="M227 433v-78q98 71 175 71q47 0 77 -35.5t30 -91.5v-222q0 -33 7 -44q9 -15 38 -15h22v-20q-52 2 -106 2q-52 0 -100 -2v20h22q29 0 38 15q7 11 7 44v188q0 54 -19 79q-25 32 -75 32q-52 0 -116 -43v-256q0 -33 7 -44q9 -15 38 -15h22v-20q-38 2 -97 2q-65 0 -109 -2v20
h22q29 0 38 15q7 11 7 44v203q0 39 -2 48q-5 27 -27 35q-2 12 -9 28q47 11 101 45zM-1 177l-4 19q77 23 77 99q0 37 -32 40q-63 6 -63 51q0 22 17 36.5t42 14.5q37 0 60.5 -28t23.5 -73q0 -61 -32.5 -103t-88.5 -56z" />
    <glyph glyph-name="Omacron" unicode="&#x14c;" horiz-adv-x="772" 
d="M382 680q138 0 242.5 -98.5t104.5 -244.5q0 -141 -101 -244.5t-239 -103.5q-144 0 -245 102t-101 248q0 136 102 238.5t237 102.5zM371 649q-121 0 -182 -100q-49 -81 -49 -185q0 -126 66 -229q73 -114 192 -114q50 0 97.5 23t75.5 62q59 81 59 202q0 131 -70 236
t-189 105zM256 800l14 41h286l-20 -41h-280z" />
    <glyph glyph-name="omacron" unicode="&#x14d;" horiz-adv-x="539" 
d="M271 426q92 0 158 -64.5t66 -153.5q0 -91 -66 -156t-158 -65q-97 0 -162.5 65t-65.5 161q0 88 58 146q67 67 170 67zM261 401q-61 0 -97.5 -48t-36.5 -129q0 -74 31 -131q44 -81 121 -81q60 0 95.5 48.5t35.5 129.5q0 91 -42 151t-107 60zM154 551l13 40h257l-20 -40
h-250z" />
    <glyph glyph-name="Ohungarumlaut" unicode="&#x150;" horiz-adv-x="772" 
d="M382 680q138 0 242.5 -98.5t104.5 -244.5q0 -141 -101 -244.5t-239 -103.5q-144 0 -245 102t-101 248q0 136 102 238.5t237 102.5zM371 649q-121 0 -182 -100q-49 -81 -49 -185q0 -126 66 -229q73 -114 192 -114q50 0 97.5 23t75.5 62q59 81 59 202q0 131 -70 236
t-189 105zM309 739l-12 16l144 126q23 20 37 20q28 0 28 -27q0 -15 -25 -30zM473 739l-13 16l145 126q23 20 37 20q28 0 28 -27q0 -14 -26 -30z" />
    <glyph glyph-name="ohungarumlaut" unicode="&#x151;" horiz-adv-x="539" 
d="M271 426q92 0 158 -64.5t66 -153.5q0 -91 -66 -156t-158 -65q-97 0 -162.5 65t-65.5 161q0 88 58 146q67 67 170 67zM261 401q-61 0 -97.5 -48t-36.5 -129q0 -74 31 -131q44 -81 121 -81q60 0 95.5 48.5t35.5 129.5q0 91 -42 151t-107 60zM208 471l-12 9l105 171
q15 24 33 24q11 0 19.5 -8t8.5 -18q0 -13 -13 -27zM341 471l-11 9l105 171q15 24 32 24q11 0 19.5 -8t8.5 -18q0 -13 -13 -27z" />
    <glyph glyph-name="Rcommaaccent" unicode="&#x156;" horiz-adv-x="651" 
d="M207 325v-208q0 -95 62 -95h25v-24q-52 2 -125 2q-78 0 -136 -2v24h25q62 0 62 95v433q0 95 -62 95h-25v24l105 -2q5 0 29.5 1t42.5 1l78 1q103 1 164 -40q65 -44 65 -124q0 -74 -51 -121q-25 -23 -83 -47l157 -227q62 -89 141 -89v-24q-36 2 -81 2q-8 0 -70 -2
q-55 38 -114 132l-120 191h-27q-16 0 -39 2q-6 0 -23 2zM207 634v-276q37 -8 61 -8q68 0 114 41.5t46 103.5q0 61 -47.5 101.5t-120.5 40.5q-14 0 -53 -3zM263 -327l-4 20q37 11 59.5 39.5t22.5 65.5q0 38 -34 42q-67 7 -67 53q0 23 18 38.5t45 15.5q39 0 63.5 -29.5
t24.5 -76.5q0 -64 -34.5 -109t-93.5 -59z" />
    <glyph glyph-name="rcommaaccent" unicode="&#x157;" horiz-adv-x="343" 
d="M161 433v-93q73 91 131 91q46 0 46 -41q0 -24 -12 -40t-31 -16q-11 0 -26.5 11.5t-32.5 11.5q-30 0 -52.5 -23.5t-22.5 -55.5v-201q0 -33 7 -44q9 -15 38 -15h48v-20l-135 2q-55 0 -97 -2v20h22q29 0 38 15q7 11 7 44v203q0 47 -4 59q-10 25 -48 28v21q55 12 115 48z
M85 -313l-4 19q78 23 78 99q0 37 -32 40q-64 7 -64 51q0 22 17 36.5t43 14.5q37 0 60.5 -28t23.5 -73q0 -61 -32.5 -103.5t-89.5 -55.5z" />
    <glyph glyph-name="Rcaron" unicode="&#x158;" horiz-adv-x="651" 
d="M207 325v-208q0 -95 62 -95h25v-24q-52 2 -125 2q-78 0 -136 -2v24h25q62 0 62 95v433q0 95 -62 95h-25v24l105 -2q5 0 29.5 1t42.5 1l78 1q103 1 164 -40q65 -44 65 -124q0 -74 -51 -121q-25 -23 -83 -47l157 -227q62 -89 141 -89v-24q-36 2 -81 2q-8 0 -70 -2
q-55 38 -114 132l-120 191h-27q-16 0 -39 2q-6 0 -23 2zM207 634v-276q37 -8 61 -8q68 0 114 41.5t46 103.5q0 61 -47.5 101.5t-120.5 40.5q-14 0 -53 -3zM293 815l133 85l14 -9l-147 -151l-156 151l14 9z" />
    <glyph glyph-name="rcaron" unicode="&#x159;" horiz-adv-x="343" 
d="M161 433v-93q73 91 131 91q46 0 46 -41q0 -24 -12 -40t-31 -16q-11 0 -26.5 11.5t-32.5 11.5q-30 0 -52.5 -23.5t-22.5 -55.5v-201q0 -33 7 -44q9 -15 38 -15h48v-20l-135 2q-55 0 -97 -2v20h22q29 0 38 15q7 11 7 44v203q0 47 -4 59q-10 25 -48 28v21q55 12 115 48z
M191 566l108 138l14 -9l-122 -224l-114 224l14 9z" />
    <glyph glyph-name="Sacute" unicode="&#x15a;" horiz-adv-x="468" 
d="M389 656l12 -114h-17q-16 50 -41 73q-35 32 -88 32q-52 0 -87.5 -32t-35.5 -79q0 -49 33 -88q22 -27 91 -64q99 -54 135 -97t36 -107q0 -83 -62 -138.5t-156 -55.5q-103 0 -171 45l-11 132h15q25 -67 54 -97q44 -46 113 -46q56 0 95.5 38.5t39.5 93.5q0 43 -26 74.5
t-90 66.5q-87 48 -118 80q-52 55 -52 130q0 77 56 127t143 50q57 0 132 -24zM230 756l174 134q13 10 27 10q28 0 28 -26q0 -19 -18 -28l-201 -105z" />
    <glyph glyph-name="sacute" unicode="&#x15b;" horiz-adv-x="365" 
d="M314 401v-90h-17q-14 40 -23 54q-27 40 -84 40q-30 0 -51 -20t-21 -49q0 -24 15.5 -39.5t57.5 -35.5q81 -38 110.5 -68.5t29.5 -76.5q0 -55 -45 -92.5t-111 -37.5q-74 0 -128 40l-5 105h16q25 -118 123 -118q35 0 57.5 20.5t22.5 52.5q0 29 -21.5 49.5t-83.5 50.5
q-51 25 -72 47q-31 33 -31 75q0 50 40.5 84.5t99.5 34.5q54 0 121 -26zM185 471l-11 10l132 175q14 19 30 19q11 0 20 -8.5t9 -18.5q0 -14 -20 -32z" />
    <glyph glyph-name="Scircumflex" unicode="&#x15c;" horiz-adv-x="468" 
d="M389 656l12 -114h-17q-16 50 -41 73q-35 32 -88 32q-52 0 -87.5 -32t-35.5 -79q0 -49 33 -88q22 -27 91 -64q99 -54 135 -97t36 -107q0 -83 -62 -138.5t-156 -55.5q-103 0 -171 45l-11 132h15q25 -67 54 -97q44 -46 113 -46q56 0 95.5 38.5t39.5 93.5q0 43 -26 74.5
t-90 66.5q-87 48 -118 80q-52 55 -52 130q0 77 56 127t143 50q57 0 132 -24zM251 825l-141 -85l-14 9l155 151l147 -151l-14 -9z" />
    <glyph glyph-name="scircumflex" unicode="&#x15d;" horiz-adv-x="365" 
d="M314 401v-90h-17q-14 40 -23 54q-27 40 -84 40q-30 0 -51 -20t-21 -49q0 -24 15.5 -39.5t57.5 -35.5q81 -38 110.5 -68.5t29.5 -76.5q0 -55 -45 -92.5t-111 -37.5q-74 0 -128 40l-5 105h16q25 -118 123 -118q35 0 57.5 20.5t22.5 52.5q0 29 -21.5 49.5t-83.5 50.5
q-51 25 -72 47q-31 33 -31 75q0 50 40.5 84.5t99.5 34.5q54 0 121 -26zM197 609l-108 -138l-15 9l123 224l114 -224l-15 -9z" />
    <glyph glyph-name="Tcaron" unicode="&#x164;" horiz-adv-x="629" 
d="M272 632h-138q-60 0 -85.5 -17.5t-34.5 -64.5h-20q11 78 12 140h21q14 -23 47 -23h481q33 0 47 23h21q1 -62 12 -140h-20q-9 47 -34.5 64.5t-85.5 17.5h-138v-515q0 -95 62 -95h33v-24q-54 2 -138 2q-83 0 -137 -2v24h33q62 0 62 95v515zM322 815l133 85l14 -9l-147 -151
l-156 151l15 9z" />
    <glyph glyph-name="tcaron" unicode="&#x165;" horiz-adv-x="303" 
d="M158 413h140v-43h-144v-262q0 -75 63 -75q33 0 69 23l9 -13q-61 -56 -118 -56q-59 0 -82 43q-10 19 -10 96v244h-55v17q73 53 119 121l9 -2v-93zM127 632l108 139l14 -9l-122 -225l-114 225l14 9z" />
    <glyph glyph-name="Tbar" unicode="&#x166;" horiz-adv-x="629" 
d="M272 333h-141v33h141v266h-138q-61 0 -86 -17.5t-34 -64.5h-20q5 40 12 140h21q14 -23 46 -23h483q32 0 46 23h21q1 -62 12 -140h-20q-9 47 -34 64.5t-86 17.5h-138v-266h141v-33h-141v-216q0 -95 62 -95h33v-24q-54 2 -138 2q-83 0 -137 -2v24h33q62 0 62 95v216z" />
    <glyph glyph-name="tbar" unicode="&#x167;" horiz-adv-x="303" 
d="M155 298h144v-40h-144v-150q0 -75 63 -75q33 0 69 23l9 -13q-61 -56 -118 -56q-59 0 -82 43q-10 19 -10 96v132h-55v40h55v72h-55v17q73 53 119 121l9 -2v-93h140v-43h-144v-72z" />
    <glyph glyph-name="utilde" unicode="&#x169;" horiz-adv-x="499" 
d="M352 -11v74q-95 -76 -165 -76q-32 0 -60 15.5t-39 40.5q-14 31 -14 78v204q0 38 -8 52q-11 17 -47 26v17q82 3 119 16l9 -2v-305q0 -43 23.5 -68.5t62.5 -25.5q49 0 119 66v224q0 39 -10 54.5t-47 23.5v17q77 2 120 16l9 -2v-349q0 -30 5 -41t22 -11q8 0 40 5v-20
q-47 -10 -130 -31zM132 525l-19 7q31 90 86 90q25 0 114 -42q23 -11 35 -11q27 0 54 49l19 -8q-34 -92 -86 -92q-28 0 -76 25q-56 29 -71 29q-35 0 -56 -47z" />
    <glyph glyph-name="Umacron" unicode="&#x16a;" horiz-adv-x="737" 
d="M201 550v-291q0 -115 52.5 -177t149.5 -62q96 0 142 64q24 33 30 78q4 24 4 85v303q0 95 -62 95h-25v24q34 -2 82 -2q35 0 137 2v-24h-25q-62 0 -62 -95v-302q0 -72 -6 -99q-10 -47 -47 -87q-70 -75 -201 -75q-132 0 -199 68q-57 58 -57 185v310q0 95 -62 95h-25v24
q48 -2 124 -2q83 0 137 2v-24h-25q-62 0 -62 -95zM262 800l13 41h287l-20 -41h-280z" />
    <glyph glyph-name="umacron" unicode="&#x16b;" horiz-adv-x="499" 
d="M352 -11v74q-95 -76 -165 -76q-32 0 -60 15.5t-39 40.5q-14 31 -14 78v204q0 38 -8 52q-11 17 -47 26v17q82 3 119 16l9 -2v-305q0 -43 23.5 -68.5t62.5 -25.5q49 0 119 66v224q0 39 -10 54.5t-47 23.5v17q77 2 120 16l9 -2v-349q0 -30 5 -41t22 -11q8 0 40 5v-20
q-47 -10 -130 -31zM128 551l14 40h256l-20 -40h-250z" />
    <glyph glyph-name="ubreve" unicode="&#x16d;" horiz-adv-x="499" 
d="M352 -11v74q-95 -76 -165 -76q-32 0 -60 15.5t-39 40.5q-14 31 -14 78v204q0 38 -8 52q-11 17 -47 26v17q82 3 119 16l9 -2v-305q0 -43 23.5 -68.5t62.5 -25.5q49 0 119 66v224q0 39 -10 54.5t-47 23.5v17q77 2 120 16l9 -2v-349q0 -30 5 -41t22 -11q8 0 40 5v-20
q-47 -10 -130 -31zM367 645h19q-1 -58 -22 -91q-36 -58 -107 -58q-72 0 -109 62q-20 33 -21 87h19q8 -42 39 -68.5t72 -26.5q40 0 71 26.5t39 68.5z" />
    <glyph glyph-name="Uring" unicode="&#x16e;" horiz-adv-x="737" 
d="M201 550v-291q0 -115 52.5 -177t149.5 -62q96 0 142 64q24 33 30 78q4 24 4 85v303q0 95 -62 95h-25v24q34 -2 82 -2q35 0 137 2v-24h-25q-62 0 -62 -95v-302q0 -72 -6 -99q-10 -47 -47 -87q-70 -75 -201 -75q-132 0 -199 68q-57 58 -57 185v310q0 95 -62 95h-25v24
q48 -2 124 -2q83 0 137 2v-24h-25q-62 0 -62 -95zM397 907q34 0 59.5 -26t25.5 -61q0 -36 -25.5 -61.5t-61.5 -25.5q-35 0 -60.5 25.5t-25.5 61.5t25.5 61.5t62.5 25.5zM396 877q-24 0 -40.5 -16.5t-16.5 -40.5q0 -23 16.5 -40t39.5 -17t40 17t17 40t-16.5 40t-39.5 17z" />
    <glyph glyph-name="uring" unicode="&#x16f;" horiz-adv-x="499" 
d="M352 -11v74q-95 -76 -165 -76q-32 0 -60 15.5t-39 40.5q-14 31 -14 78v204q0 38 -8 52q-11 17 -47 26v17q82 3 119 16l9 -2v-305q0 -43 23.5 -68.5t62.5 -25.5q49 0 119 66v224q0 39 -10 54.5t-47 23.5v17q77 2 120 16l9 -2v-349q0 -30 5 -41t22 -11q8 0 40 5v-20
q-47 -10 -130 -31zM258 657q35 0 60 -25.5t25 -60.5q0 -36 -25.5 -61.5t-61.5 -25.5q-35 0 -60.5 25.5t-25.5 60.5q0 37 25.5 62t62.5 25zM257 627q-24 0 -40.5 -16.5t-16.5 -40.5q0 -22 17 -39t39 -17q23 0 40 17t17 40t-16.5 39.5t-39.5 16.5z" />
    <glyph glyph-name="Uhungarumlaut" unicode="&#x170;" horiz-adv-x="737" 
d="M201 550v-291q0 -115 52.5 -177t149.5 -62q96 0 142 64q24 33 30 78q4 24 4 85v303q0 95 -62 95h-25v24q34 -2 82 -2q35 0 137 2v-24h-25q-62 0 -62 -95v-302q0 -72 -6 -99q-10 -47 -47 -87q-70 -75 -201 -75q-132 0 -199 68q-57 58 -57 185v310q0 95 -62 95h-25v24
q48 -2 124 -2q83 0 137 2v-24h-25q-62 0 -62 -95zM318 739l-12 16l144 126q23 20 38 20q28 0 28 -27q0 -14 -26 -30zM482 739l-13 16l145 126q23 20 37 20q28 0 28 -27q0 -15 -25 -30z" />
    <glyph glyph-name="uhungarumlaut" unicode="&#x171;" horiz-adv-x="499" 
d="M352 -11v74q-95 -76 -165 -76q-32 0 -60 15.5t-39 40.5q-14 31 -14 78v204q0 38 -8 52q-11 17 -47 26v17q82 3 119 16l9 -2v-305q0 -43 23.5 -68.5t62.5 -25.5q49 0 119 66v224q0 39 -10 54.5t-47 23.5v17q77 2 120 16l9 -2v-349q0 -30 5 -41t22 -11q8 0 40 5v-20
q-47 -10 -130 -31zM182 471l-11 9l105 171q15 24 32 24q11 0 19.5 -8t8.5 -18q0 -13 -13 -27zM316 471l-12 9l105 171q15 24 32 24q11 0 19.5 -8t8.5 -18q0 -13 -13 -27z" />
    <glyph glyph-name="Uogonek" unicode="&#x172;" horiz-adv-x="737" 
d="M539 32l-4 -3l-7 -6q-80 -69 -80 -129q0 -26 19 -42t51 -16q19 0 43 7l5 -21q-46 -19 -81 -19q-44 0 -73.5 22t-29.5 55q0 50 70 115q-42 -8 -82 -8q-132 0 -199 68q-57 58 -57 185v310q0 95 -62 95h-25v24q48 -2 124 -2q83 0 137 2v-24h-25q-62 0 -62 -95v-291
q0 -115 52.5 -177t149.5 -62q96 0 142 64q24 33 30 78q4 24 4 85v303q0 95 -62 95h-25v24q34 -2 82 -2q35 0 137 2v-24h-25q-62 0 -62 -95v-302q0 -73 -6 -99q-10 -47 -47 -88q-15 -16 -32 -29z" />
    <glyph glyph-name="uogonek" unicode="&#x173;" horiz-adv-x="499" 
d="M491 38v-20q-4 -1 -61 -13q-13 -3 -42 -10q-55 -55 -55 -94q0 -24 18 -39t48 -15q17 0 39 6l5 -17q-44 -17 -74 -17q-41 0 -68 20t-27 50q0 50 78 101v73q-95 -76 -165 -76q-32 0 -60 15.5t-39 40.5q-14 31 -14 78v204q0 38 -10 53.5t-45 24.5v17q82 3 119 16l9 -2v-305
q0 -43 23.5 -68.5t62.5 -25.5q49 0 119 66v224q0 40 -11 55.5t-46 22.5v17q77 2 120 16l9 -2v-349q0 -30 5 -41t22 -11q8 0 40 5z" />
    <glyph glyph-name="Wcircumflex" unicode="&#x174;" horiz-adv-x="900" 
d="M484 281l-143 -298h-17l-226 554q-31 77 -48.5 92.5t-66.5 15.5h-3v24q58 -2 127 -2q62 0 108 2v-24q-28 -1 -36 -4q-18 -6 -18 -26q0 -4 19 -52l184 -467l102 228l-93 213q-31 70 -50 89t-61 19v24q45 -2 102 -2q48 0 115 2v-24q-47 0 -47 -22q0 -10 16 -46l63 -143
l55 129q13 30 13 54q0 28 -65 28v24q33 -2 83 -2q62 0 100 2v-24h-16q-24 0 -40.5 -19.5t-44.5 -81.5l-67 -149l119 -290l159 458q11 32 11 46q0 25 -22 33q-13 4 -45 5v22q31 -2 84 -2q51 0 82 2v-24q-29 -2 -40 -16.5t-37 -84.5l-207 -561h-17zM494 825l-141 -85l-14 9
l155 151l147 -151l-14 -9z" />
    <glyph glyph-name="Ycircumflex" unicode="&#x176;" horiz-adv-x="585" 
d="M324 376l136 185q23 31 23 54q0 30 -62 30v24q47 -2 106 -2q52 0 88 2v-24q-40 -2 -68 -29q-10 -10 -48 -60l-160 -214v-225q0 -95 62 -95h25v-24q-77 2 -124 2q-46 0 -128 -2v24h16q62 0 62 95v209l-172 230q-65 86 -111 89v24q56 -2 118 -2q61 0 112 2v-24
q-52 0 -52 -21q0 -19 18 -42zM323 825l-141 -85l-15 9l156 151l147 -151l-14 -9z" />
    <glyph glyph-name="ycircumflex" unicode="&#x177;" horiz-adv-x="408" 
d="M221 109l89 199q13 29 13 51q0 34 -53 36v20q56 -2 78 -2q21 0 78 2v-20q-29 -1 -45.5 -16t-33.5 -54l-212 -478q-25 -57 -59 -57q-19 0 -34 15t-15 35t13 33.5t32 13.5q10 0 22 -6t16 -6q8 0 13 12l58 129l-121 309q-16 41 -29.5 54.5t-41.5 15.5v20q43 -2 89 -2
q30 0 96 2v-20q-51 -4 -51 -30q0 -9 3 -17zM228 609l-108 -138l-14 9l122 224l114 -224l-14 -9z" />
    <glyph glyph-name="Zacute" unicode="&#x179;" horiz-adv-x="629" 
d="M133 35h354q37 0 57 8t42 34q26 31 45 76h17l-44 -155q-44 2 -116 2h-490l477 632h-257q-89 0 -120.5 -18.5t-53.5 -83.5h-17l28 145h18q7 -8 20 -8h518zM354 739l-12 16l144 126q23 20 38 20q28 0 28 -27q0 -14 -26 -30z" />
    <glyph glyph-name="zacute" unicode="&#x17a;" horiz-adv-x="385" 
d="M119 30h75q69 0 92 2q27 2 41.5 17t43.5 72l18 -5l-25 -116h-351l243 383h-128q-40 0 -52.5 -9t-33.5 -55h-16l14 115h18q4 -21 33 -21h273zM209 471l-11 9l105 171q15 24 32 24q11 0 19.5 -8t8.5 -18q0 -13 -13 -27z" />
    <glyph glyph-name="Zdotaccent" unicode="&#x17b;" horiz-adv-x="629" 
d="M133 35h354q37 0 57 8t42 34q26 31 45 76h17l-44 -155q-44 2 -116 2h-490l477 632h-257q-89 0 -120.5 -18.5t-53.5 -83.5h-17l28 145h18q7 -8 20 -8h518zM352 867q19 0 32.5 -14t13.5 -33t-13.5 -33t-33.5 -14q-19 0 -33 14t-14 33q0 20 14 33.5t34 13.5z" />
    <glyph glyph-name="zdotaccent" unicode="&#x17c;" horiz-adv-x="385" 
d="M119 30h75q69 0 92 2q27 2 41.5 17t43.5 72l18 -5l-25 -116h-351l243 383h-128q-40 0 -52.5 -9t-33.5 -55h-16l14 115h18q4 -21 33 -21h273zM220 614q17 0 30 -13t13 -31t-13 -31t-31 -13t-31 13t-13 31t13 31t32 13z" />
    <glyph glyph-name="Acaron" unicode="&#x1cd;" horiz-adv-x="632" 
d="M402 249h-221l-50 -164q-3 -10 -3 -19q0 -22 14 -30.5t71 -13.5v-24q-55 2 -129 2q-56 0 -91 -2v24q43 2 64 23q18 17 34 63l179 507l-10 29q29 19 50 46q9 12 16 12q9 0 13 -10l214 -600q14 -39 34.5 -54t57.5 -16v-24q-52 2 -118 2q-67 0 -123 -2v24l22 1q42 2 42 28
q0 10 -8 33zM387 284l-100 288l-93 -288h193zM310 815l133 85l14 -9l-147 -151l-156 151l14 9z" />
    <glyph glyph-name="acaron" unicode="&#x1ce;" horiz-adv-x="438" 
d="M434 45l10 -12q-42 -47 -89 -47q-30 0 -48 22q-13 16 -18 53q-83 -74 -149 -74q-40 0 -69.5 26t-29.5 61q0 61 92 102q50 22 153 58v34q0 56 -22 81.5t-64 25.5q-38 0 -62 -22q-14 -13 -23 -50q-3 -14 -20 -23q-26 -14 -38 -14q-18 0 -18 24q0 45 105 96q84 41 113 41
q35 0 63 -18q39 -25 39 -84v-206q0 -84 42 -84q13 0 33 10zM286 84v124q-55 -16 -100 -34q-67 -27 -67 -76q0 -28 21 -47.5t50 -19.5q23 0 39.5 9t56.5 44zM248 566l108 138l14 -9l-122 -224l-114 224l14 9z" />
    <glyph glyph-name="Ucaron" unicode="&#x1d3;" horiz-adv-x="737" 
d="M201 550v-291q0 -115 52.5 -177t149.5 -62q96 0 142 64q24 33 30 78q4 24 4 85v303q0 95 -62 95h-25v24q34 -2 82 -2q35 0 137 2v-24h-25q-62 0 -62 -95v-302q0 -72 -6 -99q-10 -47 -47 -87q-70 -75 -201 -75q-132 0 -199 68q-57 58 -57 185v310q0 95 -62 95h-25v24
q48 -2 124 -2q83 0 137 2v-24h-25q-62 0 -62 -95zM400 815l132 85l15 -9l-147 -151l-156 151l14 9z" />
    <glyph glyph-name="ucaron" unicode="&#x1d4;" horiz-adv-x="499" 
d="M352 -11v74q-95 -76 -165 -76q-32 0 -60 15.5t-39 40.5q-14 31 -14 78v204q0 38 -8 52q-11 17 -47 26v17q82 3 119 16l9 -2v-305q0 -43 23.5 -68.5t62.5 -25.5q49 0 119 66v224q0 39 -10 54.5t-47 23.5v17q77 2 120 16l9 -2v-349q0 -30 5 -41t22 -11q8 0 40 5v-20
q-47 -10 -130 -31zM252 566l109 138l14 -9l-123 -224l-113 224l14 9z" />
    <glyph glyph-name="Gcaron" unicode="&#x1e6;" horiz-adv-x="734" 
d="M653 627l14 -131h-18q-12 63 -54 98q-65 54 -168 54q-127 0 -204.5 -81.5t-77.5 -215.5q0 -137 80.5 -232.5t196.5 -95.5q79 0 143 36v100q0 57 -5 71q-12 29 -59 30q-4 0 -15 1v23q58 -2 111 -2q50 0 120 2l1 -23q-40 -1 -52.5 -18t-12.5 -75v-66q0 -7 1 -15v-7
q-1 -9 1 -14q1 -1 9 -4l6 -3l-2 -15q-166 -54 -269 -54q-151 0 -253.5 98t-102.5 244q0 157 113 254q109 93 264 93q97 0 233 -52zM418 815l133 85l14 -9l-147 -151l-155 151l14 9z" />
    <glyph glyph-name="gcaron" unicode="&#x1e7;" horiz-adv-x="460" 
d="M465 361h-102q23 -34 23 -74q0 -59 -49 -100.5t-118 -41.5q-19 0 -51 4q-39 -26 -39 -50q0 -27 31 -35q23 -6 87 -6h24q15 0 39 1h28q130 0 130 -95q0 -68 -77.5 -119t-181.5 -51q-80 0 -132.5 29.5t-52.5 74.5q0 69 107 99q-33 13 -48 26q-32 22 -32 53q0 10 11 37
q43 18 77 45q-98 35 -98 123q0 62 51.5 103.5t127.5 41.5q53 0 123 -33l122 6v-38zM211 402q-41 0 -67.5 -31.5t-26.5 -79.5q0 -52 29 -88t72 -36q42 0 66.5 32t24.5 86q0 53 -27 85t-71 32zM286 -7q-101 0 -136 -11q-22 -7 -37 -26t-15 -40q0 -40 42 -66.5t104 -26.5
q70 0 118 30.5t48 74.5q0 19 -13 33q-30 32 -111 32zM219 566l108 138l14 -9l-122 -224l-114 224l14 9z" />
    <glyph glyph-name="Gacute" unicode="&#x1f4;" horiz-adv-x="734" 
d="M653 627l14 -131h-18q-12 63 -54 98q-65 54 -168 54q-127 0 -204.5 -81.5t-77.5 -215.5q0 -137 80.5 -232.5t196.5 -95.5q79 0 143 36v100q0 57 -5 71q-12 29 -59 30q-4 0 -15 1v23q58 -2 111 -2q50 0 120 2l1 -23q-40 -1 -52.5 -18t-12.5 -75v-66q0 -7 1 -15v-7
q-1 -9 1 -14q1 -1 9 -4l6 -3l-2 -15q-166 -54 -269 -54q-151 0 -253.5 98t-102.5 244q0 157 113 254q109 93 264 93q97 0 233 -52zM390 756l174 134q13 10 27 10q28 0 28 -26q0 -19 -17 -28l-201 -105z" />
    <glyph glyph-name="Scommaaccent" unicode="&#x218;" horiz-adv-x="468" 
d="M389 656l12 -114h-17q-16 50 -41 73q-35 32 -88 32q-52 0 -87.5 -32t-35.5 -79q0 -49 33 -88q22 -27 91 -64q99 -54 135 -97t36 -107q0 -83 -62 -138.5t-156 -55.5q-103 0 -171 45l-11 132h15q25 -67 54 -97q44 -46 113 -46q56 0 95.5 38.5t39.5 93.5q0 43 -26 74.5
t-90 66.5q-87 48 -118 80q-52 55 -52 130q0 77 56 127t143 50q57 0 132 -24zM161 -327l-4 20q37 11 59.5 39.5t22.5 65.5q0 38 -34 42q-67 7 -67 53q0 23 18 38.5t45 15.5q39 0 63.5 -29.5t24.5 -76.5q0 -64 -34.5 -109t-93.5 -59z" />
    <glyph glyph-name="scommaaccent" unicode="&#x219;" horiz-adv-x="365" 
d="M314 401v-90h-17q-14 40 -23 54q-27 40 -84 40q-30 0 -51 -20t-21 -49q0 -24 15.5 -39.5t57.5 -35.5q81 -38 110.5 -68.5t29.5 -76.5q0 -55 -45 -92.5t-111 -37.5q-74 0 -128 40l-5 105h16q25 -118 123 -118q35 0 57.5 20.5t22.5 52.5q0 29 -21.5 49.5t-83.5 50.5
q-51 25 -72 47q-31 33 -31 75q0 50 40.5 84.5t99.5 34.5q54 0 121 -26zM136 -313l-4 19q78 23 78 99q0 37 -32 40q-64 7 -64 51q0 22 17 36.5t43 14.5q37 0 60.5 -28t23.5 -73q0 -61 -32.5 -103.5t-89.5 -55.5z" />
    <glyph glyph-name="Tcommaaccent" unicode="&#x162;" horiz-adv-x="629" 
d="M272 632h-138q-60 0 -85.5 -17.5t-34.5 -64.5h-20q11 78 12 140h21q14 -23 47 -23h481q33 0 47 23h21q1 -62 12 -140h-20q-9 47 -34.5 64.5t-85.5 17.5h-138v-515q0 -95 62 -95h33v-24q-54 2 -138 2q-83 0 -137 -2v24h33q62 0 62 95v515zM265 -327l-4 20q37 11 59.5 39.5
t22.5 65.5q0 38 -34 42q-67 7 -67 53q0 23 18 38.5t45 15.5q39 0 63.5 -29.5t24.5 -76.5q0 -64 -34.5 -109t-93.5 -59z" />
    <glyph glyph-name="tcommaaccent" unicode="&#x163;" horiz-adv-x="303" 
d="M159 413h140v-43h-144v-262q0 -75 63 -75q33 0 69 23l9 -13q-61 -56 -118 -56q-59 0 -82 43q-10 19 -10 96v244h-55v17q73 53 119 121l9 -2v-93zM99 -313l-4 19q77 23 77 99q0 37 -32 40q-63 6 -63 51q0 22 17 36.5t42 14.5q37 0 60.5 -28t23.5 -73q0 -61 -32.5 -103
t-88.5 -56z" />
    <glyph glyph-name="Adotaccent" unicode="&#x226;" horiz-adv-x="632" 
d="M402 249h-221l-50 -164q-3 -10 -3 -19q0 -22 14 -30.5t71 -13.5v-24q-55 2 -129 2q-56 0 -91 -2v24q43 2 64 23q18 17 34 63l179 507l-10 29q29 19 50 46q9 12 16 12q9 0 13 -10l214 -600q14 -39 34.5 -54t57.5 -16v-24q-52 2 -118 2q-67 0 -123 -2v24l22 1q42 2 42 28
q0 10 -8 33zM387 284l-100 288l-93 -288h193zM313 867q19 0 32.5 -14t13.5 -33t-13.5 -33t-33.5 -14q-19 0 -33 14t-14 33q0 20 14 33.5t34 13.5z" />
    <glyph glyph-name="adotaccent" unicode="&#x227;" horiz-adv-x="438" 
d="M434 45l10 -12q-42 -47 -89 -47q-30 0 -48 22q-13 16 -18 53q-83 -74 -149 -74q-40 0 -69.5 26t-29.5 61q0 61 92 102q50 22 153 58v34q0 56 -22 81.5t-64 25.5q-38 0 -62 -22q-14 -13 -23 -50q-3 -14 -20 -23q-26 -14 -38 -14q-18 0 -18 24q0 45 105 96q84 41 113 41
q35 0 63 -18q39 -25 39 -84v-206q0 -84 42 -84q13 0 33 10zM286 84v124q-55 -16 -100 -34q-67 -27 -67 -76q0 -28 21 -47.5t50 -19.5q23 0 39.5 9t56.5 44zM253 614q17 0 30 -13t13 -31t-13 -31t-31 -13t-31 13t-13 31t13 31t32 13z" />
    <glyph glyph-name="macronbelow" unicode="&#x2cd;" 
d="M107 -105l13 40h274l-20 -40h-267z" />
    <glyph glyph-name="dotbelow" unicode="&#x323;" 
d="M251 -47q17 0 30 -13t13 -31t-13 -31t-31 -13t-31 13t-13 31t13 31t32 13z" />
    <glyph glyph-name="commabelow" unicode="&#x326;" 
d="M200 -313l-4 19q77 23 77 99q0 37 -32 40q-63 6 -63 51q0 22 17 36.5t42 14.5q37 0 60.5 -28t23.5 -73q0 -61 -32.5 -103t-88.5 -56z" />
    <glyph glyph-name="Dcommaaccent" unicode="&#x1e10;" horiz-adv-x="741" 
d="M120 117v433q0 95 -62 95h-23v24l112 -2q25 0 76 2t76 2q180 0 289.5 -94t109.5 -248q0 -148 -104.5 -240.5t-270.5 -92.5q-18 0 -87 3q-23 1 -81 1q-66 0 -122 -2v24h25q62 0 62 95zM207 599v-466q0 -55 19 -77q26 -30 106 -30q127 0 203 94q64 79 64 194
q0 114 -53.5 195.5t-145.5 109.5q-58 18 -137 18q-39 0 -47.5 -6t-8.5 -32zM299 -327l-4 20q82 25 82 105q0 38 -34 42q-67 7 -67 53q0 23 18 38.5t45 15.5q39 0 63.5 -29.5t24.5 -76.5q0 -64 -34.5 -109t-93.5 -59z" />
    <glyph glyph-name="dcommaaccent" unicode="&#x1e11;" horiz-adv-x="537" 
d="M378 -11v66q-82 -69 -156 -69t-127 54.5t-53 130.5q0 95 56 162q78 93 189 93q52 0 91 -23v170q0 48 -4 59q-10 25 -48 28v22q62 13 116 48l9 -3v-627q0 -33 2 -41q6 -23 28 -23q9 0 36 3v-20q-73 -11 -130 -32zM378 115v195q0 38 -27 60q-38 31 -81 31q-36 0 -70 -19.5
t-54 -51.5q-27 -43 -27 -112q0 -76 48.5 -130.5t115.5 -54.5q42 0 68.5 22.5t26.5 59.5zM234 -313l-4 19q78 23 78 99q0 37 -32 40q-64 7 -64 51q0 22 17 36.5t43 14.5q37 0 60.5 -28t23.5 -73q0 -61 -32.5 -103.5t-89.5 -55.5z" />
    <glyph glyph-name="Fdotaccent" unicode="&#x1e1e;" horiz-adv-x="520" 
d="M207 632v-272h124q49 0 66.5 18t18.5 67h21q-1 -33 -1 -88q0 -58 1 -117h-21q-4 85 -74 85h-135v-208q0 -95 62 -95h31v-24q-57 2 -136 2q-77 0 -131 -2v24h25q62 0 62 95v433q0 95 -62 95h-25v24q59 -2 132 -2h219q71 0 116 2v-140h-20q-8 55 -32.5 79t-73.5 24h-167z
M294 867q19 0 32.5 -14t13.5 -33t-13.5 -33t-33.5 -14q-19 0 -33 14t-14 33q0 20 14 33.5t34 13.5z" />
    <glyph glyph-name="Wdieresis" unicode="&#x1e84;" horiz-adv-x="900" 
d="M484 281l-143 -298h-17l-226 554q-31 77 -48.5 92.5t-66.5 15.5h-3v24q58 -2 127 -2q62 0 108 2v-24q-28 -1 -36 -4q-18 -6 -18 -26q0 -4 19 -52l184 -467l102 228l-93 213q-31 70 -50 89t-61 19v24q45 -2 102 -2q48 0 115 2v-24q-47 0 -47 -22q0 -10 16 -46l63 -143
l55 129q13 30 13 54q0 28 -65 28v24q33 -2 83 -2q62 0 100 2v-24h-16q-24 0 -40.5 -19.5t-44.5 -81.5l-67 -149l119 -290l159 458q11 32 11 46q0 25 -22 33q-13 4 -45 5v22q31 -2 84 -2q51 0 82 2v-24q-29 -2 -40 -16.5t-37 -84.5l-207 -561h-17zM585 867q19 0 32.5 -14
t13.5 -33t-13.5 -33t-33.5 -14q-19 0 -33 14t-14 33q0 20 14 33.5t34 13.5zM391 867q19 0 32.5 -14t13.5 -33t-13.5 -33t-33.5 -14q-19 0 -33 14t-14 33q0 20 14 33.5t34 13.5z" />
    <glyph glyph-name="figurespace" unicode="&#x2007;" horiz-adv-x="556" 
 />
    <glyph glyph-name="hyphenminus" unicode="&#x2010;" horiz-adv-x="207" 
d="M0 187l13 53h194l-14 -53h-193z" />
    <glyph glyph-name="underscoredbl" unicode="&#x2017;" 
d="M23 -37h455v-43h-455v43zM23 -139h455v-43h-455v43z" />
    <glyph glyph-name="trianglebullet" unicode="&#x2023;" 
d="M71 119v433l405 -217z" />
    <glyph glyph-name="onedotlead" unicode="&#x2024;" horiz-adv-x="230" 
d="M115 68q29 0 29 -29t-29 -29t-29 29t29 29z" />
    <glyph glyph-name="twodotlead" unicode="&#x2025;" 
d="M126 105q21 0 36.5 -15.5t15.5 -36.5q0 -22 -15.5 -37.5t-37.5 -15.5q-21 0 -36.5 15.5t-15.5 36.5q0 22 15.5 37.5t37.5 15.5zM376 105q21 0 36.5 -15.5t15.5 -36.5q0 -22 -15.5 -37.5t-37.5 -15.5q-21 0 -36.5 15.5t-15.5 36.5q0 22 15.5 37.5t37.5 15.5z" />
    <glyph glyph-name="minute" unicode="&#x2032;" horiz-adv-x="192" 
d="M114 399h-37l-21 268h80z" />
    <glyph glyph-name="second" unicode="&#x2033;" horiz-adv-x="333" 
d="M108 399h-35l-21 268h78zM259 399h-35l-21 268h77z" />
    <glyph glyph-name="exclamdbl" unicode="&#x203c;" horiz-adv-x="496" 
d="M163 204h-26q-1 60 -19 250q-7 74 -7 112q0 47 11.5 79t27.5 32t27.5 -32t11.5 -79q0 -28 -15 -186q-11 -116 -11 -176zM150 71q16 0 27.5 -11.5t11.5 -27.5t-11.5 -27.5t-27.5 -11.5t-27.5 11.5t-11.5 27.5t11.5 27.5t27.5 11.5zM359 204h-26q-1 64 -19 250
q-7 73 -7 114q0 45 11.5 77t27.5 32t27.5 -32t11.5 -76q0 -31 -15 -189q-11 -116 -11 -176zM346 71q16 0 27.5 -11.5t11.5 -27.5t-11.5 -27.5t-27.5 -11.5t-27.5 11.5t-11.5 27.5t11.5 27.5t27.5 11.5z" />
    <glyph glyph-name="overscore2" unicode="&#x203e;" 
d="M23 842h455v-43h-455v43z" />
    <glyph glyph-name="zerosuperior" unicode="&#x2070;" horiz-adv-x="332" 
d="M166 664q56 0 97 -60t41 -142t-41 -142t-97 -60q-58 0 -98.5 60t-40.5 144t46 148q38 52 93 52zM166 643q-37 0 -59.5 -49t-22.5 -130q0 -84 22 -133t59 -49t59.5 49t22.5 131t-22 131.5t-59 49.5z" />
    <glyph glyph-name="foursuperior" unicode="&#x2074;" horiz-adv-x="332" 
d="M251 430h59v-45h-59v-121h-55v121h-177v29l205 246h27v-230zM196 430v159l-130 -159h130z" />
    <glyph glyph-name="fivesuperior" unicode="&#x2075;" horiz-adv-x="332" 
d="M134 660h152l-11 -50h-135l-21 -54q54 -26 80 -46q66 -51 66 -114q0 -55 -42.5 -95.5t-100.5 -40.5q-30 0 -65 16.5t-35 30.5q0 6 8.5 15t13.5 9q6 0 23 -17q30 -31 64 -31q35 0 60 26t25 62q0 49 -43 86q-21 18 -94 51z" />
    <glyph glyph-name="sixsuperior" unicode="&#x2076;" horiz-adv-x="332" 
d="M302 669l8 -18q-88 -23 -146 -80t-66 -128q46 45 96 45q44 0 73.5 -30.5t29.5 -76.5q0 -47 -41 -84t-93 -37q-57 0 -92.5 40.5t-35.5 105.5q0 92 73 164t194 99zM96 406v-15q0 -44 14 -69q22 -40 62 -40q29 0 49 25t20 60t-21 58.5t-52 23.5q-43 0 -72 -43z" />
    <glyph glyph-name="sevensuperior" unicode="&#x2077;" horiz-adv-x="332" 
d="M100 256l-27 13l192 340h-181q-16 0 -21 -2.5t-9 -13.5q-1 -3 -6 -11h-19l14 78h272l9 -7z" />
    <glyph glyph-name="eightsuperior" unicode="&#x2078;" horiz-adv-x="332" 
d="M200 476q85 -50 85 -110q0 -44 -36 -75t-86 -31q-47 0 -81.5 28t-34.5 66q0 28 16 48.5t63 52.5q-73 45 -73 105q0 44 34 74t84 30q46 0 77 -25t31 -62q0 -56 -79 -101zM181 488q50 34 50 84q0 32 -17.5 52t-45.5 20q-26 0 -45.5 -19.5t-19.5 -45.5q0 -43 78 -91z
M145 444q-3 -2 -14 -12q-37 -34 -37 -74q0 -34 20 -56t51 -22q27 0 47 19.5t20 45.5q0 46 -71 89q-5 4 -16 10z" />
    <glyph glyph-name="ninesuperior" unicode="&#x2079;" horiz-adv-x="332" 
d="M37 250l-6 20q86 20 141 78t64 140q-52 -52 -98 -52q-44 0 -73.5 29t-29.5 72q0 51 39 89t91 38q58 0 95 -43t37 -110q0 -108 -100 -190q-57 -47 -160 -71zM235 519v17q0 43 -23.5 74.5t-55.5 31.5q-27 0 -47 -24.5t-20 -57.5q0 -34 21.5 -59t50.5 -25q41 0 74 43z" />
    <glyph glyph-name="plussuperior" unicode="&#x207a;" horiz-adv-x="344" 
d="M22 472h128v125h43v-125h128v-39h-128v-125h-43v125h-128v39z" />
    <glyph glyph-name="minussuperior" unicode="&#x207b;" horiz-adv-x="344" 
d="M22 472h299v-39h-299v39z" />
    <glyph glyph-name="parenleftsuperior" unicode="&#x207d;" horiz-adv-x="221" 
d="M181 183l-14 -13q-133 124 -133 272t133 272l14 -13q-57 -71 -79 -128t-22 -131t22.5 -131t78.5 -128z" />
    <glyph glyph-name="parenrightsuperior" unicode="&#x207e;" horiz-adv-x="221" 
d="M41 701l13 13q134 -125 134 -272t-134 -272l-13 13q57 71 79 128t22 131t-22.5 131.5t-78.5 127.5z" />
    <glyph glyph-name="nsuperior" unicode="&#x207f;" horiz-adv-x="343" 
d="M112 528v-41q55 38 105 38q31 0 50.5 -22t19.5 -57v-131q0 -24 8 -28q5 -3 16 -3h17v-19q-36 2 -68 2q-33 0 -67 -2v19h17q17 0 22 8q3 5 3 23v111q0 63 -55 63q-31 0 -68 -24v-150q0 -24 8 -28q5 -3 16 -3h17v-19q-28 2 -64 2q-40 0 -71 -2v19h17q16 0 21 8q3 5 3 23
v120q0 32 -5 39.5t-27 8.5v18q36 8 75 30z" />
    <glyph glyph-name="zeroinferior" unicode="&#x2080;" horiz-adv-x="332" 
d="M166 400q56 0 97 -60t41 -142t-41 -142t-97 -60q-58 0 -98.5 60t-40.5 144t46 148q38 52 93 52zM166 379q-37 0 -59.5 -49t-22.5 -130q0 -84 22 -133t59 -49t59.5 49t22.5 131t-22 131.5t-59 49.5z" />
    <glyph glyph-name="oneinferior" unicode="&#x2081;" horiz-adv-x="332" 
d="M162 60v280q-16 -8 -41 -20q-20 -9 -41 -18l-7 18q101 50 137 84l10 -3v-341q0 -29 6 -35t35 -7q7 0 25 -1v-18q-43 1 -97 1t-97 -1v18q15 1 26 1q33 -1 40 14q4 9 4 28z" />
    <glyph glyph-name="twoinferior" unicode="&#x2082;" horiz-adv-x="332" 
d="M96 50h175q10 0 13.5 3.5t13.5 24.5h17l-18 -78h-272v15q48 35 117.5 114.5t69.5 149.5q0 37 -20 59t-54 22q-36 0 -82 -52l-13 9q52 83 124 83q46 0 74.5 -29t28.5 -76q0 -43 -25 -82t-97 -111z" />
    <glyph glyph-name="threeinferior" unicode="&#x2083;" horiz-adv-x="332" 
d="M105 194v19q102 12 102 85q0 29 -18.5 47t-47.5 18q-36 0 -70 -34l-15 10q53 61 113 61q39 0 65.5 -23t26.5 -57q0 -55 -70 -95q94 -20 94 -90q0 -55 -47.5 -97t-109.5 -42q-37 0 -71.5 15.5t-34.5 31.5q0 6 10 14t18 8t27 -24t57 -24q37 0 65 28t28 66q0 30 -19.5 51.5
t-48.5 27.5q-17 4 -54 4z" />
    <glyph glyph-name="fourinferior" unicode="&#x2084;" horiz-adv-x="332" 
d="M251 166h59v-45h-59v-121h-55v121h-177v29l205 246h27v-230zM196 166v159l-130 -159h130z" />
    <glyph glyph-name="fiveinferior" unicode="&#x2085;" horiz-adv-x="332" 
d="M134 396h152l-11 -50h-135l-21 -54q54 -26 80 -46q66 -51 66 -114q0 -55 -42.5 -95.5t-100.5 -40.5q-30 0 -65 16.5t-35 30.5q0 6 8.5 15t13.5 9q6 0 23 -17q30 -31 64 -31q35 0 60 26t25 62q0 49 -43 86q-21 18 -94 51z" />
    <glyph glyph-name="sixinferior" unicode="&#x2086;" horiz-adv-x="332" 
d="M302 404l8 -18q-88 -23 -146 -80t-66 -127q45 44 96 44q44 0 73.5 -30.5t29.5 -76.5q0 -47 -40.5 -83.5t-93.5 -36.5q-57 0 -92.5 40.5t-35.5 105.5q0 92 73 164t194 98zM96 142v-16q0 -44 14 -68q23 -40 62 -40q28 0 48.5 24.5t20.5 59.5t-21 58.5t-52 23.5
q-43 0 -72 -42z" />
    <glyph glyph-name="seveninferior" unicode="&#x2087;" horiz-adv-x="332" 
d="M100 -8l-27 13l192 340h-181q-16 0 -21 -2.5t-9 -13.5q-1 -3 -6 -11h-19l14 78h272l9 -7z" />
    <glyph glyph-name="eightinferior" unicode="&#x2088;" horiz-adv-x="332" 
d="M200 211q85 -49 85 -109q0 -44 -36 -75t-86 -31q-47 0 -81.5 28t-34.5 66q0 28 16 48t63 52q-73 45 -73 106q0 44 34 74t84 30q46 0 77 -25t31 -62q0 -57 -79 -102zM181 223q50 35 50 85q0 32 -17.5 52t-45.5 20q-26 0 -45.5 -19.5t-19.5 -45.5q0 -43 78 -92zM145 180
q-9 -8 -24 -22q-27 -28 -27 -64q0 -34 20 -56t51 -22q27 0 47 19.5t20 45.5q0 45 -71 89q-4 3 -16 10z" />
    <glyph glyph-name="nineinferior" unicode="&#x2089;" horiz-adv-x="332" 
d="M37 -15l-6 21q85 19 140.5 77.5t64.5 139.5q-52 -52 -98 -52q-44 0 -73.5 29t-29.5 72q0 52 39 90t91 38q58 0 95 -43t37 -110q0 -107 -100 -190q-56 -46 -160 -72zM235 254v17q0 43 -23.5 75t-55.5 32q-27 0 -47 -24.5t-20 -57.5q0 -35 21.5 -60t50.5 -25q41 0 74 43z
" />
    <glyph glyph-name="lira" unicode="&#x20a4;" horiz-adv-x="520" 
d="M207 274h-129v28h118l-18 72h-100v28h95q-9 49 -9 80q0 89 49 144t128 55q50 0 83 -27.5t33 -69.5q0 -41 -33 -41t-33 43q0 5 2 15.5t2 14.5q0 16 -16.5 27.5t-40.5 11.5q-43 0 -70 -31.5t-27 -80.5q0 -41 20 -128l3 -13h161v-28h-156l2 -12q6 -34 8 -60h146v-28h-145
q1 -11 1 -26q0 -80 -36 -152q70 -39 127 -39q80 0 107 60q12 26 15 47l17 -1q-7 -78 -45 -122t-98 -44q-59 0 -144 60q-52 -61 -106 -61q-33 0 -54 17.5t-21 44.5q0 30 25 49t64 19q32 0 79 -19q10 43 10 63q0 40 -14 104zM200 72q-2 1 -11 6q-35 19 -62 19q-45 0 -45 -36
q0 -16 12.5 -28t29.5 -12q43 0 76 51z" />
    <glyph glyph-name="peseta" unicode="&#x20a7;" horiz-adv-x="605" 
d="M207 637v-520q0 -95 62 -95h25v-24q-41 2 -122 2q-92 0 -139 -2v24h25q62 0 62 95v433q0 95 -62 95h-25v24q61 -2 96 -2q39 0 94 2q28 1 61 1q100 0 162 -50.5t62 -130.5q0 -90 -61.5 -145t-161.5 -55h-23v21q61 4 96 30q60 44 60 130q0 78 -44 123t-120 45q-28 0 -47 -1
zM510 250h87v-32h-89v-151q0 -41 35 -41q21 0 43 15l10 -12q-40 -37 -78 -37t-54 27q-7 12 -7 59v140h-34v15q45 31 76 74l11 -3v-54z" />
    <glyph glyph-name="Euro" unicode="&#x20ac;" horiz-adv-x="720" 
d="M72 358h-46l15 35h36q20 125 124.5 205.5t246.5 80.5q113 0 227 -52l10 -125l-17 -1q-16 62 -52 94q-58 52 -161 52q-118 0 -192 -67t-90 -187h395l-15 -35h-382v-3q0 -21 1 -32h366l-15 -35h-346q10 -57 36 -110q35 -72 102.5 -115.5t143.5 -43.5q46 0 90.5 16.5
t68.5 41.5q29 30 48 95l16 -5l-15 -122q-84 -58 -230 -58q-143 0 -243 83.5t-120 217.5h-48l15 35h31v35z" />
    <glyph glyph-name="aslashs" unicode="&#x2101;" horiz-adv-x="907" 
d="M270 413h-131l-31 -95q-2 -5 -2 -10q-1 -16 20 -20l33 -3v-20q-35 1 -83 1q-37 0 -61 -1v20q27 2 38.5 11t22.5 39l110 297l-6 19q21 13 29 24.5t16 11.5q9 0 12 -8l133 -354q9 -23 21 -31t36 -9v-20q-34 1 -77 1q-44 0 -80 -1v20l17 1q22 1 22 13q0 7 -4 18zM258 440
l-57 155l-53 -155h110zM673 660h37l-321 -660h-34zM852 393l7 -73h-18q-19 62 -76 62q-30 0 -51 -18t-21 -44q0 -47 74 -86q62 -33 85 -59t23 -65q0 -51 -39.5 -84.5t-99.5 -33.5q-66 0 -110 28l-7 83h16q17 -41 33 -58q25 -26 68 -26q33 0 56.5 22t23.5 53q0 44 -69 80
q-57 30 -75 47q-33 32 -33 80q0 47 36 77t91 30q35 0 86 -15z" />
    <glyph glyph-name="liter" unicode="&#x2113;" 
d="M250 265q-30 -159 -30 -205q0 -26 18 -26q24 0 50 55q9 18 19 18q14 0 14 -15q0 -19 -20 -52q-35 -58 -82 -58q-70 0 -70 91q0 32 10 123q-43 -45 -55 -45q-13 0 -13 18q0 9 20 27q13 12 55 59q41 218 89 319t109 101q29 0 46.5 -22.5t17.5 -59.5q0 -84 -63 -188
q-35 -57 -115 -140zM259 320q47 51 74 97q56 96 56 177q0 37 -25 37q-30 0 -52 -65.5t-53 -245.5z" />
    <glyph glyph-name="Ohm" unicode="&#x2126;" horiz-adv-x="667" 
d="M688 120l-38 -120h-277v45q84 42 126 93q76 93 76 219q0 117 -64 205t-178 88q-125 0 -191 -107q-50 -82 -50 -184q0 -145 95 -243q35 -36 106 -71v-45h-277l-38 120h19q16 -46 49 -61q22 -10 78 -12l108 -3v6q-85 33 -130 75q-105 99 -105 234q0 66 31.5 131.5
t85.5 112.5q87 75 220 75q161 0 255 -109q80 -93 80 -208q0 -75 -35 -143t-96 -114q-35 -26 -104 -54v-6l114 4q57 2 81 16t40 56h19z" />
    <glyph glyph-name="onethird" unicode="&#x2153;" horiz-adv-x="791" 
d="M160 325v280q-12 -6 -41 -20q-11 -5 -41 -18l-7 17q103 51 137 85l10 -3v-341q0 -29 6.5 -36t35.5 -7h25v-19q-43 1 -98 1q-54 0 -97 -1v19h26q29 0 36.5 9.5t7.5 33.5zM536 660h37l-321 -660h-34zM564 194v19q102 12 102 85q0 29 -18.5 47t-47.5 18q-36 0 -70 -34
l-15 10q53 61 113 61q39 0 65.5 -23t26.5 -57q0 -55 -70 -95q94 -20 94 -90q0 -55 -47.5 -97t-109.5 -42q-37 0 -71.5 15.5t-34.5 31.5q0 6 10 14t18 8t27 -24t57 -24q37 0 65 28t28 66q0 30 -19.5 51.5t-48.5 27.5q-17 4 -54 4z" />
    <glyph glyph-name="twothirds" unicode="&#x2154;" horiz-adv-x="791" 
d="M96 314h175q10 0 13.5 3.5t13.5 24.5h17l-18 -78h-272v15q54 41 117 114q70 81 70 150q0 37 -20 59t-54 22q-38 0 -82 -52l-13 10q51 82 124 82q46 0 74.5 -29t28.5 -76q0 -43 -24.5 -81.5t-97.5 -111.5zM536 660h37l-321 -660h-34zM564 194v19q102 12 102 85
q0 29 -18.5 47t-47.5 18q-36 0 -70 -34l-15 10q53 61 113 61q39 0 65.5 -23t26.5 -57q0 -55 -70 -95q94 -20 94 -90q0 -55 -47.5 -97t-109.5 -42q-37 0 -71.5 15.5t-34.5 31.5q0 6 10 14t18 8t27 -24t57 -24q37 0 65 28t28 66q0 30 -19.5 51.5t-48.5 27.5q-17 4 -54 4z" />
    <glyph glyph-name="onefifth" unicode="&#x2155;" horiz-adv-x="791" 
d="M160 325v280q-12 -6 -41 -20q-11 -5 -41 -18l-7 17q103 51 137 85l10 -3v-341q0 -29 6.5 -36t35.5 -7h25v-19q-43 1 -98 1q-54 0 -97 -1v19h26q29 0 36.5 9.5t7.5 33.5zM536 660h37l-321 -660h-34zM594 396h152l-11 -50h-135l-21 -54q52 -25 80 -46q66 -50 66 -114
q0 -55 -42.5 -95.5t-100.5 -40.5q-30 0 -65 16.5t-35 30.5q0 6 8.5 15t13.5 9q6 0 23 -17q30 -31 64 -31q35 0 60 26t25 62q0 49 -43 86q-18 16 -95 51z" />
    <glyph glyph-name="twofifths" unicode="&#x2156;" horiz-adv-x="791" 
d="M96 314h175q10 0 13.5 3.5t13.5 24.5h17l-18 -78h-272v15q54 41 117 114q70 81 70 150q0 37 -20 59t-54 22q-38 0 -82 -52l-13 10q51 82 124 82q46 0 74.5 -29t28.5 -76q0 -43 -24.5 -81.5t-97.5 -111.5zM536 660h37l-321 -660h-34zM594 396h152l-11 -50h-135l-21 -54
q59 -29 80 -46q66 -52 66 -114q0 -55 -42.5 -95.5t-100.5 -40.5q-30 0 -65 16.5t-35 30.5q0 6 8.5 15t13.5 9q6 0 23 -17q30 -31 64 -31q35 0 60 26t25 62q0 49 -43 86q-21 18 -95 51z" />
    <glyph glyph-name="threefifths" unicode="&#x2157;" horiz-adv-x="791" 
d="M105 458v19q102 12 102 85q0 29 -18.5 47t-47.5 18q-36 0 -70 -34l-15 11q53 60 113 60q39 0 65.5 -23t26.5 -57q0 -53 -70 -95q94 -18 94 -90q0 -55 -47.5 -97t-109.5 -42q-37 0 -71.5 15.5t-34.5 31.5q0 7 10 15t18 8t26 -23q20 -26 58 -26q37 0 65 28.5t28 66.5
q0 53 -51 73q-23 9 -71 9zM536 660h37l-321 -660h-34zM594 396h152l-11 -50h-135l-21 -54q54 -26 80 -46q66 -51 66 -114q0 -55 -42.5 -95.5t-100.5 -40.5q-30 0 -65 16.5t-35 30.5q0 6 8.5 15t13.5 9q6 0 23 -17q30 -31 64 -31q35 0 60 26t25 62q0 49 -43 86q-20 17 -94 51
z" />
    <glyph glyph-name="fourfifths" unicode="&#x2158;" horiz-adv-x="791" 
d="M252 430h58v-45h-58v-121h-55v121h-178v29l206 246h27v-230zM197 430v159l-131 -159h131zM537 660h36l-320 -660h-35zM595 396h151l-11 -50h-135l-20 -54q53 -26 79 -46q66 -51 66 -114q0 -55 -42.5 -95.5t-100.5 -40.5q-30 0 -65 16.5t-35 30.5q0 6 8.5 15t13.5 9
q6 0 23 -17q30 -31 64 -31q35 0 60 26t25 62q0 49 -43 86q-21 18 -94 51z" />
    <glyph glyph-name="onesixth" unicode="&#x2159;" horiz-adv-x="791" 
d="M160 325v280q-12 -6 -41 -20q-11 -5 -41 -18l-7 17q103 51 137 85l10 -3v-341q0 -29 6.5 -36t35.5 -7h25v-19q-43 1 -98 1q-54 0 -97 -1v19h26q29 0 36.5 9.5t7.5 33.5zM536 660h37l-321 -660h-34zM762 404l7 -18q-87 -23 -145 -80t-66 -127q45 44 96 44q44 0 73.5 -30.5
t29.5 -76.5q0 -47 -40.5 -83.5t-93.5 -36.5q-57 0 -92.5 40.5t-35.5 105.5q0 92 73 164t194 98zM556 142v-16q0 -44 14 -68q23 -40 62 -40q28 0 48.5 24.5t20.5 59.5t-21 58.5t-52 23.5q-43 0 -72 -42z" />
    <glyph glyph-name="fivesixths" unicode="&#x215a;" horiz-adv-x="791" 
d="M134 660h152l-11 -50h-135l-21 -54q54 -26 80 -46q66 -51 66 -114q0 -55 -42.5 -95.5t-100.5 -40.5q-30 0 -65 16.5t-35 30.5q0 6 8.5 15t13.5 9q6 0 23 -17q30 -31 64 -31q35 0 60 26t25 62q0 49 -43 86q-21 18 -94 51zM536 660h37l-321 -660h-34zM762 404l8 -18
q-88 -23 -146 -80t-66 -127q45 44 96 44q44 0 73.5 -30.5t29.5 -76.5q0 -47 -40.5 -83.5t-93.5 -36.5q-57 0 -92.5 40.5t-35.5 105.5q0 92 73 164t194 98zM556 142v-16q0 -44 14 -68q23 -40 62 -40q28 0 48.5 24.5t20.5 59.5t-21 58.5t-52 23.5q-43 0 -72 -42z" />
    <glyph glyph-name="oneeighth" unicode="&#x215b;" horiz-adv-x="791" 
d="M160 325v280q-12 -6 -41 -20q-11 -5 -41 -18l-7 17q103 51 137 85l10 -3v-341q0 -29 6.5 -36t35.5 -7h25v-19q-43 1 -98 1q-54 0 -97 -1v19h26q29 0 36.5 9.5t7.5 33.5zM536 660h37l-321 -660h-34zM659 211q85 -49 85 -109q0 -44 -36 -75t-86 -31q-47 0 -81.5 28
t-34.5 66q0 28 16 48t64 52q-74 46 -74 106q0 44 34 74t84 30q46 0 77 -25t31 -62q0 -56 -79 -102zM641 223q49 34 49 85q0 32 -17.5 52t-45.5 20q-26 0 -45.5 -19.5t-19.5 -45.5q0 -43 79 -92zM620 170l-15 10q-9 -8 -24 -22q-28 -28 -28 -64q0 -34 20 -56t51 -22
q27 0 47 19.5t20 45.5q0 42 -71 89z" />
    <glyph glyph-name="threeeighths" unicode="&#x215c;" horiz-adv-x="791" 
d="M105 458v19q102 12 102 85q0 29 -18.5 47t-47.5 18q-36 0 -70 -34l-15 11q53 60 113 60q39 0 65.5 -23t26.5 -57q0 -53 -70 -95q94 -18 94 -90q0 -55 -47.5 -97t-109.5 -42q-37 0 -71.5 15.5t-34.5 31.5q0 7 10 15t18 8t26 -23q20 -26 58 -26q37 0 65 28.5t28 66.5
q0 53 -51 73q-23 9 -71 9zM536 660h37l-321 -660h-34zM660 211q84 -49 84 -109q0 -43 -35.5 -74.5t-85.5 -31.5q-47 0 -81.5 28t-34.5 66q0 28 15.5 48t63.5 52q-74 46 -74 106q0 44 34 74t84 30q46 0 77 -25t31 -62q0 -56 -78 -102zM641 223q49 34 49 85q0 32 -17.5 52
t-45.5 20q-26 0 -45.5 -19.5t-19.5 -45.5q0 -43 79 -92zM605 180q-10 -8 -24 -22q-27 -28 -27 -64q0 -34 20 -56t50 -22q27 0 47 19.5t20 45.5q0 45 -71 89q-4 3 -15 10z" />
    <glyph glyph-name="fiveeighths" unicode="&#x215d;" horiz-adv-x="791" 
d="M134 660h152l-11 -50h-135l-21 -54q54 -26 80 -46q66 -51 66 -114q0 -55 -42.5 -95.5t-100.5 -40.5q-30 0 -65 16.5t-35 30.5q0 6 8.5 15t13.5 9q6 0 23 -17q30 -31 64 -31q35 0 60 26t25 62q0 49 -43 86q-21 18 -94 51zM536 660h37l-321 -660h-34zM660 211
q84 -49 84 -109q0 -43 -35.5 -74.5t-85.5 -31.5q-47 0 -81.5 28t-34.5 66q0 28 15.5 48t63.5 52q-74 46 -74 106q0 44 34 74t84 30q46 0 77 -25t31 -62q0 -56 -78 -102zM641 223q49 34 49 85q0 32 -17.5 52t-45.5 20q-26 0 -45.5 -19.5t-19.5 -45.5q0 -43 79 -92zM605 180
q-10 -8 -24 -22q-27 -28 -27 -64q0 -34 20 -56t50 -22q27 0 47 19.5t20 45.5q0 45 -71 89q-4 3 -15 10z" />
    <glyph glyph-name="seveneighths" unicode="&#x215e;" horiz-adv-x="791" 
d="M100 256l-27 13l192 340h-181q-16 0 -21 -2.5t-9 -13.5q-1 -3 -6 -11h-19l14 78h272l9 -7zM536 660h37l-321 -660h-34zM659 211q85 -49 85 -109q0 -44 -36 -75t-86 -31q-47 0 -81.5 28t-34.5 66q0 28 16 48t64 52q-74 46 -74 106q0 44 34 74t84 30q46 0 77 -25t31 -62
q0 -56 -79 -102zM641 223q49 34 49 85q0 32 -17.5 52t-45.5 20q-26 0 -45.5 -19.5t-19.5 -45.5q0 -43 79 -92zM620 170l-15 10q-9 -8 -24 -22q-28 -28 -28 -64q0 -34 20 -56t51 -22q27 0 47 19.5t20 45.5q0 42 -71 89z" />
    <glyph glyph-name="arrowleft" unicode="&#x2190;" horiz-adv-x="667" 
d="M653 363v-51h-500q15 -19 33.5 -56t18.5 -48q0 -14 -15 -14q-9 0 -23 17q-49 57 -131 103q-23 13 -23 21q0 9 16 19q57 34 79 51q32 25 68 66q7 8 14 8q15 0 15 -15q0 -29 -52 -101h500z" />
    <glyph glyph-name="arrowup" unicode="&#x2191;" horiz-adv-x="667" 
d="M360 13h-51v500q-18 -14 -55.5 -33t-48.5 -19q-14 0 -14 15q0 9 17 23q53 45 103 132q13 23 21 23q9 0 19 -17q33 -56 51 -80q24 -30 66 -67q8 -7 8 -14q0 -15 -15 -15q-29 0 -101 52v-500z" />
    <glyph glyph-name="arrowright" unicode="&#x2192;" horiz-adv-x="667" 
d="M13 310v51h500q-15 19 -33.5 56t-18.5 48q0 14 15 14q9 0 23 -17q49 -57 131 -103q23 -13 23 -21q0 -9 -16 -19q-57 -34 -79 -51q-32 -25 -68 -66q-7 -8 -14 -8q-15 0 -15 15q0 29 52 101h-500z" />
    <glyph glyph-name="arrowdown" unicode="&#x2193;" horiz-adv-x="667" 
d="M307 653h51v-500q19 16 56 34t48 18q14 0 14 -15q0 -9 -17 -23q-56 -47 -103 -131q-13 -23 -21 -23q-10 0 -19 16q-56 94 -117 147q-8 7 -8 14q0 15 15 15q29 0 101 -52v500z" />
    <glyph glyph-name="arrowboth" unicode="&#x2194;" horiz-adv-x="667" 
d="M513 310h-361q53 -71 53 -101q0 -15 -15 -15q-7 0 -24 19q-46 53 -143 110q-10 6 -10 15q0 7 21 19l2 1q86 49 132 104q14 17 22 17q15 0 15 -14q0 -11 -18.5 -47.5t-34.5 -56.5h361q-15 19 -33.5 56t-18.5 48q0 14 15 14q9 0 23 -17q49 -57 131 -103q23 -13 23 -21
q0 -9 -16 -19q-57 -34 -79 -51q-32 -25 -68 -66q-7 -8 -14 -8q-15 0 -15 15q0 29 52 101z" />
    <glyph glyph-name="arrowupdn" unicode="&#x2195;" horiz-adv-x="667" 
d="M360 513v-361q70 54 101 54q15 0 15 -15q0 -8 -19 -24q-51 -44 -110 -144q-6 -10 -15 -10q-7 0 -20 23q-46 82 -104 132q-17 15 -17 23q0 15 14 15q11 0 48 -19t56 -35v361q-20 -15 -56.5 -33.5t-47.5 -18.5q-14 0 -14 15q0 9 17 23q55 47 103 132q13 23 21 23
q9 0 19 -17q33 -56 51 -80q24 -31 66 -67q8 -7 8 -14q0 -15 -15 -15q-29 0 -101 52z" />
    <glyph glyph-name="arrowupdnbse" unicode="&#x21a8;" horiz-adv-x="667" 
d="M360 513v-361q70 54 101 54q15 0 15 -15q0 -8 -19 -24q-51 -44 -110 -144q-6 -10 -15 -10q-7 0 -20 23q-46 82 -104 132q-17 15 -17 23q0 15 14 15q11 0 48 -19t56 -35v361q-20 -15 -56.5 -33.5t-47.5 -18.5q-14 0 -14 15q0 8 17 23q57 50 106 136q11 19 18 19
q9 0 19 -17q33 -56 51 -80q24 -30 66 -67q8 -7 8 -14q0 -15 -15 -15q-29 0 -101 52zM201 -68h264v-43h-264v43z" />
    <glyph glyph-name="emptyset" unicode="&#x2205;" horiz-adv-x="618" 
d="M439 667l48 -25l-48 -88q113 -78 113 -204q0 -102 -72 -172.5t-176 -70.5q-46 0 -79 16l-63 -123l-48 25l61 122q-108 80 -108 202q0 101 71 172t173 71q39 0 81 -14zM416 502l-165 -330q32 -8 58 -8q77 0 132 54.5t55 130.5q0 47 -21.5 89t-58.5 64zM200 198l166 329
q-28 8 -54 8q-78 0 -133.5 -54.5t-55.5 -130.5q0 -90 77 -152z" />
    <glyph glyph-name="Delta" unicode="&#x394;" horiz-adv-x="667" 
d="M352 683l308 -683h-653l307 683h38zM311 590l-206 -457q-14 -31 -14 -49q0 -32 46 -32h410z" />
    <glyph glyph-name="Delta" unicode="&#x2206;" horiz-adv-x="667" 
d="M352 683l308 -683h-653l307 683h38zM311 590l-206 -457q-14 -31 -14 -49q0 -32 46 -32h410z" />
    <glyph glyph-name="intersection" unicode="&#x2229;" horiz-adv-x="555" 
d="M63 0h-28v423q0 120 42 174q65 84 196 84q125 0 192 -71q32 -34 43 -69.5t11 -109.5v-431h-86v425q0 100 -19 135q-22 41 -66 65t-97 24q-100 0 -153 -75q-24 -35 -31 -79q-4 -25 -4 -87v-408z" />
    <glyph glyph-name="union" unicode="&#x222a;" horiz-adv-x="555" 
d="M37 667h86v-425q0 -100 19 -135q22 -41 66.5 -65t96.5 -24q101 0 154 75q24 34 30 80q4 25 4 86v408h28v-423q0 -120 -42 -174q-65 -84 -196 -84q-125 0 -192 71q-32 34 -43 69.5t-11 109.5v431z" />
    <glyph glyph-name="contintegral" unicode="&#x222e;" horiz-adv-x="498" 
d="M206 -55v99q-65 9 -109.5 62.5t-44.5 122.5q0 70 44 122.5t110 63.5v36q0 114 44 182t118 68q52 0 88 -30t36 -72q0 -25 -15.5 -42t-38.5 -17q-21 0 -36 14t-15 34q0 9 5 19q7 14 7 25q0 31 -31 31q-35 0 -56.5 -48.5t-21.5 -126.5v-73q68 -11 111 -63.5t43 -122.5
t-44 -123t-110 -62v-28q0 -141 -31 -198q-44 -81 -129 -81q-54 0 -89 30.5t-35 77.5q0 22 15 37t37 15q21 0 36 -14.5t15 -34.5q0 -10 -6 -21.5t-6 -21.5q0 -30 31 -30q34 0 56 48t22 122zM290 371v-283q49 10 80 49.5t31 92.5q0 78 -59 118q-28 19 -52 23zM206 88v283
q-48 -8 -79.5 -48t-31.5 -93q0 -52 31.5 -92.5t79.5 -49.5z" />
    <glyph glyph-name="equivalence" unicode="&#x2261;" 
d="M23 503h455v-42h-455v42zM23 222h455v-42h-455v42zM23 363h455v-43h-455v43z" />
    <glyph glyph-name="house" unicode="&#x2302;" horiz-adv-x="751" 
d="M84 0v401l291 328l292 -328v-401h-583zM135 51h481v328l-241 270l-240 -270v-328z" />
    <glyph glyph-name="turnednot" unicode="&#x2319;" 
d="M130 267v-226h335v-41h-429v267h94z" />
    <glyph glyph-name="integraltp" unicode="&#x2320;" 
d="M245 -258h-84v678q0 74 3 102q6 58 28 98q45 81 131 81q52 0 88 -30t36 -74q0 -24 -15.5 -40.5t-38.5 -16.5q-21 0 -36 14.5t-15 34.5q0 11 6 22t6 22q0 30 -31 30q-36 0 -57 -50.5t-21 -138.5v-732z" />
    <glyph glyph-name="integralbt" unicode="&#x2321;" 
d="M254 700h84v-677q0 -74 -3 -102q-6 -58 -28 -98q-45 -81 -131 -81q-52 0 -88 30.5t-36 74.5q0 23 16 39.5t38 16.5q21 0 36 -14.5t15 -34.5q0 -11 -6 -22t-6 -22q0 -30 31 -30q36 0 57 51t21 138v731z" />
    <glyph glyph-name="SF100000" unicode="&#x2500;" horiz-adv-x="1000" 
d="M0 217v66h1000v-66h-1000z" />
    <glyph glyph-name="SF110000" unicode="&#x2502;" horiz-adv-x="1000" 
d="M467 -250v1000h66v-1000h-66z" />
    <glyph glyph-name="SF010000" unicode="&#x250c;" horiz-adv-x="1000" 
d="M1000 283v-66h-467v-467h-66v533h533z" />
    <glyph glyph-name="SF030000" unicode="&#x2510;" horiz-adv-x="1000" 
d="M467 217h-467v66h533v-533h-66v467z" />
    <glyph glyph-name="SF020000" unicode="&#x2514;" horiz-adv-x="1000" 
d="M533 283h467v-66h-533v533h66v-467z" />
    <glyph glyph-name="SF040000" unicode="&#x2518;" horiz-adv-x="1000" 
d="M0 217v66h467v467h66v-533h-533z" />
    <glyph glyph-name="SF080000" unicode="&#x251c;" horiz-adv-x="1000" 
d="M533 283h467v-66h-467v-467h-66v1000h66v-467z" />
    <glyph glyph-name="SF090000" unicode="&#x2524;" horiz-adv-x="1000" 
d="M467 217h-467v66h467v467h66v-1000h-66v467z" />
    <glyph glyph-name="SF060000" unicode="&#x252c;" horiz-adv-x="1000" 
d="M533 217v-467h-66v467h-467v66h1000v-66h-467z" />
    <glyph glyph-name="SF070000" unicode="&#x2534;" horiz-adv-x="1000" 
d="M467 283v467h66v-467h467v-66h-1000v66h467z" />
    <glyph glyph-name="SF050000" unicode="&#x253c;" horiz-adv-x="1000" 
d="M467 217h-467v66h467v467h66v-467h467v-66h-467v-467h-66v467z" />
    <glyph glyph-name="SF430000" unicode="&#x2550;" horiz-adv-x="1000" 
d="M0 151v66h1000v-66h-1000zM0 283v66h1000v-66h-1000z" />
    <glyph glyph-name="SF240000" unicode="&#x2551;" horiz-adv-x="1000" 
d="M401 -250v1000h66v-1000h-66zM533 -250v1000h66v-1000h-66z" />
    <glyph glyph-name="SF510000" unicode="&#x2552;" horiz-adv-x="1000" 
d="M467 -250v599h533v-66h-467v-66h467v-66h-467v-401h-66z" />
    <glyph glyph-name="SF520000" unicode="&#x2553;" horiz-adv-x="1000" 
d="M533 217h-66v-467h-66v533h599v-66h-401v-467h-66v467z" />
    <glyph glyph-name="SF390000" unicode="&#x2554;" horiz-adv-x="1000" 
d="M467 283v-533h-66v599h599v-66h-533zM599 151v-401h-66v467h467v-66h-401z" />
    <glyph glyph-name="SF220000" unicode="&#x2555;" horiz-adv-x="1000" 
d="M467 151h-467v66h467v66h-467v66h533v-599h-66v401z" />
    <glyph glyph-name="SF210000" unicode="&#x2556;" horiz-adv-x="1000" 
d="M467 217v-467h-66v467h-401v66h599v-533h-66v467h-66z" />
    <glyph glyph-name="SF250000" unicode="&#x2557;" horiz-adv-x="1000" 
d="M533 283h-533v66h599v-599h-66v533zM401 151h-401v66h467v-467h-66v401z" />
    <glyph glyph-name="SF500000" unicode="&#x2558;" horiz-adv-x="1000" 
d="M467 750h66v-401h467v-66h-467v-66h467v-66h-533v599z" />
    <glyph glyph-name="SF490000" unicode="&#x2559;" horiz-adv-x="1000" 
d="M533 283v467h66v-467h401v-66h-599v533h66v-467h66z" />
    <glyph glyph-name="SF380000" unicode="&#x255a;" horiz-adv-x="1000" 
d="M467 217h533v-66h-599v599h66v-533zM599 349h401v-66h-467v467h66v-401z" />
    <glyph glyph-name="SF280000" unicode="&#x255b;" horiz-adv-x="1000" 
d="M467 349v401h66v-599h-533v66h467v66h-467v66h467z" />
    <glyph glyph-name="SF270000" unicode="&#x255c;" horiz-adv-x="1000" 
d="M467 283h66v467h66v-533h-599v66h401v467h66v-467z" />
    <glyph glyph-name="SF260000" unicode="&#x255d;" horiz-adv-x="1000" 
d="M533 217v533h66v-599h-599v66h533zM401 349v401h66v-467h-467v66h401z" />
    <glyph glyph-name="SF360000" unicode="&#x255e;" horiz-adv-x="1000" 
d="M467 750h66v-401h467v-66h-467v-66h467v-66h-467v-401h-66v1000z" />
    <glyph glyph-name="SF370000" unicode="&#x255f;" horiz-adv-x="1000" 
d="M599 217v-467h-66v1000h66v-467h401v-66h-401zM467 -250h-66v1000h66v-1000z" />
    <glyph glyph-name="SF420000" unicode="&#x2560;" horiz-adv-x="1000" 
d="M401 -250v1000h66v-1000h-66zM599 349h401v-66h-467v467h66v-401zM599 151v-401h-66v467h467v-66h-401z" />
    <glyph glyph-name="SF190000" unicode="&#x2561;" horiz-adv-x="1000" 
d="M467 349v401h66v-1000h-66v401h-467v66h467v66h-467v66h467z" />
    <glyph glyph-name="SF200000" unicode="&#x2562;" horiz-adv-x="1000" 
d="M401 217h-401v66h401v467h66v-1000h-66v467zM533 -250v1000h66v-1000h-66z" />
    <glyph glyph-name="SF230000" unicode="&#x2563;" horiz-adv-x="1000" 
d="M599 -250h-66v1000h66v-1000zM401 349v401h66v-467h-467v66h401zM401 151h-401v66h467v-467h-66v401z" />
    <glyph glyph-name="SF470000" unicode="&#x2564;" horiz-adv-x="1000" 
d="M0 349h1000v-66h-1000v66zM467 151h-467v66h1000v-66h-467v-401h-66v401z" />
    <glyph glyph-name="SF480000" unicode="&#x2565;" horiz-adv-x="1000" 
d="M401 217h-401v66h1000v-66h-401v-467h-66v467h-66v-467h-66v467z" />
    <glyph glyph-name="SF410000" unicode="&#x2566;" horiz-adv-x="1000" 
d="M0 349h1000v-66h-1000v66zM599 151v-401h-66v467h467v-66h-401zM401 151h-401v66h467v-467h-66v401z" />
    <glyph glyph-name="SF450000" unicode="&#x2567;" horiz-adv-x="1000" 
d="M0 151v66h1000v-66h-1000zM467 349v401h66v-401h467v-66h-1000v66h467z" />
    <glyph glyph-name="SF460000" unicode="&#x2568;" horiz-adv-x="1000" 
d="M0 217v66h401v467h66v-467h66v467h66v-467h401v-66h-1000z" />
    <glyph glyph-name="SF400000" unicode="&#x2569;" horiz-adv-x="1000" 
d="M0 151v66h1000v-66h-1000zM599 349h401v-66h-467v467h66v-401zM401 349v401h66v-467h-467v66h401z" />
    <glyph glyph-name="SF540000" unicode="&#x256a;" horiz-adv-x="1000" 
d="M467 217v66h-467v66h467v401h66v-401h467v-66h-467v-66h467v-66h-467v-401h-66v401h-467v66h467z" />
    <glyph glyph-name="SF530000" unicode="&#x256b;" horiz-adv-x="1000" 
d="M401 217h-401v66h401v467h66v-467h66v467h66v-467h401v-66h-401v-467h-66v467h-66v-467h-66v467z" />
    <glyph glyph-name="SF440000" unicode="&#x256c;" horiz-adv-x="1000" 
d="M599 349h401v-66h-467v467h66v-401zM401 349v401h66v-467h-467v66h401zM599 151v-401h-66v467h467v-66h-401zM401 151h-401v66h467v-467h-66v401z" />
    <glyph glyph-name="upblock" unicode="&#x2580;" horiz-adv-x="1000" 
d="M0 250v500h1000v-500h-1000z" />
    <glyph glyph-name="dnblock" unicode="&#x2584;" horiz-adv-x="1000" 
d="M0 -250v500h1000v-500h-1000z" />
    <glyph glyph-name="block" unicode="&#x2588;" horiz-adv-x="1000" 
d="M0 -250v1000h1000v-1000h-1000z" />
    <glyph glyph-name="lfblock" unicode="&#x258c;" horiz-adv-x="1000" 
d="M0 -250v1000h500v-1000h-500z" />
    <glyph glyph-name="rtblock" unicode="&#x2590;" horiz-adv-x="1000" 
d="M500 -250v1000h500v-1000h-500z" />
    <glyph glyph-name="ltshade" unicode="&#x2591;" horiz-adv-x="1000" 
d="M0 750h100v-100h-100v100zM200 750h100v-100h-100v100zM800 750h100v-100h-100v100zM400 750h100v-100h-100v100zM600 750h100v-100h-100v100zM0 550h100v-100h-100v100zM0 350h100v-100h-100v100zM0 150h100v-100h-100v100zM0 -50h100v-100h-100v100zM200 550h100v-100
h-100v100zM200 350h100v-100h-100v100zM200 150h100v-100h-100v100zM200 -50h100v-100h-100v100zM400 550h100v-100h-100v100zM400 350h100v-100h-100v100zM400 150h100v-100h-100v100zM400 -50h100v-100h-100v100zM600 550h100v-100h-100v100zM600 350h100v-100h-100v100z
M600 150h100v-100h-100v100zM600 -50h100v-100h-100v100zM800 550h100v-100h-100v100zM800 350h100v-100h-100v100zM800 150h100v-100h-100v100zM800 -50h100v-100h-100v100z" />
    <glyph glyph-name="shade" unicode="&#x2592;" horiz-adv-x="1000" 
d="M900 -150h100v-100h-100v100h-100v-100h-100v100h-100v-100h-100v100h-100v-100h-100v100h-100v-100h-100v100h-100v100h100v-100h100v100h100v-100h100v100h100v-100h100v100h100v-100h100v100h100v100h-100v-100h-100v100h-100v-100h-100v100h-100v-100h-100v100h-100
v-100h-100v100h-100v100h100v-100h100v100h100v-100h100v100h100v-100h100v100h100v-100h100v100h100v100h-100v-100h-100v100h-100v-100h-100v100h-100v-100h-100v100h-100v-100h-100v100h-100v100h100v-100h100v100h100v-100h100v100h100v-100h100v100h100v-100h100v100
h100v100h-100v-100h-100v100h-100v-100h-100v100h-100v-100h-100v100h-100v-100h-100v100h-100v100h100v-100h100v100h100v-100h100v100h100v-100h100v100h100v-100h100v100h100v100h-100v-100h-100v100h-100v-100h-100v100h-100v-100h-100v100h-100v-100h-100v100h-100v100
h100v-100h100v100h100v-100h100v100h100v-100h100v100h100v-100h100v100h100v-100h100v-100h-100v-100h100v-100h-100v-100h100v-100h-100v-100h100v-100h-100v-100z" />
    <glyph glyph-name="dkshade" unicode="&#x2593;" horiz-adv-x="1000" 
d="M1000 -250h-1000v100h100v100h-100v100h100v100h-100v100h100v100h-100v100h100v100h-100v100h100v100h100v-100h100v100h100v-100h100v100h100v-100h100v100h100v-100h100v100h100v-1000zM900 550h-100v-100h100v100zM700 550h-100v-100h100v100zM500 550h-100v-100h100
v100zM300 550h-100v-100h100v100zM900 350h-100v-100h100v100zM700 350h-100v-100h100v100zM500 350h-100v-100h100v100zM300 350h-100v-100h100v100zM900 150h-100v-100h100v100zM700 150h-100v-100h100v100zM500 150h-100v-100h100v100zM300 150h-100v-100h100v100z
M900 -50h-100v-100h100v100zM700 -50h-100v-100h100v100zM500 -50h-100v-100h100v100zM300 -50h-100v-100h100v100z" />
    <glyph glyph-name="filledbox" unicode="&#x25a0;" horiz-adv-x="667" 
d="M667 0h-667v667h667v-667z" />
    <glyph glyph-name="outlinedbox" unicode="&#x25a1;" horiz-adv-x="667" 
d="M667 0h-667v667h667v-667zM620 47v573h-573v-573h573z" />
    <glyph glyph-name="triagup" unicode="&#x25b2;" 
d="M466 147h-433l217 405z" />
    <glyph glyph-name="triagrt" unicode="&#x25b6;" 
d="M71 119v433l405 -217z" />
    <glyph glyph-name="triagdn" unicode="&#x25bc;" 
d="M33 520h433l-216 -405z" />
    <glyph glyph-name="triaglt" unicode="&#x25c0;" 
d="M428 552v-433l-405 216z" />
    <glyph glyph-name="diamondrhombsolid" unicode="&#x25c6;" horiz-adv-x="667" 
d="M333 693q22 -47 111.5 -173t142.5 -186q-160 -190 -254 -360q-71 135 -253 360q180 226 253 359z" />
    <glyph glyph-name="diamondrhomb" unicode="&#x25c7;" horiz-adv-x="667" 
d="M334 693l259 -359l-259 -360l-260 360zM334 604l-197 -270l197 -271l197 271z" />
    <glyph glyph-name="circle" unicode="&#x25cb;" horiz-adv-x="667" 
d="M334 589q107 0 183.5 -75t76.5 -180q0 -106 -76.5 -181.5t-183.5 -75.5q-109 0 -185 75.5t-76 184.5q0 103 77.5 177.5t183.5 74.5zM334 543q-88 0 -151 -61t-63 -146q0 -89 62 -151t152 -62q88 0 150.5 62t62.5 149q0 86 -62.5 147.5t-150.5 61.5z" />
    <glyph glyph-name="invbullet" unicode="&#x25d8;" horiz-adv-x="667" 
d="M0 0v667h667v-667h-667zM336 473q-58 0 -99 -40.5t-41 -99.5q0 -57 40.5 -98t97.5 -41q56 0 96.5 41t40.5 99q0 56 -40 97.5t-95 41.5z" />
    <glyph glyph-name="invcircle" unicode="&#x25d9;" horiz-adv-x="667" 
d="M334 543q88 0 150.5 -61.5t62.5 -147.5q0 -87 -62.5 -149t-150.5 -62q-90 0 -152 62t-62 151q0 85 63 146t151 61zM667 0h-667v667h667v-667zM334 590q-107 0 -184 -74.5t-77 -177.5q0 -109 76 -185t185 -76q107 0 183.5 75.5t76.5 181.5t-76.5 181t-183.5 75z" />
    <glyph glyph-name="smileface" unicode="&#x263a;" horiz-adv-x="667" 
d="M240 466q17 0 30 -13t13 -31t-13 -31t-31 -13t-31 13t-13 31t13 31t32 13zM434 466q18 0 31 -13t13 -31q0 -19 -13 -32t-31 -13q-19 0 -32 13t-13 32q0 18 13 31t32 13zM540 372q-7 -106 -50 -161q-56 -70 -156 -70q-108 0 -164 83q-34 51 -42 148q13 -59 50 -97
q60 -62 156 -62q105 0 165 71q29 34 41 88zM339 650q127 0 219 -93.5t92 -222.5q0 -131 -93 -224t-224 -93t-223.5 93t-92.5 226q0 131 94 222.5t228 91.5zM338 608q-126 0 -208 -91q-71 -79 -71 -181q0 -116 80 -196.5t195 -80.5q114 0 194.5 80.5t80.5 194.5
q0 112 -80.5 193t-190.5 81z" />
    <glyph glyph-name="invsmileface" unicode="&#x263b;" horiz-adv-x="667" 
d="M339 650q127 0 219 -93.5t92 -222.5q0 -131 -93 -224t-224 -93t-223.5 93t-92.5 226q0 131 94 222.5t228 91.5zM240 466q-18 0 -31 -13t-13 -31t12.5 -31t30.5 -13t31 13t13 31t-13 31t-30 13zM434 466q-19 0 -32 -13t-13 -31q0 -19 13 -32t31 -13t31 13t13 32
q0 18 -13 31t-30 13zM540 372q-13 -55 -41 -88q-60 -71 -165 -71q-103 0 -164 71q-29 34 -42 88q8 -107 51 -161q56 -70 155 -70q110 0 165 83q35 52 41 148z" />
    <glyph glyph-name="sun" unicode="&#x263c;" horiz-adv-x="667" 
d="M159 472l-75 75l35 35l75 -75q51 40 114 48v105h50v-105q67 -8 113 -48l75 75l35 -35l-74 -75q38 -46 47 -113h105v-51h-105q-9 -64 -47 -113l74 -75l-35 -35l-75 74q-50 -40 -113 -47v-105h-50v105q-58 6 -114 47l-75 -74l-35 35l74 74q-40 49 -46 114h-105v51h105
q7 63 47 113zM336 493q-68 0 -115.5 -46t-47.5 -112q0 -67 46.5 -114t113.5 -47q65 0 112 47t47 113q0 64 -46.5 111.5t-109.5 47.5z" />
    <glyph glyph-name="female" unicode="&#x2640;" horiz-adv-x="667" 
d="M308 209v105q-68 10 -111.5 61.5t-43.5 120.5q0 76 52.5 129.5t126.5 53.5q75 0 128 -53.5t53 -129.5q0 -70 -44 -120.5t-113 -61.5v-105h163v-43h-163v-166h-48v166h-161v43h161zM335 632q-56 0 -95.5 -39.5t-39.5 -96.5q0 -56 39 -96t94 -40t94 40t39 96q0 55 -39 95.5
t-92 40.5z" />
    <glyph glyph-name="male" unicode="&#x2642;" horiz-adv-x="667" 
d="M570 499l-152 -152q36 -48 36 -110q0 -75 -53 -128.5t-127 -53.5t-127 53.5t-53 129.5t53 129.5t127 53.5q61 0 112 -39l151 150q-50 11 -106 41q-21 11 -21 23t13 12q17 0 51 -6t52 -6q56 0 93 10q19 5 23 5q10 0 10 -10q0 -5 -5 -23q-11 -39 -11 -88q0 -38 9 -84
q3 -16 3 -20q0 -13 -12 -13q-9 0 -23 21q-28 42 -43 105zM276 374q-56 0 -95.5 -39.5t-39.5 -96.5q0 -56 39 -95.5t94 -39.5t94 39.5t39 95.5q0 55 -39 95.5t-92 40.5z" />
    <glyph glyph-name="spade" unicode="&#x2660;" horiz-adv-x="667" 
d="M108 0v18q71 14 103 29t62 49q52 59 56 159q-5 -11 -13 -27q-20 -34 -56 -54.5t-76 -20.5q-49 0 -84.5 37t-35.5 88q0 83 104 169q142 118 164 239q26 -80 51.5 -117t99 -104.5t97.5 -104.5t24 -83q0 -52 -35.5 -87.5t-86.5 -35.5q-84 0 -140 101q6 -108 58.5 -163
t167.5 -74v-18h-460z" />
    <glyph glyph-name="club" unicode="&#x2663;" horiz-adv-x="667" 
d="M561 0h-455v18q221 31 221 256q-21 -35 -34 -52q-59 -75 -146 -75q-59 0 -101.5 45t-42.5 107t38.5 104.5t93.5 42.5q28 0 86 -29q-35 53 -35 100q0 59 43.5 101t104.5 42t104 -42t43 -101q0 -47 -35 -100q58 29 86 29q55 0 93.5 -43t38.5 -104q0 -64 -42.5 -108
t-103.5 -44q-83 0 -140 69q-13 16 -38 58q3 -122 59 -182q30 -33 61 -46.5t101 -27.5v-18z" />
    <glyph glyph-name="heart" unicode="&#x2665;" horiz-adv-x="667" 
d="M332 -11q-16 67 -52 129t-134 192q-54 72 -72 111.5t-18 83.5q0 56 37.5 95t91.5 39q75 0 120 -68q14 -21 27 -62q37 131 147 131q54 0 93 -38.5t39 -92.5q0 -50 -24.5 -101t-85.5 -128q-143 -180 -169 -291z" />
    <glyph glyph-name="diamond" unicode="&#x2666;" horiz-adv-x="667" 
d="M333 693q22 -47 111.5 -173t142.5 -186q-160 -190 -254 -360q-71 135 -253 360q180 226 253 359z" />
    <glyph glyph-name="musicalnote" unicode="&#x266a;" horiz-adv-x="667" 
d="M306 156v511h46v-61q7 -8 15 -18l52 -63q91 -110 91 -225q0 -91 -57 -162h-28q33 77 33 149q0 65 -31.5 116t-74.5 57v-304q0 -72 -42.5 -118.5t-109.5 -46.5q-69 0 -69 61q0 45 36.5 80t84.5 35q29 0 54 -11z" />
    <glyph glyph-name="musicalnotedbl" unicode="&#x266b;" horiz-adv-x="667" 
d="M616 694v-502q0 -47 -17 -81q-19 -38 -55.5 -61t-79.5 -23q-68 0 -68 61q0 45 36.5 80t83.5 35q30 0 54 -11v270l-329 -90v-236q0 -61 -29 -101q-45 -63 -123 -63q-69 0 -69 60q0 45 36.5 79.5t84.5 34.5q27 0 54 -10v451zM241 448l329 90v70l-329 -90v-70z" />
    <glyph glyph-name="nmacron" unicode="&#xe00c;" horiz-adv-x="525" 
d="M161 433v-78q98 71 175 71q47 0 77 -35.5t30 -91.5v-222q0 -33 7 -44q9 -15 38 -15h22v-20q-52 2 -106 2q-52 0 -100 -2v20h22q29 0 38 15q7 11 7 44v188q0 54 -19 79q-25 32 -75 32q-52 0 -116 -43v-256q0 -33 7 -44q9 -15 38 -15h22v-20q-38 2 -97 2q-65 0 -109 -2v20
h22q29 0 38 15q7 11 7 44v203q0 47 -4 59q-10 25 -48 28v21q55 12 115 48zM161 551l13 40h257l-20 -40h-250z" />
    <glyph glyph-name="ahungarumlaut" unicode="&#xeb01;" horiz-adv-x="438" 
d="M434 45l10 -12q-42 -47 -89 -47q-30 0 -48 22q-13 16 -18 53q-83 -74 -149 -74q-40 0 -69.5 26t-29.5 61q0 61 92 102q50 22 153 58v34q0 56 -22 81.5t-64 25.5q-38 0 -62 -22q-14 -13 -23 -50q-3 -14 -20 -23q-26 -14 -38 -14q-18 0 -18 24q0 45 105 96q84 41 113 41
q35 0 63 -18q39 -25 39 -84v-206q0 -84 42 -84q13 0 33 10zM286 84v124q-55 -16 -100 -34q-67 -27 -67 -76q0 -28 21 -47.5t50 -19.5q23 0 39.5 9t56.5 44zM188 471l-12 9l105 171q15 24 32 24q11 0 19.5 -8t8.5 -18q0 -13 -13 -27zM321 471l-12 9l105 171q15 24 33 24
q11 0 19.5 -8t8.5 -18q0 -13 -13 -27z" />
    <glyph glyph-name="Dbreve" unicode="&#xeb06;" horiz-adv-x="741" 
d="M120 117v433q0 95 -62 95h-23v24l112 -2q25 0 76 2t76 2q180 0 289.5 -94t109.5 -248q0 -148 -104.5 -240.5t-270.5 -92.5q-18 0 -87 3q-23 1 -81 1q-66 0 -122 -2v24h25q62 0 62 95zM207 599v-466q0 -55 19 -77q26 -30 106 -30q127 0 203 94q64 79 64 194
q0 114 -53.5 195.5t-145.5 109.5q-58 18 -137 18q-39 0 -47.5 -6t-8.5 -32zM192 887h21q30 -78 120 -78q91 0 121 78h21q-15 -134 -142 -134q-126 0 -141 134z" />
    <glyph glyph-name="gcommamirror" unicode="&#xeb0c;" horiz-adv-x="460" 
d="M465 361h-102q23 -34 23 -74q0 -59 -49 -100.5t-118 -41.5q-19 0 -51 4q-39 -26 -39 -50q0 -27 31 -35q23 -6 87 -6h24q15 0 39 1h28q130 0 130 -95q0 -68 -77.5 -119t-181.5 -51q-80 0 -132.5 29.5t-52.5 74.5q0 69 107 99q-33 13 -48 26q-32 22 -32 53q0 10 11 37
q43 18 77 45q-98 35 -98 123q0 62 51.5 103.5t127.5 41.5q53 0 123 -33l122 6v-38zM211 402q-41 0 -67.5 -31.5t-26.5 -79.5q0 -52 29 -88t72 -36q42 0 66.5 32t24.5 86q0 53 -27 85t-71 32zM286 -7q-101 0 -136 -11q-22 -7 -37 -26t-15 -40q0 -40 42 -66.5t104 -26.5
q70 0 118 30.5t48 74.5q0 19 -13 33q-30 32 -111 32zM286 750l4 -19q-77 -23 -77 -99q0 -37 32 -40q63 -6 63 -51q0 -22 -17 -36.5t-42 -14.5q-37 0 -60.5 28t-23.5 73q0 61 32.5 103t88.5 56z" />
    <glyph glyph-name="ocommaaccent" unicode="&#xeb15;" horiz-adv-x="539" 
d="M271 426q92 0 158 -64.5t66 -153.5q0 -91 -66 -156t-158 -65q-97 0 -162.5 65t-65.5 161q0 88 58 146q67 67 170 67zM261 401q-61 0 -97.5 -48t-36.5 -129q0 -74 31 -131q44 -81 121 -81q60 0 95.5 48.5t35.5 129.5q0 91 -42 151t-107 60zM235 -313l-4 19q78 23 78 99
q0 37 -32 40q-64 7 -64 51q0 22 17 36.5t43 14.5q37 0 60.5 -28t23.5 -73q0 -61 -32.5 -103.5t-89.5 -55.5z" />
    <glyph glyph-name="Sbreve" unicode="&#xeb1e;" horiz-adv-x="468" 
d="M389 656l12 -114h-17q-16 50 -41 73q-35 32 -88 32q-52 0 -87.5 -32t-35.5 -79q0 -49 33 -88q22 -27 91 -64q99 -54 135 -97t36 -107q0 -83 -62 -138.5t-156 -55.5q-103 0 -171 45l-11 132h15q25 -67 54 -97q44 -46 113 -46q56 0 95.5 38.5t39.5 93.5q0 43 -26 74.5
t-90 66.5q-87 48 -118 80q-52 55 -52 130q0 77 56 127t143 50q57 0 132 -24zM109 887h21q30 -78 120 -78q91 0 121 78h21q-15 -134 -142 -134q-126 0 -141 134z" />
    <glyph glyph-name="Tcaron_1" unicode="&#xeb22;" horiz-adv-x="715" 
d="M272 632h-138q-60 0 -85.5 -17.5t-34.5 -64.5h-20q11 78 12 140h21q14 -23 47 -23h448q33 0 47 23h20q1 -62 12 -140h-19q-10 47 -35 64.5t-86 17.5h-104v-515q0 -95 62 -95h33v-24q-54 2 -138 2q-83 0 -137 -2v24h33q62 0 62 95v515zM629 405l-4 20q37 11 59.5 39.5
t22.5 65.5q0 38 -34 42q-67 7 -67 53q0 23 18 38.5t45 15.5q39 0 63.5 -29.5t24.5 -76.5q0 -64 -34.5 -109t-93.5 -59z" />
    <glyph glyph-name="tcaron_1" unicode="&#xeb23;" horiz-adv-x="303" 
d="M158 413h140v-43h-144v-262q0 -75 63 -75q33 0 69 23l9 -13q-61 -56 -118 -56q-59 0 -82 43q-10 19 -10 96v244h-55v17q73 53 119 121l9 -2v-93zM127 632l108 139l14 -9l-122 -225l-114 225l14 9z" />
    <glyph glyph-name="ucommaaccent" unicode="&#xeb26;" horiz-adv-x="499" 
d="M352 -11v74q-95 -76 -165 -76q-32 0 -60 15.5t-39 40.5q-14 31 -14 78v204q0 38 -8 52q-11 17 -47 26v17q82 3 119 16l9 -2v-305q0 -43 23.5 -68.5t62.5 -25.5q49 0 119 66v224q0 39 -10 54.5t-47 23.5v17q77 2 120 16l9 -2v-349q0 -30 5 -41t22 -11q8 0 40 5v-20
q-47 -10 -130 -31zM204 -313l-4 19q78 23 78 99q0 37 -32 40q-64 7 -64 51q0 22 17 36.5t43 14.5q37 0 60.5 -28t23.5 -73q0 -61 -32.5 -103.5t-89.5 -55.5z" />
    <glyph glyph-name="yhungarumlaut" unicode="&#xeb2b;" horiz-adv-x="408" 
d="M221 109l89 199q13 29 13 51q0 34 -53 36v20q56 -2 78 -2q21 0 78 2v-20q-29 -1 -45.5 -16t-33.5 -54l-212 -478q-25 -57 -59 -57q-19 0 -34 15t-15 35t13 33.5t32 13.5q10 0 22 -6t16 -6q8 0 13 12l58 129l-121 309q-16 41 -29.5 54.5t-41.5 15.5v20q43 -2 89 -2
q30 0 96 2v-20q-51 -4 -51 -30q0 -9 3 -17zM157 471l-12 9l105 171q15 24 32 24q11 0 19.5 -8t8.5 -18q0 -13 -13 -27zM290 471l-12 9l105 171q15 24 33 24q11 0 19.5 -8t8.5 -18q0 -13 -13 -27z" />
    <glyph glyph-name="dcaron_1" unicode="&#xeb30;" horiz-adv-x="537" 
d="M378 -11v66q-82 -69 -156 -69t-127 54.5t-53 130.5q0 95 56 162q78 93 189 93q52 0 91 -23v170q0 48 -4 59q-10 25 -48 28v22q62 13 116 48l9 -3v-627q0 -33 2 -41q6 -23 28 -23q9 0 36 3v-20q-73 -11 -130 -32zM378 115v195q0 38 -27 60q-38 31 -81 31q-36 0 -70 -19.5
t-54 -51.5q-27 -43 -27 -112q0 -76 48.5 -130.5t115.5 -54.5q42 0 68.5 22.5t26.5 59.5zM412 821l133 86l14 -10l-147 -151l-155 151l14 10z" />
    <glyph glyph-name="Lcaron_1" unicode="&#xeb31;" horiz-adv-x="561" 
d="M573 141l-37 -142l-116 1h-253q-87 0 -134 -2v24h25q62 0 62 95v433q0 95 -62 95h-25v24q42 -2 113 -2q91 0 148 2v-24h-25q-62 0 -62 -95v-391q0 -63 16 -87q26 -39 131 -39q87 0 133 24.5t68 91.5zM428 405l-4 20q37 11 59.5 39.5t22.5 65.5q0 38 -34 42q-67 7 -67 53
q0 23 18 38.5t45 15.5q39 0 63.5 -29.5t24.5 -76.5q0 -64 -34.5 -109t-93.5 -59z" />
    <glyph glyph-name="Commaaccent" unicode="&#xeb86;" 
d="M331 405l-4 20q37 11 59.5 39.5t22.5 65.5q0 38 -34 42q-67 7 -67 53q0 23 18 38.5t45 15.5q39 0 63.5 -29.5t24.5 -76.5q0 -64 -34.5 -109t-93.5 -59z" />
    <glyph glyph-name="commaaccent" unicode="&#xeb87;" 
d="M334 470l-4 19q77 25 77 99q0 37 -32 40q-63 6 -63 51q0 22 17 36.5t42 14.5q37 0 60.5 -28t23.5 -72q0 -61 -32.5 -103.5t-88.5 -56.5z" />
    <glyph glyph-name="commamirror" unicode="&#xeb9d;" 
d="M300 750l3 -19q-77 -23 -77 -99q0 -37 32 -40q63 -6 63 -51q0 -22 -17 -36.5t-42 -14.5q-37 0 -60.5 28t-23.5 73q0 61 32.5 103.5t89.5 55.5z" />
    <glyph glyph-name="Slashstroke" unicode="&#xeb9e;" 
d="M11 287l289 188v-42l-289 -188v42z" />
    <glyph glyph-name="slashstroke" unicode="&#xeb9f;" 
d="M147 333l207 146v-41l-207 -145v40z" />
    <glyph glyph-name="Dieresisnarrow" unicode="&#xebce;" 
d="M328 867q19 0 32.5 -14t13.5 -33t-13.5 -33t-33.5 -14q-19 0 -33 14t-14 33q0 20 14 33.5t34 13.5zM175 867q19 0 32.5 -14t13.5 -33t-13.5 -33t-33.5 -14q-19 0 -33 14t-14 33q0 20 14 33.5t34 13.5z" />
    <glyph glyph-name="dieresisnarrow" unicode="&#xebcf;" 
d="M329 614q17 0 30 -13t13 -31t-13 -31t-31 -13t-31 13t-13 31t13 31t32 13zM174 614q17 0 30 -13t13 -31t-13 -31t-31 -13t-31 13t-13 31t13 31t32 13z" />
    <glyph glyph-name="Pts" unicode="&#xec00;" horiz-adv-x="848" 
d="M207 637v-520q0 -95 62 -95h25v-24q-41 2 -122 2q-92 0 -139 -2v24h25q62 0 62 95v433q0 95 -62 95h-25v24q61 -2 96 -2q39 0 94 2q28 1 61 1q100 0 162 -50.5t62 -130.5q0 -90 -61.5 -145t-161.5 -55h-23v21q61 4 96 30q60 44 60 130q0 78 -44 123t-120 45q-28 0 -47 -1
zM510 250h87v-32h-89v-151q0 -41 35 -41q21 0 43 15l10 -12q-40 -37 -78 -37t-54 27q-7 12 -7 59v140h-34v15q45 31 76 74l11 -3v-54zM812 242v-59h-18q-5 13 -14 33q-15 22 -49 22q-17 0 -29 -10.5t-12 -26.5q0 -23 43 -42q51 -23 70.5 -41.5t19.5 -45.5q0 -34 -29 -57
t-72 -23q-49 0 -84 25l-3 67h18q14 -70 73 -70q46 0 46 40q0 27 -63 56q-67 30 -67 74q0 31 26.5 52.5t64.5 21.5q35 0 79 -16z" />
    <glyph glyph-name="peseta2" unicode="&#xec01;" horiz-adv-x="640" 
d="M103 478h-87v27h87v64q0 53 -11.5 66.5t-59.5 13.5h-19v18h325q207 0 229 -162h67v-27h-67q-8 -81 -55 -123q-57 -51 -161 -51h-165v-206q0 -36 3 -47q6 -26 30 -31q11 -2 32 -2h50v-18h-286v18h22q46 0 58 19q8 13 8 61v380zM186 505h292q-6 61 -36 96q-35 41 -123 41
h-133v-137zM186 478v-149h123q88 0 127 38t42 111h-292z" />
    <glyph glyph-name="onenarrow" unicode="&#xec02;" horiz-adv-x="387" 
d="M190 96v485q-31 -16 -72 -38q-25 -13 -60 -28l-8 19q100 53 138.5 78t73.5 62l9 -3v-575q0 -52 11 -64t60 -13q10 0 34 -1v-20l-149 2q-18 0 -148 -2v20q20 1 35 1q46 -1 61 14.5t15 62.5z" />
    <glyph glyph-name="oneone" unicode="&#xec03;" horiz-adv-x="791" 
d="M160 325v280q-12 -6 -41 -20q-11 -5 -41 -18l-7 17q103 51 137 85l10 -3v-341q0 -29 6.5 -36t35.5 -7h25v-19q-43 1 -98 1q-54 0 -97 -1v19h26q29 0 36.5 9.5t7.5 33.5zM536 660h37l-321 -660h-34zM621 60v280q-16 -8 -41 -20q-13 -6 -41 -18l-7 18q100 48 137 84l10 -3
v-341q0 -29 6 -35t35 -7q7 0 25 -1v-18q-43 1 -97 1t-97 -1v18q15 1 26 1q33 -1 40 14q4 9 4 28z" />
    <glyph glyph-name="space10mm" unicode="&#xec05;" horiz-adv-x="67" 
 />
    <glyph glyph-name="ft" unicode="&#xec0a;" horiz-adv-x="592" 
d="M165 413h123q70 0 89 19q29 29 62 77l9 -3v-93h140v-43h-144v-262q0 -75 63 -75q33 0 69 23l9 -13q-61 -56 -118 -56q-59 0 -82 43q-10 19 -10 96v244h-210v-293q0 -33 7 -44q9 -15 38 -15h55v-20q-42 2 -117 2q-79 0 -123 -2v20h22q29 0 38 15q7 11 7 44v293h-61v15
q36 8 47 22q8 10 12 36l2 13l6 70q6 70 67.5 137.5t119.5 67.5q21 0 40.5 -10t19.5 -21q0 -15 -13.5 -34t-23.5 -19q-7 0 -19 7q-26 16 -45 16q-55 0 -70 -55q-9 -33 -9 -110v-92z" />
    <glyph glyph-name="fff" unicode="&#xec0b;" horiz-adv-x="875" 
d="M375 370h-210v-293q0 -33 7 -44q9 -15 38 -15h22v-20q-41 2 -102 2q-62 0 -105 -2v20h22q29 0 38 15q7 11 7 44v293h-61v15q36 8 47 22q8 10 12 36l2 13l6 70q6 70 67.5 137.5t119.5 67.5q21 0 40.5 -10t19.5 -21q0 -15 -13.5 -34t-23.5 -19q-7 0 -19 7q-26 16 -45 16
q-55 0 -70 -55q-9 -33 -9 -110v-92h210v40q0 123 62 197q68 81 132 81q21 0 40.5 -10t19.5 -21q0 -15 -13.5 -34t-23.5 -19q-7 0 -19 7q-27 16 -46 16q-55 0 -70 -55q-9 -33 -9 -110v-92h211v40q0 124 62 197q69 81 131 81q20 0 39.5 -10t19.5 -21q0 -15 -13.5 -34
t-23.5 -19q-7 0 -19 7q-26 16 -45 16q-54 0 -69 -55q-9 -33 -9 -110v-92h135v-43h-135v-293q0 -33 7 -44q9 -15 38 -15h55v-20q-42 2 -117 2q-79 0 -123 -2v20h22q29 0 38 15q7 11 7 44v293h-211v-293q0 -33 7 -44q9 -15 38 -15h22v-20q-41 2 -102 2q-62 0 -105 -2v20h22
q29 0 38 15q7 11 7 44v293z" />
    <glyph glyph-name="fft" unicode="&#xec0c;" horiz-adv-x="876" 
d="M448 413h124q70 0 89 19q29 29 62 77l9 -3v-93h139v-43h-143v-262q0 -75 62 -75q35 0 69 23l9 -13q-61 -56 -117 -56q-59 0 -82 43q-10 19 -10 96v244h-211v-293q0 -33 7 -44q9 -15 38 -15h22v-20q-41 2 -102 2q-62 0 -105 -2v20h22q29 0 38 15q7 11 7 44v293h-210v-293
q0 -33 7 -44q9 -15 38 -15h22v-20q-41 2 -102 2q-62 0 -105 -2v20h22q29 0 38 15q7 11 7 44v293h-61v15q36 8 47 22q8 9 12 36q1 7 8 83q6 70 67.5 137.5t119.5 67.5q21 0 40.5 -10t19.5 -21q0 -15 -13.5 -34t-23.5 -19q-7 0 -19 7q-26 16 -45 16q-55 0 -70 -55
q-9 -33 -9 -110v-92h210v40q0 123 62 197q68 81 132 81q21 0 40.5 -10t19.5 -21q0 -15 -13.5 -34t-23.5 -19q-7 0 -19 7q-27 16 -46 16q-55 0 -70 -55q-9 -34 -9 -110v-92z" />
    <glyph glyph-name="currency_2" unicode="&#xec13;" horiz-adv-x="619" 
d="M509 165l69 -70l-30 -30l-69 69q-72 -62 -167 -62q-97 0 -171 62l-70 -70l-31 32l69 69q-61 74 -61 168t62 170l-69 69l30 30l70 -69q76 62 171 62q93 0 166 -61l70 69l31 -31l-70 -70q62 -79 62 -168q0 -91 -62 -169zM311 550q-91 0 -154.5 -63t-63.5 -154
q0 -90 63.5 -153t154.5 -63q90 0 152.5 64.5t62.5 149.5q0 91 -63 155t-152 64z" />
    <glyph glyph-name="Dotaccent" unicode="&#xefed;" 
d="M251 867q19 0 32.5 -14t13.5 -33t-13.5 -33t-33.5 -14q-19 0 -33 14t-14 33q0 20 14 33.5t34 13.5z" />
    <glyph glyph-name="Breve" unicode="&#xefee;" 
d="M109 887h21q30 -78 120 -78q91 0 121 78h21q-15 -134 -142 -134q-126 0 -141 134z" />
    <glyph glyph-name="Ogonek" unicode="&#xeff1;" 
d="M460 0h31q-67 -66 -67 -107q0 -26 19.5 -41.5t50.5 -15.5q19 0 43 7l5 -21q-46 -19 -81 -19q-44 0 -73.5 22t-29.5 54q0 61 102 121z" />
    <glyph glyph-name="Cedilla" unicode="&#xeff2;" 
d="M296 0h35l-10 -10q-18 -18 -18 -25q0 -10 25 -43q32 -42 32 -63q0 -23 -26 -51q-34 -37 -75 -37q-64 0 -64 39q0 27 27 27q12 0 33 -13q25 -16 36 -16q8 0 15.5 7.5t7.5 15.5q0 9 -19 35q-45 63 -45 77q0 19 30 44q2 1 16 13z" />
    <glyph glyph-name="Ring" unicode="&#xeff3;" 
d="M251 907q34 0 59.5 -26t25.5 -61q0 -36 -25.5 -61.5t-61.5 -25.5q-35 0 -60.5 25.5t-25.5 61.5t25.5 61.5t62.5 25.5zM250 877q-24 0 -40.5 -16.5t-16.5 -40.5q0 -23 16.5 -40t39.5 -17t40 17t17 40t-16.5 40t-39.5 17z" />
    <glyph glyph-name="Tilde" unicode="&#xeff5;" 
d="M106 776l-18 6q29 87 90 87q35 0 88.5 -24.5t73.5 -24.5q29 0 53 43l18 -4q-24 -88 -93 -88q-27 0 -76 20l-11 4q-58 24 -73 24q-23 0 -52 -43z" />
    <glyph glyph-name="Circumflex" unicode="&#xeff7;" 
d="M255 825l-142 -85l-14 9l156 151l147 -151l-15 -9z" />
    <glyph glyph-name="Commabelow" unicode="&#xf634;" 
d="M198 -327l-4 20q82 25 82 105q0 38 -34 42q-67 7 -67 53q0 23 18 38.5t45 15.5q39 0 63.5 -29.5t24.5 -76.5q0 -64 -34.5 -109t-93.5 -59z" />
    <glyph glyph-name="zeronarrow" unicode="&#xf639;" 
d="M251 667q86 0 142 -86q72 -110 72 -251q0 -139 -72 -251q-55 -86 -142 -86t-143 86q-72 111 -72 255q0 138 72 247q57 86 143 86zM251 642q-61 0 -97.5 -84.5t-36.5 -225.5q0 -145 36 -229.5t97 -84.5t97.5 84t36.5 227t-36 228t-97 85z" />
    <glyph glyph-name="twonarrow" unicode="&#xf63a;" horiz-adv-x="487" 
d="M121 74h290q17 0 23.5 6t23.5 40h17l-27 -120h-422v18q82 66 183 191q113 140 113 258q0 66 -33 105t-89 39q-35 0 -62.5 -18.5t-68.5 -68.5l-13 10q43 71 87 102t102 31q71 0 115 -47.5t44 -125.5q0 -72 -40 -139.5t-152 -184.5q-24 -25 -91 -96z" />
    <glyph glyph-name="threenarrow" unicode="&#xf63b;" horiz-adv-x="487" 
d="M152 329v22q161 20 161 148q0 51 -30.5 83.5t-78.5 32.5q-57 0 -112 -56l-16 12q82 96 173 96q59 0 99.5 -37.5t40.5 -92.5q0 -90 -120 -164q68 -13 102 -38q56 -41 56 -112q0 -92 -82 -167q-69 -63 -161 -63q-86 0 -143 47q-20 16 -20 27q0 8 14.5 20.5t24.5 12.5
t37 -37q33 -46 96 -46q70 0 116 62q36 49 36 104q0 42 -23 77.5t-60 52t-110 16.5z" />
    <glyph glyph-name="fournarrow" unicode="&#xf63c;" 
d="M380 270h93v-65h-93v-205h-76v205h-282v41l323 414h35v-390zM304 270v291l-224 -291h224z" />
    <glyph glyph-name="fivenarrow" unicode="&#xf63d;" horiz-adv-x="487" 
d="M198 660h230l-15 -73h-214l-36 -101q96 -49 131 -78q102 -84 102 -189q0 -92 -65.5 -159t-156.5 -67q-72 0 -131 48q-22 18 -22 27q0 7 12 20.5t18 13.5q9 0 32 -26q49 -55 105 -55q58 0 99.5 45.5t41.5 109.5q0 86 -70 150q-33 30 -147 86z" />
    <glyph glyph-name="sixnarrow" unicode="&#xf63e;" horiz-adv-x="491" 
d="M459 674l8 -20q-143 -42 -235 -144t-100 -227q45 47 80.5 65.5t78.5 18.5q67 0 112.5 -50.5t45.5 -124.5q0 -78 -63 -138.5t-145 -60.5q-88 0 -142.5 67t-54.5 175q0 203 188 337q98 70 227 102zM131 237l-1 -28q-2 -68 24 -120q36 -71 102 -71q47 0 81 44t34 105
q0 63 -34 104t-87 41q-71 0 -119 -75z" />
    <glyph glyph-name="sevennarrow" unicode="&#xf63f;" horiz-adv-x="473" 
d="M130 -11l-33 17l307 579h-297q-27 0 -35.5 -5t-17.5 -25q-2 -4 -7 -16h-21l20 121h426l9 -8z" />
    <glyph glyph-name="eightnarrow" unicode="&#xf640;" horiz-adv-x="473" 
d="M281 353q139 -87 139 -185q0 -71 -55.5 -123t-131.5 -52q-73 0 -126 45.5t-53 107.5t53 111q23 21 77 60q-121 78 -121 180q0 75 60 128q48 42 122 42q71 0 118.5 -40.5t47.5 -100.5q0 -70 -63 -125q-28 -24 -67 -48zM262 367l29 22q55 42 55 127q0 55 -29.5 91t-75.5 36
q-44 0 -76.5 -34t-32.5 -81q0 -44 28 -79t102 -82zM204 307q-30 -29 -41 -41q-45 -50 -45 -113q0 -59 33.5 -98t83.5 -39q45 0 78 34t33 81q0 46 -33 89q-20 26 -81 68q-8 5 -28 19z" />
    <glyph glyph-name="ninenarrow" unicode="&#xf641;" horiz-adv-x="491" 
d="M43 -23l-6 23q138 33 227.5 140t97.5 248q-53 -58 -86 -77.5t-76 -19.5q-67 0 -113 47.5t-46 117.5q0 85 60.5 148t140.5 63q89 0 147 -71.5t58 -181.5q0 -183 -156 -319q-89 -78 -248 -118zM359 424q0 84 -23 134q-38 84 -109 84q-45 0 -78 -43t-33 -102
q0 -62 35.5 -106t84.5 -44q69 0 123 77z" />
    <glyph glyph-name="dotlessj" unicode="&#xf6be;" horiz-adv-x="219" 
d="M33 367v21q57 12 115 48l9 -2v-427q0 -80 -34.5 -129.5t-114.5 -70.5l-7 17q55 19 70 59q14 37 14 76v321q0 48 -4 59q-10 25 -48 28z" />
    <glyph glyph-name="Scedilla1" unicode="&#xf6c1;" horiz-adv-x="468" 
d="M401 542h-17q-16 50 -41 73q-35 32 -88 32q-52 0 -87.5 -32t-35.5 -79q0 -49 33 -88q22 -27 91 -64q99 -54 135 -97t36 -107q0 -74 -47.5 -124.5t-129.5 -65.5q-17 -17 -17 -25q0 -10 25 -43q32 -42 32 -63q0 -23 -26 -51q-34 -37 -75 -37q-64 0 -64 39q0 27 27 27
q12 0 33 -13q25 -16 36 -16q8 0 15.5 7.5t7.5 15.5t-19 35q-4 5 -27 38q-18 26 -18 40q0 17 30 42q-115 3 -172 45l-11 132h15q25 -67 54 -97q44 -46 113 -46q56 0 95.5 38.5t39.5 93.5q0 43 -26 74.5t-90 66.5q-87 48 -118 80q-52 55 -52 130q0 77 56 127t143 50
q57 0 132 -24z" />
    <glyph glyph-name="scedilla1" unicode="&#xf6c2;" horiz-adv-x="365" 
d="M314 311h-17q-14 40 -23 54q-27 40 -84 40q-31 0 -51.5 -19.5t-20.5 -48.5q0 -25 15.5 -40.5t57.5 -35.5q81 -38 110.5 -68.5t29.5 -75.5q0 -49 -34 -83t-92 -45q-13 -13 -13 -20q0 -10 24 -41q29 -38 29 -58t-24 -46q-31 -34 -69 -34q-58 0 -58 35q0 24 24 24
q10 0 30 -12q25 -15 34 -15q8 0 15.5 7.5t7.5 14.5q0 9 -18 34q-16 21 -39 57q-3 7 -3 14q0 16 27 38q-29 -1 -68 11.5t-57 27.5l-5 105h16q25 -118 123 -118q35 0 57.5 20.5t22.5 52.5q0 29 -21.5 49.5t-83.5 50.5q-51 25 -72 47q-31 33 -31 75q0 50 40.5 84.5t99.5 34.5
q54 0 121 -26v-90z" />
    <glyph glyph-name="Acute" unicode="&#xf6c9;" 
d="M183 756l174 134q13 10 28 10q27 0 27 -26q0 -19 -17 -28l-201 -105z" />
    <glyph glyph-name="Caron" unicode="&#xf6ca;" 
d="M255 815l132 85l15 -9l-147 -151l-156 151l14 9z" />
    <glyph glyph-name="Dieresis" unicode="&#xf6cb;" 
d="M348 867q19 0 32.5 -14t13.5 -33t-13.5 -33t-33.5 -14q-19 0 -33 14t-14 33q0 20 14 33.5t34 13.5zM155 867q19 0 32.5 -14t13.5 -33t-13.5 -33t-33.5 -14q-19 0 -33 14t-14 33q0 20 14 33.5t34 13.5z" />
    <glyph glyph-name="Grave" unicode="&#xf6ce;" 
d="M317 756l-10 -15l-202 105q-17 9 -17 28q0 26 28 26q14 0 27 -10z" />
    <glyph glyph-name="Hungarumlaut" unicode="&#xf6cf;" 
d="M130 739l-13 16l145 126q23 20 37 20q28 0 28 -27q0 -15 -25 -30zM293 739l-13 16l145 126q23 20 37 20q28 0 28 -27q0 -15 -25 -30z" />
    <glyph glyph-name="Macron" unicode="&#xf6d0;" 
d="M100 800l13 41h287l-20 -41h-280z" />
    <glyph glyph-name="onefitted" unicode="&#xf6dc;" horiz-adv-x="415" 
d="M208 96v485q-31 -16 -72 -38q-25 -13 -60 -28l-8 19q100 53 138.5 78t73.5 62l9 -3v-575q0 -52 11 -64t60 -13q10 0 34 -1v-20l-149 2q-18 0 -148 -2v20q20 1 35 1q46 -1 61 14.5t15 62.5z" />
    <glyph glyph-name="centsuperior" unicode="&#xf6e0;" horiz-adv-x="332" 
d="M186 626v-36q8 1 18 1q34 0 60.5 -11t26.5 -25q0 -10 -9 -20.5t-18 -10.5t-21 13q-23 31 -57 34l1 -196q18 -2 22 -2q35 0 65 27l13 -13q-49 -46 -101 -53v-48h-23v47q-54 13 -79 43q-30 35 -30 80q0 46 30 82t79 48v40h23zM163 383v184q-56 -22 -56 -90q0 -57 56 -94z
" />
    <glyph glyph-name="commasuperior" unicode="&#xf6e2;" horiz-adv-x="123" 
d="M38 202l-3 6q36 19 36 53q0 6 -3 6l-2 -1q-6 -3 -11 -3q-22 0 -22 24q0 26 26 26q31 0 31 -40q0 -51 -52 -71z" />
    <glyph glyph-name="dollarsuperior" unicode="&#xf6e4;" horiz-adv-x="332" 
d="M153 664v33h23v-32q39 0 88 -13l8 -74h-17q-12 63 -79 63v-149q68 -30 93.5 -55.5t25.5 -64.5q0 -94 -119 -114v-48h-23v48q-53 1 -104 24l-13 85h18q7 -39 34 -62.5t65 -22.5v156q-106 45 -106 117q0 86 106 109zM153 502v138q-57 -13 -57 -65q0 -40 57 -73zM176 428
v-146q65 12 65 71q0 48 -65 75z" />
    <glyph glyph-name="hyphensuperior" unicode="&#xf6e6;" horiz-adv-x="187" 
d="M24 377l10 38h128l-10 -38h-128z" />
    <glyph glyph-name="periodsuperior" unicode="&#xf6e8;" horiz-adv-x="110" 
d="M56 307q19 0 19 -20q0 -19 -20 -19q-19 0 -19 19q0 20 20 20z" />
    <glyph glyph-name="asuperior" unicode="&#xf6e9;" horiz-adv-x="289" 
d="M279 301l10 -12q-29 -31 -60 -31q-37 0 -44 40q-50 -40 -89 -40q-27 0 -46.5 16.5t-19.5 38.5q0 37 60 63q18 8 92 34v18q0 60 -49 60q-24 0 -36 -13q-6 -5 -7.5 -8.5t-5.5 -19.5q-2 -8 -15.5 -16t-24.5 -8q-15 0 -15 18q0 27 67 59q53 25 72 25q31 0 49 -17t18 -46v-122
q0 -46 22 -46q7 0 22 7zM182 321v67q-96 -25 -96 -61q0 -15 11.5 -25.5t28.5 -10.5q20 0 56 30z" />
    <glyph glyph-name="esuperior" unicode="&#xf6ec;" horiz-adv-x="295" 
d="M221 428h-135q-1 -8 -1 -20q0 -47 26.5 -78.5t65.5 -31.5q38 0 83 33l11 -13q-62 -58 -118 -58q-54 0 -87.5 34.5t-33.5 89.5q0 61 36.5 101.5t92.5 40.5q45 0 76.5 -24t31.5 -58q0 -11 -7 -13.5t-41 -2.5zM88 448h105q18 0 18 14q0 18 -15.5 31t-37.5 13q-59 0 -70 -58z
" />
    <glyph glyph-name="isuperior" unicode="&#xf6ed;" horiz-adv-x="170" 
d="M112 528v-213q0 -24 8 -28q5 -3 16 -3h17v-19q-28 2 -64 2q-40 0 -71 -2v19h17q16 0 21 8q3 5 3 23v120q0 32 -5 39.5t-27 8.5v18q36 8 75 30zM86 661q12 0 21 -9t9 -22q0 -12 -9 -21t-21 -9q-31 0 -31 31q0 12 9 21t22 9z" />
    <glyph glyph-name="lsuperior" unicode="&#xf6ee;" horiz-adv-x="169" 
d="M152 284v-19q-34 2 -67 2q-21 0 -69 -2v19h17q16 0 21 8q3 5 3 23v293q0 32 -5 39.5t-27 8.5v19q38 7 75 29l10 -3v-386q0 -24 9 -28q5 -3 16 -3h17z" />
    <glyph glyph-name="msuperior" unicode="&#xf6ef;" horiz-adv-x="505" 
d="M112 528v-38q58 35 97 35q44 0 67 -40q73 40 104 40q70 0 70 -79v-131q0 -24 8 -28q5 -3 16 -3h17v-19q-37 2 -73 2q-34 0 -63 -2v19h17q17 0 22 8q3 5 3 23v111q0 64 -50 64q-20 0 -67 -26v-149q0 -24 9 -28q5 -3 16 -3h17v-19q-34 2 -69 2q-34 0 -68 -2v19h17
q17 0 22 8q3 5 3 23v112q0 62 -51 62q-30 0 -64 -23v-151q0 -24 8 -28q5 -3 16 -3h17v-19q-28 2 -64 2q-40 0 -71 -2v19h17q16 0 21 8q3 5 3 23v120q0 32 -5 39.5t-27 8.5v18q36 8 75 30z" />
    <glyph glyph-name="osuperior" unicode="&#xf6f0;" horiz-adv-x="351" 
d="M177 525q59 0 101 -39t42 -93q0 -56 -42 -95t-101 -39q-62 0 -103.5 39.5t-41.5 97.5q0 54 42 91.5t103 37.5zM171 503q-36 0 -57.5 -27.5t-21.5 -73.5q0 -52 25.5 -86.5t64.5 -34.5q35 0 56 27.5t21 73.5q0 53 -25 87t-63 34z" />
    <glyph glyph-name="rsuperior" unicode="&#xf6f1;" horiz-adv-x="230" 
d="M112 528v-47q41 47 78 47q32 0 32 -27q0 -37 -31 -37q-8 0 -17 6.5t-19 6.5q-17 0 -30 -13t-13 -30v-119q0 -24 8 -28q5 -3 16 -3h34v-19q-63 2 -88 2q-35 0 -64 -2v19h17q16 0 21 8q3 5 3 23v120q0 32 -5 39.5t-27 8.5v18q36 8 75 30z" />
    <glyph glyph-name="ssuperior" unicode="&#xf6f2;" horiz-adv-x="244" 
d="M208 509v-59h-18q-5 13 -14 33q-15 22 -49 22q-17 0 -29 -10.5t-12 -26.5q0 -22 43 -41q51 -23 70.5 -42t19.5 -46q0 -34 -29 -57t-72 -23q-49 0 -84 25l-3 67h18q14 -70 73 -70q46 0 46 40q0 27 -63 56q-67 30 -67 74q0 31 26.5 52.5t64.5 21.5q35 0 79 -16z" />
    <glyph glyph-name="tsuperior" unicode="&#xf6f3;" horiz-adv-x="205" 
d="M111 517h87v-32h-89v-151q0 -41 35 -41q21 0 43 15l10 -13q-40 -36 -78 -36t-54 27q-7 12 -7 59v140h-34v15q45 31 76 74l11 -3v-54z" />
    <glyph glyph-name="zerooldstyle" unicode="&#xf730;" horiz-adv-x="510" 
d="M256 430q92 0 156 -63.5t64 -154.5t-65 -156.5t-156 -65.5q-93 0 -157.5 65.5t-64.5 159.5q0 88 65.5 151.5t157.5 63.5zM256 370q-68 0 -117.5 -46.5t-49.5 -111.5q0 -68 48.5 -115t118.5 -47q68 0 117 47t49 113t-49 113t-117 47z" />
    <glyph glyph-name="oneoldstyle" unicode="&#xf731;" horiz-adv-x="400" 
d="M166 92v235q0 41 -10 52q-21 19 -80 17l-33 -1v25h315v-25l-33 1q-64 2 -82 -20q-8 -10 -8 -49v-235q0 -41 10 -51q16 -17 80 -17q19 0 33 1v-25h-315v25q14 -1 33 -1q66 0 82 19q8 10 8 49z" />
    <glyph glyph-name="twooldstyle" unicode="&#xf732;" horiz-adv-x="466" 
d="M128 74h245q16 0 25.5 7.5t30.5 38.5h14l-27 -120h-384l-9 15q60 49 141.5 131t81.5 139q0 38 -22 60.5t-59 22.5q-49 0 -104 -43q-1 -1 -9 -6l-8 10q31 41 52 58q55 43 121 43q48 0 77 -29t29 -77q0 -50 -43 -98.5t-96 -95.5q-35 -31 -56 -56z" />
    <glyph glyph-name="threeoldstyle" unicode="&#xf733;" horiz-adv-x="418" 
d="M92 117l-6 13q97 53 135.5 92.5t38.5 84.5q0 30 -22.5 51.5t-54.5 21.5q-37 0 -103 -49l-14 7q33 41 81.5 66.5t94.5 25.5q37 0 65 -26.5t28 -61.5q0 -70 -85 -129q-33 -23 -51 -39q23 3 32 3q51 0 87 -31.5t36 -76.5q0 -49 -27.5 -103.5t-69.5 -88.5t-95 -56.5
t-90 -22.5q-41 0 -57 12q-7 7 -7 17q0 24 20 24q4 0 17 -5q37 -15 63 -15q59 0 103 46q65 69 65 152q0 48 -32.5 78.5t-83.5 30.5q-25 0 -68 -21z" />
    <glyph glyph-name="fouroldstyle" unicode="&#xf734;" horiz-adv-x="472" 
d="M363 63h89v-63h-89v-212h-71v212h-265q-8 0 -8 4q0 2 2 6l317 404q12 15 15 15q10 0 10 -17v-349zM292 63v246l-199 -246h199z" />
    <glyph glyph-name="fiveoldstyle" unicode="&#xf735;" horiz-adv-x="383" 
d="M130 420h230l-23 -77h-203l-20 -60q8 -6 17 -13l63 -48q62 -47 98 -115q23 -44 23 -89q0 -97 -84 -173q-75 -68 -158 -68q-49 0 -49 26q0 11 7 22.5t14 11.5q4 0 18 -7q20 -12 47 -12q61 0 99 41t38 108q0 130 -178 240z" />
    <glyph glyph-name="sixoldstyle" unicode="&#xf736;" horiz-adv-x="459" 
d="M468 629l7 -22q-136 -46 -222 -125q-63 -58 -101.5 -140.5t-38.5 -159.5q0 -72 34.5 -120.5t85.5 -48.5q47 0 79.5 40t32.5 98q0 54 -32.5 90.5t-80.5 36.5q-35 0 -72 -33l-11 17q71 65 135 65q58 0 99 -44t41 -107q0 -74 -60.5 -128.5t-142.5 -54.5q-83 0 -135.5 58.5
t-52.5 151.5q0 134 124 255.5t311 170.5z" />
    <glyph glyph-name="sevenoldstyle" unicode="&#xf737;" horiz-adv-x="456" 
d="M442 420l-341 -628l-27 18l291 532h-287q-20 0 -27.5 -6.5t-19.5 -34.5h-20l32 119h399z" />
    <glyph glyph-name="eightoldstyle" unicode="&#xf738;" horiz-adv-x="429" 
d="M256 341q74 -60 103.5 -100t29.5 -82q0 -70 -64 -124q-50 -42 -121 -42t-119 42t-48 104q0 54 40 100q17 20 68 53q6 4 26 17q-58 52 -78 74q-42 47 -42 97q0 68 60 115q48 38 118 38q73 0 118.5 -36.5t45.5 -94.5q0 -42 -30 -77.5t-107 -83.5zM192 295q-10 -7 -22 -16
q-67 -52 -67 -131q0 -59 41 -104q27 -29 67 -29q41 0 70.5 32t29.5 78q0 41 -26 78t-93 92zM235 355q2 2 13 8q78 46 78 129q0 53 -28 85t-74 32q-43 0 -70.5 -28t-27.5 -72q0 -72 109 -154z" />
    <glyph glyph-name="nineoldstyle" unicode="&#xf739;" horiz-adv-x="456" 
d="M-2 -209l-3 21q157 61 243 162q49 57 77.5 127.5t28.5 134.5q0 76 -33 124t-85 48q-49 0 -80 -39.5t-31 -101.5q0 -118 107 -118q46 0 85 32v-24q-61 -60 -136 -60q-60 0 -99 42.5t-39 108.5q0 76 58 129t141 53q86 0 139 -56.5t53 -148.5q0 -80 -48.5 -163.5
t-130.5 -146.5q-115 -88 -247 -124z" />
    <glyph glyph-name="ff" unicode="&#xfb00;" horiz-adv-x="592" 
d="M448 413h136v-43h-136v-293q0 -33 7 -44q9 -15 38 -15h55v-20q-42 2 -117 2q-79 0 -123 -2v20h22q29 0 38 15q7 11 7 44v293h-210v-293q0 -33 7 -44q9 -15 38 -15h22v-20q-41 2 -102 2q-62 0 -105 -2v20h22q29 0 38 15q7 11 7 44v293h-61v15q36 8 47 22q8 10 12 36l2 13
l6 70q6 70 67.5 137.5t119.5 67.5q21 0 40.5 -10t19.5 -21q0 -15 -13.5 -34t-23.5 -19q-7 0 -19 7q-26 16 -45 16q-55 0 -70 -55q-9 -33 -9 -110v-92h210v40q0 123 62 197q68 81 131 81q21 0 40.5 -10t19.5 -21q0 -15 -13.5 -34t-23.5 -19q-7 0 -19 7q-26 16 -45 16
q-55 0 -70 -55q-9 -33 -9 -110v-92z" />
    <glyph glyph-name="ffi" unicode="&#xfb03;" horiz-adv-x="817" 
d="M375 370h-210v-293q0 -33 7 -44q9 -15 38 -15h22v-20q-41 2 -102 2q-62 0 -105 -2v20h22q29 0 38 15q7 11 7 44v293h-61v15q36 8 47 22q8 10 12 36l2 13l6 70q6 70 67.5 137.5t119.5 67.5q21 0 40.5 -10t19.5 -21q0 -15 -13.5 -34t-23.5 -19q-7 0 -19 7q-26 16 -45 16
q-55 0 -70 -55q-9 -33 -9 -110v-92h210v40q0 124 62 197q69 81 131 81q21 0 40.5 -10t19.5 -21q0 -15 -13.5 -34t-23.5 -19q-7 0 -19 7q-26 16 -45 16q-55 0 -70 -55q-9 -33 -9 -110v-92h144q88 0 120 18l9 5l9 -3v-356q0 -33 7 -44q9 -15 38 -15h22v-20q-38 2 -97 2
q-65 0 -109 -2v20h22q29 0 38 15q7 11 7 44v206q0 48 -4 60q-10 27 -48 27h-158v-293q0 -33 7 -44q9 -15 38 -15h22v-20q-41 2 -102 2q-62 0 -105 -2v20h22q29 0 38 15q7 11 7 44v293zM697 654q18 0 31 -13t13 -31q0 -19 -13 -32t-31 -13q-19 0 -32 13t-13 32q0 18 13 31
t32 13z" />
    </font>
</defs>
</svg>
