<?xml version="1.0" standalone="no"?>
<!DOCTYPE svg PUBLIC "-//W3C//DTD SVG 1.1//EN" "http://www.w3.org/Graphics/SVG/1.1/DTD/svg11.dtd" >
<svg>
<metadata>
Created by FontForge 20120731 at Mon Aug 22 05:39:34 2016
 By www
Font software Copyright 1990 Adobe Systems Incorporated. Typeface designs Copyright 1990 The Monotype Corporation. All rights reserved.
</metadata>
<defs>
<font id="BodoniW01-BookItalic" horiz-adv-x="500" >
  <font-face 
    font-family="BodoniW01-BookItalic"
    font-weight="400"
    font-style="italic"
    font-stretch="normal"
    units-per-em="1000"
    panose-1="2 7 6 3 7 5 6 9 3 3"
    ascent="733"
    descent="-267"
    x-height="406"
    cap-height="668"
    bbox="-196 -250 1013 887"
    underline-thickness="50"
    underline-position="-100"
    unicode-range="U+0020-E011"
  />
<missing-glyph horiz-adv-x="0" 
 />
    <glyph glyph-name=".notdef" horiz-adv-x="0" 
 />
    <glyph glyph-name="glyph1" horiz-adv-x="0" 
 />
    <glyph glyph-name="glyph2" horiz-adv-x="250" 
 />
    <glyph glyph-name="space" unicode=" " horiz-adv-x="250" 
 />
    <glyph glyph-name="exclam" unicode="!" horiz-adv-x="389" 
d="M153 192q18 67 28.5 112t16 83.5t8 76.5t5.5 92q3 57 20.5 90t53.5 33q14 0 29.5 -13t15.5 -45q0 -21 -5.5 -38t-15 -37.5t-23.5 -47.5t-30.5 -68t-36 -98.5t-40.5 -139.5h-26zM78 43q0 23 16.5 40t39.5 17t39 -17t16 -40t-16 -39.5t-39 -16.5t-39.5 16.5t-16.5 39.5z
" />
    <glyph glyph-name="quotedbl" unicode="&#x22;" horiz-adv-x="444" 
d="M310 390q11 96 18 151.5t14.5 84t18.5 36.5t31 8q38 0 38 -29q0 -26 -25.5 -87.5t-65.5 -163.5h-29zM126 390q11 96 18 151.5t14.5 84t18.5 36.5t31 8q38 0 38 -29q0 -26 -25.5 -87.5t-65.5 -163.5h-29z" />
    <glyph glyph-name="numbersign" unicode="#" 
d="M428 192h-107l-77 -192h-56l77 192h-135l-77 -192h-56l77 192h-105l13 52h113l63 157h-108l13 52h116l77 192h56l-77 -192h135l77 192h56l-77 -192h96l-13 -52h-104l-63 -157h99zM214 401l-63 -157h135l63 157h-135z" />
    <glyph glyph-name="dollar" unicode="$" 
d="M88 -91l27 102q-30 9 -49 25t-30 34t-15 35.5t-4 29.5q0 13 3.5 27.5t10.5 26.5t18 20t26 8q17 0 30 -10.5t13 -30.5t-13.5 -33t-29.5 -13h-22q-4 0 -4.5 -5t-0.5 -12q0 -4 3 -14.5t11 -22.5t22 -24t36 -20l76 291q-36 17 -60.5 47t-24.5 82q0 20 6 47.5t24 54t50 47.5
t85 29l19 74h24l-18 -69q5 2 11.5 2h14.5q15 0 28 -1t24 -3l19 71h24l-20 -77q28 -8 45 -21t26 -28t11.5 -29.5t2.5 -25.5q0 -22 -10.5 -39t-33.5 -17q-18 0 -28.5 11.5t-10.5 29.5q0 15 7 22.5t15.5 11t15.5 5.5t7 5q0 23 -15.5 36t-36.5 20l-64 -246q22 -10 41 -23t33 -31
t22.5 -42.5t8.5 -56.5q0 -28 -8.5 -60t-31 -61.5t-60.5 -52t-98 -30.5l-25 -96h-24l24 92q-6 -1 -14.5 -1h-18.5q-23 0 -45 5l-25 -96h-24zM142 26q18 -5 42 -5q20 0 37 3l67 257q-17 8 -35 15t-36 15zM246 29q35 7 61 22t42.5 35.5t24.5 43.5t8 47q0 38 -20.5 59.5
t-51.5 35.5zM240 400q16 -7 34 -14t37 -15l63 241q-12 2 -23 3t-19 1q-10 0 -19 -0.5t-17 -1.5zM270 609q-54 -14 -85 -46t-31 -73q0 -30 18 -48.5t47 -30.5z" />
    <glyph glyph-name="percent" unicode="%" horiz-adv-x="833" 
d="M566 592l-2 2q-59 -42 -136 -42q-10 0 -20 2l-20 4q0 -66 -18.5 -118.5t-48 -89t-65.5 -56t-71 -19.5q-51 0 -85 33t-34 87q0 40 19 85t50 82.5t70 62.5t80 25q42 0 63.5 -17t35.5 -48q10 -5 24 -8.5t22 -3.5q46 0 97 24.5t89 75.5h43l-392 -701h-51zM703 372
q12 0 29.5 -5t33.5 -17.5t27.5 -34t11.5 -54.5t-13 -78.5t-39.5 -87t-65 -71t-89.5 -29.5t-84 32.5t-33 86.5q0 44 19.5 90t51 83.5t71.5 61t80 23.5zM626 24q32 0 60.5 25t49.5 61t33.5 75.5t12.5 68.5q0 33 -9 50.5t-20.5 25.5t-23 9.5t-16.5 1.5q-12 0 -28 -10t-33 -27.5
t-33 -42t-28 -52.5q-11 -27 -22 -60.5t-11 -61.5q0 -24 14 -43.5t54 -19.5zM288 619q-23 0 -48.5 -27.5t-47 -67.5t-35.5 -83.5t-14 -75.5q0 -35 15.5 -48t48.5 -13q13 0 22 3t20 9q24 12 45 36.5t37 54.5t25 62t9 59q0 10 -1 19.5t-4 19.5q-18 9 -35.5 20.5t-26.5 31.5h-10
z" />
    <glyph glyph-name="ampersand" unicode="&#x26;" horiz-adv-x="722" 
d="M675 84q-25 -40 -61.5 -68.5t-85.5 -28.5q-39 0 -73.5 21t-57.5 52q-40 -41 -93.5 -58t-99.5 -17q-29 0 -60 10.5t-56 31t-41 51t-16 71.5q0 44 21.5 81t54 67t71 53t73.5 39q-2 11 -8.5 42t-6.5 77q0 82 48 128.5t127 46.5q34 0 59 -9t41.5 -23t24.5 -33t8 -38
q0 -34 -21 -62t-51.5 -49.5t-65 -36.5t-61.5 -24q17 -66 43 -127t58 -121l92 190q10 21 29.5 41t54.5 20q29 0 49.5 -17t20.5 -48q0 -21 -11.5 -34.5t-32.5 -13.5q-18 0 -28 10.5t-10 28.5q0 4 2.5 14.5t2.5 12.5q0 8 -5 11t-13 2q-17 -2 -32 -26.5t-38 -72.5l-67 -139
q23 -46 49.5 -72t61.5 -26q27 0 50 16.5t39 34.5zM257 366q-56 -25 -90.5 -69t-34.5 -108q0 -31 8 -61t24 -53t41 -37.5t59 -14.5t64 16t54 40q-44 65 -75 137.5t-50 149.5zM339 427q25 9 48.5 24.5t41.5 36t29 45.5t11 54q0 34 -15 55t-51 21q-29 0 -45.5 -13t-25.5 -30.5
t-11.5 -34.5t-2.5 -25q0 -69 21 -133z" />
    <glyph glyph-name="quotesingle" unicode="'" horiz-adv-x="222" 
d="M117 390q11 96 18 151.5t14.5 84t18.5 36.5t31 8q38 0 38 -29q0 -26 -25.5 -87.5t-65.5 -163.5h-29z" />
    <glyph glyph-name="parenleft" unicode="(" horiz-adv-x="333" 
d="M368 677q-65 -35 -113 -103.5t-79.5 -156t-48 -188.5t-18.5 -202q0 -17 1 -42.5t8 -57t21 -68.5t38 -77l-15 -9q-26 36 -46 83t-33.5 98t-21 102.5t-7.5 96.5q0 84 23 163.5t63.5 150t96.5 129.5t123 101z" />
    <glyph glyph-name="parenright" unicode=")" horiz-adv-x="333" 
d="M-27 -207q65 35 113 103.5t79.5 156t48 188.5t18.5 202q0 17 -1.5 42.5t-8 57t-20.5 68.5t-38 77l15 9q25 -36 45.5 -83t34 -98t21 -102.5t7.5 -96.5q0 -84 -23 -163.5t-63.5 -150t-96.5 -129.5t-123 -101z" />
    <glyph glyph-name="asterisk" unicode="*" 
d="M258 462q-31 19 -60.5 27t-53 13.5t-37.5 13.5t-14 29q0 17 10 27t25 10t28 -11.5t27.5 -28t33.5 -35t48 -31.5q0 36 -4 59t-9 39t-9 28t-4 27q0 17 11 27.5t25 10.5t25 -10.5t11 -27.5q0 -15 -4 -27t-9 -28t-9 -39t-4 -59q28 13 47.5 31.5t34 35t27.5 28t28 11.5t25 -10
t10 -27q0 -21 -14.5 -29t-37.5 -13.5t-52.5 -13.5t-60.5 -27q31 -20 60.5 -27.5t52.5 -13t37.5 -13.5t14.5 -29q0 -17 -10 -27t-25 -10t-28 11.5t-27.5 28t-34 35t-47.5 31.5q0 -37 4 -60t9 -38.5t9 -27.5t4 -27q0 -17 -11 -27.5t-25 -10.5t-25 10.5t-11 27.5q0 15 4 27
t9 27.5t9 38.5t4 60q-29 -13 -48 -31.5t-33.5 -35t-27.5 -28t-28 -11.5t-25 10t-10 27q0 21 14 29t37.5 13.5t53 13t60.5 27.5z" />
    <glyph glyph-name="plus" unicode="+" horiz-adv-x="550" 
d="M246 486h58v-214h203v-58h-203v-214h-58v214h-203v58h203v214z" />
    <glyph glyph-name="comma" unicode="," horiz-adv-x="250" 
d="M-6 -140q15 9 35.5 23.5t39 31.5t31.5 36.5t13 39.5q0 8 -3 17.5t-11 9.5q-5 0 -8.5 -4.5t-8 -9.5t-12 -9.5t-20.5 -4.5q-17 0 -28.5 13.5t-11.5 29.5q0 28 17.5 46t45.5 18q37 0 53.5 -26t16.5 -59q0 -31 -12.5 -56t-32.5 -46t-44.5 -38t-48.5 -31z" />
    <glyph glyph-name="hyphen" unicode="-" horiz-adv-x="333" 
d="M276 248l-15 -60h-238l15 60h238z" />
    <glyph glyph-name="period" unicode="." horiz-adv-x="250" 
d="M15 46q0 25 17 42t42 17t42.5 -17t17.5 -42t-17.5 -41.5t-42.5 -16.5t-42 16.5t-17 41.5z" />
    <glyph glyph-name="slash" unicode="/" horiz-adv-x="278" 
d="M388 683l-395 -698h-67l395 698h67z" />
    <glyph glyph-name="zero" unicode="0" 
d="M483 424q0 -44 -9 -93t-27 -97.5t-44 -92.5t-59.5 -78t-74.5 -54t-88 -20q-44 0 -73 21t-47 52.5t-25.5 66.5t-7.5 64q0 102 27.5 187.5t70.5 147t94.5 96t99.5 34.5q47 0 78.5 -21t50 -54.5t26.5 -75.5t8 -83zM228 584q-19 -25 -36 -65.5t-32 -88.5t-26.5 -98.5
t-19.5 -95t-12.5 -79t-3.5 -49.5q2 -57 24.5 -78t70.5 -21q12 0 25 4.5t24 9.5q25 13 47.5 48t42 82t34.5 102t26 107t17 97.5t6 73.5q0 43 -21.5 74t-66.5 31q-33 0 -56 -14t-43 -40z" />
    <glyph glyph-name="one" unicode="1" 
d="M32 0l7 23h100l132 517q5 16 8.5 32.5t3.5 34.5q0 5 -5.5 8t-14 4.5t-18 2t-17.5 0.5h-52l7 23h28q58 4 104.5 6.5t68.5 6.5l-163 -635h112l-7 -23h-294z" />
    <glyph glyph-name="two" unicode="2" 
d="M-19 0v50q32 29 74 60.5t86 66t86 72.5t75 79.5t53 87.5t20 97q0 59 -29 89.5t-87 30.5q-22 0 -44.5 -7t-41 -19t-30 -27.5t-11.5 -31.5q0 -10 5 -17t15 -7q21 0 36.5 -12t15.5 -32q0 -23 -11.5 -35t-28.5 -12q-32 0 -50.5 22t-18.5 54q0 30 13.5 57t39.5 47.5t64 32.5
t87 12q33 0 63.5 -10t54.5 -29.5t38.5 -47.5t14.5 -65q0 -43 -22.5 -84t-58.5 -80.5t-81.5 -76t-91 -70.5t-87.5 -64t-70 -55l2 -2h245q28 0 43 19t26 58h26l-44 -151h-376z" />
    <glyph glyph-name="three" unicode="3" 
d="M148 -11q-26 0 -53 6.5t-49.5 20.5t-37 36t-14.5 54q0 24 15 43t39 19q5 0 12.5 -2t15 -7t12.5 -12.5t5 -19.5q0 -21 -9 -30t-20.5 -12.5t-20.5 -6.5t-9 -12q0 -1 4 -10t17 -19.5t38.5 -19t69.5 -8.5q31 0 60.5 14.5t52 42.5t36.5 68.5t14 92.5q0 30 -10.5 51t-28.5 34.5
t-41.5 19.5t-49.5 6q-11 0 -21.5 -1t-21.5 -1q-19 0 -19 18q0 8 6.5 11t17.5 3q6 0 17 -1t24 -1q45 0 78 16t55 42.5t32.5 60t10.5 68.5q0 45 -24.5 65t-66.5 20q-17 0 -32.5 -3.5t-28.5 -8.5t-20.5 -12t-7.5 -14q0 -4 2.5 -6.5t6 -6.5t6 -11t2.5 -20q0 -20 -11 -31.5
t-30 -11.5q-20 0 -30 14t-10 34q0 14 9 31t28.5 31.5t50 24.5t74.5 10q28 0 57.5 -7.5t53 -23.5t38.5 -41t15 -59q0 -39 -18.5 -69.5t-47.5 -52.5t-63.5 -35.5t-66.5 -19.5v-2q30 -5 58 -17t49 -31t34 -46t13 -62q0 -26 -11.5 -60.5t-41 -66.5t-81.5 -54t-133 -22z" />
    <glyph glyph-name="four" unicode="4" 
d="M130 0l5 23h70l39 145h-253v37q24 34 58 76t72 86t78 88t77 83t68 70t52 50h54l-118 -461h92l17 71h25l-42 -169h-26l18 69h-91l-38 -145h75l-4 -23h-228zM344 561l-2 2q-88 -85 -170 -175.5t-155 -190.5h235z" />
    <glyph glyph-name="five" unicode="5" 
d="M189 574l-64 -197q29 8 58 13.5t59 5.5q28 0 62 -9.5t64 -31t50 -56t20 -83.5q0 -41 -19 -81.5t-53.5 -73t-82.5 -52.5t-107 -20q-25 0 -52.5 6.5t-51 20.5t-38.5 36.5t-15 54.5q0 26 13 46t39 20q23 0 37.5 -14t14.5 -37q0 -20 -9 -29t-20 -13t-20 -5.5t-9 -7.5
q0 -12 10 -22t26 -17.5t35.5 -12t37.5 -4.5q40 0 72 19t54 50.5t33.5 71.5t11.5 83q0 31 -11.5 55t-31 40.5t-45 25t-53.5 8.5q-8 0 -23.5 -2.5t-31.5 -6t-29.5 -6t-16.5 -2.5q-6 0 -7.5 6t0.5 12l76 235q7 20 20 32.5t26 12.5h181q20 0 40.5 3.5t28.5 20.5h15
q-4 -51 -28.5 -73t-69.5 -22h-196z" />
    <glyph glyph-name="six" unicode="6" 
d="M483 645q-57 -5 -108.5 -29t-95 -61.5t-75.5 -86t-50 -102.5l2 -2q29 29 67 45.5t80 16.5q18 0 45 -8t52 -28.5t42.5 -54.5t17.5 -85q0 -55 -21.5 -102.5t-57.5 -83t-83 -55.5t-99 -20q-54 0 -88.5 25t-54 58t-26.5 65.5t-7 46.5q0 98 41 184t107 151.5t148 104.5t164 44
v-23zM141 308q-8 -12 -15.5 -39t-13.5 -56t-10 -55.5t-4 -38.5q0 -50 29 -80t77 -30q24 0 44.5 9t37 24t29.5 34.5t22 41.5q6 14 12 35.5t11.5 45t9 45t3.5 36.5q0 54 -21.5 84.5t-66.5 30.5q-25 0 -48 -9t-42 -22.5t-33 -28.5t-21 -27z" />
    <glyph glyph-name="seven" unicode="7" 
d="M525 645v-20q-67 -86 -115 -153t-81 -119.5t-52.5 -91t-30 -66.5t-14.5 -47.5t-4 -33.5q-1 -20 2 -30.5t3 -26.5q0 -26 -12 -47t-41 -21q-26 0 -41.5 15.5t-15.5 43.5q0 26 16.5 67.5t55.5 104t103 149.5t158 205h-271q-14 0 -24.5 -7t-19 -17.5t-15 -22t-12.5 -21.5h-28
l80 139h359z" />
    <glyph glyph-name="eight" unicode="8" 
d="M7 157q0 38 19 70t48.5 56t64 39t66.5 20v2q-47 17 -77.5 54.5t-30.5 94.5q0 17 8.5 45t31.5 54.5t65 46t108 19.5q31 0 60 -11.5t51 -31.5t35.5 -48t13.5 -62q0 -35 -16 -64.5t-41 -51.5t-55.5 -36t-60.5 -17v-2q26 -7 51 -20.5t44 -33t30.5 -45.5t11.5 -57
q0 -44 -19.5 -78.5t-52.5 -59.5t-76.5 -38t-92.5 -13q-38 0 -71.5 10.5t-59 31.5t-40.5 52.5t-15 73.5zM347 219q0 61 -31 82.5t-84 21.5q-47 0 -74.5 -25.5t-42.5 -68.5q-4 -11 -8.5 -27.5t-8 -34t-6 -34t-2.5 -28.5q0 -19 4 -36.5t15.5 -30.5t32.5 -21t55 -8
q48 0 72.5 18.5t39.5 41.5q9 13 16 32.5t12 40t7.5 41t2.5 36.5zM390 551q1 40 -21 63.5t-60 23.5q-53 0 -79 -26t-41 -79q-5 -16 -9 -38t-4 -38q0 -21 4 -40t14 -33.5t26 -23t39 -8.5q32 0 56 14t37 37q10 18 17 40t11.5 42.5t7 37t2.5 23.5v5z" />
    <glyph glyph-name="nine" unicode="9" 
d="M22 2q57 5 108.5 29t95 61.5t75.5 86t50 102.5l-2 2q-29 -29 -67 -45.5t-80 -16.5q-18 0 -45 8t-52 28.5t-42.5 54.5t-17.5 85q0 55 21.5 102.5t57.5 82.5t83 55.5t99 20.5q54 0 88.5 -25t54 -58t26.5 -65t7 -46q0 -65 -19 -126t-51.5 -113.5t-77 -96.5t-96 -76
t-106.5 -51t-110 -22v23zM364 339q7 12 15 39t14 56t10 55.5t4 38.5q0 50 -29 80t-77 30q-24 0 -44.5 -9t-37 -24t-29.5 -34.5t-22 -41.5q-6 -14 -12 -35.5t-11.5 -45t-9 -45t-3.5 -36.5q0 -54 21.5 -84.5t66.5 -30.5q25 0 48 9t42 22.5t33 28.5t21 27z" />
    <glyph glyph-name="colon" unicode=":" horiz-adv-x="250" 
d="M15 48q0 26 17 43.5t42 17.5t42.5 -17.5t17.5 -43.5t-17.5 -43.5t-42.5 -17.5t-42 17.5t-17 43.5zM103 345q0 26 17 43.5t42 17.5t42.5 -17.5t17.5 -43.5t-17.5 -43.5t-42.5 -17.5t-42 17.5t-17 43.5z" />
    <glyph glyph-name="semicolon" unicode=";" horiz-adv-x="250" 
d="M-6 -146q15 10 35.5 24.5t39 32.5t31.5 38.5t13 41.5q0 8 -3 18t-11 10q-5 0 -8.5 -4.5t-8 -10t-12 -10t-20.5 -4.5q-17 0 -28.5 14t-11.5 30q0 29 17.5 48t45.5 19q37 0 53.5 -27t16.5 -61q0 -32 -12.5 -58.5t-32.5 -48.5t-44.5 -39.5t-48.5 -32.5zM103 345
q0 26 17 43.5t42 17.5t42.5 -17.5t17.5 -43.5t-17.5 -43.5t-42.5 -17.5t-42 17.5t-17 43.5z" />
    <glyph glyph-name="less" unicode="&#x3c;" horiz-adv-x="550" 
d="M507 -29l-464 242v60l464 242v-65l-392 -207l392 -208v-64z" />
    <glyph glyph-name="equal" unicode="=" horiz-adv-x="550" 
d="M43 316v58h464v-58h-464zM43 112v58h464v-58h-464z" />
    <glyph glyph-name="greater" unicode="&#x3e;" horiz-adv-x="550" 
d="M43 35l392 208l-392 207v65l464 -242v-60l-464 -242v64z" />
    <glyph glyph-name="question" unicode="?" 
d="M164 193q4 55 15.5 90.5t33 60.5t53 44t75.5 43q37 20 61 45t24 71q0 19 -8.5 40t-24.5 37.5t-40.5 27.5t-55.5 11q-18 0 -35 -5.5t-30.5 -13t-22 -15.5t-8.5 -14q0 -5 6 -9t12.5 -9.5t12.5 -14t6 -21.5q0 -25 -13 -33t-27 -8q-17 0 -28.5 13.5t-11.5 29.5q0 20 9.5 41
t27.5 38.5t44 29t60 11.5t63 -11.5t50 -32.5t32.5 -50.5t11.5 -64.5q0 -61 -23.5 -96.5t-58.5 -59.5t-76 -43.5t-76 -47.5q-17 -14 -25.5 -38.5t-10.5 -45.5h-22zM89 44q0 23 16.5 40t39.5 17t39 -17t16 -40t-16 -39.5t-39 -16.5t-39.5 16.5t-16.5 39.5z" />
    <glyph glyph-name="at" unicode="@" horiz-adv-x="778" 
d="M566 500h68l-66 -261q-2 -5 -3 -16t2 -21.5t11.5 -18.5t26.5 -8q33 0 58.5 20t43.5 51t27 67.5t9 69.5q0 58 -20 108.5t-58 88t-93 59t-126 21.5q-61 0 -114 -23.5t-92.5 -68.5t-62 -110.5t-22.5 -149.5q0 -54 21 -106t60 -92.5t94.5 -65.5t124.5 -25q34 0 61.5 4
t51 10.5t45 15.5t43.5 18l13 -25q-49 -23 -101.5 -40t-111.5 -17q-99 0 -171 33t-118.5 83t-69 108t-22.5 109q0 82 29.5 149t80.5 115t118.5 74.5t142.5 26.5q74 0 135.5 -22.5t105 -62.5t67.5 -95t24 -119q0 -39 -12.5 -81t-36.5 -77.5t-59.5 -58.5t-80.5 -23
q-25 0 -42.5 9.5t-28 21.5t-14.5 23.5t-4 16.5h-2q-5 -6 -15.5 -17t-26 -22t-35 -20t-41.5 -11q-9 0 -26.5 2.5t-34.5 15t-29.5 38t-12.5 69.5q0 36 15.5 78.5t43.5 79t66.5 60.5t84.5 24q25 0 40 -13.5t28 -39.5zM540 405q0 32 -12.5 51.5t-44.5 19.5q-21 0 -43.5 -16
t-41 -43.5t-30 -65.5t-11.5 -81q0 -47 16.5 -65.5t45.5 -18.5q16 0 35 14t36 41.5t31 68.5t19 95z" />
    <glyph glyph-name="A" unicode="A" horiz-adv-x="556" 
d="M434 23h64l-7 -23h-227l7 23h68l-13 209h-188l-112 -209h78l-7 -23h-147l7 23h38l355 656h34zM307 541h-2l-153 -284h172z" />
    <glyph glyph-name="B" unicode="B" horiz-adv-x="611" 
d="M-2 23h56l159 622h-76l7 23h253q59 0 96 -14t57.5 -35t28 -46t7.5 -47q0 -44 -19.5 -76.5t-50.5 -55t-69 -34.5t-75 -15v-2q31 -5 60 -17t51.5 -31t36 -46t13.5 -63q0 -51 -21.5 -86t-55.5 -57t-77 -32t-85 -11h-303zM150 23h93q35 0 62.5 4t47.5 14.5t34.5 28.5t23.5 47
q8 23 15.5 53t7.5 53q0 57 -32 81t-83 28q-22 1 -43 2.5t-45 1.5zM237 361q42 0 71.5 1t51.5 3q36 2 60.5 20t40 45t22 59.5t6.5 64.5q0 26 -5.5 43.5t-19 28t-36.5 15t-57 4.5h-61z" />
    <glyph glyph-name="C" unicode="C" horiz-adv-x="611" 
d="M593 661h18l-37 -178l-28 4q0 51 -10 84t-27.5 53t-41 28t-49.5 8q-42 0 -77.5 -26.5t-64 -70t-50 -98t-36 -110.5t-22 -108t-7.5 -90q0 -17 5 -42t19 -48t38 -39t62 -16q40 0 73 16t61 41.5t50 57.5t40 64l28 -8l-54 -183h-18l-19 39q-33 -27 -74.5 -40.5t-83.5 -13.5
q-48 0 -90 19t-73 52t-48.5 76.5t-17.5 92.5q0 91 32.5 174t85 146t118.5 100.5t132 37.5q32 0 67.5 -14t59.5 -37z" />
    <glyph glyph-name="D" unicode="D" horiz-adv-x="667" 
d="M135 645l7 23h243q67 0 115 -20.5t79 -56t45.5 -83.5t14.5 -103q0 -40 -10 -86t-30 -91t-49.5 -86.5t-69 -73t-88 -50t-106.5 -18.5h-293l7 23h57l157 622h-79zM152 23h68q26 0 46.5 1t38.5 4t35 8t35 14q20 10 40.5 37t39 65t34.5 83t28 90.5t18.5 87.5t6.5 74
q0 88 -43.5 123t-134.5 35h-54z" />
    <glyph glyph-name="E" unicode="E" horiz-adv-x="611" 
d="M-4 0l7 23h56l157 622h-76l7 23h463l-39 -174h-25q4 23 4 46q0 28 -6.5 47.5t-23 32.5t-45 19t-73.5 6h-89l-72 -286q40 0 66 3.5t44 14.5t30.5 31.5t27.5 55.5h26l-66 -259h-25q3 27 3 48q0 24 -4 38.5t-16 23t-34 12t-59 5.5l-79 -309h101q52 0 88.5 6.5t65 24.5
t51.5 50.5t49 83.5h28l-58 -188h-484z" />
    <glyph glyph-name="F" unicode="F" horiz-adv-x="611" 
d="M18 0l7 23h56l157 622h-76l7 23h463l-39 -174h-25q4 23 4 46q0 28 -6.5 47.5t-23 32.5t-45 19t-73.5 6h-89l-72 -286q40 0 66 3.5t44 14.5t30.5 31.5t27.5 55.5h26l-66 -259h-25q3 27 3 48q0 24 -4 38.5t-16 23t-34 12t-59 5.5l-79 -309h79l-7 -23h-231z" />
    <glyph glyph-name="G" unicode="G" horiz-adv-x="611" 
d="M620 237l-7 -26h-60q-15 -50 -34 -91.5t-49 -71.5t-74 -46.5t-108 -16.5q-48 0 -90 19t-73 52t-48.5 76.5t-17.5 92.5q0 91 32.5 174t85 146t118.5 100.5t132 37.5q32 0 67.5 -14t59.5 -37l39 29h18l-37 -178l-28 4q0 51 -10 84t-27.5 53t-41 28t-49.5 8
q-42 0 -77.5 -26.5t-64 -70t-50 -98t-36 -110.5t-22 -108t-7.5 -90q0 -15 4.5 -40t19 -49t40.5 -42t69 -18q61 0 92.5 47.5t48.5 155.5h-83l7 26h261z" />
    <glyph glyph-name="H" unicode="H" horiz-adv-x="667" 
d="M-9 0l7 23h55l159 622h-79l7 23h243l-7 -23h-66l-75 -284h244l72 284h-75l7 23h227l-7 -23h-55l-158 -622h76l-7 -23h-241l7 23h67l79 309h-242l-80 -309h74l-7 -23h-225z" />
    <glyph glyph-name="I" unicode="I" horiz-adv-x="333" 
d="M-9 0l7 23h54l166 622h-78l7 23h232l-7 -23h-57l-167 -622h75l-7 -23h-225z" />
    <glyph glyph-name="J" unicode="J" horiz-adv-x="444" 
d="M478 668l-7 -23h-57l-127 -561q-6 -27 -19 -61t-35 -63t-55.5 -49t-79.5 -20q-19 0 -37 5t-31.5 15.5t-21.5 26.5t-8 38q0 18 6 29.5t14 18t17.5 9t15.5 2.5q15 0 32 -11t17 -34q0 -14 -5 -23.5t-11 -16t-11 -11t-5 -8.5q0 -10 9 -13.5t15 -3.5q33 0 54.5 34.5
t37.5 104.5l133 592h-91l7 23h243z" />
    <glyph glyph-name="K" unicode="K" horiz-adv-x="611" 
d="M214 0h-226l7 23h55l156 622h-78l7 23h246l-7 -23h-71l-159 -622h77zM339 0l7 23h75l-188 329l326 293h-90l7 23h185l-7 -23h-59l-287 -255l222 -367h66l-7 -23h-250z" />
    <glyph glyph-name="L" unicode="L" 
d="M-12 0l7 23h52l161 622h-75l7 23h243l-7 -23h-70l-164 -622h79q64 0 102 6t63 23.5t43.5 50t43.5 86.5h28l-53 -189h-460z" />
    <glyph glyph-name="M" unicode="M" horiz-adv-x="778" 
d="M-16 0l7 23h56l157 622h-76l7 23h192l22 -500h2l272 500h183l-7 -23h-58l-157 -622h81l-7 -23h-241l7 23h64l157 620h-2l-353 -643h-29l-28 638h-2l-157 -615h75l-7 -23h-158z" />
    <glyph glyph-name="N" unicode="N" horiz-adv-x="667" 
d="M-6 0l7 23h57l158 622h-76l7 23h179l166 -500h2l119 477h-73l7 23h158l-7 -23h-57l-168 -660h-20l-211 642h-2l-154 -604h74l-7 -23h-159z" />
    <glyph glyph-name="O" unicode="O" horiz-adv-x="667" 
d="M269 -15q-51 0 -90.5 20t-66.5 53t-41.5 76t-14.5 90q0 46 11.5 98t33.5 102.5t53.5 97t72.5 81.5t90 56t106 21q40 0 77.5 -14t66 -44.5t45.5 -79t17 -117.5q0 -22 -9 -63.5t-27.5 -90.5t-47 -99.5t-68.5 -92t-92 -68t-116 -26.5zM411 660q-54 0 -99 -38t-71 -104
q-26 -65 -43.5 -124t-28.5 -108t-16 -86.5t-5 -60.5q0 -59 30 -96.5t93 -37.5q25 0 47 5t42 19.5t39 39.5t39 64q31 62 49.5 128.5t28.5 122t12.5 93.5t2.5 44q0 27 -5 52.5t-18 44.5t-36.5 30.5t-60.5 11.5z" />
    <glyph glyph-name="P" unicode="P" horiz-adv-x="611" 
d="M-6 0l7 23h56l159 622h-78l7 23h242q108 0 166 -40t58 -118q0 -26 -10 -60.5t-41 -66t-90 -53t-156 -21.5h-88l-73 -286h77l-7 -23h-229zM231 332q46 0 74 1.5t50 3.5q38 2 66.5 22t48 50t29.5 66t10 71q0 28 -9.5 47.5t-27 30.5t-41 16t-51.5 5h-70z" />
    <glyph glyph-name="Q" unicode="Q" horiz-adv-x="667" 
d="M478 -214q-18 -2 -36 -3.5t-36 -1.5q-65 0 -103 17t-58 42t-26 52t-6 48q0 13 2 26t4 25q-39 9 -69.5 31t-51 53.5t-31.5 69.5t-11 79q0 46 11.5 98t33.5 102.5t53.5 97t72.5 81.5t90 56t106 21q40 0 77.5 -14t66 -44.5t45.5 -79t17 -117.5q0 -20 -7.5 -57t-23.5 -81.5
t-40 -92t-58 -88.5t-77.5 -72t-97.5 -42q0 -5 -1 -15t-2 -23t-1.5 -27.5t-0.5 -27.5q1 -48 27.5 -72t70.5 -24h30t30 2v-19zM411 660q-54 0 -99 -38t-71 -104q-26 -65 -43.5 -124t-28.5 -108t-16 -86.5t-5 -60.5q0 -59 30 -96.5t93 -37.5q25 0 47 5t42 19.5t39 39.5t39 64
q31 62 49.5 128.5t28.5 122t12.5 93.5t2.5 44q0 27 -5 52.5t-18 44.5t-36.5 30.5t-60.5 11.5z" />
    <glyph glyph-name="R" unicode="R" horiz-adv-x="611" 
d="M223 0h-235l7 23h55l162 622h-86l7 23h273q31 0 63.5 -8t59 -25.5t43 -46t16.5 -68.5q0 -41 -19.5 -72t-55 -53t-85 -33t-109.5 -11v-2q34 -11 61 -24t45.5 -34t29 -53t12.5 -81l11 -86q4 -32 16.5 -42.5t30.5 -10.5q13 0 26 2.5t25 7.5v-24q-17 -9 -36 -14
q-10 -2 -19.5 -3.5t-20.5 -1.5q-67 0 -97 35.5t-36 101.5l-12 131q0 28 -9 45.5t-25.5 28t-39.5 14.5t-51 6l-84 -324h84zM236 370q52 0 93 2.5t71 16.5q13 6 28 19t28 33.5t21.5 49t8.5 65.5q0 27 -6.5 44t-22 27t-41.5 14t-64 4h-44z" />
    <glyph glyph-name="S" unicode="S" 
d="M21 -1h-15l43 190l24 -6q0 -36 8 -68t26 -56t46 -38t69 -14q31 0 59 12.5t48 33.5t32 48t12 57q0 39 -19 65t-47 46t-61 38t-61 41t-47 55t-19 81q0 42 14 78t38.5 63t59 42.5t76.5 15.5q34 0 64.5 -13t56.5 -36l39 31h19l-38 -171l-24 3q-2 48 -11 80t-25 50.5t-38 26
t-49 7.5q-26 0 -50 -9t-42 -25.5t-28.5 -40t-10.5 -51.5q0 -31 20.5 -53t50.5 -40.5t66 -37.5t66 -44.5t50.5 -59.5t20.5 -84q0 -37 -14 -78t-43 -75t-72.5 -56t-103.5 -22q-36 0 -71 12.5t-62 38.5z" />
    <glyph glyph-name="T" unicode="T" horiz-adv-x="556" 
d="M328 0h-253l7 23h72l160 622q-45 0 -77.5 -11.5t-56.5 -32.5t-41.5 -51t-32.5 -66h-33l57 184h485l-49 -201h-25q1 15 2 31t1 31q0 40 -8 62.5t-24.5 33.5t-41.5 14.5t-60 5.5l-160 -622h84z" />
    <glyph glyph-name="U" unicode="U" horiz-adv-x="667" 
d="M126 645l7 23h243l-7 -23h-67l-97 -374q-4 -15 -8.5 -33.5t-9 -38t-7.5 -39t-3 -34.5q0 -57 36.5 -85.5t88.5 -28.5q24 0 50.5 5.5t51.5 21t45.5 43.5t32.5 73l134 490h-78l7 23h160l-7 -23h-54l-132 -497q-9 -35 -28 -65t-47 -51.5t-65.5 -34t-85.5 -12.5q-36 0 -71 9.5
t-63 29.5t-45 50t-17 72q0 14 3 35.5t7.5 44.5t9 44.5t8.5 35.5l89 339h-81z" />
    <glyph glyph-name="V" unicode="V" horiz-adv-x="556" 
d="M89 668h225l-7 -23h-69l31 -507h2l285 507h-80l7 23h148l-7 -23h-40l-368 -660h-30l-41 660h-63z" />
    <glyph glyph-name="W" unicode="W" horiz-adv-x="778" 
d="M86 668h561l-7 -23h-51l-119 -210l17 -291h2l271 501h-74l7 23h153l-7 -23h-47l-356 -660h-27l-19 321h-2l-185 -321h-25l-36 660h-63zM236 645l24 -509h2l125 225l-14 284h-137zM460 645l7 -164h2l92 164h-101z" />
    <glyph glyph-name="X" unicode="X" horiz-adv-x="611" 
d="M149 0h-177l7 23h52l246 307l-86 315h-81l7 23h255l-7 -23h-79l64 -232l189 232h-89l7 23h182l-7 -23h-59l-214 -265l96 -357h77l-7 -23h-253l7 23h81l-75 277l-222 -277h93z" />
    <glyph glyph-name="Y" unicode="Y" horiz-adv-x="556" 
d="M348 0h-271l7 23h82l69 254l-97 368h-65l7 23h241l-7 -23h-83l86 -326l227 326h-73l7 23h157l-7 -23h-53l-243 -354l-68 -268h91z" />
    <glyph glyph-name="Z" unicode="Z" horiz-adv-x="611" 
d="M462 0h-457v23l490 622h-159q-32 0 -56 -14.5t-42.5 -36.5t-31 -46.5t-20.5 -45.5h-32l45 166h417v-23l-489 -622h170q55 0 104 39.5t84 129.5l31 -13z" />
    <glyph glyph-name="bracketleft" unicode="[" horiz-adv-x="278" 
d="M172 -179l-6 -23h-214l225 870h215l-6 -23h-145l-215 -824h146z" />
    <glyph glyph-name="backslash" unicode="\" horiz-adv-x="278" 
d="M74 683l220 -698h-60l-220 698h60z" />
    <glyph glyph-name="bracketright" unicode="]" horiz-adv-x="278" 
d="M106 645l6 23h214l-225 -870h-215l6 23h145l215 824h-146z" />
    <glyph glyph-name="asciicircum" unicode="^" horiz-adv-x="550" 
d="M66 265l183 380h52l183 -380h-62l-147 307l-147 -307h-62z" />
    <glyph glyph-name="underscore" unicode="_" 
d="M0 -125v50h500v-50h-500z" />
    <glyph glyph-name="grave" unicode="`" horiz-adv-x="278" 
d="M240 438l-137 107q-9 7 -14 14.5t-5 18.5t10.5 20.5t20.5 9.5q17 0 28 -11.5t17 -19.5l109 -139h-29z" />
    <glyph glyph-name="a" unicode="a" 
d="M429 396l-95 -343q-6 -20 2.5 -26.5t16.5 -6.5q13 0 28.5 14t29.5 33.5t25 41t15 36.5l19 -6q-29 -83 -66 -116.5t-71 -33.5q-29 0 -49 17.5t-21 46.5h-2q-20 -29 -51.5 -46.5t-63.5 -17.5q-60 0 -94 42.5t-34 110.5q0 43 21.5 89.5t55.5 85.5t77 64t85 25q30 0 49.5 -17
t30.5 -44h1l17 51h74zM151 292q-10 -19 -20 -45.5t-18.5 -55t-13.5 -56t-5 -49.5q0 -32 17 -54.5t49 -22.5q9 0 23.5 4.5t30 18t32 37.5t30.5 62q7 19 14.5 42.5t14 48.5t11 49.5t4.5 44.5q0 31 -16.5 50.5t-47.5 19.5q-20 0 -35.5 -8.5t-28.5 -22t-23 -30.5t-18 -33z" />
    <glyph glyph-name="b" unicode="b" horiz-adv-x="444" 
d="M102 664l7 23h24q53 0 77 1.5t41 3.5l-86 -324l2 -2q19 16 43.5 28t53.5 12q19 0 42 -7.5t42.5 -25t33 -46.5t13.5 -73q0 -39 -15.5 -85t-46 -86t-75 -67t-102.5 -27q-22 0 -44.5 7t-41 20.5t-30 33t-11.5 45.5q0 20 6 41t11 41l125 487h-69zM164 9q24 0 41.5 10.5
t30 27.5t22 37t17.5 40q32 78 39.5 125t7.5 64q0 31 -17 52t-49 21q-15 0 -31.5 -5t-33 -19t-31.5 -40.5t-26 -69.5q-18 -69 -29 -113.5t-11 -64.5q0 -11 4 -22t12.5 -21t21.5 -16t32 -6z" />
    <glyph glyph-name="c" unicode="c" horiz-adv-x="389" 
d="M325 97q-14 -21 -30.5 -40.5t-36 -34.5t-42.5 -24t-49 -9q-44 0 -74 15.5t-49 38t-27 47.5t-8 44q0 51 21 100t55 87t77.5 61.5t88.5 23.5q19 0 37.5 -5.5t33 -16t23.5 -26.5t9 -38q0 -17 -11.5 -32.5t-28.5 -15.5q-16 0 -28 9.5t-12 26.5q0 13 4.5 21t10 14t10 10.5
t4.5 9.5q0 6 -5.5 10.5t-13 7.5t-16 4t-13.5 1q-29 0 -50 -11.5t-35.5 -29t-24.5 -37.5t-16 -36q-20 -55 -30.5 -97t-10.5 -80t22 -59.5t57 -21.5q49 0 81.5 28t60.5 66z" />
    <glyph glyph-name="d" unicode="d" 
d="M472 145q-9 -26 -22 -54t-31 -50.5t-41.5 -37t-54.5 -14.5q-26 0 -42 18.5t-17 42.5h-2q-19 -27 -50 -44t-65 -17q-32 0 -56 13t-41 33t-25.5 44.5t-8.5 48.5q0 45 19.5 94.5t52 90t75 67t88.5 26.5q27 0 49 -11.5t39 -32.5l80 302h-83l7 23h38q53 0 77 1.5t41 3.5
l-167 -629q-3 -14 -3 -15q0 -10 8.5 -16.5t16.5 -6.5q16 0 31 15.5t28 36.5t23 42.5t15 33.5zM121 221q-10 -30 -19.5 -67.5t-9.5 -69.5t19 -53.5t50 -21.5q18 0 34 7.5t31.5 25.5t30 47.5t28.5 73.5q4 13 10.5 33.5t12 42t9.5 42.5t4 36q0 30 -15.5 49.5t-47.5 19.5
q-29 0 -51 -17t-38.5 -42t-28 -53.5t-19.5 -52.5z" />
    <glyph glyph-name="e" unicode="e" horiz-adv-x="389" 
d="M319 102q-28 -51 -63.5 -82t-95.5 -31q-33 0 -60.5 13.5t-47.5 35.5t-31 50.5t-11 59.5q0 47 21 93t55.5 83t78.5 59.5t89 22.5q41 0 68.5 -23t27.5 -59q0 -24 -12.5 -47t-41.5 -41.5t-76.5 -30t-116.5 -11.5q-5 -21 -10 -42.5t-5 -44.5q0 -38 18 -65.5t58 -27.5
q27 0 47 7t36 20.5t29 31.5t26 41zM108 215q44 0 76.5 10t53.5 26.5t31 38.5t10 47q0 18 -12.5 32t-30.5 14q-26 0 -47 -18t-37 -44.5t-27 -55.5t-17 -50z" />
    <glyph glyph-name="f" unicode="f" horiz-adv-x="278" 
d="M184 373l-40 -174q-23 -97 -46 -166.5t-45.5 -116.5t-44.5 -75t-43 -42.5t-41 -18.5t-38 -4q-12 0 -25 3t-24.5 9.5t-19 17t-7.5 25.5q0 17 11 31t33 14q10 0 22 -10t12 -31q0 -4 -5.5 -14t-5.5 -11q0 -8 8.5 -9.5t13.5 -1.5q23 0 43.5 14.5t32.5 41.5q4 9 10 26t13 38.5
t13.5 45t11.5 46.5l86 362h-86l7 23h86q9 41 29 92.5t50 96.5t69 76t86 31q14 0 28 -3.5t25 -11t17.5 -19.5t6.5 -29t-11.5 -27.5t-27.5 -10.5t-27.5 9t-11.5 25q0 13 5.5 20t5.5 15t-9.5 10t-14.5 2q-17 0 -38.5 -17.5t-42.5 -52.5t-38.5 -86.5t-27.5 -119.5h100l-7 -23
h-98z" />
    <glyph glyph-name="g" unicode="g" 
d="M456 414q17 0 27.5 -11.5t10.5 -28.5q0 -13 -9.5 -23.5t-22.5 -10.5q-11 0 -19.5 5t-17.5 12q-4 -1 -5 -5t-4 -16.5t-10 -35t-22 -61.5q-20 -51 -61.5 -83t-106.5 -32q-20 0 -39.5 5.5t-36.5 17.5q-8 -1 -18 -5.5t-18.5 -11t-14.5 -15t-6 -17.5q0 -14 11.5 -22
t31.5 -12.5t47 -6.5t58 -5q39 -3 67.5 -9t46.5 -17.5t27 -30t9 -48.5q0 -50 -24 -83.5t-60.5 -53.5t-81 -28t-85.5 -8q-26 0 -53.5 5.5t-50 18.5t-37 35t-14.5 54q0 22 9.5 39t23.5 30t31.5 22t33.5 16v2q-25 5 -37.5 19t-12.5 43q0 31 27 59.5t70 48.5q-13 13 -21.5 34.5
t-8.5 41.5q0 36 15 66.5t40 52t56.5 33.5t64.5 12q42 0 71 -23.5t45 -59.5h1q4 14 9.5 30t14 29.5t20.5 22.5t29 9zM266 -26q-17 2 -39 3.5t-45.5 3.5t-45 4t-36.5 6q-32 -20 -48 -44.5t-16 -64.5q0 -5 2.5 -18t14 -27.5t33.5 -25.5t61 -11q25 0 58.5 5.5t64 18.5t52 35
t21.5 56q0 18 -7 29t-18 17t-25 8.5t-27 4.5zM220 145q27 0 46.5 20t32 48.5t18 59.5t5.5 54q0 22 -7 33.5t-16 17t-19 7t-16 1.5q-23 0 -40 -13t-29 -32.5t-19 -42.5t-11 -43.5t-5.5 -35.5t-1.5 -18q0 -28 18.5 -42t43.5 -14z" />
    <glyph glyph-name="h" unicode="h" 
d="M95 664l7 23h32q53 0 77 1.5t41 3.5l-91 -377l2 -1q13 20 31 37t38 29t40.5 19t38.5 7q19 0 35 -4t28 -13.5t18.5 -25.5t6.5 -40q0 -7 -5.5 -30.5t-13 -54t-17 -64.5t-17 -63t-13 -48.5t-5.5 -21.5q0 -12 9.5 -16t18.5 -4q17 0 32 13.5t26.5 33t20.5 40t14 34.5l19 -8
q-10 -25 -22.5 -51t-29.5 -47t-39.5 -34t-52.5 -13q-26 0 -44.5 13t-18.5 41q0 15 5.5 40.5t13 55t17 61.5t17 59.5t13 48.5t5.5 29q0 24 -14.5 31t-30.5 7q-29 0 -54.5 -17t-46.5 -46.5t-37.5 -67.5t-26.5 -80l-41 -164h-72l162 661l1 3h-77z" />
    <glyph glyph-name="i" unicode="i" horiz-adv-x="278" 
d="M247 137q-21 -65 -57.5 -106.5t-92.5 -41.5q-23 0 -43 12.5t-20 39.5q0 10 3.5 27t6.5 29l72 276h-79l7 23h19q10 0 27 1t36 2.5l38 3t33 3.5l-87 -327q-2 -9 -5.5 -18.5t-3.5 -17.5q0 -10 9.5 -14.5t18.5 -4.5q15 0 29.5 11.5t27.5 29t23.5 38.5t18.5 41zM199 560
q-20 0 -33 13.5t-13 34.5q0 20 13 34.5t33 14.5t33 -14.5t13 -34.5q0 -21 -13 -34.5t-33 -13.5z" />
    <glyph glyph-name="j" unicode="j" horiz-adv-x="222" 
d="M30 373l7 23h19q10 0 27 1t36 2.5l38 3t33 3.5l-105 -431q-8 -34 -22.5 -69.5t-35 -65t-48 -48.5t-60.5 -19q-13 0 -26 3.5t-23.5 10.5t-17 18.5t-6.5 26.5q0 17 10.5 29t27.5 12q18 0 29.5 -10t11.5 -30q0 -5 -2.5 -12t-2.5 -12q0 -4 5 -8t7 -4q10 0 19 6.5t18 24
t18.5 47t20.5 75.5l103 423h-81zM192 560q-20 0 -33 13.5t-13 34.5q0 20 13 34.5t33 14.5t33 -14.5t13 -34.5q0 -21 -13 -34.5t-33 -13.5z" />
    <glyph glyph-name="k" unicode="k" horiz-adv-x="444" 
d="M79 0h-73l169 664h-81l7 23h36q53 0 77 1.5t41 3.5l-114 -440q9 2 17.5 5.5t17.5 3.5t16 -2.5t14 -2.5q5 2 7.5 2.5t4 1t3 2l5.5 5.5q28 46 47.5 73.5t34.5 42t27.5 19t26.5 4.5q6 0 15.5 -3t18 -9.5t14.5 -16.5t6 -25q0 -21 -13 -29t-27 -8t-22 9t-8 22q0 4 2 11t2 11
q0 3 -4 6t-7 3q-8 0 -19.5 -12.5t-25.5 -32t-29 -42.5t-29 -44q34 -15 48 -38.5t14 -61.5q0 -9 -1.5 -21t-3 -24.5t-3 -24.5t-1.5 -20q0 -12 4.5 -20t18.5 -8q10 0 23 14t25 33t21.5 38t13.5 28l18 -8q-9 -22 -22 -47.5t-31 -47t-40.5 -35.5t-48.5 -14q-59 0 -59 62
q0 10 5 29.5t10.5 41t10.5 41.5t5 32q0 19 -8.5 29t-16.5 10q-4 0 -8.5 -3t-11 -7t-15 -7t-20.5 -3h-30z" />
    <glyph glyph-name="l" unicode="l" horiz-adv-x="278" 
d="M97 664l7 23h38q53 0 77 1.5t41 3.5l-164 -613q-2 -9 -5.5 -18.5t-3.5 -17.5q0 -10 9.5 -14.5t18.5 -4.5q15 0 29.5 11.5t28 30t26 42t23.5 47.5l19 -7q-27 -72 -66 -115.5t-92 -43.5q-23 0 -43 12.5t-20 39.5q0 10 3.5 27t6.5 29l149 567h-82z" />
    <glyph glyph-name="m" unicode="m" horiz-adv-x="722" 
d="M33 373l7 23h19q10 0 25.5 1t34 2.5t38 3t37.5 3.5l-20 -83l3 -2q27 34 60.5 59.5t79.5 25.5q14 0 29 -4t27.5 -14t20 -26t7.5 -41h3q27 35 60.5 60t78.5 25q19 0 35 -4t28 -13.5t18.5 -25.5t6.5 -40q0 -7 -5.5 -30.5t-13 -54t-17 -64.5t-17 -63t-13 -48.5t-5.5 -21.5
q0 -12 9.5 -16t18.5 -4q17 0 32 13.5t26.5 33t20.5 40t14 34.5l19 -8q-10 -25 -22.5 -51t-29.5 -47t-39.5 -34t-52.5 -13q-26 0 -44.5 13t-18.5 41q0 15 5.5 40.5t13 55t17 61.5t17 59.5t13 48.5t5.5 29q0 24 -14.5 31t-30.5 7q-6 0 -23.5 -5.5t-39.5 -23t-44.5 -51
t-37.5 -90.5l-55 -205h-71l61 239q6 23 14 51.5t8 47.5t-11.5 28t-28.5 9q-6 0 -23.5 -5.5t-39.5 -23t-44.5 -51t-37.5 -90.5l-55 -205h-71l93 373h-80z" />
    <glyph glyph-name="n" unicode="n" 
d="M37 373l7 23h19q10 0 27 1t36 2.5l38 3t33 3.5l-24 -91l2 -1q13 20 31 37t38 29t40.5 19t38.5 7q19 0 35 -4t28 -13.5t18.5 -25.5t6.5 -40q0 -7 -5.5 -30.5t-13 -54t-17 -64.5t-17 -63t-13 -48.5t-5.5 -21.5q0 -12 9.5 -16t18.5 -4q17 0 32 13.5t26.5 33t20.5 40t14 34.5
l19 -8q-10 -25 -22.5 -51t-29.5 -47t-39.5 -34t-52.5 -13q-26 0 -44.5 13t-18.5 41q0 15 5.5 40.5t13 55t17 61.5t17 59.5t13 48.5t5.5 29q0 24 -14.5 31t-30.5 7q-29 0 -54.5 -17t-46.5 -46.5t-37.5 -67.5t-26.5 -80l-41 -164h-72l96 373h-80z" />
    <glyph glyph-name="o" unicode="o" horiz-adv-x="444" 
d="M401 247q0 -43 -19 -89t-51 -83.5t-74 -61.5t-88 -24q-39 0 -68 13.5t-48.5 34.5t-29.5 47t-10 51q0 51 20 99.5t53.5 86.5t77 61.5t91.5 23.5q32 0 58.5 -13t46 -34.5t30.5 -50.5t11 -61zM130 277q-5 -13 -11.5 -38.5t-13.5 -53.5t-11.5 -54t-4.5 -39q0 -34 21 -58.5
t55 -24.5q25 0 43.5 9.5t32 24.5t23 35t17.5 41q16 44 27 90.5t11 93.5q0 38 -16.5 60.5t-54.5 22.5q-24 0 -42.5 -9.5t-33 -24.5t-25 -34.5t-17.5 -40.5z" />
    <glyph glyph-name="p" unicode="p" horiz-adv-x="444" 
d="M-96 -226l7 20h55l139 579h-78l7 23h19q18 0 53.5 3t73.5 7l-16 -59l2 -2q22 26 46.5 43.5t63.5 17.5q16 0 38.5 -6.5t42 -24.5t33.5 -49t14 -80q0 -43 -18.5 -88.5t-49.5 -83t-70.5 -61.5t-82.5 -24q-28 0 -52 11.5t-36 39.5h-2l-59 -246h73l-7 -20h-196zM139 234
q-5 -16 -10 -36t-9.5 -40.5t-7.5 -40.5t-3 -36q0 -28 17.5 -50t46.5 -22q22 0 38 5t29 18.5t24.5 36.5t24.5 59q23 63 31 104t8 70q0 38 -14 61t-54 23q-27 0 -47 -15.5t-34.5 -38.5t-24 -49.5t-15.5 -48.5z" />
    <glyph glyph-name="q" unicode="q" horiz-adv-x="444" 
d="M249 41l-2 2q-17 -27 -46 -40.5t-61 -13.5t-56 11t-41 30.5t-25.5 46t-8.5 57.5q0 42 20.5 89.5t53.5 88t74.5 67.5t83.5 27q31 0 54 -14.5t31 -46.5h2l15 51h70l-158 -602h69l-7 -20h-206l7 20h67zM180 352q-13 -14 -28 -42.5t-28.5 -64.5t-23.5 -75.5t-13 -75.5
q-2 -25 4 -41.5t15 -26t20 -13.5t19 -4q42 0 67 24.5t42 61.5q7 16 17.5 42t19.5 55t15.5 59.5t6.5 55.5q0 34 -15.5 56.5t-49.5 22.5q-23 0 -37 -7.5t-31 -26.5z" />
    <glyph glyph-name="r" unicode="r" horiz-adv-x="333" 
d="M108 373h-79l7 23h19q10 0 27 1t36 2.5l38 3t33 3.5l-25 -100l2 -1q9 17 21.5 35t28.5 32.5t34.5 24t38.5 9.5q17 0 31.5 -10t14.5 -30q0 -17 -11.5 -28.5t-28.5 -11.5q-11 0 -18.5 4t-14 9.5t-12.5 9.5t-12 4q-8 0 -21.5 -12.5t-28.5 -34.5t-29.5 -52.5t-23.5 -66.5
l-47 -187h-72z" />
    <glyph glyph-name="s" unicode="s" horiz-adv-x="333" 
d="M108 -11q-38 0 -60.5 9t-35.5 22t-17 26t-4 21q0 18 8.5 33t28.5 15q15 0 26.5 -10.5t11.5 -27.5q0 -14 -7.5 -26.5t-7.5 -18.5q0 -7 5.5 -11.5t13.5 -7t16.5 -3.5t14.5 -1q52 0 73.5 18.5t21.5 50.5q0 25 -20 48.5t-43.5 49t-43.5 55t-20 66.5q0 28 11.5 48.5t29.5 34
t41 20t47 6.5q10 0 24.5 -3t28 -10.5t22.5 -19.5t9 -31q0 -18 -9.5 -27.5t-25.5 -9.5t-24 9t-8 21q0 6 3 15t3 15q0 14 -12 17.5t-24 3.5q-25 0 -43.5 -13.5t-18.5 -42.5q0 -17 10 -31.5t26.5 -31t37.5 -36.5t42 -47q11 -14 15 -32.5t3 -38.5q0 -9 -6 -29.5t-22.5 -41.5
t-45.5 -37t-75 -16z" />
    <glyph glyph-name="t" unicode="t" horiz-adv-x="278" 
d="M170 373l-73 -288q-5 -17 -8 -27.5t-3 -15.5q0 -23 20 -23q16 0 32.5 11t30.5 29.5t26 43.5t20 52l19 -7q-7 -28 -20.5 -56t-33.5 -51t-45.5 -37.5t-55.5 -14.5q-21 0 -42.5 12t-21.5 38q0 11 5 26.5t11 41.5l67 266h-68l7 23h68l29 109h72l-29 -109h77l-7 -23h-77z" />
    <glyph glyph-name="u" unicode="u" 
d="M33 373l7 23h19q10 0 27 1t36 2.5l38 3t33 3.5l-72 -297q-2 -11 -7 -26t-5 -29q0 -11 4.5 -18t11 -11t13 -5t10.5 -1q23 0 46 12t43 33t35.5 49.5t24.5 61.5l57 221h71l-44 -168q-4 -17 -11 -43.5l-14 -53t-12 -47.5t-5 -27q0 -13 5.5 -23.5t20.5 -10.5q18 0 33.5 13.5
t27.5 32t20.5 39.5t14.5 36l18 -6q-8 -26 -20 -52t-29 -48t-39.5 -35.5t-52.5 -13.5q-41 0 -55.5 26t-8.5 61l-3 2q-11 -18 -27 -34t-35 -28t-40.5 -19.5t-43.5 -7.5q-16 0 -31.5 3.5t-27.5 11.5t-19 21t-7 33q0 4 2 12.5t5 19.5t6 23.5t6 24.5l55 235h-81z" />
    <glyph glyph-name="v" unicode="v" horiz-adv-x="389" 
d="M-14 253q9 24 22 50.5t30.5 49.5t40 38t50.5 15q24 0 40.5 -13.5t16.5 -42.5q0 -5 -6 -28.5t-15.5 -55.5t-20 -69t-20 -69.5t-15.5 -55.5t-6 -27q0 -21 12.5 -26t26.5 -5q27 0 51.5 16t45.5 42t38 58t29 64t18.5 60t6.5 47q0 16 -8 23t-17.5 12t-17.5 12.5t-8 24.5
q0 14 10 23.5t24 9.5q21 0 33 -18.5t12 -50.5q0 -23 -6 -58t-18.5 -73.5t-31.5 -77.5t-45.5 -69.5t-60 -50t-74.5 -19.5q-15 0 -30 3.5t-27 11.5t-20 20.5t-8 30.5q0 7 5.5 31.5t14.5 57.5t18.5 69t18.5 67t14.5 52t5.5 23q0 7 -5 13t-13 6q-12 0 -25.5 -14.5t-26.5 -34.5
t-23 -40t-15 -32h-21z" />
    <glyph glyph-name="w" unicode="w" horiz-adv-x="611" 
d="M-3 266q7 23 20.5 47.5t31.5 45t40.5 34t48.5 13.5q53 0 53 -53q0 -8 -6 -34.5t-14.5 -61t-18.5 -72.5t-18.5 -70t-14.5 -54t-6 -23q1 -8 5.5 -15t14.5 -7q23 0 41.5 22t35.5 47q45 66 77.5 148t57.5 163h69q-8 -33 -20 -72.5t-23 -80.5t-19 -81.5t-8 -75.5
q0 -26 7 -46.5t36 -20.5q21 0 41 18t37 46.5t31.5 62.5t24.5 66t15.5 57.5t5.5 36.5q0 13 -7 18t-16 9t-16 11.5t-7 27.5q0 17 12 25.5t27 8.5t24.5 -17.5t9.5 -40.5q0 -29 -6.5 -67.5t-19 -78t-30.5 -78t-41 -68.5t-50.5 -48.5t-59.5 -18.5q-25 0 -41 10t-25.5 25t-13 33
t-3.5 34q0 4 0.5 14t1.5 21t2.5 23t2.5 21l-2 1q-28 -56 -51.5 -91.5t-45 -55.5t-41.5 -27.5t-41 -7.5q-26 0 -42.5 16.5t-16.5 41.5q0 2 5.5 25t14 56.5t18.5 72t18.5 73t14 60t5.5 31.5q0 1 -5 5t-9 4q-12 0 -25.5 -12.5t-26 -29.5t-22.5 -35.5t-14 -30.5h-23z" />
    <glyph glyph-name="x" unicode="x" horiz-adv-x="444" 
d="M398 154q-8 -25 -19.5 -54t-27 -53.5t-35.5 -41t-44 -16.5t-38 8.5t-22.5 23t-12.5 34t-7 40.5l-10 57l-74 -96q-8 -10 -16.5 -22t-19 -22t-22.5 -16.5t-27 -6.5q-19 0 -31 9.5t-12 29.5t9.5 29.5t24.5 9.5q9 0 15.5 -4.5t12 -10l10 -10t9.5 -4.5t11.5 6t9.5 10l95 127
l-14 88q-10 55 -18 74.5t-18 19.5q-14 0 -26.5 -16t-23 -37t-19.5 -42t-15 -30l-21 8q9 16 21.5 43t28 53t34.5 45t42 19q40 0 56.5 -36t28.5 -107q10 12 27 36t37 48t40 41.5t36 17.5q14 0 25.5 -9t11.5 -26q0 -16 -11 -26t-25 -10q-10 0 -20.5 7.5t-15.5 7.5q-8 0 -22 -15
t-29 -35.5t-28.5 -41t-19.5 -31.5l26 -138q5 -32 10.5 -47t19.5 -15q13 0 26.5 16.5t25 38.5t20 44t12.5 33z" />
    <glyph glyph-name="y" unicode="y" horiz-adv-x="444" 
d="M9 249q8 20 19.5 47t27 51.5t35.5 41.5t46 17q15 0 27 -4.5t22.5 -18.5t19 -40t14.5 -70l25 -159h2l76 166q15 33 26.5 57t21.5 39t20 22.5t22 7.5q34 0 34 -35q0 -11 -8.5 -19.5t-19.5 -8.5q-10 0 -14.5 2t-7 4.5t-5 4.5t-7.5 2q-4 0 -13.5 -18t-23.5 -48.5t-31 -69.5
t-34.5 -80l-35 -82t-31.5 -74q-27 -62 -54.5 -102.5t-52.5 -64.5t-46.5 -34t-35.5 -10q-20 0 -34.5 8.5t-14.5 31.5q0 11 8.5 22t22.5 11q7 0 14 -5t14 -11.5t13 -11.5t12 -5q8 0 20.5 10t26.5 26t27.5 36t24 40.5t17.5 39t7 31.5q0 5 -2.5 24.5t-6 47.5t-8 61t-8.5 64
t-8 56.5t-6 39.5q-1 7 -2.5 20t-5 26t-10 22.5t-17.5 9.5q-15 0 -27.5 -15.5t-23 -36.5t-18.5 -42t-13 -31z" />
    <glyph glyph-name="z" unicode="z" horiz-adv-x="333" 
d="M48 280l-19 10l66 116q18 -6 44.5 -13.5t54.5 -12.5t54 -7t42 1q-2 12 4.5 22t18.5 10q8 0 12.5 -6t4.5 -12q0 -5 -5 -13.5t-11.5 -17.5t-13.5 -17.5t-11 -12.5l-237 -239q19 -1 45.5 -8.5t53 -16.5t48 -16.5t32.5 -7.5t18 6t7 14t-7.5 10.5t-16.5 4.5t-16.5 7.5
t-7.5 19.5t10.5 21.5t23.5 7.5q20 0 29 -17.5t9 -35.5q0 -24 -9.5 -41t-24.5 -27.5t-34 -15t-39 -4.5q-18 0 -40.5 5.5t-46 13t-45.5 15.5t-40 13q0 -5 -0.5 -13t-3 -15t-6.5 -12t-12 -5q-17 0 -17 19q0 13 8.5 24t24.5 27l251 260l-2 2q-21 -3 -49 -3q-30 0 -59.5 4
t-55.5 14z" />
    <glyph glyph-name="braceleft" unicode="{" horiz-adv-x="333" 
d="M157 -209q-63 0 -88 18.5t-25 66.5q0 45 10 86.5t21 79.5q12 38 21.5 72t9.5 63q0 25 -12 38t-35 19q22 6 39 15.5t32.5 35.5t31 75.5t34.5 137.5q10 48 27.5 82t39 55.5t47 31t52.5 9.5h27l-3 -12q-25 -8 -43 -17.5t-32.5 -31.5t-27.5 -62.5t-27 -109.5
q-12 -61 -27 -98.5t-32.5 -59.5t-38.5 -32.5t-45 -17.5l-1 -2q27 -5 43.5 -25t16.5 -51q0 -23 -10 -65.5t-22 -86.5l-22 -82.5t-10 -53.5q0 -21 12.5 -41t39.5 -25z" />
    <glyph glyph-name="bar" unicode="|" horiz-adv-x="222" 
d="M140 750v-1000h-58v1000h58z" />
    <glyph glyph-name="braceright" unicode="}" horiz-adv-x="333" 
d="M176 676q63 0 88 -18.5t25 -65.5q0 -45 -9.5 -87t-21.5 -80q-11 -38 -21 -72t-10 -63q0 -25 12 -38t35 -18q-22 -7 -39 -16t-32.5 -35.5t-31 -76t-34.5 -137.5q-11 -48 -28 -82t-38.5 -55.5t-47 -31t-52.5 -9.5h-27l3 12q25 8 43 17.5t32.5 31.5t27.5 62.5t27 109.5
q12 61 27 98.5t32.5 60t38.5 33t45 17.5l1 2q-27 5 -43.5 24.5t-16.5 50.5q0 24 10 66t22 86l22 82.5t10 53.5q0 21 -12.5 41t-39.5 25z" />
    <glyph glyph-name="asciitilde" unicode="~" horiz-adv-x="550" 
d="M506 268q-11 -17 -23.5 -33t-27 -28.5t-33 -20.5t-41.5 -8q-28 0 -52.5 10.5t-49.5 24.5q-24 14 -52 25t-63 11q-33 0 -52.5 -23.5t-31.5 -51.5l-36 44q8 16 19.5 32t26.5 29t34.5 20.5t44.5 7.5q26 0 54 -9.5t57 -23.5q28 -13 55 -25t47 -12q30 0 50.5 23.5t37.5 51.5z
" />
    <glyph glyph-name="uni00A0" unicode="&#xa0;" horiz-adv-x="250" 
 />
    <glyph glyph-name="exclamdown" unicode="&#xa1;" horiz-adv-x="389" 
d="M236 268q-18 -67 -28.5 -112t-16 -83.5t-8 -76.5t-5.5 -92q-3 -57 -20.5 -90t-53.5 -33q-14 0 -29.5 13t-15.5 45q0 20 5.5 37.5t15 37.5t23.5 47.5t30.5 68.5t36 98.5t40.5 139.5h26zM200 416q0 24 16.5 40.5t39.5 16.5t39 -16.5t16 -40.5q0 -23 -16 -39.5t-39 -16.5
t-39.5 16.5t-16.5 39.5z" />
    <glyph glyph-name="cent" unicode="&#xa2;" 
d="M366 96q-14 -21 -30.5 -40t-36 -34t-42.5 -24t-49 -9q-23 0 -39 4l-70 -127h-33l74 136q-25 10 -42 26.5t-27.5 35t-15.5 37t-5 33.5q0 51 21 99.5t55 86.5t77.5 61t88.5 23q34 0 60 -15l64 116h35l-75 -136q19 -21 19 -51q0 -17 -11.5 -32t-28.5 -15q-16 0 -28 9
l-144 -262q13 -5 25 -5q25 0 45 8t37 21t31.5 30t28.5 36zM318 327q8 13 17 19.5t9 14.5q0 6 -5.5 10.5t-13 7.5t-16 4t-13.5 1q-29 0 -50 -11.5t-35.5 -29t-24.5 -37t-16 -35.5q-20 -55 -30.5 -97t-10.5 -80q0 -41 27 -63z" />
    <glyph glyph-name="sterling" unicode="&#xa3;" 
d="M357 383l-7 -25h-112q-5 -60 -17.5 -105.5t-29.5 -80t-37 -59t-39 -40.5l2 -2q26 9 54 14t58 5q12 0 24 -2t23 -4q11 -3 23 -5t23 -2q26 0 42.5 10.5t26.5 27t15 38t8 43.5h21q-4 -36 -11 -73t-22.5 -66.5t-42.5 -48.5t-71 -19q-24 0 -43.5 10t-36 22t-31.5 22t-32 10
q-19 0 -31 -10t-22 -21q-10 -12 -20 -21.5t-24 -9.5q-12 0 -18.5 7.5t-6.5 19.5q0 9 7 18.5t16.5 17t18.5 13.5t13 9q14 10 26.5 23t22 33.5t15 49.5t5.5 71v105h-105l7 25h100q6 43 23.5 91t46 89t67 68t86.5 27q40 0 70 -23.5t30 -68.5q0 -24 -12 -42t-38 -18
q-15 0 -26.5 10.5t-11.5 24.5q0 20 6.5 30.5t14 16.5t14 10t6.5 10q0 7 -7 12.5t-16 9.5t-17.5 6t-11.5 2q-29 0 -51.5 -10.5t-39.5 -36.5q-10 -16 -17 -39t-11.5 -50t-7.5 -57.5t-5 -61.5h116z" />
    <glyph glyph-name="currency" unicode="&#xa4;" 
d="M90 182q-21 26 -33 59t-12 70t12 70t32 60l-97 97l41 41l97 -97q27 21 60 32.5t70 11.5q38 0 71 -12t59 -32l97 97l41 -41l-97 -97q20 -27 32 -60t12 -70t-11.5 -70t-32.5 -60l97 -97l-41 -41l-98 98q-56 -45 -129 -45q-75 0 -129 45l-98 -98l-41 41zM103 311
q0 -33 12.5 -61.5t33.5 -49.5t49.5 -33.5t61.5 -12.5t61.5 12.5t49.5 33.5t33.5 49.5t12.5 61.5t-12.5 61.5t-33.5 49.5t-49.5 33.5t-61.5 12.5t-61.5 -12.5t-49.5 -33.5t-33.5 -49.5t-12.5 -61.5z" />
    <glyph glyph-name="yen" unicode="&#xa5;" 
d="M214 23h91l-7 -23h-256l7 23h82l39 145h-167l7 27h167l23 87l-7 26h-163l7 27h149l-75 287h-65l7 23h226l-7 -23h-83l78 -297l204 297h-73l7 23h157l-7 -23h-53l-194 -287h158l-7 -27h-169l-8 -12l-25 -101h182l-7 -27h-182z" />
    <glyph glyph-name="brokenbar" unicode="&#xa6;" horiz-adv-x="222" 
d="M140 675v-350h-58v350h58zM140 175v-350h-58v350h58z" />
    <glyph glyph-name="section" unicode="&#xa7;" 
d="M184 552q0 31 11.5 55.5t31 41t45 25.5t54.5 9q24 0 48.5 -5.5t43.5 -17.5t31 -32t12 -49q0 -23 -15.5 -38t-36.5 -15q-22 0 -34.5 14.5t-12.5 34.5q0 13 5.5 20t11.5 12t11.5 10.5t5.5 14.5q0 10 -7 16t-17 9.5t-20.5 4.5t-17.5 1q-40 0 -65 -23.5t-25 -64.5
q0 -25 10 -44.5t28 -41.5t43.5 -50.5t55.5 -71.5q22 -31 38.5 -69.5t15.5 -73.5q-1 -21 -9 -42.5t-22.5 -38.5t-34.5 -27.5t-44 -10.5q-20 0 -41 8l-2 -2q13 -17 25 -32.5t20 -31.5t13 -34t5 -42q0 -27 -13.5 -51t-34.5 -42t-47 -28.5t-51 -10.5q-39 0 -67 11t-45.5 27
t-25.5 35t-8 35q0 26 15.5 43t41.5 17q22 0 33.5 -11.5t11.5 -38.5q0 -15 -6.5 -23.5t-14 -14.5t-14 -10.5t-6.5 -11.5q0 -15 23 -26.5t54 -11.5q19 0 36.5 7t30.5 19.5t21 29.5t8 37q0 25 -14.5 50.5t-36.5 52t-47.5 54t-47.5 57.5t-36.5 62.5t-14.5 68.5q0 24 7.5 46
t22 39.5t34.5 28t45 10.5q27 0 50 -10l2 2q-11 14 -23 30.5t-22 34.5t-16 36.5t-6 37.5zM256 388q-15 8 -25.5 9t-23.5 1q-24 0 -42 -19t-18 -43q0 -15 3 -29t9.5 -29t18.5 -32t30 -39q19 -23 33 -38t25.5 -24t22 -13t24.5 -4q6 0 17 4t21.5 12.5t18.5 22t7 33.5
q-1 26 -14.5 54.5t-32 55t-39 47t-35.5 31.5z" />
    <glyph glyph-name="dieresis" unicode="&#xa8;" horiz-adv-x="278" 
d="M98 456q-19 0 -32 13t-13 32q0 18 13 31.5t32 13.5q18 0 31.5 -13.5t13.5 -31.5q0 -19 -13.5 -32t-31.5 -13zM298 456q-19 0 -32 13t-13 32q0 18 13 31.5t32 13.5q18 0 31.5 -13.5t13.5 -31.5q0 -19 -13.5 -32t-31.5 -13z" />
    <glyph glyph-name="copyright" unicode="&#xa9;" horiz-adv-x="800" 
d="M423 -15q-75 0 -139 27.5t-111.5 74.5t-74.5 110t-27 135t27 136t74.5 112t111.5 75.5t139 27.5t139.5 -27.5t111.5 -75t74 -111.5t27 -137q0 -72 -27 -135t-74 -110t-111.5 -74.5t-139.5 -27.5zM423 24q64 0 118 25t93.5 67.5t61.5 98.5t22 117q0 62 -22 118.5
t-61.5 99.5t-93.5 68.5t-118 25.5q-63 0 -117 -25.5t-93.5 -68.5t-61.5 -99.5t-22 -118.5q0 -61 22.5 -117t61.5 -98.5t93 -67.5t117 -25zM593 247l-17 -70q0 -8 -7 -11.5t-18 -7.5q-16 -5 -43.5 -11t-62.5 -6q-44 0 -83.5 11t-69.5 35.5t-48 62.5t-18 92q0 31 14 65.5
t42 63.5t70 48t98 19q40 0 62.5 -7t42.5 -13q21 -7 21 -21v-71h-15q-2 16 -8 32.5t-19.5 29.5t-34.5 21.5t-52 8.5q-37 0 -63.5 -13t-43.5 -36t-25.5 -54.5t-8.5 -68.5q0 -40 8 -74t25.5 -58.5t46 -38.5t68.5 -14q26 0 46 7t35 19t25 27.5t17 32.5h16z" />
    <glyph glyph-name="ordfeminine" unicode="&#xaa;" horiz-adv-x="300" 
d="M339 652l-62 -192q-4 -11 1.5 -15.5t11.5 -4.5q7 0 17 7.5t19 18t16 22t9 19.5l20 -3q-19 -48 -45 -67.5t-59 -19.5q-19 0 -32 10.5t-14 27.5h-1q-13 -17 -34.5 -27.5t-50.5 -10.5q-38 0 -60.5 25t-22.5 64q0 25 14 51.5t37.5 49t53 37t60.5 14.5q20 0 32.5 -9.5
t19.5 -25.5h1l11 29h58zM153 592q-6 -11 -13 -26t-12 -31.5t-8.5 -32.5t-3.5 -28q0 -15 9.5 -27.5t23.5 -12.5q6 0 15 2t19.5 9t21.5 20t20 35q4 10 9 24t9 28t7 28t3 26q0 14 -9.5 24.5t-21.5 10.5q-26 0 -42 -15t-27 -34z" />
    <glyph glyph-name="guillemotleft" unicode="&#xab;" 
d="M281 217q7 -13 19.5 -35t24.5 -43.5t20.5 -39t8.5 -20.5q0 -2 -2 -4t-4 -2q-4 0 -8.5 4t-14 16t-28 34.5t-51.5 59.5q-24 27 -24 32t17.5 16.5t40.5 31.5q31 23 52.5 41.5t35 31.5t21 20t11.5 7q8 0 8 -7q0 -10 -12.5 -26.5t-31.5 -36.5t-41.5 -41t-41.5 -39zM149 217
q7 -13 19.5 -35t24.5 -43.5t20.5 -39t8.5 -20.5q0 -2 -2 -4t-4 -2q-4 0 -8.5 4t-14 16t-28 34.5t-51.5 59.5q-24 27 -24 32t17.5 16.5t40.5 31.5q31 23 52.5 41.5t35 31.5t21 20t11.5 7q8 0 8 -7q0 -10 -12.5 -26.5t-31.5 -36.5t-41.5 -41t-41.5 -39z" />
    <glyph glyph-name="logicalnot" unicode="&#xac;" horiz-adv-x="550" 
d="M449 316h-406v58h464v-283h-58v225z" />
    <glyph glyph-name="uni00AD" unicode="&#xad;" horiz-adv-x="333" 
d="M276 248l-15 -60h-238l15 60h238z" />
    <glyph glyph-name="registered" unicode="&#xae;" horiz-adv-x="800" 
d="M423 -15q-75 0 -139 27.5t-111.5 74.5t-74.5 110t-27 135t27 136t74.5 112t111.5 75.5t139 27.5t139.5 -27.5t111.5 -75t74 -111.5t27 -137q0 -72 -27 -135t-74 -110t-111.5 -74.5t-139.5 -27.5zM423 24q64 0 118 25t93.5 67.5t61.5 98.5t22 117q0 62 -22 118.5
t-61.5 99.5t-93.5 68.5t-118 25.5q-63 0 -117 -25.5t-93.5 -68.5t-61.5 -99.5t-22 -118.5q0 -61 22.5 -117t61.5 -98.5t93 -67.5t117 -25zM261 526h174q23 0 45 -5.5t38.5 -17t26.5 -29.5t10 -42q0 -40 -24 -66.5t-59 -39.5l59 -80q20 -28 42 -52.5t38 -33.5v-9h-59
q-13 0 -25 11.5t-26 33t-32.5 51.5t-44.5 67h-53v-97q0 -18 0.5 -27t5 -13.5t14.5 -6t30 -3.5v-16h-160v16q19 2 29 3.5t14.5 6t5 13.5t0.5 27v243q0 18 -0.5 27t-5 13.5t-14.5 6.5t-29 4v15zM371 335h47q38 0 57 25t19 69q0 43 -23.5 60t-55.5 17h-44v-171z" />
    <glyph glyph-name="macron" unicode="&#xaf;" horiz-adv-x="278" 
d="M350 478h-274l8 49h274z" />
    <glyph glyph-name="degree" unicode="&#xb0;" horiz-adv-x="400" 
d="M235 372q-30 0 -56 11t-45.5 30.5t-30.5 45.5t-11 56t11 56t30.5 45.5t45.5 30.5t56 11t56 -11t45.5 -30.5t30.5 -45.5t11 -56t-11 -56t-30.5 -45.5t-45.5 -30.5t-56 -11zM235 404q22 0 41.5 9t33.5 24.5t22.5 35.5t8.5 42t-8.5 42t-22.5 35.5t-33.5 24.5t-41.5 9
t-41.5 -9t-33.5 -24.5t-22.5 -35.5t-8.5 -42t8.5 -42t22.5 -35.5t33.5 -24.5t41.5 -9z" />
    <glyph glyph-name="plusminus" unicode="&#xb1;" horiz-adv-x="550" 
d="M246 486h58v-162h203v-58h-203v-162h-58v162h-203v58h203v162zM43 0v58h464v-58h-464z" />
    <glyph glyph-name="uni00B2" unicode="&#xb2;" horiz-adv-x="300" 
d="M7 293q32 27 75 57t82 64t66.5 72t27.5 80q0 35 -16 53.5t-54 18.5q-14 0 -28 -4.5t-25 -11.5t-18 -16t-7 -19q0 -6 3.5 -10.5t9.5 -4.5q14 0 24 -7t10 -19q0 -14 -8 -23.5t-23 -9.5q-21 0 -35.5 16t-14.5 40q0 18 9.5 34t27.5 28t43.5 19.5t57.5 7.5q21 0 43 -5.5
t39 -16.5t28 -28t11 -41q0 -41 -31 -77.5t-73.5 -68.5t-85.5 -58.5t-67 -47.5l1 -2h145q18 0 27.5 11.5t16.5 35.5h22l-33 -97h-250v30z" />
    <glyph glyph-name="uni00B3" unicode="&#xb3;" horiz-adv-x="300" 
d="M119 255q-17 0 -35.5 4t-34 13t-25.5 23.5t-10 35.5q0 14 12.5 28t32.5 14q6 0 17.5 -8t11.5 -22q0 -12 -6 -17.5t-13 -7.5t-13 -4t-6 -7l2.5 -5.5t10.5 -11.5t23.5 -11t42.5 -5q40 0 70 33t30 91q0 36 -22.5 51.5t-56.5 15.5l-28 -4q-12 0 -12 16q0 13 15 13
q4 0 11.5 -1.5t15.5 -1.5q29 0 50 9.5t34 24.5t19 33t6 35q0 51 -49 51q-21 0 -39.5 -7.5t-18.5 -15.5q0 -5 5.5 -8t5.5 -18q0 -12 -7.5 -21.5t-23.5 -9.5q-13 0 -22 11.5t-9 27.5q0 8 6.5 18t20 19t34 15t49.5 6q18 0 39 -4.5t38 -14.5t28.5 -24.5t11.5 -35.5
q0 -24 -12.5 -42t-31 -30.5t-41 -19.5t-43.5 -9v-2q19 -5 37.5 -13t32 -19.5t22 -28t8.5 -37.5q0 -15 -7.5 -36t-28 -40t-56 -32.5t-91.5 -13.5z" />
    <glyph glyph-name="acute" unicode="&#xb4;" horiz-adv-x="278" 
d="M145 438q24 22 51.5 51t53 54.5t46 43t29.5 17.5q17 0 27 -9t10 -23q0 -15 -11.5 -23.5t-19.5 -13.5l-155 -97h-31z" />
    <glyph glyph-name="mu" unicode="&#xb5;" 
d="M33 373l7 23h19q10 0 27 1t36 2.5l38 3t33 3.5l-72 -297q-2 -11 -7 -26t-5 -29q0 -11 4.5 -18t11 -11t13 -5t10.5 -1q23 0 46 12t43 33t35.5 49.5t24.5 61.5l57 221h71l-44 -168q-4 -17 -11 -43.5l-14 -53t-12 -47.5t-5 -27q0 -13 5.5 -23.5t20.5 -10.5q18 0 33.5 13.5
t27.5 32t20.5 39.5t14.5 36l18 -6q-8 -26 -20 -52t-29 -48t-39.5 -35.5t-52.5 -13.5q-41 0 -55.5 26t-8.5 61l-3 2q-11 -18 -27 -34t-35 -28t-40.5 -19.5t-43.5 -7.5q-15 0 -29.5 3t-26.5 10q-7 -9 -11.5 -18t-4.5 -19q0 -17 6.5 -32.5t14.5 -30.5t14.5 -29.5t6.5 -28.5
q0 -13 -1.5 -25.5t-7 -22.5t-16 -16.5t-27.5 -6.5q-13 0 -21 8t-12.5 19t-6.5 24t-2 22q0 30 4.5 59t12.5 63t18.5 75t22.5 95l55 235h-81z" />
    <glyph glyph-name="paragraph" unicode="&#xb6;" horiz-adv-x="600" 
d="M394 -196l-6 -23h-341l6 23h82l117 445q-40 0 -70 10.5t-50 29t-31 43.5t-12 54q-1 28 3.5 60t16 63.5t32.5 60t52.5 50.5t76 35t103.5 13h248l-6 -23h-82l-221 -841h82zM193 -196h61l221 841h-61zM356 645q-37 3 -65 -14.5t-48 -46.5t-33 -65.5t-20.5 -70t-10.5 -60.5
t-3 -37q0 -38 18.5 -58.5t63.5 -20.5z" />
    <glyph glyph-name="periodcentered" unicode="&#xb7;" horiz-adv-x="250" 
d="M65 233q0 25 17 42t42 17t42.5 -17t17.5 -42t-17.5 -41.5t-42.5 -16.5t-42 16.5t-17 41.5z" />
    <glyph glyph-name="cedilla" unicode="&#xb8;" horiz-adv-x="278" 
d="M58 0h36l-44 -65q15 3 29 3q33 0 54.5 -19.5t21.5 -53.5q0 -19 -10 -34t-27 -25t-40 -15t-49 -5q-22 0 -43.5 5.5t-40.5 15.5l19 26q27 -14 61 -14q35 0 48 14t13 31t-12.5 28.5t-37.5 11.5q-8 0 -16.5 -2.5t-16.5 -4.5l-7 10z" />
    <glyph glyph-name="uni00B9" unicode="&#xb9;" horiz-adv-x="300" 
d="M37 263l4 20h65l86 299q3 9 5.5 19t2.5 21q0 6 -12.5 7t-23.5 1h-34l5 20h26q38 2 69 4t51 4l-106 -375h73l-5 -20h-206z" />
    <glyph glyph-name="ordmasculine" unicode="&#xba;" horiz-adv-x="266" 
d="M55 502q0 29 13 57t35.5 50t53 35.5t65.5 13.5q49 0 77 -27.5t28 -64.5q0 -25 -12.5 -51.5t-34.5 -48t-51.5 -35.5t-62.5 -14q-29 0 -50 8t-34.5 20t-20 27t-6.5 30zM259 599q0 42 -42 42q-26 0 -44 -17t-27 -40q-3 -8 -7.5 -22.5t-9 -30.5t-7.5 -31t-3 -23
q0 -20 13 -31.5t32 -11.5q28 0 44 17t26 41q11 26 18 53t7 54z" />
    <glyph glyph-name="guillemotright" unicode="&#xbb;" 
d="M346 223q-7 13 -19.5 35t-24.5 43.5t-20.5 39t-8.5 20.5q0 2 2 4t4 2q4 0 8.5 -4t14 -16t28 -34.5t51.5 -59.5q24 -27 24 -32t-17.5 -16.5t-40.5 -31.5q-32 -23 -53 -41.5t-34.5 -31.5t-21 -20t-11.5 -7q-8 0 -8 7q0 10 12.5 26.5t31.5 36.5t41.5 41t41.5 39zM214 223
q-7 13 -19.5 35t-24.5 43.5t-20.5 39t-8.5 20.5q0 2 2 4t4 2q4 0 8.5 -4t14 -16t28 -34.5t51.5 -59.5q24 -27 24 -32t-17.5 -16.5t-40.5 -31.5q-32 -23 -53 -41.5t-34.5 -31.5t-21 -20t-11.5 -7q-8 0 -8 7q0 10 12.5 26.5t31.5 36.5t41.5 41t41.5 39z" />
    <glyph glyph-name="onequarter" unicode="&#xbc;" horiz-adv-x="778" 
d="M509 0l5 20h46l25 81h-165v22q24 31 60.5 70.5t74.5 78.5t73 72t55 50h51l-77 -271h50l11 38h21l-27 -102h-22l12 42h-49l-25 -81h49l-5 -20h-163zM654 658l-453 -669h-50l453 669h50zM69 263l4 20h65l86 299q3 9 5.5 19t2.5 21q0 6 -12.5 7t-23.5 1h-34l5 20h26
q38 2 69 4t51 4l-106 -375h73l-5 -20h-206zM647 327l-2 2q-47 -44 -98 -96.5t-98 -109.5h141z" />
    <glyph glyph-name="onehalf" unicode="&#xbd;" horiz-adv-x="778" 
d="M420 30q32 27 75 57t82 64t66.5 72t27.5 80q0 35 -16 53t-54 18q-14 0 -28 -4.5t-25 -11.5t-18 -16t-7 -18q0 -6 3.5 -10.5t9.5 -4.5q14 0 24 -7t10 -19q0 -14 -8 -23.5t-23 -9.5q-21 0 -35.5 16t-14.5 40q0 18 9.5 34t27.5 28t43.5 19.5t57.5 7.5q21 0 43 -5.5t39 -16.5
t28 -28t11 -41q0 -41 -31 -77.5t-73.5 -68.5t-85.5 -58.5t-67 -47.5l1 -2h145q18 0 27.5 11t16.5 35h22l-33 -96h-250v30zM645 658l-453 -669h-50l453 669h50zM60 263l4 20h65l86 299q3 9 5.5 19t2.5 21q0 6 -12.5 7t-23.5 1h-34l5 20h26q38 2 69 4t51 4l-106 -375h73
l-5 -20h-206z" />
    <glyph glyph-name="threequarters" unicode="&#xbe;" horiz-adv-x="778" 
d="M520 0l5 20h46l25 81h-165v22q24 31 60.5 70.5t74.5 78.5t73 72t55 50h51l-77 -271h50l11 38h21l-27 -102h-22l12 42h-49l-25 -81h49l-5 -20h-163zM162 255q-17 0 -35.5 4t-34 13t-25.5 23.5t-10 35.5q0 14 12.5 28t32.5 14q6 0 17.5 -8t11.5 -22q0 -12 -6 -17.5
t-13 -7.5t-13 -4t-6 -7l2.5 -5.5t10.5 -11.5t23.5 -11t42.5 -5q40 0 70 33t30 91q0 36 -22.5 51.5t-56.5 15.5l-28 -4q-12 0 -12 16q0 13 15 13q4 0 11.5 -1.5t15.5 -1.5q29 0 50 9.5t34 24.5t19 33t6 35q0 51 -49 51q-21 0 -39.5 -7.5t-18.5 -15.5q0 -5 5.5 -8t5.5 -18
q0 -12 -7.5 -21.5t-23.5 -9.5q-13 0 -22 11.5t-9 27.5q0 8 6.5 18t20 19t34 15t49.5 6q18 0 39 -4.5t38 -14.5t28.5 -24.5t11.5 -35.5q0 -24 -12.5 -42t-31 -30.5t-41 -19.5t-43.5 -9v-2q19 -5 37.5 -13t32 -19.5t22 -28t8.5 -37.5q0 -15 -7.5 -36t-28 -40t-56 -32.5
t-91.5 -13.5zM695 658l-453 -669h-50l453 669h50zM658 327l-2 2q-47 -44 -98 -96.5t-98 -109.5h141z" />
    <glyph glyph-name="questiondown" unicode="&#xbf;" 
d="M330 268q-4 -56 -15.5 -91t-33 -60t-53 -44t-75.5 -43q-37 -20 -61 -45t-24 -71q0 -20 8.5 -40.5t24.5 -37t40 -27.5t56 -11q18 0 35 5t30.5 12.5t22 16t8.5 14.5q0 4 -6 8.5t-12.5 10t-12.5 14t-6 21.5q0 25 13 33t27 8q17 0 28.5 -13.5t11.5 -29.5q0 -20 -9.5 -41
t-27.5 -38.5t-44 -29t-60 -11.5t-63 11.5t-50 32.5t-32.5 50.5t-11.5 64.5q0 61 23.5 96.5t58.5 59.5t76 43.5t76 47.5q17 14 25.5 38.5t10.5 45.5h22zM294 416q0 24 16.5 40.5t39.5 16.5t39 -16.5t16 -40.5q0 -23 -16 -39.5t-39 -16.5t-39.5 16.5t-16.5 39.5z" />
    <glyph glyph-name="Agrave" unicode="&#xc0;" horiz-adv-x="556" 
d="M434 23h64l-7 -23h-227l7 23h68l-13 209h-188l-112 -209h78l-7 -23h-147l7 23h38l355 656h34zM307 541h-2l-153 -284h172zM379 705l-137 107q-9 7 -14 14.5t-5 18.5t10.5 20.5t20.5 9.5q17 0 28 -11.5t17 -19.5l109 -139h-29z" />
    <glyph glyph-name="Aacute" unicode="&#xc1;" horiz-adv-x="556" 
d="M434 23h64l-7 -23h-227l7 23h68l-13 209h-188l-112 -209h78l-7 -23h-147l7 23h38l355 656h34zM307 541h-2l-153 -284h172zM314 705q24 22 51.5 51t53 54.5t46 43t29.5 17.5q17 0 27 -9t10 -23q0 -15 -11.5 -23.5t-19.5 -13.5l-155 -97h-31z" />
    <glyph glyph-name="Acircumflex" unicode="&#xc2;" horiz-adv-x="556" 
d="M434 23h64l-7 -23h-227l7 23h68l-13 209h-188l-112 -209h78l-7 -23h-147l7 23h38l355 656h34zM307 541h-2l-153 -284h172zM414 872l88 -167h-32l-82 106l-136 -106h-37l161 167h38z" />
    <glyph glyph-name="Atilde" unicode="&#xc3;" horiz-adv-x="556" 
d="M434 23h64l-7 -23h-227l7 23h68l-13 209h-188l-112 -209h78l-7 -23h-147l7 23h38l355 656h34zM307 541h-2l-153 -284h172zM517 833q-5 -20 -12 -38t-19 -32.5t-28.5 -23t-39.5 -8.5q-14 0 -33.5 7t-39.5 16q-20 8 -38.5 15t-31.5 7q-23 0 -35.5 -14.5t-16.5 -32.5h-26
q3 18 10.5 36.5t19 33t28 23.5t37.5 9q19 0 39 -7t40 -15q20 -9 39 -16t34 -7q19 0 30 16t17 31h26z" />
    <glyph glyph-name="Adieresis" unicode="&#xc4;" horiz-adv-x="556" 
d="M434 23h64l-7 -23h-227l7 23h68l-13 209h-188l-112 -209h78l-7 -23h-147l7 23h38l355 656h34zM307 541h-2l-153 -284h172zM265 723q-19 0 -32 13t-13 32q0 18 13 31.5t32 13.5q18 0 31.5 -13.5t13.5 -31.5q0 -19 -13.5 -32t-31.5 -13zM465 723q-19 0 -32 13t-13 32
q0 18 13 31.5t32 13.5q18 0 31.5 -13.5t13.5 -31.5q0 -19 -13.5 -32t-31.5 -13z" />
    <glyph glyph-name="Aring" unicode="&#xc5;" horiz-adv-x="556" 
d="M434 23h64l-7 -23h-227l7 23h68l-13 209h-188l-112 -209h78l-7 -23h-147l7 23h38l355 656h34zM307 541h-2l-153 -284h172zM379 693q-41 0 -69 28t-28 69q0 20 7.5 37.5t20.5 31t31 21t38 7.5t37.5 -7.5t31 -21t21 -31t7.5 -37.5t-7.5 -38t-21 -31t-31 -20.5t-37.5 -7.5z
M379 857q-29 0 -48 -19.5t-19 -47.5q0 -29 19 -48t48 -19q28 0 47.5 19t19.5 48q0 28 -19.5 47.5t-47.5 19.5z" />
    <glyph glyph-name="AE" unicode="&#xc6;" horiz-adv-x="889" 
d="M-38 0l7 23h33l327 444q9 12 20 27.5t20.5 31t16 30t6.5 26.5q0 14 -3.5 25.5t-14.5 20t-31 13t-53 4.5l7 23h591l-39 -174h-25q4 23 4 46q0 28 -6.5 47.5t-23 32.5t-45 19t-73.5 6h-76l-72 -286q38 0 62.5 3.5t42 14.5t30 31.5t27.5 55.5h26l-66 -259h-25q3 27 3 48
q0 24 -4 38.5t-15 23t-32.5 12t-55.5 5.5l-79 -309h87q52 0 88.5 6.5t65 24.5t51.5 50.5t49 83.5h28l-58 -188h-485l7 23h72l53 211h-214l-155 -211h77l-7 -23h-143zM410 259l73 283q14 53 19.5 72.5t-5.5 19.5q-7 0 -12.5 -4t-13.5 -14.5t-19.5 -27.5t-30.5 -42l-211 -287
h200z" />
    <glyph glyph-name="Ccedilla" unicode="&#xc7;" horiz-adv-x="611" 
d="M593 661h18l-37 -178l-28 4q0 51 -10 84t-27.5 53t-41 28t-49.5 8q-42 0 -77.5 -26.5t-64 -70t-50 -98t-36 -110.5t-22 -108t-7.5 -90q0 -17 5 -42t19 -48t38 -39t62 -16q40 0 73 16t61 41.5t50 57.5t40 64l28 -8l-54 -183h-18l-19 39q-33 -27 -74.5 -40.5t-83.5 -13.5
q-20 0 -35 4l-36 -54q15 3 29 3q33 0 54.5 -19.5t21.5 -53.5q0 -19 -10 -34t-27 -25t-40 -15t-49 -5q-22 0 -43.5 5.5t-40.5 15.5l19 26q27 -14 61 -14q35 0 48 14t13 31t-12.5 28.5t-37.5 11.5q-8 0 -16.5 -2.5t-16.5 -4.5l-7 10l60 90q-36 10 -66.5 32t-52 52t-33.5 67
t-12 77q0 91 32.5 174t85 146t118.5 100.5t132 37.5q32 0 67.5 -14t59.5 -37z" />
    <glyph glyph-name="Egrave" unicode="&#xc8;" horiz-adv-x="611" 
d="M-4 0l7 23h56l157 622h-76l7 23h463l-39 -174h-25q4 23 4 46q0 28 -6.5 47.5t-23 32.5t-45 19t-73.5 6h-89l-72 -286q40 0 66 3.5t44 14.5t30.5 31.5t27.5 55.5h26l-66 -259h-25q3 27 3 48q0 24 -4 38.5t-16 23t-34 12t-59 5.5l-79 -309h101q52 0 88.5 6.5t65 24.5
t51.5 50.5t49 83.5h28l-58 -188h-484zM407 705l-137 107q-9 7 -14 14.5t-5 18.5t10.5 20.5t20.5 9.5q17 0 28 -11.5t17 -19.5l109 -139h-29z" />
    <glyph glyph-name="Eacute" unicode="&#xc9;" horiz-adv-x="611" 
d="M-4 0l7 23h56l157 622h-76l7 23h463l-39 -174h-25q4 23 4 46q0 28 -6.5 47.5t-23 32.5t-45 19t-73.5 6h-89l-72 -286q40 0 66 3.5t44 14.5t30.5 31.5t27.5 55.5h26l-66 -259h-25q3 27 3 48q0 24 -4 38.5t-16 23t-34 12t-59 5.5l-79 -309h101q52 0 88.5 6.5t65 24.5
t51.5 50.5t49 83.5h28l-58 -188h-484zM342 705q24 22 51.5 51t53 54.5t46 43t29.5 17.5q17 0 27 -9t10 -23q0 -15 -11.5 -23.5t-19.5 -13.5l-155 -97h-31z" />
    <glyph glyph-name="Ecircumflex" unicode="&#xca;" horiz-adv-x="611" 
d="M-4 0l7 23h56l157 622h-76l7 23h463l-39 -174h-25q4 23 4 46q0 28 -6.5 47.5t-23 32.5t-45 19t-73.5 6h-89l-72 -286q40 0 66 3.5t44 14.5t30.5 31.5t27.5 55.5h26l-66 -259h-25q3 27 3 48q0 24 -4 38.5t-16 23t-34 12t-59 5.5l-79 -309h101q52 0 88.5 6.5t65 24.5
t51.5 50.5t49 83.5h28l-58 -188h-484zM442 872l88 -167h-32l-82 106l-136 -106h-37l161 167h38z" />
    <glyph glyph-name="Edieresis" unicode="&#xcb;" horiz-adv-x="611" 
d="M-4 0l7 23h56l157 622h-76l7 23h463l-39 -174h-25q4 23 4 46q0 28 -6.5 47.5t-23 32.5t-45 19t-73.5 6h-89l-72 -286q40 0 66 3.5t44 14.5t30.5 31.5t27.5 55.5h26l-66 -259h-25q3 27 3 48q0 24 -4 38.5t-16 23t-34 12t-59 5.5l-79 -309h101q52 0 88.5 6.5t65 24.5
t51.5 50.5t49 83.5h28l-58 -188h-484zM293 723q-19 0 -32 13t-13 32q0 18 13 31.5t32 13.5q18 0 31.5 -13.5t13.5 -31.5q0 -19 -13.5 -32t-31.5 -13zM493 723q-19 0 -32 13t-13 32q0 18 13 31.5t32 13.5q18 0 31.5 -13.5t13.5 -31.5q0 -19 -13.5 -32t-31.5 -13z" />
    <glyph glyph-name="Igrave" unicode="&#xcc;" horiz-adv-x="333" 
d="M-9 0l7 23h54l166 622h-78l7 23h232l-7 -23h-57l-167 -622h75l-7 -23h-225zM268 705l-137 107q-9 7 -14 14.5t-5 18.5t10.5 20.5t20.5 9.5q17 0 28 -11.5t17 -19.5l109 -139h-29z" />
    <glyph glyph-name="Iacute" unicode="&#xcd;" horiz-adv-x="333" 
d="M-9 0l7 23h54l166 622h-78l7 23h232l-7 -23h-57l-167 -622h75l-7 -23h-225zM196 705q24 22 51.5 51t53 54.5t46 43t29.5 17.5q17 0 27 -9t10 -23q0 -15 -11.5 -23.5t-19.5 -13.5l-155 -97h-31z" />
    <glyph glyph-name="Icircumflex" unicode="&#xce;" horiz-adv-x="333" 
d="M-9 0l7 23h54l166 622h-78l7 23h232l-7 -23h-57l-167 -622h75l-7 -23h-225zM316 872l88 -167h-32l-82 106l-136 -106h-37l161 167h38z" />
    <glyph glyph-name="Idieresis" unicode="&#xcf;" horiz-adv-x="333" 
d="M-9 0l7 23h54l166 622h-78l7 23h232l-7 -23h-57l-167 -622h75l-7 -23h-225zM158 723q-19 0 -32 13t-13 32q0 18 13 31.5t32 13.5q18 0 31.5 -13.5t13.5 -31.5q0 -19 -13.5 -32t-31.5 -13zM358 723q-19 0 -32 13t-13 32q0 18 13 31.5t32 13.5q18 0 31.5 -13.5t13.5 -31.5
q0 -19 -13.5 -32t-31.5 -13z" />
    <glyph glyph-name="Eth" unicode="&#xd0;" horiz-adv-x="667" 
d="M135 645l7 23h243q67 0 115 -20.5t79 -56t45.5 -83.5t14.5 -103q0 -40 -10 -86t-30 -91t-49.5 -86.5t-69 -73t-88 -50t-106.5 -18.5h-293l7 23h57l78 309h-107l8 29h106l72 284h-79zM231 332l-79 -309h68q26 0 46.5 1t38.5 4t35 8t35 14q20 10 40.5 37t39 65t34.5 83
t28 90.5t18.5 87.5t6.5 74q0 88 -43.5 123t-134.5 35h-54l-72 -284h139l-8 -29h-138z" />
    <glyph glyph-name="Ntilde" unicode="&#xd1;" horiz-adv-x="667" 
d="M-6 0l7 23h57l158 622h-76l7 23h179l166 -500h2l119 477h-73l7 23h158l-7 -23h-57l-168 -660h-20l-211 642h-2l-154 -604h74l-7 -23h-159zM573 833q-5 -20 -12 -38t-19 -32.5t-28.5 -23t-39.5 -8.5q-14 0 -33.5 7t-39.5 16q-20 8 -38.5 15t-31.5 7q-23 0 -35.5 -14.5
t-16.5 -32.5h-26q3 18 10.5 36.5t19 33t28 23.5t37.5 9q19 0 39 -7t40 -15q20 -9 39 -16t34 -7q19 0 30 16t17 31h26z" />
    <glyph glyph-name="Ograve" unicode="&#xd2;" horiz-adv-x="667" 
d="M269 -15q-51 0 -90.5 20t-66.5 53t-41.5 76t-14.5 90q0 46 11.5 98t33.5 102.5t53.5 97t72.5 81.5t90 56t106 21q40 0 77.5 -14t66 -44.5t45.5 -79t17 -117.5q0 -22 -9 -63.5t-27.5 -90.5t-47 -99.5t-68.5 -92t-92 -68t-116 -26.5zM411 660q-54 0 -99 -38t-71 -104
q-26 -65 -43.5 -124t-28.5 -108t-16 -86.5t-5 -60.5q0 -59 30 -96.5t93 -37.5q25 0 47 5t42 19.5t39 39.5t39 64q31 62 49.5 128.5t28.5 122t12.5 93.5t2.5 44q0 27 -5 52.5t-18 44.5t-36.5 30.5t-60.5 11.5zM435 705l-137 107q-9 7 -14 14.5t-5 18.5t10.5 20.5t20.5 9.5
q17 0 28 -11.5t17 -19.5l109 -139h-29z" />
    <glyph glyph-name="Oacute" unicode="&#xd3;" horiz-adv-x="667" 
d="M269 -15q-51 0 -90.5 20t-66.5 53t-41.5 76t-14.5 90q0 46 11.5 98t33.5 102.5t53.5 97t72.5 81.5t90 56t106 21q40 0 77.5 -14t66 -44.5t45.5 -79t17 -117.5q0 -22 -9 -63.5t-27.5 -90.5t-47 -99.5t-68.5 -92t-92 -68t-116 -26.5zM411 660q-54 0 -99 -38t-71 -104
q-26 -65 -43.5 -124t-28.5 -108t-16 -86.5t-5 -60.5q0 -59 30 -96.5t93 -37.5q25 0 47 5t42 19.5t39 39.5t39 64q31 62 49.5 128.5t28.5 122t12.5 93.5t2.5 44q0 27 -5 52.5t-18 44.5t-36.5 30.5t-60.5 11.5zM370 705q24 22 51.5 51t53 54.5t46 43t29.5 17.5q17 0 27 -9
t10 -23q0 -15 -11.5 -23.5t-19.5 -13.5l-155 -97h-31z" />
    <glyph glyph-name="Ocircumflex" unicode="&#xd4;" horiz-adv-x="667" 
d="M269 -15q-51 0 -90.5 20t-66.5 53t-41.5 76t-14.5 90q0 46 11.5 98t33.5 102.5t53.5 97t72.5 81.5t90 56t106 21q40 0 77.5 -14t66 -44.5t45.5 -79t17 -117.5q0 -22 -9 -63.5t-27.5 -90.5t-47 -99.5t-68.5 -92t-92 -68t-116 -26.5zM411 660q-54 0 -99 -38t-71 -104
q-26 -65 -43.5 -124t-28.5 -108t-16 -86.5t-5 -60.5q0 -59 30 -96.5t93 -37.5q25 0 47 5t42 19.5t39 39.5t39 64q31 62 49.5 128.5t28.5 122t12.5 93.5t2.5 44q0 27 -5 52.5t-18 44.5t-36.5 30.5t-60.5 11.5zM470 872l88 -167h-32l-82 106l-136 -106h-37l161 167h38z" />
    <glyph glyph-name="Otilde" unicode="&#xd5;" horiz-adv-x="667" 
d="M269 -15q-51 0 -90.5 20t-66.5 53t-41.5 76t-14.5 90q0 46 11.5 98t33.5 102.5t53.5 97t72.5 81.5t90 56t106 21q40 0 77.5 -14t66 -44.5t45.5 -79t17 -117.5q0 -22 -9 -63.5t-27.5 -90.5t-47 -99.5t-68.5 -92t-92 -68t-116 -26.5zM411 660q-54 0 -99 -38t-71 -104
q-26 -65 -43.5 -124t-28.5 -108t-16 -86.5t-5 -60.5q0 -59 30 -96.5t93 -37.5q25 0 47 5t42 19.5t39 39.5t39 64q31 62 49.5 128.5t28.5 122t12.5 93.5t2.5 44q0 27 -5 52.5t-18 44.5t-36.5 30.5t-60.5 11.5zM573 833q-5 -20 -12 -38t-19 -32.5t-28.5 -23t-39.5 -8.5
q-14 0 -33.5 7t-39.5 16q-20 8 -38.5 15t-31.5 7q-23 0 -35.5 -14.5t-16.5 -32.5h-26q3 18 10.5 36.5t19 33t28 23.5t37.5 9q19 0 39 -7t40 -15q20 -9 39 -16t34 -7q19 0 30 16t17 31h26z" />
    <glyph glyph-name="Odieresis" unicode="&#xd6;" horiz-adv-x="667" 
d="M269 -15q-51 0 -90.5 20t-66.5 53t-41.5 76t-14.5 90q0 46 11.5 98t33.5 102.5t53.5 97t72.5 81.5t90 56t106 21q40 0 77.5 -14t66 -44.5t45.5 -79t17 -117.5q0 -22 -9 -63.5t-27.5 -90.5t-47 -99.5t-68.5 -92t-92 -68t-116 -26.5zM411 660q-54 0 -99 -38t-71 -104
q-26 -65 -43.5 -124t-28.5 -108t-16 -86.5t-5 -60.5q0 -59 30 -96.5t93 -37.5q25 0 47 5t42 19.5t39 39.5t39 64q31 62 49.5 128.5t28.5 122t12.5 93.5t2.5 44q0 27 -5 52.5t-18 44.5t-36.5 30.5t-60.5 11.5zM325 723q-19 0 -32 13t-13 32q0 18 13 31.5t32 13.5
q18 0 31.5 -13.5t13.5 -31.5q0 -19 -13.5 -32t-31.5 -13zM525 723q-19 0 -32 13t-13 32q0 18 13 31.5t32 13.5q18 0 31.5 -13.5t13.5 -31.5q0 -19 -13.5 -32t-31.5 -13z" />
    <glyph glyph-name="multiply" unicode="&#xd7;" horiz-adv-x="550" 
d="M43 443l40 42l192 -201l192 201l40 -42l-192 -200l192 -200l-40 -42l-192 200l-192 -200l-40 42l192 200z" />
    <glyph glyph-name="Oslash" unicode="&#xd8;" horiz-adv-x="667" 
d="M634 752l-77 -122q32 -29 52 -79.5t20 -125.5q0 -22 -9 -63.5t-27.5 -90.5t-47 -99.5t-68.5 -92t-92 -68t-116 -26.5q-60 0 -104 27l-70 -109h-42l83 131q-39 33 -59.5 83t-20.5 107q0 46 11.5 98t33.5 102.5t53.5 97t72.5 81.5t90 56t106 21q29 0 56 -7t50 -21l63 100
h42zM507 618q-13 20 -36 31t-60 11q-54 0 -99 -38t-71 -104q-26 -65 -43.5 -124t-28.5 -108t-16 -86.5t-5 -60.5q0 -38 13 -67zM182 40q32 -35 89 -35q25 0 47 5t42 19.5t39 39.5t39 64q31 62 49.5 128.5t28.5 122t12.5 93.5t2.5 44q0 33 -7 58z" />
    <glyph glyph-name="Ugrave" unicode="&#xd9;" horiz-adv-x="667" 
d="M126 645l7 23h243l-7 -23h-67l-97 -374q-4 -15 -8.5 -33.5t-9 -38t-7.5 -39t-3 -34.5q0 -57 36.5 -85.5t88.5 -28.5q24 0 50.5 5.5t51.5 21t45.5 43.5t32.5 73l134 490h-78l7 23h160l-7 -23h-54l-132 -497q-9 -35 -28 -65t-47 -51.5t-65.5 -34t-85.5 -12.5q-36 0 -71 9.5
t-63 29.5t-45 50t-17 72q0 14 3 35.5t7.5 44.5t9 44.5t8.5 35.5l89 339h-81zM435 705l-137 107q-9 7 -14 14.5t-5 18.5t10.5 20.5t20.5 9.5q17 0 28 -11.5t17 -19.5l109 -139h-29z" />
    <glyph glyph-name="Uacute" unicode="&#xda;" horiz-adv-x="667" 
d="M126 645l7 23h243l-7 -23h-67l-97 -374q-4 -15 -8.5 -33.5t-9 -38t-7.5 -39t-3 -34.5q0 -57 36.5 -85.5t88.5 -28.5q24 0 50.5 5.5t51.5 21t45.5 43.5t32.5 73l134 490h-78l7 23h160l-7 -23h-54l-132 -497q-9 -35 -28 -65t-47 -51.5t-65.5 -34t-85.5 -12.5q-36 0 -71 9.5
t-63 29.5t-45 50t-17 72q0 14 3 35.5t7.5 44.5t9 44.5t8.5 35.5l89 339h-81zM370 705q24 22 51.5 51t53 54.5t46 43t29.5 17.5q17 0 27 -9t10 -23q0 -15 -11.5 -23.5t-19.5 -13.5l-155 -97h-31z" />
    <glyph glyph-name="Ucircumflex" unicode="&#xdb;" horiz-adv-x="667" 
d="M126 645l7 23h243l-7 -23h-67l-97 -374q-4 -15 -8.5 -33.5t-9 -38t-7.5 -39t-3 -34.5q0 -57 36.5 -85.5t88.5 -28.5q24 0 50.5 5.5t51.5 21t45.5 43.5t32.5 73l134 490h-78l7 23h160l-7 -23h-54l-132 -497q-9 -35 -28 -65t-47 -51.5t-65.5 -34t-85.5 -12.5q-36 0 -71 9.5
t-63 29.5t-45 50t-17 72q0 14 3 35.5t7.5 44.5t9 44.5t8.5 35.5l89 339h-81zM470 872l88 -167h-32l-82 106l-136 -106h-37l161 167h38z" />
    <glyph glyph-name="Udieresis" unicode="&#xdc;" horiz-adv-x="667" 
d="M126 645l7 23h243l-7 -23h-67l-97 -374q-4 -15 -8.5 -33.5t-9 -38t-7.5 -39t-3 -34.5q0 -57 36.5 -85.5t88.5 -28.5q24 0 50.5 5.5t51.5 21t45.5 43.5t32.5 73l134 490h-78l7 23h160l-7 -23h-54l-132 -497q-9 -35 -28 -65t-47 -51.5t-65.5 -34t-85.5 -12.5q-36 0 -71 9.5
t-63 29.5t-45 50t-17 72q0 14 3 35.5t7.5 44.5t9 44.5t8.5 35.5l89 339h-81zM325 723q-19 0 -32 13t-13 32q0 18 13 31.5t32 13.5q18 0 31.5 -13.5t13.5 -31.5q0 -19 -13.5 -32t-31.5 -13zM525 723q-19 0 -32 13t-13 32q0 18 13 31.5t32 13.5q18 0 31.5 -13.5t13.5 -31.5
q0 -19 -13.5 -32t-31.5 -13z" />
    <glyph glyph-name="Yacute" unicode="&#xdd;" horiz-adv-x="556" 
d="M348 0h-271l7 23h82l69 254l-97 368h-65l7 23h241l-7 -23h-83l86 -326l227 326h-73l7 23h157l-7 -23h-53l-243 -354l-68 -268h91zM314 705q24 22 51.5 51t53 54.5t46 43t29.5 17.5q17 0 27 -9t10 -23q0 -15 -11.5 -23.5t-19.5 -13.5l-155 -97h-31z" />
    <glyph glyph-name="Thorn" unicode="&#xde;" horiz-adv-x="611" 
d="M-6 0l7 23h56l159 622h-78l7 23h244l-7 -23h-72l-27 -115h70q108 0 166 -40t58 -118q0 -26 -10 -60.5t-41 -66t-90 -53t-156 -21.5h-88l-39 -148h77l-7 -23h-229zM197 194q46 0 74 1.5t50 3.5q38 2 66.5 22t48 50t29.5 66t10 71q0 28 -9.5 47.5t-27 30.5t-41 16t-51.5 5
h-70z" />
    <glyph glyph-name="germandbls" unicode="&#xdf;" horiz-adv-x="444" 
d="M435 564q0 -38 -13.5 -67t-35.5 -50.5t-51.5 -36t-60.5 -21.5v-2q28 -9 51 -21.5t39.5 -30.5t25.5 -43.5t9 -59.5q0 -36 -13 -78.5t-38 -79t-60 -61t-78 -24.5q-15 0 -30 4.5t-27 13.5t-19 22.5t-7 30.5q0 18 12 32t30 14q17 0 27.5 -11t10.5 -28q0 -9 -4 -16.5t-8.5 -14
t-8.5 -11t-4 -6.5q0 -6 12.5 -8.5t16.5 -2.5q31 0 48.5 32.5t31.5 78.5q11 36 21 79t10 79q0 43 -17.5 63.5t-39 29.5t-39 11t-17.5 8q0 5 6 6.5t16 3t23 4t26 8.5q21 9 37 32.5t27.5 52.5t17 59t5.5 52q0 27 -12 47t-42 20q-27 0 -47 -16.5t-34.5 -41t-23.5 -52.5t-14 -50
q-17 -71 -34 -148t-35.5 -151.5t-38 -142.5t-39.5 -120q-26 -66 -51.5 -102t-48.5 -53t-42 -20.5t-31 -3.5t-24 4t-22.5 11.5t-17 18t-6.5 24.5q0 18 11 31.5t29 13.5q11 0 23.5 -11.5t12.5 -30.5q0 -12 -6 -15.5t-6 -11.5q0 -5 6 -7.5t14 -2.5q13 0 26 8.5t23.5 21
t18.5 27.5t12 27q3 10 10 37t16.5 66t20.5 87t23 99t24 103t23 100q4 18 12 49t21 66.5t30.5 72t41.5 66.5t55 48.5t69 18.5q57 0 89 -36.5t32 -93.5z" />
    <glyph glyph-name="agrave" unicode="&#xe0;" 
d="M429 396l-95 -343q-6 -20 2.5 -26.5t16.5 -6.5q13 0 28.5 14t29.5 33.5t25 41t15 36.5l19 -6q-29 -83 -66 -116.5t-71 -33.5q-29 0 -49 17.5t-21 46.5h-2q-20 -29 -51.5 -46.5t-63.5 -17.5q-60 0 -94 42.5t-34 110.5q0 43 21.5 89.5t55.5 85.5t77 64t85 25q30 0 49.5 -17
t30.5 -44h1l17 51h74zM151 292q-10 -19 -20 -45.5t-18.5 -55t-13.5 -56t-5 -49.5q0 -32 17 -54.5t49 -22.5q9 0 23.5 4.5t30 18t32 37.5t30.5 62q7 19 14.5 42.5t14 48.5t11 49.5t4.5 44.5q0 31 -16.5 50.5t-47.5 19.5q-20 0 -35.5 -8.5t-28.5 -22t-23 -30.5t-18 -33z
M351 438l-137 107q-9 7 -14 14.5t-5 18.5t10.5 20.5t20.5 9.5q17 0 28 -11.5t17 -19.5l109 -139h-29z" />
    <glyph glyph-name="aacute" unicode="&#xe1;" 
d="M429 396l-95 -343q-6 -20 2.5 -26.5t16.5 -6.5q13 0 28.5 14t29.5 33.5t25 41t15 36.5l19 -6q-29 -83 -66 -116.5t-71 -33.5q-29 0 -49 17.5t-21 46.5h-2q-20 -29 -51.5 -46.5t-63.5 -17.5q-60 0 -94 42.5t-34 110.5q0 43 21.5 89.5t55.5 85.5t77 64t85 25q30 0 49.5 -17
t30.5 -44h1l17 51h74zM151 292q-10 -19 -20 -45.5t-18.5 -55t-13.5 -56t-5 -49.5q0 -32 17 -54.5t49 -22.5q9 0 23.5 4.5t30 18t32 37.5t30.5 62q7 19 14.5 42.5t14 48.5t11 49.5t4.5 44.5q0 31 -16.5 50.5t-47.5 19.5q-20 0 -35.5 -8.5t-28.5 -22t-23 -30.5t-18 -33z
M256 438q24 22 51.5 51t53 54.5t46 43t29.5 17.5q17 0 27 -9t10 -23q0 -15 -11.5 -23.5t-19.5 -13.5l-155 -97h-31z" />
    <glyph glyph-name="acircumflex" unicode="&#xe2;" 
d="M429 396l-95 -343q-6 -20 2.5 -26.5t16.5 -6.5q13 0 28.5 14t29.5 33.5t25 41t15 36.5l19 -6q-29 -83 -66 -116.5t-71 -33.5q-29 0 -49 17.5t-21 46.5h-2q-20 -29 -51.5 -46.5t-63.5 -17.5q-60 0 -94 42.5t-34 110.5q0 43 21.5 89.5t55.5 85.5t77 64t85 25q30 0 49.5 -17
t30.5 -44h1l17 51h74zM151 292q-10 -19 -20 -45.5t-18.5 -55t-13.5 -56t-5 -49.5q0 -32 17 -54.5t49 -22.5q9 0 23.5 4.5t30 18t32 37.5t30.5 62q7 19 14.5 42.5t14 48.5t11 49.5t4.5 44.5q0 31 -16.5 50.5t-47.5 19.5q-20 0 -35.5 -8.5t-28.5 -22t-23 -30.5t-18 -33z
M356 605l88 -167h-32l-82 106l-136 -106h-37l161 167h38z" />
    <glyph glyph-name="atilde" unicode="&#xe3;" 
d="M429 396l-95 -343q-6 -20 2.5 -26.5t16.5 -6.5q13 0 28.5 14t29.5 33.5t25 41t15 36.5l19 -6q-29 -83 -66 -116.5t-71 -33.5q-29 0 -49 17.5t-21 46.5h-2q-20 -29 -51.5 -46.5t-63.5 -17.5q-60 0 -94 42.5t-34 110.5q0 43 21.5 89.5t55.5 85.5t77 64t85 25q30 0 49.5 -17
t30.5 -44h1l17 51h74zM151 292q-10 -19 -20 -45.5t-18.5 -55t-13.5 -56t-5 -49.5q0 -32 17 -54.5t49 -22.5q9 0 23.5 4.5t30 18t32 37.5t30.5 62q7 19 14.5 42.5t14 48.5t11 49.5t4.5 44.5q0 31 -16.5 50.5t-47.5 19.5q-20 0 -35.5 -8.5t-28.5 -22t-23 -30.5t-18 -33z
M459 566q-5 -20 -12 -38t-19 -32.5t-28.5 -23t-39.5 -8.5q-14 0 -33.5 7t-39.5 16q-20 8 -38.5 15t-31.5 7q-23 0 -35.5 -14.5t-16.5 -32.5h-26q3 18 10.5 36.5t19 33t28 23.5t37.5 9q19 0 39 -7t40 -15q20 -9 39 -16t34 -7q19 0 30 16t17 31h26z" />
    <glyph glyph-name="adieresis" unicode="&#xe4;" 
d="M429 396l-95 -343q-6 -20 2.5 -26.5t16.5 -6.5q13 0 28.5 14t29.5 33.5t25 41t15 36.5l19 -6q-29 -83 -66 -116.5t-71 -33.5q-29 0 -49 17.5t-21 46.5h-2q-20 -29 -51.5 -46.5t-63.5 -17.5q-60 0 -94 42.5t-34 110.5q0 43 21.5 89.5t55.5 85.5t77 64t85 25q30 0 49.5 -17
t30.5 -44h1l17 51h74zM151 292q-10 -19 -20 -45.5t-18.5 -55t-13.5 -56t-5 -49.5q0 -32 17 -54.5t49 -22.5q9 0 23.5 4.5t30 18t32 37.5t30.5 62q7 19 14.5 42.5t14 48.5t11 49.5t4.5 44.5q0 31 -16.5 50.5t-47.5 19.5q-20 0 -35.5 -8.5t-28.5 -22t-23 -30.5t-18 -33z
M189 456q-19 0 -32 13t-13 32q0 18 13 31.5t32 13.5q18 0 31.5 -13.5t13.5 -31.5q0 -19 -13.5 -32t-31.5 -13zM389 456q-19 0 -32 13t-13 32q0 18 13 31.5t32 13.5q18 0 31.5 -13.5t13.5 -31.5q0 -19 -13.5 -32t-31.5 -13z" />
    <glyph glyph-name="aring" unicode="&#xe5;" 
d="M429 396l-95 -343q-6 -20 2.5 -26.5t16.5 -6.5q13 0 28.5 14t29.5 33.5t25 41t15 36.5l19 -6q-29 -83 -66 -116.5t-71 -33.5q-29 0 -49 17.5t-21 46.5h-2q-20 -29 -51.5 -46.5t-63.5 -17.5q-60 0 -94 42.5t-34 110.5q0 43 21.5 89.5t55.5 85.5t77 64t85 25q30 0 49.5 -17
t30.5 -44h1l17 51h74zM151 292q-10 -19 -20 -45.5t-18.5 -55t-13.5 -56t-5 -49.5q0 -32 17 -54.5t49 -22.5q9 0 23.5 4.5t30 18t32 37.5t30.5 62q7 19 14.5 42.5t14 48.5t11 49.5t4.5 44.5q0 31 -16.5 50.5t-47.5 19.5q-20 0 -35.5 -8.5t-28.5 -22t-23 -30.5t-18 -33z
M316 446q-41 0 -69 28t-28 69q0 20 7.5 37.5t20.5 31t31 21t38 7.5t37.5 -7.5t31 -21t21 -31t7.5 -37.5t-7.5 -38t-21 -31t-31 -20.5t-37.5 -7.5zM316 610q-29 0 -48 -19.5t-19 -47.5q0 -29 19 -48t48 -19q28 0 47.5 19t19.5 48q0 28 -19.5 47.5t-47.5 19.5z" />
    <glyph glyph-name="ae" unicode="&#xe6;" horiz-adv-x="667" 
d="M425 406l-13 -57l2 -2q25 26 50 42.5t65 16.5q41 0 68.5 -23t27.5 -59q0 -24 -12.5 -47t-41.5 -41.5t-76.5 -30t-116.5 -11.5q-5 -21 -10 -42.5t-5 -44.5q0 -38 18 -65.5t58 -27.5q27 0 47 7t36 20.5t29 31.5t26 41l17 -12q-28 -51 -63.5 -82t-95.5 -31q-46 0 -82.5 24
t-53.5 62q-26 -34 -63 -60t-87 -26q-60 0 -94 42.5t-34 110.5q0 43 21.5 89.5t55.5 85.5t77 64t85 25q59 0 83 -59h2l17 59h63zM165 9q36 0 65.5 30.5t56.5 105.5q6 16 12 37t12 44t10 45.5t6 40.5q0 32 -18.5 53t-51.5 21q-27 0 -49 -21t-37.5 -47t-24.5 -49t-10 -26
q-8 -18 -15 -42.5t-13 -49.5t-9.5 -46.5t-3.5 -32.5q0 -30 22 -46.5t48 -16.5zM383 215q44 0 76.5 10t53.5 26.5t31 38.5t10 47q0 18 -12.5 32t-30.5 14q-26 0 -47 -18t-37 -44.5t-27 -55.5t-17 -50z" />
    <glyph glyph-name="ccedilla" unicode="&#xe7;" horiz-adv-x="389" 
d="M325 97q-14 -21 -30.5 -40.5t-36 -34.5t-42.5 -24t-49 -9h-12t-11 2l-38 -56q15 3 29 3q33 0 54.5 -19.5t21.5 -53.5q0 -19 -10 -34t-27 -25t-40 -15t-49 -5q-22 0 -43.5 5.5t-40.5 15.5l19 26q27 -14 61 -14q35 0 48 14t13 31t-12.5 28.5t-37.5 11.5q-8 0 -16.5 -2.5
t-16.5 -4.5l-7 10l61 91q-29 9 -48.5 25.5t-32 36t-18 39.5t-5.5 35q0 51 21 100t55 87t77.5 61.5t88.5 23.5q19 0 37.5 -5.5t33 -16t23.5 -26.5t9 -38q0 -17 -11.5 -32.5t-28.5 -15.5q-16 0 -28 9.5t-12 26.5q0 13 4.5 21t10 14t10 10.5t4.5 9.5q0 6 -5.5 10.5t-13 7.5
t-16 4t-13.5 1q-29 0 -50 -11.5t-35.5 -29t-24.5 -37.5t-16 -36q-20 -55 -30.5 -97t-10.5 -80t22 -59.5t57 -21.5q49 0 81.5 28t60.5 66z" />
    <glyph glyph-name="egrave" unicode="&#xe8;" horiz-adv-x="389" 
d="M319 102q-28 -51 -63.5 -82t-95.5 -31q-33 0 -60.5 13.5t-47.5 35.5t-31 50.5t-11 59.5q0 47 21 93t55.5 83t78.5 59.5t89 22.5q41 0 68.5 -23t27.5 -59q0 -24 -12.5 -47t-41.5 -41.5t-76.5 -30t-116.5 -11.5q-5 -21 -10 -42.5t-5 -44.5q0 -38 18 -65.5t58 -27.5
q27 0 47 7t36 20.5t29 31.5t26 41zM108 215q44 0 76.5 10t53.5 26.5t31 38.5t10 47q0 18 -12.5 32t-30.5 14q-26 0 -47 -18t-37 -44.5t-27 -55.5t-17 -50zM296 438l-137 107q-9 7 -14 14.5t-5 18.5t10.5 20.5t20.5 9.5q17 0 28 -11.5t17 -19.5l109 -139h-29z" />
    <glyph glyph-name="eacute" unicode="&#xe9;" horiz-adv-x="389" 
d="M319 102q-28 -51 -63.5 -82t-95.5 -31q-33 0 -60.5 13.5t-47.5 35.5t-31 50.5t-11 59.5q0 47 21 93t55.5 83t78.5 59.5t89 22.5q41 0 68.5 -23t27.5 -59q0 -24 -12.5 -47t-41.5 -41.5t-76.5 -30t-116.5 -11.5q-5 -21 -10 -42.5t-5 -44.5q0 -38 18 -65.5t58 -27.5
q27 0 47 7t36 20.5t29 31.5t26 41zM108 215q44 0 76.5 10t53.5 26.5t31 38.5t10 47q0 18 -12.5 32t-30.5 14q-26 0 -47 -18t-37 -44.5t-27 -55.5t-17 -50zM201 438q24 22 51.5 51t53 54.5t46 43t29.5 17.5q17 0 27 -9t10 -23q0 -15 -11.5 -23.5t-19.5 -13.5l-155 -97h-31z
" />
    <glyph glyph-name="ecircumflex" unicode="&#xea;" horiz-adv-x="389" 
d="M319 102q-28 -51 -63.5 -82t-95.5 -31q-33 0 -60.5 13.5t-47.5 35.5t-31 50.5t-11 59.5q0 47 21 93t55.5 83t78.5 59.5t89 22.5q41 0 68.5 -23t27.5 -59q0 -24 -12.5 -47t-41.5 -41.5t-76.5 -30t-116.5 -11.5q-5 -21 -10 -42.5t-5 -44.5q0 -38 18 -65.5t58 -27.5
q27 0 47 7t36 20.5t29 31.5t26 41zM108 215q44 0 76.5 10t53.5 26.5t31 38.5t10 47q0 18 -12.5 32t-30.5 14q-26 0 -47 -18t-37 -44.5t-27 -55.5t-17 -50zM301 605l88 -167h-32l-82 106l-136 -106h-37l161 167h38z" />
    <glyph glyph-name="edieresis" unicode="&#xeb;" horiz-adv-x="389" 
d="M319 102q-28 -51 -63.5 -82t-95.5 -31q-33 0 -60.5 13.5t-47.5 35.5t-31 50.5t-11 59.5q0 47 21 93t55.5 83t78.5 59.5t89 22.5q41 0 68.5 -23t27.5 -59q0 -24 -12.5 -47t-41.5 -41.5t-76.5 -30t-116.5 -11.5q-5 -21 -10 -42.5t-5 -44.5q0 -38 18 -65.5t58 -27.5
q27 0 47 7t36 20.5t29 31.5t26 41zM108 215q44 0 76.5 10t53.5 26.5t31 38.5t10 47q0 18 -12.5 32t-30.5 14q-26 0 -47 -18t-37 -44.5t-27 -55.5t-17 -50zM144 456q-19 0 -32 13t-13 32q0 18 13 31.5t32 13.5q18 0 31.5 -13.5t13.5 -31.5q0 -19 -13.5 -32t-31.5 -13z
M344 456q-19 0 -32 13t-13 32q0 18 13 31.5t32 13.5q18 0 31.5 -13.5t13.5 -31.5q0 -19 -13.5 -32t-31.5 -13z" />
    <glyph glyph-name="igrave" unicode="&#xec;" horiz-adv-x="278" 
d="M247 137q-21 -65 -57.5 -106.5t-92.5 -41.5q-23 0 -43 12.5t-20 39.5q0 10 3.5 27t6.5 29l72 276h-79l7 23h19q10 0 27 1t36 2.5l38 3t33 3.5l-87 -327q-2 -9 -5.5 -18.5t-3.5 -17.5q0 -10 9.5 -14.5t18.5 -4.5q15 0 29.5 11.5t27.5 29t23.5 38.5t18.5 41zM240 438
l-137 107q-9 7 -14 14.5t-5 18.5t10.5 20.5t20.5 9.5q17 0 28 -11.5t17 -19.5l109 -139h-29z" />
    <glyph glyph-name="iacute" unicode="&#xed;" horiz-adv-x="278" 
d="M247 137q-21 -65 -57.5 -106.5t-92.5 -41.5q-23 0 -43 12.5t-20 39.5q0 10 3.5 27t6.5 29l72 276h-79l7 23h19q10 0 27 1t36 2.5l38 3t33 3.5l-87 -327q-2 -9 -5.5 -18.5t-3.5 -17.5q0 -10 9.5 -14.5t18.5 -4.5q15 0 29.5 11.5t27.5 29t23.5 38.5t18.5 41zM145 438
q24 22 51.5 51t53 54.5t46 43t29.5 17.5q17 0 27 -9t10 -23q0 -15 -11.5 -23.5t-19.5 -13.5l-155 -97h-31z" />
    <glyph glyph-name="icircumflex" unicode="&#xee;" horiz-adv-x="278" 
d="M247 137q-21 -65 -57.5 -106.5t-92.5 -41.5q-23 0 -43 12.5t-20 39.5q0 10 3.5 27t6.5 29l72 276h-79l7 23h19q10 0 27 1t36 2.5l38 3t33 3.5l-87 -327q-2 -9 -5.5 -18.5t-3.5 -17.5q0 -10 9.5 -14.5t18.5 -4.5q15 0 29.5 11.5t27.5 29t23.5 38.5t18.5 41zM226 605
l88 -167h-32l-82 106l-136 -106h-37l161 167h38z" />
    <glyph glyph-name="idieresis" unicode="&#xef;" horiz-adv-x="278" 
d="M247 137q-21 -65 -57.5 -106.5t-92.5 -41.5q-23 0 -43 12.5t-20 39.5q0 10 3.5 27t6.5 29l72 276h-79l7 23h19q10 0 27 1t36 2.5l38 3t33 3.5l-87 -327q-2 -9 -5.5 -18.5t-3.5 -17.5q0 -10 9.5 -14.5t18.5 -4.5q15 0 29.5 11.5t27.5 29t23.5 38.5t18.5 41zM84 456
q-19 0 -32 13t-13 32q0 18 13 31.5t32 13.5q18 0 31.5 -13.5t13.5 -31.5q0 -19 -13.5 -32t-31.5 -13zM284 456q-19 0 -32 13t-13 32q0 18 13 31.5t32 13.5q18 0 31.5 -13.5t13.5 -31.5q0 -19 -13.5 -32t-31.5 -13z" />
    <glyph glyph-name="eth" unicode="&#xf0;" horiz-adv-x="444" 
d="M440 665l11 -27l-113 -59q32 -50 47.5 -110t15.5 -123q0 -78 -18 -144t-49.5 -113t-73.5 -73.5t-91 -26.5q-39 0 -68 13.5t-48.5 34.5t-29.5 47t-10 51q0 51 20 99.5t53.5 86.5t77 61.5t91.5 23.5q20 0 37.5 -6t32.5 -23q3 46 -8 90.5t-31 84.5l-117 -60l-11 27l114 59
q-36 62 -81 93l34 23q58 -34 97 -91zM130 277q-5 -13 -11.5 -38.5t-13.5 -53.5t-11.5 -54t-4.5 -39q0 -34 21 -58.5t55 -24.5q25 0 43.5 9.5t32 24.5t23 35t17.5 41q16 44 27 90.5t11 93.5q0 38 -16.5 60.5t-54.5 22.5q-24 0 -42.5 -9.5t-33 -24.5t-25 -34.5t-17.5 -40.5z
" />
    <glyph glyph-name="ntilde" unicode="&#xf1;" 
d="M37 373l7 23h19q10 0 27 1t36 2.5l38 3t33 3.5l-24 -91l2 -1q13 20 31 37t38 29t40.5 19t38.5 7q19 0 35 -4t28 -13.5t18.5 -25.5t6.5 -40q0 -7 -5.5 -30.5t-13 -54t-17 -64.5t-17 -63t-13 -48.5t-5.5 -21.5q0 -12 9.5 -16t18.5 -4q17 0 32 13.5t26.5 33t20.5 40t14 34.5
l19 -8q-10 -25 -22.5 -51t-29.5 -47t-39.5 -34t-52.5 -13q-26 0 -44.5 13t-18.5 41q0 15 5.5 40.5t13 55t17 61.5t17 59.5t13 48.5t5.5 29q0 24 -14.5 31t-30.5 7q-29 0 -54.5 -17t-46.5 -46.5t-37.5 -67.5t-26.5 -80l-41 -164h-72l96 373h-80zM459 566q-5 -20 -12 -38
t-19 -32.5t-28.5 -23t-39.5 -8.5q-14 0 -33.5 7t-39.5 16q-20 8 -38.5 15t-31.5 7q-23 0 -35.5 -14.5t-16.5 -32.5h-26q3 18 10.5 36.5t19 33t28 23.5t37.5 9q19 0 39 -7t40 -15q20 -9 39 -16t34 -7q19 0 30 16t17 31h26z" />
    <glyph glyph-name="ograve" unicode="&#xf2;" horiz-adv-x="444" 
d="M401 247q0 -43 -19 -89t-51 -83.5t-74 -61.5t-88 -24q-39 0 -68 13.5t-48.5 34.5t-29.5 47t-10 51q0 51 20 99.5t53.5 86.5t77 61.5t91.5 23.5q32 0 58.5 -13t46 -34.5t30.5 -50.5t11 -61zM130 277q-5 -13 -11.5 -38.5t-13.5 -53.5t-11.5 -54t-4.5 -39q0 -34 21 -58.5
t55 -24.5q25 0 43.5 9.5t32 24.5t23 35t17.5 41q16 44 27 90.5t11 93.5q0 38 -16.5 60.5t-54.5 22.5q-24 0 -42.5 -9.5t-33 -24.5t-25 -34.5t-17.5 -40.5zM323 438l-137 107q-9 7 -14 14.5t-5 18.5t10.5 20.5t20.5 9.5q17 0 28 -11.5t17 -19.5l109 -139h-29z" />
    <glyph glyph-name="oacute" unicode="&#xf3;" horiz-adv-x="444" 
d="M401 247q0 -43 -19 -89t-51 -83.5t-74 -61.5t-88 -24q-39 0 -68 13.5t-48.5 34.5t-29.5 47t-10 51q0 51 20 99.5t53.5 86.5t77 61.5t91.5 23.5q32 0 58.5 -13t46 -34.5t30.5 -50.5t11 -61zM130 277q-5 -13 -11.5 -38.5t-13.5 -53.5t-11.5 -54t-4.5 -39q0 -34 21 -58.5
t55 -24.5q25 0 43.5 9.5t32 24.5t23 35t17.5 41q16 44 27 90.5t11 93.5q0 38 -16.5 60.5t-54.5 22.5q-24 0 -42.5 -9.5t-33 -24.5t-25 -34.5t-17.5 -40.5zM228 438q24 22 51.5 51t53 54.5t46 43t29.5 17.5q17 0 27 -9t10 -23q0 -15 -11.5 -23.5t-19.5 -13.5l-155 -97h-31z
" />
    <glyph glyph-name="ocircumflex" unicode="&#xf4;" horiz-adv-x="444" 
d="M401 247q0 -43 -19 -89t-51 -83.5t-74 -61.5t-88 -24q-39 0 -68 13.5t-48.5 34.5t-29.5 47t-10 51q0 51 20 99.5t53.5 86.5t77 61.5t91.5 23.5q32 0 58.5 -13t46 -34.5t30.5 -50.5t11 -61zM130 277q-5 -13 -11.5 -38.5t-13.5 -53.5t-11.5 -54t-4.5 -39q0 -34 21 -58.5
t55 -24.5q25 0 43.5 9.5t32 24.5t23 35t17.5 41q16 44 27 90.5t11 93.5q0 38 -16.5 60.5t-54.5 22.5q-24 0 -42.5 -9.5t-33 -24.5t-25 -34.5t-17.5 -40.5zM318 605l88 -167h-32l-82 106l-136 -106h-37l161 167h38z" />
    <glyph glyph-name="otilde" unicode="&#xf5;" horiz-adv-x="444" 
d="M401 247q0 -43 -19 -89t-51 -83.5t-74 -61.5t-88 -24q-39 0 -68 13.5t-48.5 34.5t-29.5 47t-10 51q0 51 20 99.5t53.5 86.5t77 61.5t91.5 23.5q32 0 58.5 -13t46 -34.5t30.5 -50.5t11 -61zM130 277q-5 -13 -11.5 -38.5t-13.5 -53.5t-11.5 -54t-4.5 -39q0 -34 21 -58.5
t55 -24.5q25 0 43.5 9.5t32 24.5t23 35t17.5 41q16 44 27 90.5t11 93.5q0 38 -16.5 60.5t-54.5 22.5q-24 0 -42.5 -9.5t-33 -24.5t-25 -34.5t-17.5 -40.5zM431 566q-5 -20 -12 -38t-19 -32.5t-28.5 -23t-39.5 -8.5q-14 0 -33.5 7t-39.5 16q-20 8 -38.5 15t-31.5 7
q-23 0 -35.5 -14.5t-16.5 -32.5h-26q3 18 10.5 36.5t19 33t28 23.5t37.5 9q19 0 39 -7t40 -15q20 -9 39 -16t34 -7q19 0 30 16t17 31h26z" />
    <glyph glyph-name="odieresis" unicode="&#xf6;" horiz-adv-x="444" 
d="M401 247q0 -43 -19 -89t-51 -83.5t-74 -61.5t-88 -24q-39 0 -68 13.5t-48.5 34.5t-29.5 47t-10 51q0 51 20 99.5t53.5 86.5t77 61.5t91.5 23.5q32 0 58.5 -13t46 -34.5t30.5 -50.5t11 -61zM130 277q-5 -13 -11.5 -38.5t-13.5 -53.5t-11.5 -54t-4.5 -39q0 -34 21 -58.5
t55 -24.5q25 0 43.5 9.5t32 24.5t23 35t17.5 41q16 44 27 90.5t11 93.5q0 38 -16.5 60.5t-54.5 22.5q-24 0 -42.5 -9.5t-33 -24.5t-25 -34.5t-17.5 -40.5zM161 456q-19 0 -32 13t-13 32q0 18 13 31.5t32 13.5q18 0 31.5 -13.5t13.5 -31.5q0 -19 -13.5 -32t-31.5 -13z
M361 456q-19 0 -32 13t-13 32q0 18 13 31.5t32 13.5q18 0 31.5 -13.5t13.5 -31.5q0 -19 -13.5 -32t-31.5 -13z" />
    <glyph glyph-name="divide" unicode="&#xf7;" horiz-adv-x="550" 
d="M43 214v58h464v-58h-464zM216 438q0 26 17 43.5t42 17.5t42.5 -17.5t17.5 -43.5t-17.5 -43.5t-42.5 -17.5t-42 17.5t-17 43.5zM216 48q0 26 17 43.5t42 17.5t42.5 -17.5t17.5 -43.5t-17.5 -43.5t-42.5 -17.5t-42 17.5t-17 43.5z" />
    <glyph glyph-name="oslash" unicode="&#xf8;" horiz-adv-x="444" 
d="M2 -104l75 120q-32 21 -48 54t-16 65q0 51 20 99.5t53.5 86.5t77 61.5t91.5 23.5q29 0 56 -11l64 104h37l-74 -120q29 -21 46 -56t17 -76q0 -43 -19 -89t-51 -83.5t-74 -61.5t-88 -24q-36 0 -65 13l-65 -106h-37zM295 370q-18 16 -47 16q-24 0 -42.5 -9.5t-33 -24.5
t-25 -34.5t-17.5 -40.5q-5 -13 -11.5 -38.5t-13.5 -53.5t-11.5 -54t-4.5 -39q0 -22 10 -41zM119 26q10 -8 21 -12.5t25 -4.5q25 0 43.5 9.5t32 24.5t23 35t17.5 41q16 44 27 90.5t11 93.5q0 20 -5 38z" />
    <glyph glyph-name="ugrave" unicode="&#xf9;" 
d="M33 373l7 23h19q10 0 27 1t36 2.5l38 3t33 3.5l-72 -297q-2 -11 -7 -26t-5 -29q0 -11 4.5 -18t11 -11t13 -5t10.5 -1q23 0 46 12t43 33t35.5 49.5t24.5 61.5l57 221h71l-44 -168q-4 -17 -11 -43.5l-14 -53t-12 -47.5t-5 -27q0 -13 5.5 -23.5t20.5 -10.5q18 0 33.5 13.5
t27.5 32t20.5 39.5t14.5 36l18 -6q-8 -26 -20 -52t-29 -48t-39.5 -35.5t-52.5 -13.5q-41 0 -55.5 26t-8.5 61l-3 2q-11 -18 -27 -34t-35 -28t-40.5 -19.5t-43.5 -7.5q-16 0 -31.5 3.5t-27.5 11.5t-19 21t-7 33q0 4 2 12.5t5 19.5t6 23.5t6 24.5l55 235h-81zM351 438
l-137 107q-9 7 -14 14.5t-5 18.5t10.5 20.5t20.5 9.5q17 0 28 -11.5t17 -19.5l109 -139h-29z" />
    <glyph glyph-name="uacute" unicode="&#xfa;" 
d="M33 373l7 23h19q10 0 27 1t36 2.5l38 3t33 3.5l-72 -297q-2 -11 -7 -26t-5 -29q0 -11 4.5 -18t11 -11t13 -5t10.5 -1q23 0 46 12t43 33t35.5 49.5t24.5 61.5l57 221h71l-44 -168q-4 -17 -11 -43.5l-14 -53t-12 -47.5t-5 -27q0 -13 5.5 -23.5t20.5 -10.5q18 0 33.5 13.5
t27.5 32t20.5 39.5t14.5 36l18 -6q-8 -26 -20 -52t-29 -48t-39.5 -35.5t-52.5 -13.5q-41 0 -55.5 26t-8.5 61l-3 2q-11 -18 -27 -34t-35 -28t-40.5 -19.5t-43.5 -7.5q-16 0 -31.5 3.5t-27.5 11.5t-19 21t-7 33q0 4 2 12.5t5 19.5t6 23.5t6 24.5l55 235h-81zM256 438
q24 22 51.5 51t53 54.5t46 43t29.5 17.5q17 0 27 -9t10 -23q0 -15 -11.5 -23.5t-19.5 -13.5l-155 -97h-31z" />
    <glyph glyph-name="ucircumflex" unicode="&#xfb;" 
d="M33 373l7 23h19q10 0 27 1t36 2.5l38 3t33 3.5l-72 -297q-2 -11 -7 -26t-5 -29q0 -11 4.5 -18t11 -11t13 -5t10.5 -1q23 0 46 12t43 33t35.5 49.5t24.5 61.5l57 221h71l-44 -168q-4 -17 -11 -43.5l-14 -53t-12 -47.5t-5 -27q0 -13 5.5 -23.5t20.5 -10.5q18 0 33.5 13.5
t27.5 32t20.5 39.5t14.5 36l18 -6q-8 -26 -20 -52t-29 -48t-39.5 -35.5t-52.5 -13.5q-41 0 -55.5 26t-8.5 61l-3 2q-11 -18 -27 -34t-35 -28t-40.5 -19.5t-43.5 -7.5q-16 0 -31.5 3.5t-27.5 11.5t-19 21t-7 33q0 4 2 12.5t5 19.5t6 23.5t6 24.5l55 235h-81zM341 605l88 -167
h-32l-82 106l-136 -106h-37l161 167h38z" />
    <glyph glyph-name="udieresis" unicode="&#xfc;" 
d="M33 373l7 23h19q10 0 27 1t36 2.5l38 3t33 3.5l-72 -297q-2 -11 -7 -26t-5 -29q0 -11 4.5 -18t11 -11t13 -5t10.5 -1q23 0 46 12t43 33t35.5 49.5t24.5 61.5l57 221h71l-44 -168q-4 -17 -11 -43.5l-14 -53t-12 -47.5t-5 -27q0 -13 5.5 -23.5t20.5 -10.5q18 0 33.5 13.5
t27.5 32t20.5 39.5t14.5 36l18 -6q-8 -26 -20 -52t-29 -48t-39.5 -35.5t-52.5 -13.5q-41 0 -55.5 26t-8.5 61l-3 2q-11 -18 -27 -34t-35 -28t-40.5 -19.5t-43.5 -7.5q-16 0 -31.5 3.5t-27.5 11.5t-19 21t-7 33q0 4 2 12.5t5 19.5t6 23.5t6 24.5l55 235h-81zM189 456
q-19 0 -32 13t-13 32q0 18 13 31.5t32 13.5q18 0 31.5 -13.5t13.5 -31.5q0 -19 -13.5 -32t-31.5 -13zM389 456q-19 0 -32 13t-13 32q0 18 13 31.5t32 13.5q18 0 31.5 -13.5t13.5 -31.5q0 -19 -13.5 -32t-31.5 -13z" />
    <glyph glyph-name="yacute" unicode="&#xfd;" horiz-adv-x="444" 
d="M9 249q8 20 19.5 47t27 51.5t35.5 41.5t46 17q15 0 27 -4.5t22.5 -18.5t19 -40t14.5 -70l25 -159h2l76 166q15 33 26.5 57t21.5 39t20 22.5t22 7.5q34 0 34 -35q0 -11 -8.5 -19.5t-19.5 -8.5q-10 0 -14.5 2t-7 4.5t-5 4.5t-7.5 2q-4 0 -13.5 -18t-23.5 -48.5t-31 -69.5
t-34.5 -80l-35 -82t-31.5 -74q-27 -62 -54.5 -102.5t-52.5 -64.5t-46.5 -34t-35.5 -10q-20 0 -34.5 8.5t-14.5 31.5q0 11 8.5 22t22.5 11q7 0 14 -5t14 -11.5t13 -11.5t12 -5q8 0 20.5 10t26.5 26t27.5 36t24 40.5t17.5 39t7 31.5q0 5 -2.5 24.5t-6 47.5t-8 61t-8.5 64
t-8 56.5t-6 39.5q-1 7 -2.5 20t-5 26t-10 22.5t-17.5 9.5q-15 0 -27.5 -15.5t-23 -36.5t-18.5 -42t-13 -31zM228 438q24 22 51.5 51t53 54.5t46 43t29.5 17.5q17 0 27 -9t10 -23q0 -15 -11.5 -23.5t-19.5 -13.5l-155 -97h-31z" />
    <glyph glyph-name="thorn" unicode="&#xfe;" horiz-adv-x="444" 
d="M-96 -226l7 20h55l212 870h-69l7 23h24q53 0 77 1.5t41 3.5l-86 -324l2 -2q19 16 43.5 28t53.5 12q18 0 41.5 -6.5t43.5 -24.5t34 -49t14 -80q0 -43 -18.5 -88.5t-49.5 -83t-70.5 -61.5t-82.5 -24q-28 0 -52 11.5t-36 39.5h-2l-59 -246h73l-7 -20h-196zM139 234
q-5 -16 -10 -36t-9.5 -40.5t-7.5 -40.5t-3 -36q0 -28 17.5 -50t46.5 -22q22 0 38 5t29 18.5t24.5 36.5t24.5 59q23 63 31 104t8 70q0 38 -14 61t-54 23q-27 0 -47 -15.5t-34.5 -38.5t-24 -49.5t-15.5 -48.5z" />
    <glyph glyph-name="ydieresis" unicode="&#xff;" horiz-adv-x="444" 
d="M9 249q8 20 19.5 47t27 51.5t35.5 41.5t46 17q15 0 27 -4.5t22.5 -18.5t19 -40t14.5 -70l25 -159h2l76 166q15 33 26.5 57t21.5 39t20 22.5t22 7.5q34 0 34 -35q0 -11 -8.5 -19.5t-19.5 -8.5q-10 0 -14.5 2t-7 4.5t-5 4.5t-7.5 2q-4 0 -13.5 -18t-23.5 -48.5t-31 -69.5
t-34.5 -80l-35 -82t-31.5 -74q-27 -62 -54.5 -102.5t-52.5 -64.5t-46.5 -34t-35.5 -10q-20 0 -34.5 8.5t-14.5 31.5q0 11 8.5 22t22.5 11q7 0 14 -5t14 -11.5t13 -11.5t12 -5q8 0 20.5 10t26.5 26t27.5 36t24 40.5t17.5 39t7 31.5q0 5 -2.5 24.5t-6 47.5t-8 61t-8.5 64
t-8 56.5t-6 39.5q-1 7 -2.5 20t-5 26t-10 22.5t-17.5 9.5q-15 0 -27.5 -15.5t-23 -36.5t-18.5 -42t-13 -31zM171 456q-19 0 -32 13t-13 32q0 18 13 31.5t32 13.5q18 0 31.5 -13.5t13.5 -31.5q0 -19 -13.5 -32t-31.5 -13zM371 456q-19 0 -32 13t-13 32q0 18 13 31.5t32 13.5
q18 0 31.5 -13.5t13.5 -31.5q0 -19 -13.5 -32t-31.5 -13z" />
    <glyph glyph-name="dotlessi" unicode="&#x131;" horiz-adv-x="278" 
d="M247 137q-21 -65 -57.5 -106.5t-92.5 -41.5q-23 0 -43 12.5t-20 39.5q0 10 3.5 27t6.5 29l72 276h-79l7 23h19q10 0 27 1t36 2.5l38 3t33 3.5l-87 -327q-2 -9 -5.5 -18.5t-3.5 -17.5q0 -10 9.5 -14.5t18.5 -4.5q15 0 29.5 11.5t27.5 29t23.5 38.5t18.5 41z" />
    <glyph glyph-name="OE" unicode="&#x152;" horiz-adv-x="944" 
d="M702 205h-25q3 27 3 48q0 24 -4 38.5t-16 23t-34 12t-59 5.5l-79 -309h101q52 0 88.5 6.5t65 24.5t51.5 50.5t49 83.5h28l-58 -188h-515q-74 0 -121.5 19t-74.5 50.5t-37.5 73t-10.5 85.5q0 31 9 75.5t28 93.5t49 97.5t72 87t96.5 62.5t123.5 24h511l-39 -174h-25
q4 23 4 46q0 28 -6.5 47.5t-23 32.5t-45 19t-73.5 6h-89l-72 -286q40 0 66 3.5t44 14.5t30.5 31.5t27.5 55.5h26zM384 69q12 17 27 58t30.5 92.5t30 107.5t26 104.5t18.5 82.5t7 41q0 47 -30 68.5t-73 21.5q-48 0 -85.5 -25t-66.5 -67q-17 -26 -38 -78.5t-39 -114
t-30 -122.5t-12 -104q0 -27 9.5 -47.5t26 -34t38.5 -20.5t47 -7q15 0 32 3t32.5 8.5t28.5 13.5t21 19z" />
    <glyph glyph-name="oe" unicode="&#x153;" horiz-adv-x="667" 
d="M595 102q-28 -51 -63.5 -82t-95.5 -31q-36 0 -68.5 17t-53.5 48q-30 -29 -68.5 -47t-74.5 -18q-39 0 -68 13.5t-48.5 34.5t-29.5 47t-10 51q0 51 20 99.5t53.5 86.5t77 61.5t91.5 23.5q36 0 67 -17.5t55 -48.5q14 11 31.5 23t37 21.5t40.5 15.5t42 6q41 0 68.5 -23
t27.5 -59q0 -24 -12.5 -47t-41.5 -41.5t-76.5 -30t-116.5 -11.5q-5 -21 -10 -42.5t-5 -44.5q0 -38 18 -65.5t58 -27.5q27 0 47 7t36 20.5t29 31.5t26 41zM132 277q-5 -13 -11.5 -38.5t-13.5 -53.5t-11.5 -54t-4.5 -39q0 -34 21 -58.5t55 -24.5q25 0 43.5 9.5t32 24.5t23 35
t17.5 41q16 44 27 90.5t11 93.5q0 38 -16.5 60.5t-54.5 22.5q-24 0 -42.5 -9.5t-33 -24.5t-25 -34.5t-17.5 -40.5zM384 215q44 0 76.5 10t53.5 26.5t31 38.5t10 47q0 18 -12.5 32t-30.5 14q-26 0 -47 -18t-37 -44.5t-27 -55.5t-17 -50z" />
    <glyph glyph-name="Scaron" unicode="&#x160;" 
d="M21 -1h-15l43 190l24 -6q0 -36 8 -68t26 -56t46 -38t69 -14q31 0 59 12.5t48 33.5t32 48t12 57q0 39 -19 65t-47 46t-61 38t-61 41t-47 55t-19 81q0 42 14 78t38.5 63t59 42.5t76.5 15.5q34 0 64.5 -13t56.5 -36l39 31h19l-38 -171l-24 3q-2 48 -11 80t-25 50.5t-38 26
t-49 7.5q-26 0 -50 -9t-42 -25.5t-28.5 -40t-10.5 -51.5q0 -31 20.5 -53t50.5 -40.5t66 -37.5t66 -44.5t50.5 -59.5t20.5 -84q0 -37 -14 -78t-43 -75t-72.5 -56t-103.5 -22q-36 0 -71 12.5t-62 38.5zM320 766l144 106h35l-167 -167h-38l-99 167h34z" />
    <glyph glyph-name="scaron" unicode="&#x161;" horiz-adv-x="333" 
d="M108 -11q-38 0 -60.5 9t-35.5 22t-17 26t-4 21q0 18 8.5 33t28.5 15q15 0 26.5 -10.5t11.5 -27.5q0 -14 -7.5 -26.5t-7.5 -18.5q0 -7 5.5 -11.5t13.5 -7t16.5 -3.5t14.5 -1q52 0 73.5 18.5t21.5 50.5q0 25 -20 48.5t-43.5 49t-43.5 55t-20 66.5q0 28 11.5 48.5t29.5 34
t41 20t47 6.5q10 0 24.5 -3t28 -10.5t22.5 -19.5t9 -31q0 -18 -9.5 -27.5t-25.5 -9.5t-24 9t-8 21q0 6 3 15t3 15q0 14 -12 17.5t-24 3.5q-25 0 -43.5 -13.5t-18.5 -42.5q0 -17 10 -31.5t26.5 -31t37.5 -36.5t42 -47q11 -14 15 -32.5t3 -38.5q0 -9 -6 -29.5t-22.5 -41.5
t-45.5 -37t-75 -16zM237 499l144 106h35l-167 -167h-38l-99 167h34z" />
    <glyph glyph-name="Ydieresis" unicode="&#x178;" horiz-adv-x="556" 
d="M348 0h-271l7 23h82l69 254l-97 368h-65l7 23h241l-7 -23h-83l86 -326l227 326h-73l7 23h157l-7 -23h-53l-243 -354l-68 -268h91zM276 723q-19 0 -32 13t-13 32q0 18 13 31.5t32 13.5q18 0 31.5 -13.5t13.5 -31.5q0 -19 -13.5 -32t-31.5 -13zM476 723q-19 0 -32 13
t-13 32q0 18 13 31.5t32 13.5q18 0 31.5 -13.5t13.5 -31.5q0 -19 -13.5 -32t-31.5 -13z" />
    <glyph glyph-name="Zcaron" unicode="&#x17d;" horiz-adv-x="611" 
d="M462 0h-457v23l490 622h-159q-32 0 -56 -14.5t-42.5 -36.5t-31 -46.5t-20.5 -45.5h-32l45 166h417v-23l-489 -622h170q55 0 104 39.5t84 129.5l31 -13zM406 766l144 106h35l-167 -167h-38l-99 167h34z" />
    <glyph glyph-name="zcaron" unicode="&#x17e;" horiz-adv-x="333" 
d="M48 280l-19 10l66 116q18 -6 44.5 -13.5t54.5 -12.5t54 -7t42 1q-2 12 4.5 22t18.5 10q8 0 12.5 -6t4.5 -12q0 -5 -5 -13.5t-11.5 -17.5t-13.5 -17.5t-11 -12.5l-237 -239q19 -1 45.5 -8.5t53 -16.5t48 -16.5t32.5 -7.5t18 6t7 14t-7.5 10.5t-16.5 4.5t-16.5 7.5
t-7.5 19.5t10.5 21.5t23.5 7.5q20 0 29 -17.5t9 -35.5q0 -24 -9.5 -41t-24.5 -27.5t-34 -15t-39 -4.5q-18 0 -40.5 5.5t-46 13t-45.5 15.5t-40 13q0 -5 -0.5 -13t-3 -15t-6.5 -12t-12 -5q-17 0 -17 19q0 13 8.5 24t24.5 27l251 260l-2 2q-21 -3 -49 -3q-30 0 -59.5 4
t-55.5 14zM237 499l144 106h35l-167 -167h-38l-99 167h34z" />
    <glyph glyph-name="florin" unicode="&#x192;" 
d="M90 367l7 27h114l28 102q10 36 28.5 71t43 62.5t53.5 44.5t60 17q28 0 47.5 -8t31.5 -19.5t17.5 -25t5.5 -25.5q0 -5 -2 -13t-6.5 -15.5t-12 -12.5t-19.5 -5q-17 0 -27.5 11t-10.5 28q0 14 8.5 24t8.5 18q0 6 -4 10t-10 5.5t-12 2t-10 0.5q-33 0 -55 -28t-37.5 -69.5
t-26.5 -89t-22 -85.5h127l-7 -27h-124l-65 -289q-32 -146 -92.5 -224t-133.5 -78q-16 0 -33 5t-30.5 15t-22 24.5t-8.5 33.5t11.5 32.5t30.5 13.5q16 0 26.5 -11t10.5 -28q0 -20 -9 -29.5t-9 -17.5q0 -5 4 -8t10 -5t12 -2.5t10 -0.5q22 0 41 17t34 43.5t27.5 59.5t21.5 65.5
t15.5 61t10.5 46.5l59 276h-115z" />
    <glyph glyph-name="circumflex" unicode="&#x2c6;" horiz-adv-x="278" 
d="M245 605l88 -167h-32l-82 106l-136 -106h-37l161 167h38z" />
    <glyph glyph-name="caron" unicode="&#x2c7;" horiz-adv-x="278" 
d="M209 499l144 106h35l-167 -167h-38l-99 167h34z" />
    <glyph glyph-name="ring" unicode="&#x2da;" horiz-adv-x="278" 
d="M205 446q-41 0 -69 28t-28 69q0 20 7.5 37.5t20.5 31t31 21t38 7.5t37.5 -7.5t31 -21t21 -31t7.5 -37.5t-7.5 -38t-21 -31t-31 -20.5t-37.5 -7.5zM205 610q-29 0 -48 -19.5t-19 -47.5q0 -29 19 -48t48 -19q28 0 47.5 19t19.5 48q0 28 -19.5 47.5t-47.5 19.5z" />
    <glyph glyph-name="tilde" unicode="&#x2dc;" horiz-adv-x="278" 
d="M348 566q-5 -20 -12 -38t-19 -32.5t-28.5 -23t-39.5 -8.5q-14 0 -33.5 7t-39.5 16q-20 8 -38.5 15t-31.5 7q-23 0 -35.5 -14.5t-16.5 -32.5h-26q3 18 10.5 36.5t19 33t28 23.5t37.5 9q19 0 39 -7t40 -15q20 -9 39 -16t34 -7q19 0 30 16t17 31h26z" />
    <glyph glyph-name="endash" unicode="&#x2013;" 
d="M-7 241h500l-12 -47h-500z" />
    <glyph glyph-name="emdash" unicode="&#x2014;" horiz-adv-x="1000" 
d="M-7 241h1000l-12 -47h-1000z" />
    <glyph glyph-name="quoteleft" unicode="&#x2018;" horiz-adv-x="222" 
d="M241 654q-19 -11 -40.5 -25.5t-40 -32.5t-30.5 -39t-12 -46q0 -13 3.5 -18.5t8.5 -5.5q4 0 7 6.5t8.5 15t15 15t25.5 6.5q20 0 32 -12.5t12 -32.5q0 -29 -21 -44t-47 -15q-29 0 -50 20t-21 57q0 30 10 53t29 42t44.5 36.5t57.5 35.5z" />
    <glyph glyph-name="quoteright" unicode="&#x2019;" horiz-adv-x="222" 
d="M95 442q19 11 40.5 25.5t40 32.5t30.5 39t12 46q0 13 -3.5 18.5t-8.5 5.5q-4 0 -7 -6.5t-8.5 -15t-15 -15t-25.5 -6.5q-20 0 -32 12.5t-12 32.5q0 29 21 44t47 15q29 0 50 -20t21 -57q0 -30 -10 -53t-29 -42t-45 -36.5t-57 -35.5z" />
    <glyph glyph-name="quotesinglbase" unicode="&#x201a;" horiz-adv-x="222" 
d="M-8 -132q19 11 40.5 25.5t40 32.5t30.5 39t12 46q0 13 -3.5 18.5t-8.5 5.5q-4 0 -7 -6.5t-9 -14.5q-5 -8 -14 -15t-26 -7q-20 0 -32 12.5t-12 32.5q0 29 21 44t47 15q29 0 50 -20t21 -57q0 -30 -10 -53t-29 -42t-45 -36.5t-57 -35.5z" />
    <glyph glyph-name="quotedblleft" unicode="&#x201c;" horiz-adv-x="444" 
d="M468 654q-19 -11 -40.5 -25.5t-40 -32.5t-30.5 -39t-12 -46q0 -13 3.5 -18.5t8.5 -5.5q4 0 7 6.5t8.5 15t15 15t25.5 6.5q20 0 32 -12.5t12 -32.5q0 -29 -21 -44t-47 -15q-29 0 -50 20t-21 57q0 30 10 53t29 42t44.5 36.5t57.5 35.5zM239 654q-19 -11 -40.5 -25.5
t-40 -32.5t-30.5 -39t-12 -46q0 -13 3.5 -18.5t8.5 -5.5q4 0 7 6.5t8.5 15t15 15t25.5 6.5q20 0 32 -12.5t12 -32.5q0 -29 -21 -44t-47 -15q-29 0 -50 20t-21 57q0 30 10 53t29 42t44.5 36.5t57.5 35.5z" />
    <glyph glyph-name="quotedblright" unicode="&#x201d;" horiz-adv-x="444" 
d="M319 442q19 11 40.5 25.5t40 32.5t30.5 39t12 46q0 13 -3.5 18.5t-8.5 5.5q-4 0 -7 -6.5t-8.5 -15t-15 -15t-25.5 -6.5q-20 0 -32 12.5t-12 32.5q0 29 21 44t47 15q29 0 50 -20t21 -57q0 -30 -10 -53t-29 -42t-45 -36.5t-57 -35.5zM90 442q19 11 40.5 25.5t40 32.5
t30.5 39t12 46q0 13 -3.5 18.5t-8.5 5.5q-4 0 -7 -6.5t-8.5 -15t-15 -15t-25.5 -6.5q-20 0 -32 12.5t-12 32.5q0 29 21 44t47 15q29 0 50 -20t21 -57q0 -30 -10 -53t-29 -42t-45 -36.5t-57 -35.5z" />
    <glyph glyph-name="quotedblbase" unicode="&#x201e;" horiz-adv-x="444" 
d="M215 -132q19 11 40.5 25.5t40 32.5t30.5 39t12 46q0 13 -3.5 18.5t-8.5 5.5q-4 0 -7 -6.5t-9 -14.5q-5 -8 -14 -15t-26 -7q-20 0 -32 12.5t-12 32.5q0 29 21 44t47 15q29 0 50 -20t21 -57q0 -30 -10 -53t-29 -42t-45 -36.5t-57 -35.5zM-14 -132q19 11 40.5 25.5t40 32.5
t30.5 39t12 46q0 13 -3.5 18.5t-8.5 5.5q-4 0 -7 -6.5t-9 -14.5q-5 -8 -14 -15t-26 -7q-20 0 -32 12.5t-12 32.5q0 29 21 44t47 15q29 0 50 -20t21 -57q0 -30 -10 -53t-29 -42t-45 -36.5t-57 -35.5z" />
    <glyph glyph-name="dagger" unicode="&#x2020;" 
d="M157 -160q9 38 19 86.5t18 99t12.5 98t4.5 84.5v23t-5 31q11 9 22.5 25t21.5 38t18 47.5t13 53.5q-30 0 -48.5 -5t-32.5 -11.5t-27 -11.5t-32 -5q-17 0 -28.5 12.5t-11.5 29.5t10 29t29 12q16 0 28.5 -4.5t27.5 -10.5t36 -10.5t53 -4.5q6 28 8.5 48t2.5 28q0 9 -1.5 20.5
t-3.5 23t-3.5 21.5t-1.5 16q0 26 11.5 43.5t40.5 17.5q20 0 28.5 -16t8.5 -32q0 -13 -9.5 -30t-21.5 -38.5t-23.5 -46.5t-16.5 -55q33 0 52.5 4.5t33.5 10.5t25 10.5t27 4.5q25 0 35.5 -10.5t10.5 -34.5q0 -17 -13.5 -27.5t-30.5 -10.5t-28.5 5t-25.5 11.5t-35 11.5t-55 5
q-5 -26 -7 -50t-2 -34q0 -33 5.5 -52.5t11.5 -32.5q-37 -57 -67 -161t-62 -256h-22z" />
    <glyph glyph-name="daggerdbl" unicode="&#x2021;" 
d="M206 262q34 32 49.5 76t26.5 88q-30 0 -48.5 -5t-32.5 -11.5t-27 -11.5t-32 -5q-17 0 -28.5 12.5t-11.5 29.5t10 29t29 12q16 0 28.5 -4.5t27.5 -10.5t36 -10.5t53 -4.5q6 28 8.5 48t2.5 28q0 9 -1.5 20.5t-3.5 23t-3.5 21.5t-1.5 16q0 26 11.5 43.5t40.5 17.5
q20 0 28.5 -16t8.5 -32q0 -13 -9.5 -30t-21.5 -38.5t-23.5 -46.5t-16.5 -55q33 0 52.5 4.5t33.5 10.5t25 10.5t27 4.5q25 0 35.5 -10.5t10.5 -34.5q0 -17 -13.5 -27.5t-30.5 -10.5t-28.5 5t-25.5 11.5t-35 11.5t-55 5q-6 -28 -8 -45t-2 -35q0 -29 4 -50.5t12 -38.5
q-34 -32 -49.5 -76t-26.5 -88q30 0 48.5 5t32.5 11.5t27 11.5t32 5q17 0 28.5 -12.5t11.5 -29.5t-10 -29t-29 -12q-16 0 -28.5 4.5t-27.5 10.5t-36 10.5t-53 4.5q-6 -28 -8.5 -48t-2.5 -28q0 -9 1.5 -20.5t3.5 -23t3.5 -21.5t1.5 -16q0 -26 -11.5 -43.5t-40.5 -17.5
q-20 0 -28.5 16t-8.5 32q0 13 9.5 30t21.5 38.5t23.5 46.5t16.5 55q-33 0 -52.5 -4.5t-33.5 -10.5t-25 -10.5t-27 -4.5q-25 0 -35.5 10.5t-10.5 34.5q0 17 13.5 27.5t30.5 10.5q16 0 28 -5t26 -11.5t34.5 -11.5t55.5 -5q6 28 8 45t2 35q0 29 -4 50.5t-12 38.5z" />
    <glyph glyph-name="bullet" unicode="&#x2022;" 
d="M87 327q0 34 13 63.5t35 51.5t51.5 35t63.5 13t63.5 -13t51.5 -35t35 -51.5t13 -63.5t-13 -63.5t-35 -51.5t-51.5 -35t-63.5 -13t-63.5 13t-51.5 35t-35 51.5t-13 63.5z" />
    <glyph glyph-name="ellipsis" unicode="&#x2026;" horiz-adv-x="1000" 
d="M60 46q0 25 17 42t42 17t42.5 -17t17.5 -42t-17.5 -41.5t-42.5 -16.5t-42 16.5t-17 41.5zM726 46q0 25 17 42t42 17t42.5 -17t17.5 -42t-17.5 -41.5t-42.5 -16.5t-42 16.5t-17 41.5zM393 46q0 25 17 42t42 17t42.5 -17t17.5 -42t-17.5 -41.5t-42.5 -16.5t-42 16.5
t-17 41.5z" />
    <glyph glyph-name="perthousand" unicode="&#x2030;" horiz-adv-x="1000" 
d="M569 673l-394 -701h-51l349 616l-2 2q-22 -11 -46 -19t-50 -8q-11 0 -21 1t-20 3v-36q0 -21 -12.5 -60t-38 -77.5t-63 -67t-86.5 -28.5q-35 0 -56.5 13.5t-33.5 32t-16 38.5t-4 33q0 37 19 79.5t49 79t67.5 60.5t75.5 24t61 -18.5t31 -41.5q11 -6 20.5 -7.5t20.5 -1.5
q48 0 87.5 21t66.5 63h47zM559 352q50 0 74.5 -31.5t24.5 -80.5q0 -31 -14 -74t-39.5 -82.5t-61.5 -67t-81 -27.5q-54 0 -84.5 30.5t-30.5 87.5q0 38 18.5 81t48.5 79.5t68 60.5t77 24zM914 352q50 0 74.5 -31.5t24.5 -80.5q0 -31 -14 -74t-39.5 -82.5t-61.5 -67t-81 -27.5
q-54 0 -84.5 30.5t-30.5 87.5q0 38 18.5 81t48.5 79.5t68 60.5t77 24zM426 83q0 -27 10.5 -46.5t40.5 -19.5q27 0 54.5 21.5t50 54.5t37 73t14.5 77q0 31 -12.5 52.5t-46.5 21.5q-15 0 -29.5 -9.5t-26.5 -23t-22 -29.5t-16 -28q-6 -11 -15 -30.5t-18 -40.5t-15 -40.5
t-6 -32.5zM781 83q0 -27 10.5 -46.5t40.5 -19.5q27 0 54.5 21.5t50 54.5t37 73t14.5 77q0 31 -12.5 52.5t-46.5 21.5q-15 0 -29.5 -9.5t-26.5 -23t-22 -29.5t-16 -28q-6 -11 -15 -30.5t-18 -40.5t-15 -40.5t-6 -32.5zM103 382q0 -29 15 -40.5t41 -11.5q25 0 51.5 21.5
t48.5 54t36 71t14 72.5v15t-2 15q-5 1 -14.5 6t-19 12t-17.5 14.5t-9 13.5q-22 0 -47.5 -28t-47 -67t-35.5 -80.5t-14 -67.5z" />
    <glyph glyph-name="guilsinglleft" unicode="&#x2039;" horiz-adv-x="333" 
d="M138 217q7 -13 19.5 -35t24.5 -43.5t20.5 -39t8.5 -20.5q0 -2 -2 -4t-4 -2q-4 0 -8.5 4t-14 16t-28 34.5t-51.5 59.5q-24 27 -24 32t17.5 16.5t40.5 31.5q31 23 52.5 41.5t35 31.5t21 20t11.5 7q8 0 8 -7q0 -10 -12.5 -26.5t-31.5 -36.5t-41.5 -41t-41.5 -39z" />
    <glyph glyph-name="guilsinglright" unicode="&#x203a;" horiz-adv-x="333" 
d="M196 223q-7 13 -19.5 35t-24.5 43.5t-20.5 39t-8.5 20.5q0 2 2 4t4 2q4 0 8.5 -4t14 -16t28 -34.5t51.5 -59.5q24 -27 24 -32t-17.5 -16.5t-40.5 -31.5q-32 -23 -53 -41.5t-34.5 -31.5t-21 -20t-11.5 -7q-8 0 -8 7q0 10 12.5 26.5t31.5 36.5t41.5 41t41.5 39z" />
    <glyph glyph-name="Euro" unicode="&#x20ac;" 
d="M186 380q-3 -12 -6 -24.5t-6 -24.5q-4 -16 -7 -31l-6 -30h215l-12 -24h-206q-4 -23 -5.5 -44.5t-1.5 -40.5q0 -17 5 -43t17 -50t32.5 -41.5t51.5 -17.5q32 0 60.5 16.5t52.5 42t43 57.5t32 63l18 -8l-44 -180h-15l-15 43q-27 -27 -63 -40.5t-67 -13.5q-40 0 -74 19
t-59 52t-39.5 76.5t-14.5 92.5v17h-62l11 24h53q4 55 20 110h-65l12 24h61q19 56 49 102.5t65.5 80.5t74.5 52.5t78 18.5q26 0 55 -13.5t49 -37.5l32 29h15l-29 -175l-18 4q0 51 -9.5 84t-25.5 53t-35.5 28t-39.5 8q-30 0 -55.5 -19.5t-46.5 -52t-38 -74.5t-30 -88h246
l-12 -24h-241z" />
    <glyph glyph-name="trademark" unicode="&#x2122;" horiz-adv-x="990" 
d="M526 559h-2v-227q0 -32 10 -46t42 -18v-19h-130v19q33 4 43 18t10 46v254q-9 23 -28.5 36.5t-40.5 13.5v19h123l154 -308l159 308h98v-19q-32 -2 -43 -16.5t-11 -40.5v-255v-29.5t4 -15.5t13.5 -7t29.5 -4v-19h-163v19q19 2 29 4t14 7t4 15.5v29.5v233h-2l-152 -311h-9z
M250 324q0 -19 0.5 -29.5t4.5 -15.5t14 -7t28 -4v-19h-163v19q19 2 29 4t14 7t4 15.5v29.5v312h-48q-32 0 -46.5 -20.5t-21.5 -48.5h-19v88h339v-88h-19q-7 28 -22 48.5t-46 20.5h-48v-312z" />
    <glyph glyph-name="uniE000" unicode="&#xe000;" horiz-adv-x="278" 
d="M240 705l-137 107q-9 7 -14 14.5t-5 18.5t10.5 20.5t20.5 9.5q17 0 28 -11.5t17 -19.5l109 -139h-29z" />
    <glyph glyph-name="uniE002" unicode="&#xe002;" horiz-adv-x="278" 
d="M145 705q24 22 51.5 51t53 54.5t46 43t29.5 17.5q17 0 27 -9t10 -23q0 -15 -11.5 -23.5t-19.5 -13.5l-155 -97h-31z" />
    <glyph glyph-name="uniE004" unicode="&#xe004;" horiz-adv-x="278" 
d="M245 872l88 -167h-32l-82 106l-136 -106h-37l161 167h38z" />
    <glyph glyph-name="uniE006" unicode="&#xe006;" horiz-adv-x="278" 
d="M209 766l144 106h35l-167 -167h-38l-99 167h34z" />
    <glyph glyph-name="uniE009" unicode="&#xe009;" horiz-adv-x="278" 
d="M348 833q-5 -20 -12 -38t-19 -32.5t-28.5 -23t-39.5 -8.5q-14 0 -33.5 7t-39.5 16q-20 8 -38.5 15t-31.5 7q-23 0 -35.5 -14.5t-16.5 -32.5h-26q3 18 10.5 36.5t19 33t28 23.5t37.5 9q19 0 39 -7t40 -15q20 -9 39 -16t34 -7q19 0 30 16t17 31h26z" />
    <glyph glyph-name="uniE00B" unicode="&#xe00b;" horiz-adv-x="278" 
d="M98 723q-19 0 -32 13t-13 32q0 18 13 31.5t32 13.5q18 0 31.5 -13.5t13.5 -31.5q0 -19 -13.5 -32t-31.5 -13zM298 723q-19 0 -32 13t-13 32q0 18 13 31.5t32 13.5q18 0 31.5 -13.5t13.5 -31.5q0 -19 -13.5 -32t-31.5 -13z" />
    <glyph glyph-name="uniE011" unicode="&#xe011;" horiz-adv-x="278" 
d="M205 693q-41 0 -69 28t-28 69q0 20 7.5 37.5t20.5 31t31 21t38 7.5t37.5 -7.5t31 -21t21 -31t7.5 -37.5t-7.5 -38t-21 -31t-31 -20.5t-37.5 -7.5zM205 857q-29 0 -48 -19.5t-19 -47.5q0 -29 19 -48t48 -19q28 0 47.5 19t19.5 48q0 28 -19.5 47.5t-47.5 19.5z" />
    </font>
</defs>
</svg>
