<?xml version="1.0" standalone="no"?>
<!DOCTYPE svg PUBLIC "-//W3C//DTD SVG 1.1//EN" "http://www.w3.org/Graphics/SVG/1.1/DTD/svg11.dtd" >
<svg xmlns="http://www.w3.org/2000/svg" xmlns:xlink="http://www.w3.org/1999/xlink" version="1.1">
<metadata></metadata>
<defs>
<font id="savoyregular" horiz-adv-x="1024" >
<font-face units-per-em="2048" ascent="1638" descent="-410" />
<missing-glyph horiz-adv-x="512" />
<glyph horiz-adv-x="0" />
<glyph unicode="&#xd;" horiz-adv-x="512" />
<glyph unicode=" "  horiz-adv-x="512" />
<glyph unicode="&#x09;" horiz-adv-x="512" />
<glyph unicode="&#xa0;" horiz-adv-x="512" />
<glyph unicode="!" horiz-adv-x="518" d="M141 92q0 49 35 84t86 35q47 0 82 -35t35 -84t-35 -84t-84 -35t-84 35t-35 84zM145 1227q0 74 33 120t84 46t83 -46.5t32 -121.5q0 -78 -8 -142l-82 -630h-51l-80 630q-10 80 -11 144z" />
<glyph unicode="&#x22;" horiz-adv-x="681" d="M106 1366h160l-45 -549h-71zM416 1366h157l-43 -549h-71z" />
<glyph unicode="#" horiz-adv-x="1210" d="M96 469l13 72h245l56 311h-240l10 72h246l86 442h78l-86 -442h313l86 442h80l-86 -442h227l-12 -72h-233l-54 -311h228l-13 -72h-233l-90 -469h-80l92 469h-313l-92 -469h-78l90 469h-240zM432 541h316l53 311h-314z" />
<glyph unicode="$" d="M102 334h37q25 -139 117 -219t223 -76v561q-346 156 -346 399q0 291 346 371v111h51v-111q127 -2 287 -43l25 -237h-37q-25 104 -78 153q-72 66 -174 66h-23v-537q219 -104 295 -184q90 -96 90 -228q0 -195 -174 -309q-70 -45 -211 -71v-166h-51v166q-174 2 -340 79z M270 1067q0 -96 74 -172q47 -49 135 -98v512q-88 -20 -139 -76q-70 -74 -70 -166zM530 39q104 18 152 63q80 74 80 195q-1 176 -232 276v-534z" />
<glyph unicode="%" horiz-adv-x="1597" d="M43 1075q0 135 90 230.5t217 95.5q129 0 220.5 -97.5t91.5 -234.5t-91.5 -233.5t-222.5 -96.5q-129 0 -217 96.5t-88 239.5zM176 1071q0 -276 174 -276q84 0 130 71.5t46 200.5q0 274 -176 274q-82 0 -128 -71.5t-46 -198.5zM434 0l658 1366h75l-663 -1366h-70zM938 301 q0 135 90 230.5t217 95.5q129 0 220 -97.5t91 -234.5t-91 -233.5t-222 -96.5q-129 0 -217 96.5t-88 239.5zM1071 293q0 -276 174 -277q84 0 130 72t46 201q0 274 -176 274q-82 0 -128 -71.5t-46 -198.5z" />
<glyph unicode="&#x26;" horiz-adv-x="1685" d="M66 387q0 256 319 428q-158 152 -158 279q0 115 91.5 192.5t226.5 77.5q117 0 187.5 -60.5t70.5 -156.5q0 -76 -48 -136.5t-169 -131.5q139 -100 215 -172t184 -207q6 -8 31 -37l188 276q78 115 78 174q0 53 -80 60q-8 0 -28 2l2 47l247 -4q31 0 252 4l-2 -47 q-129 -2 -203.5 -43t-156.5 -150l-269 -356l132 -170q139 -180 290 -180q57 0 120 34.5t95 86.5l21 -35q-143 -199 -336 -199q-182 0 -322 184q-31 41 -71 95q-8 10 -37 43q-129 -162 -238.5 -230.5t-240.5 -68.5q-158 0 -260 94q-131 121 -131 307zM205 477 q0 -70 42 -151.5t103 -130.5q102 -82 230 -82q86 0 153.5 44t171.5 167q-199 285 -479 460q-221 -125 -221 -307zM360 1161q1 -121 187 -254q131 86 131 230q0 176 -158 176q-70 0 -115 -43t-45 -109z" />
<glyph unicode="'" horiz-adv-x="393" d="M115 1366h164l-46 -549h-75z" />
<glyph unicode="(" horiz-adv-x="673" d="M96 598q0 506 426 926l29 -29q-188 -248 -256 -438q-74 -209 -74 -459q0 -291 101 -528q65 -156 229 -371l-29 -29q-426 426 -426 928z" />
<glyph unicode=")" horiz-adv-x="673" d="M123 -301q190 252 256 440q74 209 74 459q0 293 -101 528q-65 154 -229 369l29 29q426 -420 426 -926t-426 -928z" />
<glyph unicode="*" horiz-adv-x="862" d="M121 1331q0 72 76 72q47 0 90 -74l69 -121l-125 33q-111 29 -110 90zM123 1020q0 66 102 88l137 31l-71 -111q-51 -80 -98 -80q-29 0 -49.5 21.5t-20.5 50.5zM399 950q0 18 2 29l15 139l82 -100q47 -57 47 -100q0 -29 -20.5 -48.5t-49.5 -19.5q-76 0 -76 100zM414 1384 q0 111 73 111q29 0 51.5 -21.5t22.5 -48.5q0 -35 -47 -90l-92 -106l-6 131q-2 12 -2 24zM463 1169l121 45q55 20 82 21q74 0 73 -70q0 -29 -20.5 -50t-48.5 -21q-39 0 -80 18z" />
<glyph unicode="+" d="M47 655v88h420v394h92v-394h420v-88h-420v-395h-92v395h-420z" />
<glyph unicode="," horiz-adv-x="505" d="M90 -297q92 8 150.5 69.5t58.5 149.5q0 78 -70 86q-137 14 -137 109q0 47 37 78.5t92 31.5q80 0 130 -60.5t50 -156.5q0 -143 -82 -238.5t-221 -111.5z" />
<glyph unicode="-" horiz-adv-x="423" d="M0 383l27 109h397l-29 -109h-395z" />
<glyph unicode="." horiz-adv-x="505" d="M133 92q0 49 35 84t86 35q47 0 82 -35t35 -84t-35 -84t-84 -35t-84 35t-35 84z" />
<glyph unicode="/" horiz-adv-x="1009" d="M-63 -301l925 1796h99l-926 -1796h-98z" />
<glyph unicode="0" d="M74 684q0 283 147 506q117 176 293 176t291 -176q147 -225 147 -514q0 -285 -147 -514q-113 -176 -291 -176t-293 176q-147 227 -147 522zM240 680q0 -297 73.5 -470t198.5 -173t199.5 172t74.5 465t-73.5 467t-198.5 174t-199.5 -173t-74.5 -462z" />
<glyph unicode="1" d="M219 1094q205 109 284 160t150 126l19 -6v-1177q0 -106 22.5 -131t122.5 -27q20 0 70 -2v-41l-305 4q-37 0 -303 -4v41q41 2 71 2q94 -2 125 30t31 128v993q-63 -33 -148 -78q-51 -27 -122 -57z" />
<glyph unicode="2" d="M66 0v37q168 135 374 391q231 287 232 528q0 135 -67.5 215t-182.5 80q-72 0 -128 -37.5t-140 -140.5l-27 21q88 145 178 208.5t209 63.5q145 0 235.5 -97.5t90.5 -256.5q0 -147 -82 -285.5t-312 -378.5q-49 -51 -186 -196h594q35 0 48 12t48 82h35l-55 -246h-864z" />
<glyph unicode="3" d="M55 137q0 16 30 42t50 26t76 -76q68 -94 197 -94q143 0 237 127q74 100 74 213q0 86 -47 158.5t-122.5 106.5t-225.5 34v45q330 41 329 303q0 104 -62.5 171t-160.5 67q-117 0 -229 -115l-33 24q168 197 354 197q121 0 204 -77t83 -189q0 -184 -246 -336q139 -27 209 -78 q115 -84 115 -229q0 -188 -168 -342q-141 -129 -330 -129q-176 0 -293 96q-41 33 -41 55z" />
<glyph unicode="4" d="M45 420v84l662 848h71v-799h191v-133h-191v-420h-155v420h-578zM164 553h459v596z" />
<glyph unicode="5" d="M57 139q0 14 24.5 42t37.5 28q18 0 65 -53q100 -113 215 -113q119 0 204 93t85 224q0 176 -143 308q-68 61 -301 176l176 508h471l-31 -150h-438l-74 -207q197 -100 268 -159q209 -172 209 -387q0 -188 -134 -325.5t-320 -137.5q-147 0 -269 98q-45 37 -45 55z" />
<glyph unicode="6" d="M98 481q0 416 385 690q201 143 465 209l17 -41q-293 -86 -481.5 -294.5t-204.5 -464.5q92 96 164.5 134t160.5 38q137 0 230.5 -103.5t93.5 -255.5q0 -160 -129 -283.5t-297 -123.5q-180 0 -292 137t-112 358zM274 428q-4 -139 50 -246q74 -145 208 -145q96 0 166 90 t70 215q0 129 -69.5 213t-178.5 84q-146 0 -244 -154z" />
<glyph unicode="7" d="M82 1104l41 248h872l19 -17l-719 -1358l-68 35l629 1186h-608q-55 0 -72.5 -10t-36.5 -51q-4 -8 -14 -33h-43z" />
<glyph unicode="8" d="M137 299q0 127 109 227q47 43 157 123q-248 160 -247 369q0 154 123 262q98 86 249 86q145 0 242.5 -83t97.5 -206q0 -143 -129 -256q-57 -49 -137 -98q285 -178 285 -379q0 -145 -114 -251.5t-269 -106.5q-150 0 -258.5 93t-108.5 220zM268 313q0 -121 69 -200.5 t171 -79.5q92 0 159.5 69.5t67.5 165.5q0 94 -67 183q-41 53 -166 139q-17 10 -58 39q-61 -59 -84 -84q-92 -102 -92 -232zM297 1081q0 -90 57 -161.5t209 -167.5l60 45q113 86 112 260q0 113 -60.5 186.5t-154.5 73.5q-90 0 -156.5 -69.5t-66.5 -166.5z" />
<glyph unicode="9" d="M86 0q283 68 466 287t200 508q-109 -119 -176.5 -159t-155.5 -40q-137 0 -231.5 97.5t-94.5 240.5q0 174 124 303t288 129q182 0 301 -146.5t119 -371.5q0 -375 -320 -653q-182 -160 -508 -242zM248 1018q0 -127 72.5 -217t173.5 -90q140 -1 251 157q0 172 -47 275 q-78 172 -223 172q-92 0 -159.5 -88t-67.5 -209z" />
<glyph unicode=":" horiz-adv-x="505" d="M133 92q0 49 35 84t86 35q47 0 82 -35t35 -84t-35 -84t-84 -35t-84 35t-35 84zM133 709q0 49 35 83.5t86 34.5q47 0 82 -34.5t35 -83.5t-35 -84t-84 -35t-84 34.5t-35 84.5z" />
<glyph unicode=";" horiz-adv-x="505" d="M90 -297q92 8 150.5 69.5t58.5 149.5q0 78 -70 86q-137 14 -137 109q0 47 37 78.5t92 31.5q80 0 130 -60.5t50 -156.5q0 -143 -82 -238.5t-221 -111.5zM121 709q0 49 35 83.5t86 34.5q47 0 81.5 -34.5t34.5 -83.5t-34.5 -84t-83.5 -35t-84 34.5t-35 84.5z" />
<glyph unicode="&#x3c;" d="M88 698v13l848 544v-77l-639 -416l639 -426v-205z" />
<glyph unicode="=" d="M47 512v86h932v-86h-932zM47 801v86h932v-86h-932z" />
<glyph unicode="&#x3e;" d="M88 131v78l639 414l-639 428v204l848 -567v-12z" />
<glyph unicode="?" horiz-adv-x="714" d="M150 1300q0 39 34.5 66t83.5 27q133 0 242 -146q135 -182 135 -366q0 -141 -94 -224q-29 -25 -53 -34q-16 -6 -121 -35q-72 -20 -86.5 -47t-16.5 -133h-45v342q143 12 217 57q109 68 109 186q0 90 -66.5 160t-150.5 70q-12 0 -57 -9q-20 -6 -35 -6q-37 0 -66.5 29 t-29.5 63zM154 92q0 49 34.5 84t85.5 35q47 0 82 -35t35 -84t-34.5 -84t-84.5 -35q-49 0 -83.5 35t-34.5 84z" />
<glyph unicode="@" horiz-adv-x="1585" d="M102 643q0 182 93.5 354t246.5 277q188 127 447 127q266 0 431 -150.5t165 -394.5q0 -219 -128 -396t-288 -177q-59 0 -96 49t-37 127v26q-133 -207 -283 -206q-82 0 -133 71.5t-51 186.5q0 195 126 365.5t269 170.5q113 0 180 -112l17 90q57 2 102 14l-114 -479 q-23 -94 -23 -142q0 -96 74 -96q84 0 178 111q137 162 137 389q0 219 -144.5 354t-375.5 135q-319 0 -514 -219q-78 -88 -134.5 -235.5t-56.5 -268.5t58.5 -243.5t154.5 -202.5q158 -133 371 -133q164 0 309 88q50 28 142 98l53 -24q-98 -82 -170 -127q-158 -100 -354 -101 q-272 0 -462 196.5t-190 477.5zM571 494q0 -70 32 -113t83 -43q92 0 174 120t107 253q4 16 8 41l33 104q2 6 2 16q0 66 -34 107t-87 41q-115 0 -213 -172q-104 -184 -105 -354z" />
<glyph unicode="A" horiz-adv-x="1294" d="M-14 -4v49q88 4 131 47q37 35 69 129l367 1039l-21 59q59 39 103 94q18 25 33 25q18 0 26 -21l439 -1229q29 -80 70.5 -110.5t117.5 -32.5v-49q-106 4 -242 4q-137 0 -252 -4v49l45 2q86 4 86 57q0 20 -16 68l-119 338h-452l-103 -336q-6 -20 -6 -39q0 -45 28.5 -62.5 t145.5 -27.5v-49q-113 4 -264 4q-115 0 -186 -4zM397 582h396l-205 589z" />
<glyph unicode="B" horiz-adv-x="1210" d="M68 -4v49h51q127 0 127 195v886q0 195 -127 195h-51v49l217 -4q39 0 118.5 3t118.5 3q193 0 318 -57q78 -37 127 -107.5t49 -148.5q0 -94 -63.5 -163t-221.5 -151q125 -23 207 -61q96 -45 153.5 -132t57.5 -190q0 -162 -134 -266t-345 -104q-55 0 -167 4t-167 4 q-102 0 -268 -4zM424 260q0 -109 39 -151q53 -59 168 -60q127 0 217 74q102 84 102 250q0 201 -151 276q-98 49 -207 49h-168v-438zM424 764h127q127 0 196.5 92t69.5 207q0 147 -102 205q-70 39 -197 39q-70 0 -82 -9.5t-12 -62.5v-471z" />
<glyph unicode="C" horiz-adv-x="1400" d="M88 684q0 303 220 505t550 202q232 -1 465 -107l20 -256l-34 -2q-35 129 -105 193q-119 106 -332 106q-291 0 -444 -190q-137 -170 -137 -414q0 -250 133 -438q80 -113 203 -178.5t256 -65.5q94 0 184 32.5t142.5 87t97.5 193.5l32 -10l-30 -250q-178 -119 -473 -119 q-319 0 -533.5 204t-214.5 507z" />
<glyph unicode="D" horiz-adv-x="1517" d="M68 -4v49h51q127 0 127 195v886q0 195 -127 195h-47v49l229 -4q51 0 155.5 4t155.5 4q369 0 593.5 -192.5t224.5 -507.5q0 -303 -214.5 -492.5t-553.5 -189.5q-37 0 -179 6q-47 2 -166 2q-135 0 -249 -4zM424 272q0 -113 39 -157q53 -61 217 -62q260 0 416 193 q131 162 131 397q0 233 -109.5 400t-298.5 225q-119 37 -280 37q-80 0 -97.5 -12.5t-17.5 -65.5v-955z" />
<glyph unicode="E" horiz-adv-x="1173" d="M68 -4v49h51q127 0 127 195v886q0 195 -127 195h-51v49q76 -4 237 -4h463q160 0 238 4l12 -291l-37 -6q-39 221 -236 221h-321v-557h258q92 0 128 38t40 138h43q-4 -141 -4 -208q0 -74 4 -213h-43q-4 98 -38 136t-120 38h-268v-381q0 -168 113 -201q53 -16 215 -16 q182 0 251.5 39.5t120.5 173.5h41l-63 -285q-76 4 -236 4h-561q-162 0 -237 -4z" />
<glyph unicode="F" horiz-adv-x="1064" d="M68 -4v49h51q127 0 127 195v886q0 195 -127 195h-51v49q121 -4 270 -4h448q145 0 238 4v-287h-41q-16 113 -66.5 162t-150.5 49h-342v-557h254q100 0 136 37t38 137h43q-2 -68 -2 -180q0 -119 2 -239h-43q-8 174 -152 174h-276v-426q0 -195 127 -195h63v-49 q-117 4 -278 4q-158 0 -268 -4z" />
<glyph unicode="G" horiz-adv-x="1503" d="M88 680q0 322 231 520q223 190 541 191q198 -1 477 -107l29 -268h-37q-25 129 -110 201q-132 110 -341 110h-4q-260 0 -418.5 -167t-158.5 -441q0 -281 165 -476.5t402 -195.5q162 0 293 74v205q0 117 -10 145q-25 59 -121 61q-8 0 -31 3v47q119 -4 228 -4q102 0 245 4 l2 -47q-82 -2 -107.5 -37t-25.5 -154v-135q0 -14 2 -31v-14q-2 -18 2 -29q2 -2 19 -8l12 -6l-4 -31q-337 -110 -547 -110h-4q-309 0 -519 200.5t-210 499.5z" />
<glyph unicode="H" horiz-adv-x="1687" d="M68 -4v49h51q127 0 127 195v886q0 195 -127 195h-51v49q111 -4 274 -4q156 0 260 4v-49h-51q-127 0 -127 -195v-389h840v389q0 195 -127 195h-52v49q94 -4 306 -4q154 0 229 4v-49h-51q-127 0 -127 -195v-886q0 -195 127 -195h51v-49q-127 4 -231 4q-72 0 -304 -4v49h52 q127 0 127 195v426h-840v-426q0 -195 127 -195h51v-49l-299 4q-109 0 -235 -4z" />
<glyph unicode="I" horiz-adv-x="669" d="M68 -4v49h51q127 0 127 195v886q0 195 -127 195h-51v49q115 -4 247 -4q88 0 287 4v-49h-51q-127 0 -127 -195v-886q0 -195 127 -195h51v-49l-276 4q-76 0 -258 -4z" />
<glyph unicode="J" horiz-adv-x="641" d="M-188 -287q0 23 35.5 51.5t64.5 28.5q33 0 55 -74q27 -88 111 -88q104 0 141 127q27 92 27 273v1095q0 195 -127 195h-64v49q90 -4 240 -4q184 0 307 4v-49h-51q-127 0 -127 -195v-1026q0 -193 -80 -342q-47 -88 -134 -139t-187 -51q-88 0 -149.5 43t-61.5 102z" />
<glyph unicode="K" horiz-adv-x="1341" d="M68 -4v49h51q127 0 127 195v886q0 195 -127 195h-51v49q117 -4 258 -4q102 0 276 4v-49h-51q-127 0 -127 -195v-430l504 518q30 30 30 58q0 47 -96 53v45q88 -4 215 -4q129 0 221 4l-2 -45q-104 -12 -170 -49q-76 -43 -186 -158l-342 -354l545 -600q109 -119 223 -119h8 v-49l-162 4q-20 0 -159 -4l-588 659h-41v-415q0 -195 127 -195h51v-49q-106 4 -256 4q-158 0 -278 -4z" />
<glyph unicode="L" horiz-adv-x="1148" d="M68 -4v49h51q127 0 127 195v886q0 195 -127 195h-51v49q86 -4 231 -4q186 0 303 4v-49h-51q-127 0 -127 -195v-800q0 -129 33 -179q52 -79 263 -79h5q178 0 272.5 50t139.5 187l37 -16l-76 -291l-238 2h-518q-178 0 -274 -4z" />
<glyph unicode="M" horiz-adv-x="1843" d="M-37 -4v49q129 0 175 52.5t61 213.5l69 781q4 45 4 63q0 94 -39.5 130t-142.5 36v49l166 -4q18 0 154 4l501 -1147l551 1147l150 -4q16 0 147 4v-49q-102 -8 -132 -48t-30 -171v-55l21 -824q2 -104 48 -142q44 -36 151 -36h12v-49l-303 4q-57 0 -285 -4v49q125 4 164 42 q35 34 35 136v21l-4 100l-17 760l-528 -1118h-66l-495 1091l-60 -786q-2 -27 -2 -70q0 -90 42 -130t143 -46v-49q-117 4 -271 4q-131 0 -219 -4z" />
<glyph unicode="N" horiz-adv-x="1583" d="M8 1321v49l166 -4q21 0 168 4l948 -1073v829q0 160 -110 187q-31 8 -101 8h-12v49q100 -4 252 -4q139 0 231 4v-49h-12q-84 0 -132 -56.5t-48 -150.5v-1141h-39l-1010 1149v-583q0 -326 41 -409t203 -85v-49q-96 4 -238 4q-158 0 -280 -4v49h31q92 0 127 35q47 47 47 160 v714q0 180 -10.5 228.5t-51.5 83.5q-63 53 -170 55z" />
<glyph unicode="O" horiz-adv-x="1581" d="M88 694q0 279 209 489t485 210q283 0 497 -202t214 -501q0 -289 -207 -501t-489 -212q-295 0 -502 209t-207 508zM287 745q0 -258 135 -469q150 -233 393 -233q102 0 199.5 47t154.5 127q121 166 121 414q0 268 -143 483t-387 215q-248 0 -373 -205q-100 -166 -100 -379z " />
<glyph unicode="P" horiz-adv-x="1091" d="M68 -4v49h51q127 0 127 195v886q0 195 -127 195h-51v49q125 -4 196 -4q80 0 193 4q57 2 125 2q205 0 331.5 -103.5t126.5 -267.5q0 -184 -126 -296.5t-330 -112.5h-47v43q125 8 196 61q123 90 123 267q0 160 -90 252t-246 92q-57 0 -96 -2v-1065q0 -195 127 -195h51v-49 q-84 4 -250 4q-188 0 -284 -4z" />
<glyph unicode="Q" horiz-adv-x="1579" d="M88 682q0 289 207 500t487 211q285 0 498 -203t213 -502q0 -295 -207 -502q-111 -111 -299 -184q49 -33 334 -244q95 -73 132 -73h1q37 0 80 20l18 -27q-94 -102 -198 -102q-88 0 -191 72q-16 10 -131 112q-178 158 -221 186.5t-111 39.5q-193 31 -335 139 q-276 211 -277 557zM291 733q0 -256 135 -461q154 -231 385 -231q229 0 365 178q114 149 114 398q0 291 -142 501.5t-390 210.5q-213 0 -340 -161.5t-127 -434.5z" />
<glyph unicode="R" horiz-adv-x="1333" d="M68 -4v49h51q127 0 127 195v886q0 195 -127 195h-51v49l215 -4q10 0 60 2t87 2l160 2h10q204 0 326 -82q133 -90 133 -254q0 -152 -105 -248q-51 -47 -170 -96l322 -465q127 -182 289 -182v-49q-74 4 -166 4q-16 0 -144 -4q-113 78 -233 270l-246 391h-55q-33 0 -80 5 q-12 0 -47 4v-426q0 -195 127 -195h51v-49q-106 4 -256 4q-160 0 -278 -4zM424 733q76 -16 125 -16q139 0 233.5 85t94.5 212q0 125 -97.5 208t-247.5 83q-28 -1 -108 -7v-565z" />
<glyph unicode="S" horiz-adv-x="958" d="M55 334h31q51 -137 111 -199q90 -94 231 -94q115 0 196 79t81 191q0 88 -53.5 152.5t-184.5 136.5q-178 98 -242 164q-106 113 -106 266q0 158 114.5 260.5t292.5 102.5q117 -1 271 -50l24 -233h-35q-33 102 -84 150q-71 65 -177 65h-3q-106 0 -179 -65.5t-73 -161.5 q0 -100 68 -180q45 -55 186 -132q203 -111 276.5 -198.5t73.5 -218.5q0 -170 -126.5 -284t-319.5 -114q-211 0 -350 92z" />
<glyph unicode="T" horiz-adv-x="1288" d="M-12 1126q23 160 24 287h43q29 -47 97 -47h985q68 0 96 47h43q2 -127 24 -287h-40q-18 96 -70.5 132t-175.5 36h-283v-1054q0 -195 127 -195h68v-49q-111 4 -283 4q-170 0 -281 -4v49h68q127 0 127 195v1054h-283q-123 0 -175 -35.5t-70 -132.5h-41z" />
<glyph unicode="U" horiz-adv-x="1509" d="M55 1321v49q98 -4 254 -4q170 0 281 4v-49h-51q-127 0 -127 -195v-596q0 -236 107.5 -362.5t305.5 -126.5q197 0 291 131q49 68 62 160q8 49 8 174v620q0 195 -127 195h-51v49q70 -4 168 -4q72 0 280 4v-49h-51q-127 0 -127 -195v-618q0 -147 -12 -203q-20 -96 -97 -178 q-143 -154 -411 -154q-270 0 -408 140q-117 119 -117 379v634q0 195 -127 195h-51z" />
<glyph unicode="V" horiz-adv-x="1261" d="M-41 1321v49q90 -4 229 -4q160 0 265 4v-49q-74 -2 -97 -10q-33 -12 -32 -43q0 -29 30 -109l351 -899l323 846q29 76 29 119q0 90 -152 96v49q84 -4 234 -4q100 0 157 4v-49q-66 -8 -99.5 -52t-92.5 -198l-426 -1106h-62l-438 1141q-47 121 -85 165t-97 48z" />
<glyph unicode="W" horiz-adv-x="1843" d="M-41 1321v49q119 -4 260 -4q127 0 221 4v-49q-57 -2 -73 -8q-37 -12 -37 -53q0 -8 39 -107l376 -956l209 467l-190 436q-63 143 -102 182t-125 39v49q92 -4 208 -4q98 0 236 4v-49q-96 0 -96 -45q0 -20 33 -94l129 -293l112 264q27 61 27 111q0 57 -133 57v49 q68 -4 170 -4q127 0 204 4v-49h-32q-49 0 -83 -40t-91 -167l-138 -305l244 -594l326 938q22 63 22 92q0 53 -45 70q-27 8 -92 10v45q63 -4 172 -4q104 0 168 4v-49q-59 -4 -81.5 -34t-76.5 -173l-424 -1149h-34l-271 610l-293 -610h-34l-463 1135q-63 158 -99 189.5 t-137 31.5h-6z" />
<glyph unicode="X" horiz-adv-x="1366" d="M-31 -4v49q86 8 141.5 39t114.5 111l363 477l-363 473q-84 111 -127 139.5t-129 36.5v49q160 -4 248 -4q80 0 279 4v-49h-43q-82 0 -82 -51q0 -33 35 -78l292 -381l183 240q125 164 125 217q0 33 -24 42t-97 11v49q152 -4 235 -4q117 0 221 4v-49h-17q-82 0 -138 -35 q-62 -39 -152 -156l-291 -372l390 -508q104 -137 153 -170q31 -20 115 -35v-49q-96 4 -234 4q-152 0 -264 -4v49q104 2 105 49q0 27 -56 101l-315 415l-299 -395q-55 -74 -55 -102q0 -68 141 -68v-49q-162 4 -234 4t-221 -4z" />
<glyph unicode="Y" horiz-adv-x="1198" d="M-63 1321v49q115 -4 241 -4q125 0 230 4v-49q-106 0 -107 -43q0 -39 37 -86l326 -422l278 379q47 63 47 111q0 61 -127 61v49q96 -4 217 -4q106 0 181 4v-49q-82 -4 -140 -59q-20 -20 -98 -123l-328 -439v-460q0 -195 127 -195h51v-49q-158 4 -254 4q-94 0 -262 -4v49h33 q127 0 127 195v428l-352 471q-133 176 -227 182z" />
<glyph unicode="Z" horiz-adv-x="1288" d="M-4 0l977 1294h-527q-182 0 -246.5 -37.5t-109.5 -171.5h-35l58 297h37q14 -16 40 -16h1061l-979 -1294h725q76 0 117 16t86 70q53 63 92 155h35l-90 -317q-90 4 -238 4h-1003z" />
<glyph unicode="[" horiz-adv-x="591" d="M137 -301v1796l191 -4q23 0 190 4v-47q-188 0 -221 -14.5t-33 -96.5v-1480q0 -82 33 -96.5t221 -12.5v-49l-190 4q-23 0 -191 -4z" />
<glyph unicode="\" horiz-adv-x="1009" d="M51 1495h99l925 -1796h-98z" />
<glyph unicode="]" horiz-adv-x="591" d="M76 -252q188 -2 221 12.5t33 96.5v1480q0 82 -32 96.5t-222 14.5v47l190 -4q23 0 191 4v-1796l-191 4q-23 0 -190 -4v49z" />
<glyph unicode="^" d="M-51 586l567 848h12l545 -848h-78l-413 639l-428 -639h-205z" />
<glyph unicode="_" d="M47 -180h932v-88h-932v88z" />
<glyph unicode="`" d="M178 1327q0 20 18.5 37.5t41.5 17.5q33 0 61 -39l270 -358l-22 -20l-328 297q-41 37 -41 65z" />
<glyph unicode="a" horiz-adv-x="897" d="M80 594q0 92 215 197q170 83 230 83h1q72 0 129 -36q80 -51 80 -172v-422q0 -172 86 -172q27 0 68 20l20 -24q-86 -96 -182 -97q-61 0 -98 45q-27 33 -37 109q-170 -152 -305 -152q-82 0 -142.5 53.5t-60.5 125.5q0 125 188 208q102 45 314 119v70q0 115 -45 167t-131 52 q-78 0 -127 -45q-29 -27 -47 -102q-6 -29 -41 -48q-51 -28 -76 -28h-2q-37 0 -37 49zM244 201q0 -57 43 -97.5t102 -40.5q47 0 81 18.5t116 90.5v254q-113 -33 -205 -70q-137 -55 -137 -155z" />
<glyph unicode="b" horiz-adv-x="1058" d="M37 1352v45q125 25 237 98l19 -6v-768q173 151 309 151h2q156 0 261.5 -114.5t105.5 -284.5t-107 -313q-137 -186 -356 -187q-133 0 -266 43q-37 8 -39 9q-18 0 -35 -25h-25v1174q0 98 -8 120q-20 51 -98 58zM293 313q0 -121 37 -182q68 -111 198 -111q127 0 207 100.5 t80 256.5q0 160 -93 270.5t-228 110.5q-86 0 -201 -78v-367z" />
<glyph unicode="c" horiz-adv-x="886" d="M88 399q0 199 141.5 336t343.5 137q109 0 197 -35.5t88 -80.5q0 -33 -26.5 -67t-53.5 -34q-29 0 -59 43q-92 125 -203 125q-113 0 -191.5 -101t-78.5 -247q0 -158 101.5 -266.5t248.5 -108.5q119 0 217 84l29 -28q-180 -184 -363 -185q-158 0 -274.5 128t-116.5 300z" />
<glyph unicode="d" horiz-adv-x="1099" d="M86 350q0 195 115 332q160 190 387 190q106 0 186 -47v349q0 98 -8 120q-20 51 -98 58v45q127 27 237 98l19 -6v-1284q0 -68 4 -84q12 -47 57 -47q18 0 74 6v-41q-150 -23 -266 -66l-19 4v136q-168 -141 -319 -142q-152 0 -260.5 112t-108.5 267zM244 446q0 -156 99 -267 t237 -111q86 0 140 46t54 122v399q0 78 -55 123q-78 63 -166 63q-74 0 -143.5 -40t-110.5 -105q-55 -88 -55 -230z" />
<glyph unicode="e" horiz-adv-x="915" d="M86 393q0 209 116.5 345t297.5 136q143 0 243.5 -79.5t100.5 -194.5q0 -31 -20 -37t-126 -6h-458q-4 -66 -4 -80q0 -170 91 -282.5t228 -112.5q129 0 270 111l23 -27q-195 -193 -377 -193q-170 0 -277.5 117t-107.5 303zM244 604h362q74 0 74 60q0 66 -55.5 114.5 t-130.5 48.5q-137 0 -209 -110q-29 -43 -41 -113z" />
<glyph unicode="f" horiz-adv-x="630" d="M51 -4v41h45q59 0 78 31q14 23 14 90v600h-125v30q74 16 97 46q16 18 24 73q2 14 17 170q12 143 138 281.5t245 138.5q43 0 83 -20.5t40 -42.5q0 -31 -28 -70t-48 -39q-14 0 -39 14q-53 33 -92 33q-113 0 -144 -112q-18 -68 -18 -226v-188h278v-88h-278v-600 q0 -68 14 -90q18 -31 78 -31h113v-41q-86 4 -240 4q-162 0 -252 -4z" />
<glyph unicode="g" horiz-adv-x="942" d="M49 -209q0 141 219 203q-68 27 -98 53q-66 45 -66 109q0 20 23 75q88 37 158 93q-201 72 -201 251q0 127 105.5 212t261.5 85q109 0 251 -67l250 12v-78h-209q47 -70 48 -151q0 -121 -100.5 -206t-241.5 -85q-39 0 -105 8q-80 -53 -80 -102q0 -55 64 -72q47 -12 178 -12 h49q31 0 80 2h57q266 0 266 -195q0 -139 -158.5 -243.5t-371.5 -104.5q-164 0 -271.5 60.5t-107.5 152.5zM201 -172q0 -82 86 -136t213 -54q143 0 241.5 62t98.5 153q0 39 -27 67q-61 66 -227 66q-207 0 -279 -23q-45 -14 -75.5 -53t-30.5 -82zM240 596q0 -106 59 -180 t147 -74q86 0 136.5 65.5t50.5 176.5q0 109 -55.5 174t-145.5 65q-84 0 -138 -64.5t-54 -162.5z" />
<glyph unicode="h" horiz-adv-x="1058" d="M39 -4v41h45q59 0 78 31q14 23 14 90v1016q0 98 -8 120q-20 51 -98 58v45q121 27 235 98l19 -6v-780q181 165 311 165h2q109 0 182.5 -86t73.5 -215v-415q0 -68 14 -90q18 -31 78 -31h45v-41q-86 4 -225 4q-109 0 -170 -4v41h16q59 0 78 31q14 23 14 90v282q0 115 -6 155 t-32 83q-49 84 -142 84q-117 0 -239 -107v-497q0 -68 14 -90q18 -31 78 -31h45v-41q-78 4 -199 4q-133 0 -223 -4z" />
<glyph unicode="i" horiz-adv-x="503" d="M45 -4v41h45q59 0 78 31q14 23 14 90v415q0 98 -8 121q-20 51 -98 58v43q113 25 235 98l19 -4v-731q0 -68 14 -90q18 -31 78 -31h45v-41q-78 4 -199 4q-133 0 -223 -4zM168 1249q0 37 26.5 63.5t65.5 26.5q37 0 63.5 -26.5t26.5 -63.5q0 -39 -26.5 -65.5t-63.5 -26.5 q-39 0 -65.5 26.5t-26.5 65.5z" />
<glyph unicode="j" horiz-adv-x="448" d="M2 -360q113 39 143 120q29 76 29 156v657q0 98 -8 121q-20 52 -98 58v43q117 25 235 98l19 -4v-875q0 -164 -71 -265t-235 -144zM160 1249q0 37 26.5 63.5t65.5 26.5q37 0 63.5 -26.5t26.5 -63.5q0 -39 -26.5 -65.5t-63.5 -26.5q-39 0 -65.5 26.5t-26.5 65.5z" />
<glyph unicode="k" horiz-adv-x="974" d="M14 -4v41h45q59 0 78 31q14 23 15 90v1016q0 98 -9 120q-20 51 -98 58v45q127 27 238 98l18 -6v-1020q10 2 31.5 6t32.5 14q31 31 102 93l135 118q41 37 41 60q0 41 -88 49v41q92 -4 193 -4q98 0 186 4v-41q-98 -6 -236 -123l-221 -186l309 -342q68 -61 101 -82 q57 -37 121 -39v-41q-131 4 -148 4q-18 0 -133 -4l-389 426h-37v-264q0 -68 14 -90q18 -31 78 -31h45v-41q-94 4 -207 4q-117 0 -217 -4z" />
<glyph unicode="l" horiz-adv-x="499" d="M39 -4v41h45q59 0 78 31q14 23 14 90v1016q0 98 -8 120q-20 54 -98 60v43q127 27 237 98l19 -6v-1331q0 -68 14 -90q18 -31 78 -31h45v-41q-94 4 -207 4q-119 0 -217 -4z" />
<glyph unicode="m" horiz-adv-x="1611" d="M45 -4v41h45q59 0 78 31q14 23 14 90v415q0 96 -8 121q-20 51 -98 58v43q113 25 235 98l19 -6v-148q199 133 334 133q141 0 215 -145q135 82 180 104q86 43 168 43q102 0 159.5 -68.5t57.5 -193.5v-454q0 -68 14 -90q18 -31 78 -31h45v-41q-143 4 -229 4q-109 0 -195 -4 v41h45q59 0 78 31q14 23 14 90v383q0 115 -41 168q-50 67 -133 67h-2q-72 0 -233 -96v-522q0 -68 14 -90q18 -31 78 -31h45v-41q-129 4 -213 4q-78 0 -211 -4v41h45q59 0 78 31q14 23 14 90v387q0 106 -48 166.5t-132 60.5q-106 0 -225 -88v-526q0 -68 14 -90q18 -31 78 -31 h45v-41q-78 4 -199 4q-133 0 -223 -4z" />
<glyph unicode="n" horiz-adv-x="1075" d="M45 -4v41h45q59 0 78 31q14 23 14 90v415q0 96 -8 121q-20 51 -98 58v43q113 25 235 98l19 -6v-160q201 145 358 145q96 0 157.5 -72.5t61.5 -187.5v-454q0 -68 15 -90q18 -31 77 -31h45v-41q-106 4 -217 4q-106 0 -204 -4v41h45q59 0 77 31q14 23 15 90v385 q0 111 -39 162q-50 65 -151 65h-3q-106 0 -237 -88v-524q0 -68 14 -90q18 -31 78 -31h45v-41q-78 4 -199 4q-133 0 -223 -4z" />
<glyph unicode="o" horiz-adv-x="1103" d="M88 436q0 180 119 299q137 137 348 137q188 0 323.5 -132t135.5 -314q0 -186 -135.5 -319.5t-323.5 -133.5q-199 0 -333 133.5t-134 329.5zM260 459q0 -152 64 -269q89 -165 245 -165h2q123 0 196 99t73 265q0 186 -86 309t-219 123q-125 0 -200 -98t-75 -264z" />
<glyph unicode="p" horiz-adv-x="1089" d="M41 -406h41q59 0 78 31q14 23 14 90l-2 920q-4 63 -24.5 89t-77.5 28v43q115 25 233 98l19 -6v-170q57 68 147 112.5t170 44.5q150 0 256 -118.5t106 -288.5q0 -190 -149.5 -342t-337.5 -152q-96 0 -192 31v-289q0 -68 16 -90q18 -31 78 -31h73v-40q-113 4 -253 4 q-117 0 -195 -4v40zM322 258q0 -121 40 -166q58 -65 173 -65h4q137 0 220 97t83 261q0 172 -84 276.5t-221 104.5q-123 0 -215 -98v-410z" />
<glyph unicode="q" horiz-adv-x="1042" d="M88 375q0 199 151.5 348t352.5 149q76 0 217 -53l88 74l18 -6v-1172q0 -68 15 -90q18 -31 78 -31h49v-40l-223 4q-45 0 -234 -4v40h74q59 0 78 31q14 22 14 90v363q-178 -106 -309 -107q-158 0 -263.5 115t-105.5 289zM240 459q0 -162 103 -275.5t249 -113.5 q104 0 170 53v442q0 135 -35 180q-61 82 -190 82q-125 0 -211 -106.5t-86 -261.5z" />
<glyph unicode="r" horiz-adv-x="702" d="M45 -4v41h45q59 0 78 31q14 23 14 90v415q0 96 -8 121q-20 51 -98 58v43q113 25 235 98l19 -6v-191q150 186 268 187q94 0 94 -84q0 -49 -24.5 -82t-63.5 -33q-23 0 -54.5 23.5t-66.5 23.5q-61 0 -107 -48t-46 -114v-411q0 -68 14 -90q18 -31 78 -31h98v-41l-276 4 q-113 0 -199 -4z" />
<glyph unicode="s" horiz-adv-x="747" d="M86 268h33q51 -241 250 -241h2q72 0 118 42t46 107q0 59 -44.5 101t-171.5 104q-104 51 -147 96q-63 68 -63 154q0 102 82.5 172.5t203.5 70.5q111 0 248 -53v-184h-35q-29 82 -47 111q-54 81 -169 81h-3q-61 0 -104 -40.5t-43 -100.5q0 -49 31.5 -81t117.5 -72 q166 -78 226.5 -140.5t60.5 -156.5q0 -113 -92 -190t-228 -77q-152 0 -262 82z" />
<glyph unicode="t" horiz-adv-x="620" d="M63 758v35q150 109 244 247l19 -4v-190h286v-88h-295v-537q0 -153 127 -153h2q68 0 142 47l18 -27q-125 -115 -241 -115q-121 0 -168 88q-20 39 -21 197v500h-113z" />
<glyph unicode="u" horiz-adv-x="1021" d="M39 825v35q168 6 244 33l18 -4v-625q0 -88 48 -140t128 -52q100 0 244 135v459q0 80 -20.5 111.5t-96.5 47.5v35q158 4 246 33l18 -4v-715q0 -61 10.5 -83.5t45.5 -22.5q16 0 82 10v-41q-96 -20 -267 -64l-18 4v152q-195 -156 -338 -156q-66 0 -123 32t-80 83 q-28 61 -28 154v6v418q0 78 -17 106q-23 35 -96 53z" />
<glyph unicode="v" horiz-adv-x="831" d="M-23 809v41q90 -4 173 -4q47 0 206 4v-41q-96 -6 -96 -61q0 -8 25 -74l180 -477l180 450q23 57 23 88q0 72 -109 74v41q70 -4 150 -4t153 4v-41q-55 -4 -84 -33q-35 -33 -69 -121l-279 -690h-37l-278 721q-29 74 -56.5 98.5t-81.5 24.5z" />
<glyph unicode="w" horiz-adv-x="1415" d="M-23 809v41q88 -4 179 -4q88 0 174 4v-41q-88 -6 -88 -45q0 -20 18 -66l207 -516l195 484l-25 51q-23 47 -46.5 64.5t-76.5 27.5v41q137 -4 197 -4q55 0 186 4v-41q-102 -8 -102 -49q0 -16 18 -62l207 -516l186 494q14 39 15 61q0 47 -39 62q-23 8 -80 10v41 q115 -4 170 -4q51 0 174 4v-41q-74 -4 -112 -35t-66 -106l-275 -703h-51l-248 617l-250 -617h-51l-287 717q-27 68 -50 90.5t-79 36.5z" />
<glyph unicode="x" horiz-adv-x="950" d="M-27 -4v41q125 6 209 106l219 260l-211 265q-74 92 -105.5 114.5t-86.5 26.5v41q137 -4 203 -4q63 0 194 4v-41q-86 -6 -86 -37q0 -16 33 -57l162 -201l170 201q25 29 24 49q0 35 -84 45v41q115 -4 170 -4q82 0 170 4v-41q-127 -12 -198 -94l-215 -246l233 -295 q66 -82 107 -111q35 -25 84 -26v-41q-139 4 -215 4q-106 0 -199 -4v41h8q74 0 74 59q0 25 -19 47l-174 215l-190 -215q-33 -37 -33 -57q0 -47 96 -49v-41q-139 4 -192 4q-80 0 -148 -4z" />
<glyph unicode="y" horiz-adv-x="835" d="M-23 809v41q88 -4 183 -4q61 0 196 4v-41q-104 -8 -104 -61q0 -18 6 -35l195 -490l182 408q27 59 27 104q0 70 -109 74v41q115 -4 160 -4q43 0 159 4v-41q-59 -2 -93 -33t-68 -110l-435 -979q-51 -117 -120 -117q-39 0 -70 30.5t-31 71.5t27 69t65 28q20 0 45 -12.5 t33 -12.5q16 0 27 25l119 264l-248 633q-33 84 -60.5 111.5t-85.5 31.5z" />
<glyph unicode="z" horiz-adv-x="788" d="M27 0l497 784h-262q-82 0 -107.5 -18t-68.5 -113h-33l29 236h37q8 -43 67 -43h559l-501 -785h153q141 0 189 5q55 4 84.5 34.5t89.5 147.5l37 -10l-52 -238h-718z" />
<glyph unicode="{" d="M213 637v31q115 6 159 44t44 132q0 33 -2 88t-2 170q0 154 20.5 225.5t77.5 110.5q35 25 79 31t195 8q8 0 37 2v-45q-125 -2 -181 -31t-79 -100q-16 -53 -16 -136v-311q0 -168 -156 -201v-6q104 -20 141 -119q16 -43 17 -301v-59v-41q-2 -23 -2 -25q0 -166 47 -223 q55 -68 229 -67v-45q-160 4 -196.5 6t-67.5 12q-147 49 -147 285q0 23 4 149q2 147 4 238q2 94 -45 134t-160 44z" />
<glyph unicode="|" d="M457 -342v1708h110v-1708h-110z" />
<glyph unicode="}" d="M203 -186q127 -2 186.5 30.5t77.5 114.5q10 39 10 133l2 322q-2 205 156 235v6q-115 23 -146 127q-10 35 -10 123v303q0 127 -61.5 175.5t-214.5 50.5v45q20 -2 37 -2h82q98 0 147 -17q70 -25 106.5 -95.5t36.5 -262.5q0 -109 -2 -162t-2 -98q0 -92 44 -130t159 -44v-31 q-117 -6 -161 -43t-42 -129l6 -395q4 -246 -163 -287q-41 -10 -248 -14v45z" />
<glyph unicode="~" horiz-adv-x="1366" d="M252 1274q121 199 283 199q51 0 184 -46q109 -37 164 -36q110 -1 200 112l29 -18q-49 -88 -127 -142.5t-151 -54.5q-37 0 -191 49q-115 37 -176 37t-107 -35q-25 -18 -79 -84z" />
<glyph unicode="&#xa1;" horiz-adv-x="518" d="M141 860q0 49 35 84t84 35t84 -35t35 -84t-35 -84t-86 -35q-47 0 -82 36t-35 83zM143 -272q0 78 9 141l81 631h52l80 -631q10 -80 10 -141q0 -76 -32 -122t-85 -46q-51 0 -83 46t-32 122z" />
<glyph unicode="&#xa2;" d="M160 655q0 158 98 282t256 163v135h51v-125q29 2 68 2q102 0 187 -36t85 -77q0 -33 -26.5 -65.5t-51.5 -32.5q-27 0 -57 43q-84 121 -205 121v-698q43 -12 82 -13q117 0 215 90l29 -26q-156 -162 -326 -178v-164h-51v164q-147 14 -250.5 135t-103.5 280zM311 729 q0 -248 203 -344v672q-92 -31 -147.5 -120t-55.5 -208z" />
<glyph unicode="&#xa3;" d="M35 -31q0 49 46 97.5t118 72.5q45 16 59 45t43 162q23 109 45 320h-205l11 71h206q49 276 109 416q55 131 163.5 213t227.5 82q68 0 113 -35t45 -86q0 -72 -80 -72q-25 0 -30 7.5t-13 48.5q-14 76 -98 75q-131 0 -193 -233q-53 -203 -82 -416h260l-10 -71h-262 q-27 -145 -67 -239.5t-142 -256.5q25 2 70 2q125 0 256 -90q84 -59 104.5 -68.5t56.5 -9.5q45 0 80 32t35 73q0 25 -9 38t-52 48q-16 16 -17 28q0 49 60 49q80 0 80 -106q0 -102 -72 -170t-180 -68q-82 0 -148.5 27t-181.5 106q-68 47 -100 48q-18 0 -28.5 -10.5 t-47.5 -61.5q-70 -98 -135 -98q-35 0 -35 30z" />
<glyph unicode="&#xa4;" horiz-adv-x="1474" d="M53 590l31 72h63v71h-94l31 72h74q41 256 255 421t505 165q231 0 464 -107l21 -256l-35 -2q-33 127 -106 193q-119 106 -330 106q-242 0 -393.5 -137t-184.5 -383h809l-30 -72h-783v-6q0 -43 2 -65h750l-31 -72h-709q20 -117 74 -225q72 -147 210 -236.5t294 -89.5 q94 0 185.5 33.5t140.5 85.5q59 61 98 194l33 -10l-31 -250q-172 -119 -471 -119q-293 0 -497.5 171t-245.5 446h-99z" />
<glyph unicode="&#xa5;" horiz-adv-x="1173" d="M-41 1321v49q115 -4 242 -4q125 0 229 4v-49q-106 0 -106 -43q0 -39 36 -86l289 -377l248 334q47 63 47 111q0 61 -127 61v49q96 -4 217 -4q106 0 180 4v-49q-80 -4 -139 -59q-20 -18 -98 -123l-281 -373h283l-10 -72h-287v-133h283l-11 -72h-272v-249q0 -195 127 -195 h51v-49q-156 4 -254 4q-94 0 -262 -4v49h33q127 0 127 195v249h-285l10 72h275v133h-297l10 72h248l-279 373q-133 176 -227 182z" />
<glyph unicode="&#xa6;" d="M457 313h110v-655h-110v655zM457 680v686h110v-686h-110z" />
<glyph unicode="&#xa7;" horiz-adv-x="940" d="M121 -160q0 33 21.5 55.5t50.5 22.5q37 0 65 -39q8 -10 41 -69q39 -72 119 -72q72 0 117 59.5t45 153.5q0 113 -70 246q-39 72 -213 360q-143 236 -143 406q0 90 44 185t113 161q111 102 275 102q100 0 165.5 -37t65.5 -94q0 -31 -19.5 -52.5t-47.5 -21.5q-55 0 -97 64 q-33 51 -47 65q-29 29 -69 29q-59 0 -104.5 -56.5t-45.5 -131.5q0 -131 159 -384t218 -387.5t59 -238.5q0 -193 -131 -343.5t-299 -150.5q-98 0 -185 53.5t-87 114.5zM225 969q0 -94 36 -178t167 -295q123 -197 170 -310.5t47 -210.5q0 -68 -37 -159q143 135 144 315 q0 125 -50 234q-49 102 -272 462q-104 168 -104 310q0 51 12 108q-113 -117 -113 -276z" />
<glyph unicode="&#xa8;" d="M236 1167q0 37 26.5 63.5t65.5 26.5q35 0 61.5 -26.5t26.5 -63.5t-27 -63.5t-63 -26.5q-37 0 -63.5 26.5t-26.5 63.5zM606 1167q0 37 26.5 63.5t65.5 26.5q35 0 61.5 -26.5t26.5 -63.5t-26.5 -63.5t-63.5 -26.5t-63.5 26.5t-26.5 63.5z" />
<glyph unicode="&#xa9;" horiz-adv-x="1589" d="M82 682q0 295 209 499.5t512 204.5q289 0 496.5 -207.5t207.5 -496.5q0 -291 -208.5 -496.5t-503.5 -205.5t-504 205.5t-209 496.5zM158 682q0 -266 186 -454.5t449 -188.5q262 0 448 188.5t186 454.5q0 264 -185 454.5t-443 190.5q-268 0 -454.5 -187.5t-186.5 -457.5z M369 682q0 172 124.5 286.5t311.5 114.5q129 0 266 -61l12 -160l-41 -4q-41 166 -231 166q-139 0 -223 -88t-84 -231q0 -152 91 -257.5t222 -105.5q111 0 170 61q31 33 55 113l39 -10l-18 -154q-102 -72 -268 -71q-182 0 -304 114.5t-122 286.5z" />
<glyph unicode="&#xaa;" horiz-adv-x="591" d="M39 647l14 55h502l-14 -55h-502zM61 1178q0 55 138 120q109 51 147 52q63 0 100 -35t37 -94v-252q0 -94 45 -95q14 1 45 15l21 -23q-59 -63 -123 -63q-76 0 -90 82q-98 -82 -182 -82q-55 0 -95.5 33.5t-40.5 78.5q0 78 123 129q35 16 189 70v37q0 123 -101 123 q-49 0 -73 -27q-12 -10 -15.5 -17t-11.5 -40q-4 -16 -31.5 -32.5t-50.5 -16.5q-31 0 -31 37zM178 944q0 -31 23.5 -52.5t58.5 -21.5q41 1 115 60v137q-197 -51 -197 -123z" />
<glyph unicode="&#xab;" horiz-adv-x="815" d="M55 438l324 326l33 -35l-201 -291l209 -282l-37 -43zM369 438l323 326l35 -35l-203 -291l209 -282l-37 -43z" />
<glyph unicode="&#xac;" d="M74 463v84h878v-547h-192v463h-686z" />
<glyph unicode="&#xad;" horiz-adv-x="423" d="M0 383l27 109h397l-29 -109h-395z" />
<glyph unicode="&#xae;" horiz-adv-x="1589" d="M82 682q0 295 209 499.5t512 204.5q289 0 496.5 -207.5t207.5 -496.5q0 -291 -208.5 -496.5t-503.5 -205.5t-504 205.5t-209 496.5zM158 682q0 -266 186 -454.5t449 -188.5q262 0 448 188.5t186 454.5q0 264 -185 454.5t-443 190.5q-268 0 -454.5 -187.5t-186.5 -457.5z M473 293v51h39q57 0 57 94v490q0 94 -57 94h-39v51l127 -2q43 0 80 2t88 2q272 0 272 -198q0 -135 -143 -193l168 -246q68 -98 162 -94v-51q-45 2 -103 2q-47 0 -84 -2q-70 47 -135 153l-131 211h-41q-12 0 -20 2h-23v-221q0 -94 58 -94h40v-51q-94 2 -153 2q-57 0 -162 -2z M690 721q37 -6 55 -6q72 0 121 44t49 109q0 63 -51 105.5t-127 42.5q-24 0 -47 -4v-291z" />
<glyph unicode="&#xaf;" d="M47 1636v88h932v-88h-932z" />
<glyph unicode="&#xb0;" horiz-adv-x="884" d="M244 1122q0 78 55 133.5t135 55.5q86 0 146.5 -56.5t60.5 -138.5q0 -80 -59.5 -137t-141.5 -57q-80 0 -138 59t-58 141zM287 1120q0 -63 47 -109t110 -46t108.5 45t45.5 108q0 61 -46.5 106.5t-109.5 45.5q-68 0 -111.5 -42t-43.5 -108z" />
<glyph unicode="&#xb1;" d="M47 113v88h932v-88h-932zM47 678v88h420v395h92v-395h420v-88h-420v-387h-92v387h-420z" />
<glyph unicode="&#xb2;" horiz-adv-x="679" d="M51 541v30q111 84 240 234q143 166 143 307q0 76 -41 121t-110 45q-78 0 -168 -107l-27 21q104 168 254 168q94 0 152.5 -59.5t58.5 -155.5q0 -88 -50 -167t-200 -228l-106 -107h358q20 0 27.5 7t27.5 50h35l-37 -159h-557z" />
<glyph unicode="&#xb3;" horiz-adv-x="679" d="M45 629q0 14 20.5 30.5t36.5 16.5t54 -47q41 -53 118 -54q76 0 133.5 58.5t57.5 136.5q0 109 -105 150q-47 18 -145 18v39q209 25 209 174q0 59 -38 96t-97 37q-74 0 -144 -70l-30 23q109 123 231 123q80 0 134.5 -47t54.5 -117q0 -109 -144 -195q193 -37 193 -184 q0 -113 -97.5 -199t-224.5 -86q-76 0 -146.5 32t-70.5 65z" />
<glyph unicode="&#xb4;" d="M455 985l268 358q29 39 61 39q59 0 60 -55q0 -31 -39 -65l-330 -297z" />
<glyph unicode="&#xb5;" horiz-adv-x="911" d="M-4 -293q0 41 14 123q57 330 58 739v367h147v-586q0 -172 53 -231q47 -53 127 -53q137 0 250 161v709h146v-696q0 -76 6 -103q16 -53 71 -53q31 -1 64 22v-32l-166 -94q-4 -2 -8 -3q-78 0 -99 134l-6 39q-113 -111 -174 -146t-141 -35q-166 0 -223 183q-2 -27 -2 -62 q0 -86 28 -278q10 -70 11 -99q0 -102 -78 -102t-78 96z" />
<glyph unicode="&#xb6;" horiz-adv-x="1193" d="M137 1067q0 199 133 270q63 35 183 35q55 0 163 -4q55 -2 111 -2h246v-43q-59 -4 -82 -28.5t-23 -88.5q0 -12 -2 -30v-1287q0 -68 15 -90q18 -31 77 -30h41v-41q-82 4 -110 4q-29 0 -113 -4v1548h-139v-1548q-84 4 -113 4q-27 0 -110 -4v41h41q59 0 77 30q15 22 15 90 v795q-195 8 -302.5 108.5t-107.5 274.5z" />
<glyph unicode="&#xb7;" d="M393 436q0 49 35 84t86 35q47 0 82 -35t35 -84t-35 -84t-84 -35t-84 35t-35 84z" />
<glyph unicode="&#xb8;" d="M358 -358q0 49 50 49q20 0 61 -25q51 -31 70 -31q16 0 31.5 15.5t15.5 30.5q0 20 -37 69q-4 6 -51 72q-35 49 -35 74q0 33 57 79q4 2 31 25h57l-14 -14q-35 -35 -35 -49q0 -20 49 -84q59 -78 60 -119q0 -41 -50 -94q-63 -70 -141 -70q-119 0 -119 72z" />
<glyph unicode="&#xb9;" horiz-adv-x="679" d="M145 1196q211 104 281 174l20 -6v-698q0 -59 13.5 -73.5t72.5 -14.5h52v-39q-88 2 -201 2q-111 0 -199 -2v39h54q59 0 74.5 19.5t15.5 68.5v573q-25 -12 -84 -41q-23 -10 -84 -37z" />
<glyph unicode="&#xba;" horiz-adv-x="718" d="M66 1083q0 111 85.5 188t210.5 77q121 0 207 -80t86 -191q0 -115 -86 -194.5t-207 -79.5q-127 0 -211.5 81t-84.5 199zM102 647l15 55h501l-14 -55h-502zM188 1096q0 -106 52.5 -177t132.5 -71q72 0 114.5 56.5t42.5 150.5q0 109 -51 178.5t-129 69.5q-74 0 -118 -56.5 t-44 -150.5z" />
<glyph unicode="&#xbb;" horiz-adv-x="815" d="M82 156l209 282l-203 291l35 35l323 -326l-327 -325zM395 156l209 282l-201 291l33 35l324 -326l-328 -325z" />
<glyph unicode="&#xbc;" horiz-adv-x="1619" d="M145 1196q211 104 281 174l20 -6v-698q0 -59 13.5 -73.5t72.5 -14.5h52v-39q-88 2 -201 2q-111 0 -199 -2v39h54q59 0 74.5 19.5t15.5 68.5v573q-25 -12 -84 -41q-23 -10 -84 -37zM446 0l652 1352h76l-658 -1352h-70zM979 248v59l422 504h55v-471h119v-92h-119v-248h-113 v248h-364zM1075 340h268v326z" />
<glyph unicode="&#xbd;" horiz-adv-x="1619" d="M145 1196q211 104 281 174l20 -6v-698q0 -59 13.5 -73.5t72.5 -14.5h52v-39q-88 2 -201 2q-111 0 -199 -2v39h54q59 0 74.5 19.5t15.5 68.5v573q-25 -12 -84 -41q-23 -10 -84 -37zM446 0l652 1352h76l-658 -1352h-70zM993 0v31q98 72 240.5 234.5t142.5 305.5 q0 76 -41 121t-110 45q-74 0 -168 -106l-27 18q106 170 254 170q94 0 152.5 -59.5t58.5 -155.5q0 -88 -51 -168t-199 -227l-106 -107h358q20 0 27.5 7.5t27.5 50.5h35l-37 -160h-557z" />
<glyph unicode="&#xbe;" horiz-adv-x="1619" d="M45 629q0 14 20.5 30.5t36.5 16.5t54 -47q41 -53 118 -54q76 0 133.5 58.5t57.5 136.5q0 109 -105 150q-47 18 -145 18v39q209 25 209 174q0 59 -38 96t-97 37q-74 0 -144 -70l-30 23q109 123 231 123q80 0 134.5 -47t54.5 -117q0 -109 -144 -195q193 -37 193 -184 q0 -113 -97.5 -199t-224.5 -86q-76 0 -146.5 32t-70.5 65zM446 0l652 1352h76l-658 -1352h-70zM979 248v59l422 504h55v-471h119v-92h-119v-248h-113v248h-364zM1075 340h268v326z" />
<glyph unicode="&#xbf;" horiz-adv-x="714" d="M68 72q0 141 94 223q29 25 53 35q16 6 121 35q72 20 86 47t16 133h45v-342q-143 -12 -217 -58q-109 -68 -108 -186q0 -90 66.5 -159.5t150.5 -69.5q12 0 57 8q23 6 35 6q37 0 66.5 -28.5t29.5 -63.5q0 -39 -34.5 -65.5t-84.5 -26.5q-133 0 -241 145q-135 182 -135 367z M322 860q0 49 34.5 84t83.5 35t84 -35t35 -84t-35 -84t-86 -35q-47 0 -81.5 36t-34.5 83z" />
<glyph unicode="&#xc0;" horiz-adv-x="1294" d="M-14 -4v49q88 4 131 47q37 35 69 129l367 1039l-21 59q59 39 103 94q18 25 33 25q18 0 26 -21l439 -1229q29 -80 70.5 -110.5t117.5 -32.5v-49q-106 4 -242 4q-137 0 -252 -4v49l45 2q86 4 86 57q0 20 -16 68l-119 338h-452l-103 -336q-6 -20 -6 -39q0 -45 28.5 -62.5 t145.5 -27.5v-49q-113 4 -264 4q-115 0 -186 -4zM260 1790q0 53 57 53q29 0 56 -20l356 -275l-20 -30l-414 215q-35 18 -35 57zM397 582h396l-205 589z" />
<glyph unicode="&#xc1;" horiz-adv-x="1294" d="M-14 -4v49q88 4 131 47q37 35 69 129l367 1039l-21 59q59 39 103 94q18 25 33 25q18 0 26 -21l439 -1229q29 -80 70.5 -110.5t117.5 -32.5v-49q-106 4 -242 4q-137 0 -252 -4v49l45 2q86 4 86 57q0 20 -16 68l-119 338h-452l-103 -336q-6 -20 -6 -39q0 -45 28.5 -62.5 t145.5 -27.5v-49q-113 4 -264 4q-115 0 -186 -4zM397 582h396l-205 589zM590 1548l356 275q27 20 58 20q55 0 55 -53q0 -39 -35 -57l-412 -215z" />
<glyph unicode="&#xc2;" horiz-adv-x="1294" d="M-14 -4v49q88 4 131 47q37 35 69 129l367 1039l-21 59q59 39 103 94q18 25 33 25q18 0 26 -21l439 -1229q29 -80 70.5 -110.5t117.5 -32.5v-49q-106 4 -242 4q-137 0 -252 -4v49l45 2q86 4 86 57q0 20 -16 68l-119 338h-452l-103 -336q-6 -20 -6 -39q0 -45 28.5 -62.5 t145.5 -27.5v-49q-113 4 -264 4q-115 0 -186 -4zM342 1534l320 309l301 -309l-31 -18l-270 174l-291 -174zM397 582h396l-205 589z" />
<glyph unicode="&#xc3;" horiz-adv-x="1294" d="M-14 -4v49q88 4 131 47q37 35 69 129l367 1039l-21 59q59 39 103 94q18 25 33 25q18 0 26 -21l439 -1229q29 -80 70.5 -110.5t117.5 -32.5v-49q-106 4 -242 4q-137 0 -252 -4v49l45 2q86 4 86 57q0 20 -16 68l-119 338h-452l-103 -336q-6 -20 -6 -39q0 -45 28.5 -62.5 t145.5 -27.5v-49q-113 4 -264 4q-115 0 -186 -4zM342 1602q59 178 184 178q72 0 181.5 -50.5t150.5 -50.5q59 0 109 88l37 -8q-49 -180 -191 -180q-55 0 -156 41l-22 8q-119 49 -150 49q-47 0 -106 -88zM397 582h396l-205 589z" />
<glyph unicode="&#xc4;" horiz-adv-x="1294" d="M-14 -4v49q88 4 131 47q37 35 69 129l367 1039l-21 59q59 39 103 94q18 25 33 25q18 0 26 -21l439 -1229q29 -80 70.5 -110.5t117.5 -32.5v-49q-106 4 -242 4q-137 0 -252 -4v49l45 2q86 4 86 57q0 20 -16 68l-119 338h-452l-103 -336q-6 -20 -6 -39q0 -45 28.5 -62.5 t145.5 -27.5v-49q-113 4 -264 4q-115 0 -186 -4zM360 1679q0 41 29 69t70 28q39 0 66.5 -29t27.5 -68t-27.5 -67.5t-68.5 -28.5q-39 0 -68 28.5t-29 67.5zM397 582h396l-205 589zM756 1679q0 41 28.5 69t69.5 28q39 0 66.5 -29t27.5 -68t-27.5 -67.5t-68.5 -28.5 q-39 0 -67.5 28.5t-28.5 67.5z" />
<glyph unicode="&#xc5;" horiz-adv-x="1294" d="M-14 -4v49q88 4 131 47q37 35 69 129l367 1039l-21 59q59 39 103 94q18 25 33 25q18 0 26 -21l439 -1229q29 -80 70.5 -110.5t117.5 -32.5v-49q-106 4 -242 4q-137 0 -252 -4v49l45 2q86 4 86 57q0 20 -16 68l-119 338h-452l-103 -336q-6 -20 -6 -39q0 -45 28.5 -62.5 t145.5 -27.5v-49q-113 4 -264 4q-115 0 -186 -4zM397 582h396l-205 589zM461 1679q0 74 52 126.5t128 52.5q70 0 122 -53.5t52 -125.5q0 -74 -52 -126t-126 -52q-72 0 -124 52.5t-52 125.5zM522 1679q0 -47 34 -81.5t81 -34.5t82 34.5t35 81.5t-34 82t-81 35 q-49 0 -83 -33.5t-34 -83.5z" />
<glyph unicode="&#xc6;" horiz-adv-x="1820" d="M-55 -4v49q92 2 131 24.5t84 104.5l561 997q33 57 33 84q0 57 -111 66v49l219 -4h594q162 0 238 4l12 -291l-41 -6q-39 221 -233 221h-363v-557h258q90 0 127 38t39 138h45l-4 -208q0 -55 4 -213h-45q-4 98 -38 136t-120 38h-266v-383q0 -166 113 -199q53 -16 215 -16 q182 0 252.5 39.5t119.5 171.5l41 -13l-63 -270q-90 4 -236 4h-561q-92 0 -237 -2v47h51q127 0 127 195v426h-371l-248 -445q-43 -78 -43 -117q0 -43 47 -55q16 -4 91 -4v-49q-96 4 -211 4q-117 0 -211 -4zM561 737h330v559h-21z" />
<glyph unicode="&#xc7;" horiz-adv-x="1400" d="M88 684q0 303 220 505t550 202q231 0 465 -107l20 -256l-34 -2q-35 129 -105 193q-119 106 -332 106q-291 0 -444 -190q-137 -170 -137 -414q0 -250 133 -438q80 -113 203 -178.5t256 -65.5q94 0 184 32.5t142.5 87t97.5 193.5l32 -10l-30 -250q-68 -51 -200 -85 t-271 -34q-29 -27 -29 -45q0 -20 51 -88q66 -86 66 -129q0 -47 -54 -104q-70 -76 -153 -76q-131 0 -131 80q0 55 55 55q25 0 68 -26q51 -33 73 -33q16 0 31.5 15.5t15.5 31.5t-38 72q-8 10 -56 77q-37 53 -37 80q0 37 66 92q-297 25 -487.5 224.5t-190.5 484.5z" />
<glyph unicode="&#xc8;" horiz-adv-x="1173" d="M68 -4v49h51q127 0 127 195v886q0 195 -127 195h-51v49q76 -4 237 -4h463q160 0 238 4l12 -291l-37 -6q-39 221 -236 221h-321v-557h258q92 0 128 38t40 138h43q-4 -141 -4 -208q0 -74 4 -213h-43q-4 98 -38 136t-120 38h-268v-381q0 -168 113 -201q53 -16 215 -16 q182 0 251.5 39.5t120.5 173.5h41l-63 -285q-76 4 -236 4h-561q-162 0 -237 -4zM227 1790q0 53 58 53q29 0 55 -20l356 -275l-20 -30l-414 215q-35 18 -35 57z" />
<glyph unicode="&#xc9;" horiz-adv-x="1173" d="M68 -4v49h51q127 0 127 195v886q0 195 -127 195h-51v49q76 -4 237 -4h463q160 0 238 4l12 -291l-37 -6q-39 221 -236 221h-321v-557h258q92 0 128 38t40 138h43q-4 -141 -4 -208q0 -74 4 -213h-43q-4 98 -38 136t-120 38h-268v-381q0 -168 113 -201q53 -16 215 -16 q182 0 251.5 39.5t120.5 173.5h41l-63 -285q-76 4 -236 4h-561q-162 0 -237 -4zM516 1548l356 275q27 20 58 20q55 0 55 -53q0 -39 -35 -57l-411 -215z" />
<glyph unicode="&#xca;" horiz-adv-x="1173" d="M68 -4v49h51q127 0 127 195v886q0 195 -127 195h-51v49q76 -4 237 -4h463q160 0 238 4l12 -291l-37 -6q-39 221 -236 221h-321v-557h258q92 0 128 38t40 138h43q-4 -141 -4 -208q0 -74 4 -213h-43q-4 98 -38 136t-120 38h-268v-381q0 -168 113 -201q53 -16 215 -16 q182 0 251.5 39.5t120.5 173.5h41l-63 -285q-76 4 -236 4h-561q-162 0 -237 -4zM291 1534l319 309l301 -309l-30 -18l-271 174l-291 -174z" />
<glyph unicode="&#xcb;" horiz-adv-x="1173" d="M68 -4v49h51q127 0 127 195v886q0 195 -127 195h-51v49q76 -4 237 -4h463q160 0 238 4l12 -291l-37 -6q-39 221 -236 221h-321v-557h258q92 0 128 38t40 138h43q-4 -141 -4 -208q0 -74 4 -213h-43q-4 98 -38 136t-120 38h-268v-381q0 -168 113 -201q53 -16 215 -16 q182 0 251.5 39.5t120.5 173.5h41l-63 -285q-76 4 -236 4h-561q-162 0 -237 -4zM307 1679q0 41 29 69t70 28q39 0 66.5 -29t27.5 -68t-28 -67.5t-69 -28.5q-39 0 -67.5 28.5t-28.5 67.5zM702 1679q0 41 29 69t70 28q39 0 66.5 -29t27.5 -68t-27.5 -67.5t-68.5 -28.5 q-39 0 -68 28.5t-29 67.5z" />
<glyph unicode="&#xcc;" horiz-adv-x="669" d="M-86 1790q0 53 57 53q29 0 56 -20l356 -275l-21 -30l-413 215q-35 18 -35 57zM68 -4v49h51q127 0 127 195v886q0 195 -127 195h-51v49q115 -4 247 -4q88 0 287 4v-49h-51q-127 0 -127 -195v-886q0 -195 127 -195h51v-49l-276 4q-76 0 -258 -4z" />
<glyph unicode="&#xcd;" horiz-adv-x="669" d="M68 -4v49h51q127 0 127 195v886q0 195 -127 195h-51v49q115 -4 247 -4q88 0 287 4v-49h-51q-127 0 -127 -195v-886q0 -195 127 -195h51v-49l-276 4q-76 0 -258 -4zM311 1548l357 275q27 20 57 20q55 0 55 -53q0 -39 -35 -57l-411 -215z" />
<glyph unicode="&#xce;" horiz-adv-x="669" d="M31 1534l319 309l301 -309l-30 -18l-271 174l-291 -174zM68 -4v49h51q127 0 127 195v886q0 195 -127 195h-51v49q115 -4 247 -4q88 0 287 4v-49h-51q-127 0 -127 -195v-886q0 -195 127 -195h51v-49l-276 4q-76 0 -258 -4z" />
<glyph unicode="&#xcf;" horiz-adv-x="669" d="M68 -4v49h51q127 0 127 195v886q0 195 -127 195h-51v49q115 -4 247 -4q88 0 287 4v-49h-51q-127 0 -127 -195v-886q0 -195 127 -195h51v-49l-276 4q-76 0 -258 -4zM96 1679q0 41 29 69t70 28q39 0 66.5 -29t27.5 -68t-28 -67.5t-68 -28.5q-39 0 -68 28.5t-29 67.5z M410 1679q0 41 28.5 69t69.5 28q39 0 66.5 -29t27.5 -68t-27.5 -67.5t-68.5 -28.5q-39 0 -67.5 28.5t-28.5 67.5z" />
<glyph unicode="&#xd0;" horiz-adv-x="1517" d="M68 -4v49h51q127 0 127 195v442h-160v68h160v376q0 195 -127 195h-47v49l229 -4q102 0 145 2q127 6 164 6q367 0 592 -192.5t225 -507.5q0 -303 -214 -492.5t-554 -189.5q-35 0 -176 6q-47 2 -166 2q-135 0 -249 -4zM424 272q0 -115 37 -157q53 -61 217 -62 q260 0 416 193q131 162 131 397q0 233 -108.5 400t-299.5 225q-121 37 -278 37q-80 0 -97.5 -12.5t-17.5 -65.5v-477h344v-68h-344v-410z" />
<glyph unicode="&#xd1;" horiz-adv-x="1583" d="M8 1321v49l166 -4q21 0 168 4l948 -1073v829q0 160 -110 187q-31 8 -101 8h-12v49q100 -4 252 -4q139 0 231 4v-49h-12q-84 0 -132 -56.5t-48 -150.5v-1141h-39l-1010 1149v-583q0 -326 41 -409t203 -85v-49q-96 4 -238 4q-158 0 -280 -4v49h31q92 0 127 35q47 47 47 160 v714q0 180 -10.5 228.5t-51.5 83.5q-63 53 -170 55zM510 1602q59 178 184 178q72 0 181.5 -50.5t150.5 -50.5q59 0 109 88l36 -8q-49 -180 -190 -180q-55 0 -156 41l-22 8q-119 49 -150 49q-47 0 -106 -88z" />
<glyph unicode="&#xd2;" horiz-adv-x="1581" d="M88 694q0 279 209 489t485 210q283 0 497 -202t214 -501q0 -289 -207 -501t-489 -212q-295 0 -502 209t-207 508zM287 745q0 -258 135 -469q150 -233 393 -233q102 0 199.5 47t154.5 127q121 166 121 414q0 268 -143 483t-387 215q-248 0 -373 -205q-100 -166 -100 -379z M412 1790q0 53 57 53q29 0 55 -20l357 -275l-21 -30l-414 215q-35 18 -34 57z" />
<glyph unicode="&#xd3;" horiz-adv-x="1581" d="M88 694q0 279 209 489t485 210q283 0 497 -202t214 -501q0 -289 -207 -501t-489 -212q-295 0 -502 209t-207 508zM287 745q0 -258 135 -469q150 -233 393 -233q102 0 199.5 47t154.5 127q121 166 121 414q0 268 -143 483t-387 215q-248 0 -373 -205q-100 -166 -100 -379z M727 1548l356 275q27 20 58 20q55 0 55 -53q0 -39 -35 -57l-411 -215z" />
<glyph unicode="&#xd4;" horiz-adv-x="1581" d="M88 694q0 279 209 489t485 210q283 0 497 -202t214 -501q0 -289 -207 -501t-489 -212q-295 0 -502 209t-207 508zM287 745q0 -258 135 -469q150 -233 393 -233q102 0 199.5 47t154.5 127q121 166 121 414q0 268 -143 483t-387 215q-248 0 -373 -205q-100 -166 -100 -379z M473 1534l320 309l301 -309l-31 -18l-270 174l-291 -174z" />
<glyph unicode="&#xd5;" horiz-adv-x="1581" d="M88 694q0 279 209 489t485 210q283 0 497 -202t214 -501q0 -289 -207 -501t-489 -212q-295 0 -502 209t-207 508zM287 745q0 -258 135 -469q150 -233 393 -233q102 0 199.5 47t154.5 127q121 166 121 414q0 268 -143 483t-387 215q-248 0 -373 -205q-100 -166 -100 -379z M487 1602q59 178 185 178q72 0 181.5 -50.5t150.5 -50.5q59 0 108 88l37 -8q-49 -180 -191 -180q-55 0 -155 41l-23 8q-119 49 -149 49q-48 0 -107 -88z" />
<glyph unicode="&#xd6;" horiz-adv-x="1581" d="M88 694q0 279 209 489t485 210q283 0 497 -202t214 -501q0 -289 -207 -501t-489 -212q-295 0 -502 209t-207 508zM287 745q0 -258 135 -469q150 -233 393 -233q102 0 199.5 47t154.5 127q121 166 121 414q0 268 -143 483t-387 215q-248 0 -373 -205q-100 -166 -100 -379z M504 1679q0 41 28.5 69t69.5 28q39 0 66.5 -29t27.5 -68t-27.5 -67.5t-68.5 -28.5q-39 0 -67.5 28.5t-28.5 67.5zM899 1679q0 41 28.5 69t69.5 28q39 0 67 -29t28 -68t-28 -67.5t-69 -28.5q-39 0 -67.5 28.5t-28.5 67.5z" />
<glyph unicode="&#xd7;" d="M125 375l326 325l-324 322l61 63l324 -323l324 325l65 -65l-326 -324l324 -323l-61 -62l-324 324l-326 -326z" />
<glyph unicode="&#xd8;" horiz-adv-x="1581" d="M88 686q0 285 208 496t486 211q236 0 443 -156l168 193l59 -46l-170 -194q211 -207 211 -500q0 -289 -207 -501t-489 -212q-238 0 -441 154l-168 -190l-59 51l168 190q-96 94 -152.5 229.5t-56.5 274.5zM289 741q-1 -237 114 -436l732 830q-141 195 -373 194 q-248 0 -373 -207q-100 -166 -100 -381zM449 238q154 -195 364 -195q229 0 356 174q121 164 121 414q1 237 -114 438z" />
<glyph unicode="&#xd9;" horiz-adv-x="1509" d="M55 1321v49q98 -4 254 -4q170 0 281 4v-49h-51q-127 0 -127 -195v-596q0 -236 107.5 -362.5t305.5 -126.5q197 0 291 131q49 68 62 160q8 49 8 174v620q0 195 -127 195h-51v49q70 -4 168 -4q72 0 280 4v-49h-51q-127 0 -127 -195v-618q0 -147 -12 -203q-20 -96 -97 -178 q-143 -154 -411 -154q-270 0 -408 140q-117 119 -117 379v634q0 195 -127 195h-51zM389 1790q0 53 57 53q29 0 56 -20l356 -275l-20 -30l-414 215q-35 18 -35 57z" />
<glyph unicode="&#xda;" horiz-adv-x="1509" d="M55 1321v49q98 -4 254 -4q170 0 281 4v-49h-51q-127 0 -127 -195v-596q0 -236 107.5 -362.5t305.5 -126.5q197 0 291 131q49 68 62 160q8 49 8 174v620q0 195 -127 195h-51v49q70 -4 168 -4q72 0 280 4v-49h-51q-127 0 -127 -195v-618q0 -147 -12 -203q-20 -96 -97 -178 q-143 -154 -411 -154q-270 0 -408 140q-117 119 -117 379v634q0 195 -127 195h-51zM754 1548l356 275q27 20 57 20q55 0 56 -53q0 -39 -35 -57l-412 -215z" />
<glyph unicode="&#xdb;" horiz-adv-x="1509" d="M55 1321v49q98 -4 254 -4q170 0 281 4v-49h-51q-127 0 -127 -195v-596q0 -236 107.5 -362.5t305.5 -126.5q197 0 291 131q49 68 62 160q8 49 8 174v620q0 195 -127 195h-51v49q70 -4 168 -4q72 0 280 4v-49h-51q-127 0 -127 -195v-618q0 -147 -12 -203q-20 -96 -97 -178 q-143 -154 -411 -154q-270 0 -408 140q-117 119 -117 379v634q0 195 -127 195h-51zM494 1534l319 309l301 -309l-31 -18l-270 174l-291 -174z" />
<glyph unicode="&#xdc;" horiz-adv-x="1509" d="M55 1321v49q98 -4 254 -4q170 0 281 4v-49h-51q-127 0 -127 -195v-596q0 -236 107.5 -362.5t305.5 -126.5q197 0 291 131q49 68 62 160q8 49 8 174v620q0 195 -127 195h-51v49q70 -4 168 -4q72 0 280 4v-49h-51q-127 0 -127 -195v-618q0 -147 -12 -203q-20 -96 -97 -178 q-143 -154 -411 -154q-270 0 -408 140q-117 119 -117 379v634q0 195 -127 195h-51zM504 1679q0 41 28.5 69t69.5 28q39 0 66.5 -29t27.5 -68t-27.5 -67.5t-68.5 -28.5q-39 0 -67.5 28.5t-28.5 67.5zM899 1679q0 41 28.5 69t69.5 28q39 0 67 -29t28 -68t-28 -67.5t-69 -28.5 q-39 0 -67.5 28.5t-28.5 67.5z" />
<glyph unicode="&#xdd;" horiz-adv-x="1198" d="M-63 1321v49q115 -4 241 -4q125 0 230 4v-49q-106 0 -107 -43q0 -39 37 -86l326 -422l278 379q47 63 47 111q0 61 -127 61v49q96 -4 217 -4q106 0 181 4v-49q-82 -4 -140 -59q-20 -20 -98 -123l-328 -439v-460q0 -195 127 -195h51v-49q-158 4 -254 4q-94 0 -262 -4v49h33 q127 0 127 195v428l-352 471q-133 176 -227 182zM616 1548l357 275q27 20 57 20q55 0 55 -53q0 -39 -34 -57l-412 -215z" />
<glyph unicode="&#xde;" horiz-adv-x="1091" d="M68 -4v49h51q127 0 127 195v886q0 195 -127 195h-51v49q115 -4 247 -4q86 0 287 4v-49h-51q-127 0 -127 -195v-57h33q33 0 78 2t51 2q201 0 327.5 -103.5t126.5 -267.5q0 -256 -231 -364q-96 -45 -272 -45v41q121 8 196 63q123 90 123 265q0 190 -125 284q-82 61 -211 62 q-43 0 -96 -4v-764q0 -195 127 -195h51v-49l-276 4q-78 0 -258 -4z" />
<glyph unicode="&#xdf;" horiz-adv-x="1064" d="M37 -4v41h53q59 0 78 31q14 23 14 90v594h-123v39q92 43 110.5 67.5t18.5 99.5q0 109 45.5 218.5t116.5 179.5q150 145 369 145q145 0 225 -57.5t80 -161.5q0 -123 -102 -223q-14 -12 -145.5 -107.5t-131.5 -175.5q0 -43 21.5 -73.5t164.5 -143.5q109 -84 143 -133 t34 -121q0 -133 -87 -231.5t-206 -98.5q-78 0 -139.5 37t-61.5 86q0 20 16.5 36t36.5 16q27 0 58 -48q45 -72 118 -71q57 0 98.5 51t41.5 121q0 63 -37 119q-31 45 -152 129q-174 119 -174 241q0 80 64 152q29 33 53.5 53.5t132.5 99.5q129 96 129 222q0 100 -68.5 164.5 t-175.5 64.5q-82 0 -156.5 -43t-113.5 -111q-53 -92 -53 -327v-809q0 -68 14 -90q18 -31 78 -31h25v-41q-90 4 -207 4q-115 0 -205 -4z" />
<glyph unicode="&#xe0;" horiz-adv-x="897" d="M80 594q0 92 215 197q172 84 231 83q72 0 129 -36q80 -51 80 -172v-422q0 -172 86 -172q27 0 68 20l20 -24q-86 -96 -182 -97q-61 0 -98 45q-27 33 -37 109q-170 -152 -305 -152q-82 0 -142.5 53.5t-60.5 125.5q0 125 188 208q102 45 314 119v70q0 115 -45 167t-131 52 q-78 0 -127 -45q-29 -27 -47 -102q-6 -29 -41 -48q-53 -29 -78 -28q-37 0 -37 49zM156 1327q0 20 18.5 37.5t40.5 17.5q33 0 61 -39l271 -358l-23 -20l-327 297q-41 37 -41 65zM244 201q0 -57 43 -97.5t102 -40.5q47 0 81 18.5t116 90.5v254q-113 -33 -205 -70 q-137 -55 -137 -155z" />
<glyph unicode="&#xe1;" horiz-adv-x="897" d="M80 594q0 92 215 197q172 84 231 83q72 0 129 -36q80 -51 80 -172v-422q0 -172 86 -172q27 0 68 20l20 -24q-86 -96 -182 -97q-61 0 -98 45q-27 33 -37 109q-170 -152 -305 -152q-82 0 -142.5 53.5t-60.5 125.5q0 125 188 208q102 45 314 119v70q0 115 -45 167t-131 52 q-78 0 -127 -45q-29 -27 -47 -102q-6 -29 -41 -48q-53 -29 -78 -28q-37 0 -37 49zM244 201q0 -57 43 -97.5t102 -40.5q47 0 81 18.5t116 90.5v254q-113 -33 -205 -70q-137 -55 -137 -155zM473 985l268 358q29 39 62 39q59 0 59 -55q0 -31 -39 -65l-329 -297z" />
<glyph unicode="&#xe2;" horiz-adv-x="897" d="M80 594q0 92 215 197q172 84 231 83q72 0 129 -36q80 -51 80 -172v-422q0 -172 86 -172q27 0 68 20l20 -24q-86 -96 -182 -97q-61 0 -98 45q-27 33 -37 109q-170 -152 -305 -152q-82 0 -142.5 53.5t-60.5 125.5q0 125 188 208q102 45 314 119v70q0 115 -45 167t-131 52 q-78 0 -127 -45q-29 -27 -47 -102q-6 -29 -41 -48q-53 -29 -78 -28q-37 0 -37 49zM233 983l250 459l234 -459l-29 -18l-205 282l-221 -282zM244 201q0 -57 43 -97.5t102 -40.5q47 0 81 18.5t116 90.5v254q-113 -33 -205 -70q-137 -55 -137 -155z" />
<glyph unicode="&#xe3;" horiz-adv-x="897" d="M80 594q0 92 215 197q172 84 231 83q72 0 129 -36q80 -51 80 -172v-422q0 -172 86 -172q27 0 68 20l20 -24q-86 -96 -182 -97q-61 0 -98 45q-27 33 -37 109q-170 -152 -305 -152q-82 0 -142.5 53.5t-60.5 125.5q0 125 188 208q102 45 314 119v70q0 115 -45 167t-131 52 q-78 0 -127 -45q-29 -27 -47 -102q-6 -29 -41 -48q-53 -29 -78 -28q-37 0 -37 49zM195 1090q63 184 176 184q51 0 233 -86q47 -23 72 -23q55 0 110 101l39 -17q-70 -188 -176 -188q-55 0 -153 51q-115 59 -148 59q-68 0 -115 -96zM244 201q0 -57 43 -97.5t102 -40.5 q47 0 81 18.5t116 90.5v254q-113 -33 -205 -70q-137 -55 -137 -155z" />
<glyph unicode="&#xe4;" horiz-adv-x="897" d="M80 594q0 92 215 197q172 84 231 83q72 0 129 -36q80 -51 80 -172v-422q0 -172 86 -172q27 0 68 20l20 -24q-86 -96 -182 -97q-61 0 -98 45q-27 33 -37 109q-170 -152 -305 -152q-82 0 -142.5 53.5t-60.5 125.5q0 125 188 208q102 45 314 119v70q0 115 -45 167t-131 52 q-78 0 -127 -45q-29 -27 -47 -102q-6 -29 -41 -48q-53 -29 -78 -28q-37 0 -37 49zM211 1167q0 37 26.5 63.5t65.5 26.5q35 0 61.5 -26.5t26.5 -63.5t-26.5 -63.5t-63.5 -26.5t-63.5 26.5t-26.5 63.5zM244 201q0 -57 43 -97.5t102 -40.5q47 0 81 18.5t116 90.5v254 q-113 -33 -205 -70q-137 -55 -137 -155zM582 1167q0 37 26.5 63.5t65.5 26.5q35 0 61.5 -26.5t26.5 -63.5t-26.5 -63.5t-63.5 -26.5t-63.5 26.5t-26.5 63.5z" />
<glyph unicode="&#xe5;" horiz-adv-x="897" d="M80 594q0 92 215 197q172 84 231 83q72 0 129 -36q80 -51 80 -172v-422q0 -172 86 -172q27 0 68 20l20 -24q-86 -96 -182 -97q-61 0 -98 45q-27 33 -37 109q-170 -152 -305 -152q-82 0 -142.5 53.5t-60.5 125.5q0 125 188 208q102 45 314 119v70q0 115 -45 167t-131 52 q-78 0 -127 -45q-29 -27 -47 -102q-6 -29 -41 -48q-53 -29 -78 -28q-37 0 -37 49zM244 201q0 -57 43 -97.5t102 -40.5q47 0 81 18.5t116 90.5v254q-113 -33 -205 -70q-137 -55 -137 -155zM297 1167q0 76 52 127.5t128 51.5q72 0 123 -52.5t51 -124.5q0 -74 -52 -126 t-126 -52q-72 0 -124 52.5t-52 123.5zM358 1167q0 -45 35 -79.5t80 -34.5q47 0 82 34.5t35 81.5t-34 81t-81 34q-49 0 -83 -33.5t-34 -83.5z" />
<glyph unicode="&#xe6;" horiz-adv-x="1380" d="M78 164q0 70 43 107.5t155 70.5q39 10 101 31l237 76v100q0 115 -45 167t-131 52q-78 0 -127 -45q-29 -27 -47 -102q-6 -29 -41 -48q-53 -29 -78 -28q-37 0 -36 49q0 90 215 194q176 86 231 86q102 0 201 -143q164 141 311 141q106 0 183 -67.5t77 -159.5 q0 -27 -16.5 -36t-108.5 -36l-457 -135q2 -98 9 -137q14 -70 63 -119q82 -82 203 -82q80 0 135 24.5t145 98.5l27 -16q-174 -233 -399 -234q-94 0 -158.5 39t-130.5 135q-102 -96 -154 -122q-94 -51 -196 -52q-92 0 -151.5 53.5t-59.5 137.5zM238 199q0 -59 43 -97.5 t110 -38.5q150 0 197 115q20 51 26 219l-229 -71q-88 -27 -117.5 -52.5t-29.5 -74.5zM743 489l338 105q72 23 72 68q0 59 -44 99t-108 40q-131 0 -204 -101q-46 -61 -54 -211z" />
<glyph unicode="&#xe7;" horiz-adv-x="886" d="M88 401q0 197 141.5 334t343.5 137q109 0 197 -35.5t88 -80.5q0 -33 -26.5 -67t-53.5 -34q-29 0 -59 43q-92 125 -203 125q-113 0 -191.5 -101t-78.5 -245q0 -158 101.5 -266.5t248.5 -108.5q117 0 217 82l29 -28q-147 -154 -314 -181q-25 -23 -24 -38q0 -20 49 -84 q59 -78 59 -119q0 -39 -49 -94q-63 -70 -141 -70q-119 0 -119 72q0 49 49 49q20 0 62 -25q51 -31 69 -31q16 0 31.5 15.5t15.5 30.5q0 20 -36 69q-4 6 -52 72q-35 49 -34 74q0 33 53 77q-156 10 -264.5 135t-108.5 293z" />
<glyph unicode="&#xe8;" horiz-adv-x="915" d="M86 393q0 209 116.5 345t297.5 136q143 0 243.5 -79.5t100.5 -194.5q0 -31 -20 -37t-126 -6h-458q-4 -66 -4 -80q0 -170 91 -282.5t228 -112.5q129 0 270 111l23 -27q-195 -193 -377 -193q-170 0 -277.5 117t-107.5 303zM139 1327q0 20 18.5 37.5t41.5 17.5q33 0 61 -39 l270 -358l-22 -20l-328 297q-41 37 -41 65zM244 604h362q74 0 74 60q0 66 -55.5 114.5t-130.5 48.5q-137 0 -209 -110q-29 -43 -41 -113z" />
<glyph unicode="&#xe9;" horiz-adv-x="915" d="M86 393q0 209 116.5 345t297.5 136q143 0 243.5 -79.5t100.5 -194.5q0 -31 -20 -37t-126 -6h-458q-4 -66 -4 -80q0 -170 91 -282.5t228 -112.5q129 0 270 111l23 -27q-195 -193 -377 -193q-170 0 -277.5 117t-107.5 303zM244 604h362q74 0 74 60q0 66 -55.5 114.5 t-130.5 48.5q-137 0 -209 -110q-29 -43 -41 -113zM481 985l269 358q29 39 61 39q59 0 59 -55q0 -31 -39 -65l-329 -297z" />
<glyph unicode="&#xea;" horiz-adv-x="915" d="M86 393q0 209 116.5 345t297.5 136q143 0 243.5 -79.5t100.5 -194.5q0 -31 -20 -37t-126 -6h-458q-4 -66 -4 -80q0 -170 91 -282.5t228 -112.5q129 0 270 111l23 -27q-195 -193 -377 -193q-170 0 -277.5 117t-107.5 303zM244 604h362q74 0 74 60q0 66 -55.5 114.5 t-130.5 48.5q-137 0 -209 -110q-29 -43 -41 -113zM264 983l250 459l234 -459l-29 -18l-205 282l-221 -282z" />
<glyph unicode="&#xeb;" horiz-adv-x="915" d="M86 393q0 209 116.5 345t297.5 136q143 0 243.5 -79.5t100.5 -194.5q0 -31 -20 -37t-126 -6h-458q-4 -66 -4 -80q0 -170 91 -282.5t228 -112.5q129 0 270 111l23 -27q-195 -193 -377 -193q-170 0 -277.5 117t-107.5 303zM244 604h362q74 0 74 60q0 66 -55.5 114.5 t-130.5 48.5q-137 0 -209 -110q-29 -43 -41 -113zM258 1167q0 37 26.5 63.5t65.5 26.5q35 0 61.5 -26.5t26.5 -63.5t-26.5 -63.5t-63.5 -26.5t-63.5 26.5t-26.5 63.5zM629 1167q0 37 26.5 63.5t65.5 26.5q35 0 61.5 -26.5t26.5 -63.5t-26.5 -63.5t-63.5 -26.5t-63.5 26.5 t-26.5 63.5z" />
<glyph unicode="&#xec;" horiz-adv-x="503" d="M-102 1327q0 20 18 37.5t41 17.5q33 0 61 -39l271 -358l-23 -20l-327 297q-41 37 -41 65zM43 -4v41h45q59 0 78 31q14 23 14 90v415q0 96 -8 121q-18 51 -96 58v43q109 25 233 98l19 -4v-731q0 -68 14 -90q18 -31 78 -31h45v-41q-78 4 -199 4q-133 0 -223 -4z" />
<glyph unicode="&#xed;" horiz-adv-x="503" d="M45 -4v41h45q59 0 78 31q14 23 14 90v415q0 98 -8 121q-20 51 -98 58v43q113 25 235 98l19 -4v-731q0 -68 14 -90q18 -31 78 -31h45v-41q-78 4 -199 4q-133 0 -223 -4zM215 985l268 358q29 39 62 39q59 0 59 -55q0 -31 -39 -65l-329 -297z" />
<glyph unicode="&#xee;" horiz-adv-x="503" d="M-4 983l250 459l233 -459l-28 -18l-205 282l-221 -282zM43 -4v41h45q59 0 78 31q14 23 14 90v415q0 96 -8 121q-18 51 -96 58v43q109 25 233 98l19 -4v-731q0 -68 14 -90q18 -31 78 -31h45v-41q-78 4 -199 4q-133 0 -223 -4z" />
<glyph unicode="&#xef;" horiz-adv-x="503" d="M10 1167q0 37 26.5 63.5t65.5 26.5q35 0 61.5 -26.5t26.5 -63.5t-26.5 -63.5t-63.5 -26.5t-63.5 26.5t-26.5 63.5zM45 -4v41h45q59 0 78 31q14 23 14 90v415q0 98 -8 121q-20 51 -98 58v43q113 25 235 98l19 -4v-731q0 -68 14 -90q18 -31 78 -31h45v-41q-78 4 -199 4 q-133 0 -223 -4zM328 1167q0 37 26.5 63.5t65.5 26.5q35 0 61.5 -26.5t26.5 -63.5t-26.5 -63.5t-63.5 -26.5t-63.5 26.5t-26.5 63.5z" />
<glyph unicode="&#xf0;" horiz-adv-x="1103" d="M88 432q0 188 135 315t336 127q66 0 154 -28q-31 143 -144 371l-194 -105l-31 59l199 103q-47 90 -115 199l33 20q41 -45 145 -188l199 102l29 -53l-191 -101q371 -520 371 -833q0 -186 -135.5 -316.5t-327.5 -130.5q-195 0 -329 133.5t-134 325.5zM262 459 q0 -152 64 -269q90 -166 247 -165q123 0 196 99t73 265q0 186 -87 309t-218 123q-125 0 -200 -98t-75 -264z" />
<glyph unicode="&#xf1;" horiz-adv-x="1075" d="M45 -4v41h45q59 0 78 31q14 23 14 90v415q0 96 -8 121q-20 51 -98 58v43q113 25 235 98l19 -6v-160q201 145 358 145q96 0 157.5 -72.5t61.5 -187.5v-454q0 -68 15 -90q18 -31 77 -31h45v-41q-106 4 -217 4q-106 0 -204 -4v41h45q59 0 77 31q14 23 15 90v385 q0 111 -39 162q-51 66 -154 65q-106 0 -237 -88v-524q0 -68 14 -90q18 -31 78 -31h45v-41q-78 4 -199 4q-133 0 -223 -4zM283 1090q63 184 176 184q51 0 233 -86q47 -23 72 -23q55 0 110 101l39 -17q-70 -188 -176 -188q-55 0 -153 51q-115 59 -148 59q-67 0 -114 -96z" />
<glyph unicode="&#xf2;" horiz-adv-x="1103" d="M88 436q0 180 119 299q137 137 348 137q188 0 323.5 -132t135.5 -314q0 -186 -135.5 -319.5t-323.5 -133.5q-199 0 -333 133.5t-134 329.5zM190 1327q0 20 18.5 37.5t41.5 17.5q33 0 61 -39l271 -358l-23 -20l-328 297q-41 37 -41 65zM260 459q0 -152 64 -269 q90 -166 247 -165q123 0 196 99t73 265q0 186 -86 309t-219 123q-125 0 -200 -98t-75 -264z" />
<glyph unicode="&#xf3;" horiz-adv-x="1103" d="M88 436q0 180 119 299q137 137 348 137q188 0 323.5 -132t135.5 -314q0 -186 -135.5 -319.5t-323.5 -133.5q-199 0 -333 133.5t-134 329.5zM260 459q0 -152 64 -269q90 -166 247 -165q123 0 196 99t73 265q0 186 -86 309t-219 123q-125 0 -200 -98t-75 -264zM528 985 l269 358q29 39 61 39q59 0 60 -55q0 -31 -39 -65l-330 -297z" />
<glyph unicode="&#xf4;" horiz-adv-x="1103" d="M88 436q0 180 119 299q137 137 348 137q188 0 323.5 -132t135.5 -314q0 -186 -135.5 -319.5t-323.5 -133.5q-199 0 -333 133.5t-134 329.5zM260 459q0 -152 64 -269q90 -166 247 -165q123 0 196 99t73 265q0 186 -86 309t-219 123q-125 0 -200 -98t-75 -264zM330 983 l250 459l233 -459l-29 -18l-204 282l-222 -282z" />
<glyph unicode="&#xf5;" horiz-adv-x="1103" d="M88 436q0 180 119 299q137 137 348 137q188 0 323.5 -132t135.5 -314q0 -186 -135.5 -319.5t-323.5 -133.5q-199 0 -333 133.5t-134 329.5zM260 459q0 -152 64 -269q90 -166 247 -165q123 0 196 99t73 265q0 186 -86 309t-219 123q-125 0 -200 -98t-75 -264zM283 1090 q63 184 176 184q51 0 233 -86q47 -23 72 -23q55 0 110 101l39 -17q-70 -188 -176 -188q-55 0 -153 51q-115 59 -148 59q-67 0 -114 -96z" />
<glyph unicode="&#xf6;" horiz-adv-x="1103" d="M88 436q0 180 119 299q137 137 348 137q188 0 323.5 -132t135.5 -314q0 -186 -135.5 -319.5t-323.5 -133.5q-199 0 -333 133.5t-134 329.5zM260 459q0 -152 64 -269q90 -166 247 -165q123 0 196 99t73 265q0 186 -86 309t-219 123q-125 0 -200 -98t-75 -264zM283 1167 q0 37 26.5 63.5t65.5 26.5q35 0 61.5 -26.5t26.5 -63.5t-26.5 -63.5t-63.5 -26.5t-63.5 26.5t-26.5 63.5zM653 1167q0 37 26.5 63.5t65.5 26.5q35 0 62 -26.5t27 -63.5t-27 -63.5t-64 -26.5t-63.5 26.5t-26.5 63.5z" />
<glyph unicode="&#xf7;" d="M47 655v88h932v-88h-932zM432 322q0 33 24.5 56t57.5 23t56.5 -23.5t23.5 -55.5q0 -33 -23.5 -57.5t-58.5 -24.5q-33 0 -56.5 24.5t-23.5 57.5zM432 1075q0 33 24.5 56.5t57.5 23.5t56.5 -23.5t23.5 -56.5t-23.5 -57.5t-58.5 -24.5q-33 0 -56.5 24.5t-23.5 57.5z" />
<glyph unicode="&#xf8;" horiz-adv-x="1103" d="M88 432q0 184 119 303q61 61 157.5 99t190.5 38q160 0 279 -94l118 127l45 -39l-116 -127q133 -137 133 -313q0 -186 -135.5 -319.5t-325.5 -133.5q-162 0 -291 97l-115 -123l-43 43l111 121q-127 133 -127 321zM260 455q0 -133 51 -242l445 481q-80 127 -221 127 q-127 0 -201 -99t-74 -267zM342 158q88 -133 229 -133q123 0 196 98t73 266q-1 137 -54 250z" />
<glyph unicode="&#xf9;" horiz-adv-x="1021" d="M39 825v35q168 6 244 33l18 -4v-625q0 -88 48 -140t128 -52q100 0 244 135v459q0 80 -20.5 111.5t-96.5 47.5v35q158 4 246 33l18 -4v-715q0 -61 10.5 -83.5t45.5 -22.5q16 0 82 10v-41q-96 -20 -267 -64l-18 4v152q-195 -156 -338 -156q-66 0 -123 32t-80 83 q-29 63 -28 160v418q0 78 -17 106q-23 35 -96 53zM160 1327q0 20 18.5 37.5t40.5 17.5q33 0 62 -39l270 -358l-23 -20l-327 297q-41 37 -41 65z" />
<glyph unicode="&#xfa;" horiz-adv-x="1021" d="M39 825v35q168 6 244 33l18 -4v-625q0 -88 48 -140t128 -52q100 0 244 135v459q0 80 -20.5 111.5t-96.5 47.5v35q158 4 246 33l18 -4v-715q0 -61 10.5 -83.5t45.5 -22.5q16 0 82 10v-41q-96 -20 -267 -64l-18 4v152q-195 -156 -338 -156q-66 0 -123 32t-80 83 q-29 63 -28 160v418q0 78 -17 106q-23 35 -96 53zM489 985l269 358q29 39 61 39q59 0 60 -55q0 -31 -39 -65l-330 -297z" />
<glyph unicode="&#xfb;" horiz-adv-x="1021" d="M39 825v35q168 6 244 33l18 -4v-625q0 -88 48 -140t128 -52q100 0 244 135v459q0 80 -20.5 111.5t-96.5 47.5v35q158 4 246 33l18 -4v-715q0 -61 10.5 -83.5t45.5 -22.5q16 0 82 10v-41q-96 -20 -267 -64l-18 4v152q-195 -156 -338 -156q-66 0 -123 32t-80 83 q-29 63 -28 160v418q0 78 -17 106q-23 35 -96 53zM270 983l250 459l234 -459l-29 -18l-205 282l-221 -282z" />
<glyph unicode="&#xfc;" horiz-adv-x="1021" d="M39 825v35q168 6 244 33l18 -4v-625q0 -88 48 -140t128 -52q100 0 244 135v459q0 80 -20.5 111.5t-96.5 47.5v35q158 4 246 33l18 -4v-715q0 -61 10.5 -83.5t45.5 -22.5q16 0 82 10v-41q-96 -20 -267 -64l-18 4v152q-195 -156 -338 -156q-66 0 -123 32t-80 83 q-29 63 -28 160v418q0 78 -17 106q-23 35 -96 53zM244 1167q0 37 26.5 63.5t65.5 26.5q35 0 61.5 -26.5t26.5 -63.5t-26.5 -63.5t-63.5 -26.5t-63.5 26.5t-26.5 63.5zM614 1167q0 37 27 63.5t66 26.5q35 0 61.5 -26.5t26.5 -63.5t-27 -63.5t-63 -26.5q-37 0 -64 26.5 t-27 63.5z" />
<glyph unicode="&#xfd;" horiz-adv-x="835" d="M-23 809v41q88 -4 183 -4q61 0 196 4v-41q-104 -8 -104 -61q0 -18 6 -35l195 -490l182 408q27 59 27 104q0 70 -109 74v41q115 -4 160 -4q43 0 159 4v-41q-59 -2 -93 -33t-68 -110l-435 -979q-51 -117 -120 -117q-39 0 -70 30.5t-31 71.5t27 69t65 28q20 0 45 -12.5 t33 -12.5q16 0 27 25l119 264l-248 633q-33 84 -60.5 111.5t-85.5 31.5zM451 985l268 358q29 39 61 39q59 0 60 -55q0 -31 -39 -65l-330 -297z" />
<glyph unicode="&#xfe;" horiz-adv-x="1091" d="M39 -406h45q59 0 78 31q14 23 14 90l-2 1522q-4 63 -25.5 88t-78.5 27v45q113 20 237 98l19 -6v-772q57 68 147 112.5t170 44.5q150 0 256.5 -118.5t106.5 -288.5q0 -190 -149.5 -342t-338.5 -152q-96 0 -192 31v-289q0 -68 16 -90q18 -31 78 -31h74v-40q-113 4 -250 4 q-121 0 -205 -4v40zM326 258q0 -121 41 -166q59 -66 176 -65q137 0 220 97t83 261q0 172 -84 276.5t-221 104.5q-123 0 -215 -98v-410z" />
<glyph unicode="&#xff;" horiz-adv-x="835" d="M-23 809v41q88 -4 183 -4q61 0 196 4v-41q-104 -8 -104 -61q0 -18 6 -35l195 -490l182 408q27 59 27 104q0 70 -109 74v41q115 -4 160 -4q43 0 159 4v-41q-59 -2 -93 -33t-68 -110l-435 -979q-51 -117 -120 -117q-39 0 -70 30.5t-31 71.5t27 69t65 28q20 0 45 -12.5 t33 -12.5q16 0 27 25l119 264l-248 633q-33 84 -60.5 111.5t-85.5 31.5zM199 1167q0 37 26.5 63.5t65.5 26.5q35 0 61.5 -26.5t26.5 -63.5t-26.5 -63.5t-63.5 -26.5t-63.5 26.5t-26.5 63.5zM569 1167q0 37 27 63.5t66 26.5q35 0 61.5 -26.5t26.5 -63.5t-27 -63.5t-64 -26.5 t-63.5 26.5t-26.5 63.5z" />
<glyph unicode="&#x152;" horiz-adv-x="2017" d="M88 662q0 293 214 505.5t509 212.5q23 0 111 -4q217 -10 280 -10h410q145 0 237 4l13 -291l-37 -6q-39 221 -236 221h-321v-557h258q90 0 127 38t39 138h45q-4 -125 -4 -198q0 -66 4 -223h-45q-4 98 -38 136t-120 38h-266v-383q0 -166 112 -199q53 -16 215 -16 q180 0 250 38.5t129 172.5l35 -13l-63 -270q-90 4 -236 4h-496q-106 0 -237 -8q-98 -6 -172 -6q-309 0 -513 191.5t-204 484.5zM289 709q0 -236 106 -398q80 -121 202 -191.5t253 -70.5q135 0 192 76q41 53 41 176v789q0 227 -260 227q-225 0 -379.5 -163t-154.5 -445z" />
<glyph unicode="&#x153;" horiz-adv-x="1593" d="M88 418q0 190 133 322t326 132q92 0 161.5 -32.5t161.5 -120.5q172 156 326 155q145 0 240 -104q70 -76 69 -152q0 -45 -47 -57q-23 -6 -86 -6h-442v-70q0 -168 63 -268q76 -119 242 -119q145 0 260 115l29 -18q-160 -221 -371 -222q-94 0 -159.5 35t-147.5 129 q-172 -164 -338 -164q-180 0 -300 127t-120 318zM264 422q0 -125 49 -229q80 -168 228 -168q113 0 183.5 106.5t70.5 276.5q0 186 -68 294q-76 123 -195 123q-115 0 -191.5 -114.5t-76.5 -288.5zM932 602h364q33 0 44.5 7t11.5 36q0 74 -55.5 130t-127.5 56 q-92 0 -158.5 -64.5t-78.5 -164.5z" />
<glyph unicode="&#x178;" horiz-adv-x="1198" d="M-63 1321v49q115 -4 241 -4q125 0 230 4v-49q-106 0 -107 -43q0 -39 37 -86l326 -422l278 379q47 63 47 111q0 61 -127 61v49q96 -4 217 -4q106 0 181 4v-49q-82 -4 -140 -59q-20 -20 -98 -123l-328 -439v-460q0 -195 127 -195h51v-49q-158 4 -254 4q-94 0 -262 -4v49h33 q127 0 127 195v428l-352 471q-133 176 -227 182zM338 1679q0 41 28.5 69t69.5 28q39 0 66.5 -29t27.5 -68t-27.5 -67.5t-68.5 -28.5q-39 0 -67.5 28.5t-28.5 67.5zM735 1679q0 41 29 69t70 28q39 0 66.5 -29t27.5 -68t-28 -67.5t-69 -28.5q-39 0 -67.5 28.5t-28.5 67.5z" />
<glyph unicode="&#x2c6;" d="M270 983l250 459l234 -459l-29 -18l-205 282l-221 -282z" />
<glyph unicode="&#x2dc;" d="M197 1090q63 184 176 184q51 0 233 -86q47 -23 72 -23q55 0 110 101l39 -17q-70 -188 -176 -188q-55 0 -153 51q-115 59 -148 59q-67 0 -114 -96z" />
<glyph unicode="&#x2000;" horiz-adv-x="929" />
<glyph unicode="&#x2001;" horiz-adv-x="1858" />
<glyph unicode="&#x2002;" horiz-adv-x="929" />
<glyph unicode="&#x2003;" horiz-adv-x="1858" />
<glyph unicode="&#x2004;" horiz-adv-x="619" />
<glyph unicode="&#x2005;" horiz-adv-x="464" />
<glyph unicode="&#x2006;" horiz-adv-x="309" />
<glyph unicode="&#x2007;" horiz-adv-x="309" />
<glyph unicode="&#x2008;" horiz-adv-x="232" />
<glyph unicode="&#x2009;" horiz-adv-x="371" />
<glyph unicode="&#x200a;" horiz-adv-x="103" />
<glyph unicode="&#x2010;" horiz-adv-x="423" d="M0 383l27 109h397l-29 -109h-395z" />
<glyph unicode="&#x2011;" horiz-adv-x="423" d="M0 383l27 109h397l-29 -109h-395z" />
<glyph unicode="&#x2012;" horiz-adv-x="423" d="M0 383l27 109h397l-29 -109h-395z" />
<glyph unicode="&#x2013;" horiz-adv-x="806" d="M41 383l27 109h698l-27 -109h-698z" />
<glyph unicode="&#x2014;" horiz-adv-x="1263" d="M0 383l27 109h1237l-29 -109h-1235z" />
<glyph unicode="&#x2018;" horiz-adv-x="497" d="M117 1198q0 121 69.5 202t188.5 95l6 -35q-78 -8 -127 -60t-49 -126q0 -68 59 -74q115 -12 115 -92q0 -41 -32 -67.5t-77 -26.5q-70 0 -111.5 51t-41.5 133z" />
<glyph unicode="&#x2019;" horiz-adv-x="497" d="M117 1051q76 6 126 58t50 126q0 68 -60 74q-115 12 -114 92q0 41 31.5 67.5t76.5 26.5q70 0 112 -50t42 -134q0 -121 -69.5 -202t-186.5 -95z" />
<glyph unicode="&#x201a;" horiz-adv-x="505" d="M90 -297q92 8 150.5 69.5t58.5 149.5q0 78 -70 86q-137 14 -137 109q0 47 37 78.5t92 31.5q80 0 130 -60.5t50 -156.5q0 -143 -82 -238.5t-221 -111.5z" />
<glyph unicode="&#x201c;" horiz-adv-x="837" d="M117 1198q0 121 69.5 202t188.5 95l6 -35q-78 -8 -127 -60t-49 -126q0 -68 59 -74q115 -12 115 -92q0 -41 -32 -67.5t-77 -26.5q-70 0 -111.5 51t-41.5 133zM459 1198q0 121 69.5 202t186.5 95l8 -35q-78 -8 -127 -60t-49 -126q0 -68 59 -74q115 -12 115 -92 q0 -41 -32 -67.5t-77 -26.5q-70 0 -111.5 51t-41.5 133z" />
<glyph unicode="&#x201d;" horiz-adv-x="837" d="M117 1051q76 6 126 58t50 126q0 68 -60 74q-115 12 -114 92q0 41 31.5 67.5t76.5 26.5q70 0 112 -50t42 -134q0 -121 -69.5 -202t-186.5 -95zM459 1051q76 6 126 58t50 126q0 68 -60 74q-115 12 -114 92q0 41 31.5 67.5t76.5 26.5q70 0 112 -50t42 -134 q0 -121 -69.5 -202t-188.5 -95z" />
<glyph unicode="&#x201e;" horiz-adv-x="837" d="M117 -244q78 8 127 59.5t49 127.5q0 68 -60 73q-115 12 -114 93q0 41 31.5 67.5t76.5 26.5q70 0 112 -50.5t42 -134.5q0 -121 -69.5 -202t-186.5 -95zM459 -244q78 8 127 60.5t49 126.5q0 68 -60 73q-115 12 -114 93q0 41 31.5 67.5t76.5 26.5q70 0 112 -50.5t42 -134.5 q0 -123 -69.5 -203t-188.5 -94z" />
<glyph unicode="&#x2022;" horiz-adv-x="1366" d="M401 692q0 119 84 202t205 83q113 0 196 -84t83 -199q0 -119 -83 -201.5t-200 -82.5t-201 82.5t-84 199.5z" />
<glyph unicode="&#x2026;" horiz-adv-x="1515" d="M133 92q0 49 35 84t86 35q47 0 82 -35t35 -84t-35 -84t-84 -35t-84 35t-35 84zM639 92q0 49 35 84t86 35q47 0 82 -35t35 -84t-35 -84t-84 -35t-84 35t-35 84zM1143 92q0 49 35 84t86 35q47 0 81.5 -35t34.5 -84t-34.5 -84t-83.5 -35t-84 35t-35 84z" />
<glyph unicode="&#x202f;" horiz-adv-x="371" />
<glyph unicode="&#x2039;" horiz-adv-x="499" d="M55 438l324 326l33 -35l-201 -291l209 -282l-37 -43z" />
<glyph unicode="&#x203a;" horiz-adv-x="499" d="M82 156l209 282l-203 291l35 35l323 -326l-327 -325z" />
<glyph unicode="&#x205f;" horiz-adv-x="464" />
<glyph unicode="&#x20ac;" horiz-adv-x="1474" d="M53 590l31 72h63v71h-94l31 72h74q41 256 255 421t505 165q231 0 464 -107l21 -256l-35 -2q-33 127 -106 193q-119 106 -330 106q-242 0 -393.5 -137t-184.5 -383h809l-30 -72h-783v-6q0 -43 2 -65h750l-31 -72h-709q20 -117 74 -225q72 -147 210 -236.5t294 -89.5 q94 0 185.5 33.5t140.5 85.5q59 61 98 194l33 -10l-31 -250q-172 -119 -471 -119q-293 0 -497.5 171t-245.5 446h-99z" />
<glyph unicode="&#x2122;" horiz-adv-x="2023" d="M4 1212q16 102 16 183h39q16 -29 56 -29h612q39 0 55 29h39q0 -70 17 -183h-41q-12 61 -44 80t-104 19h-166v-617q0 -109 70 -108h51v-43q-80 4 -184 4q-102 0 -182 -4v43h51q70 0 69 108v617h-165q-72 0 -101 -17q-35 -20 -47 -82h-41zM829 545v41h13q80 0 106 39 q18 29 27 114l43 459q2 23 2 37q0 102 -105 92h-8v41q49 -2 111 -2q57 0 102 2l305 -666l336 666q43 -2 99 -2q57 0 100 2v-41q-70 -4 -88 -33q-12 -20 -12 -92v-31l14 -485q2 -57 28.5 -78.5t90.5 -21.5h10v-41l-197 2q-31 0 -184 -2v41q80 4 102.5 23.5t20.5 86.5l-2 60 l-10 415l-314 -632h-53l-295 620l-35 -434q-2 -25 -2 -41q0 -55 26.5 -75.5t88.5 -22.5v-41q-82 2 -176 2q-82 0 -144 -2z" />
<glyph unicode="&#x25fc;" horiz-adv-x="849" d="M0 0v850h850v-850h-850z" />
<glyph unicode="&#xfb03;" horiz-adv-x="1673" d="M51 -4v41h45q59 0 78 31q14 23 14 90v600h-125v30q74 16 97 46q16 20 24 73l4 27l13 143q12 143 138 281.5t245 138.5q43 0 83 -20.5t40 -42.5q0 -31 -28 -70t-48 -39q-14 0 -39 14q-53 33 -92 33q-113 0 -144 -112q-18 -68 -18 -226v-188h430v82q0 254 127 403 q141 166 268 166q43 0 83 -20.5t40 -42.5q0 -31 -27.5 -70t-48.5 -39q-14 0 -39 14q-53 33 -92 33q-113 0 -143 -112q-18 -68 -18 -226v-188h294q180 0 246 37l19 10l18 -6v-729q0 -68 14 -90q18 -31 78 -31h45v-41q-78 4 -198 4q-133 0 -224 -4v41h45q59 0 78 31 q14 23 15 90v422q0 98 -9 122q-20 55 -98 56h-323v-600q0 -68 14 -90q18 -31 78 -31h45v-41q-84 4 -209 4q-127 0 -215 -4v41h45q59 0 78 31q14 23 14 90v600h-430v-600q0 -68 14 -90q18 -31 78 -31h45v-41q-84 4 -209 4q-127 0 -215 -4zM1335 1249q0 37 26.5 63.5 t65.5 26.5q37 0 64 -26.5t27 -63.5q0 -39 -27 -65.5t-64 -26.5q-39 0 -65.5 26.5t-26.5 65.5z" />
<glyph unicode="&#xfb04;" horiz-adv-x="1673" d="M51 -4v41h45q59 0 78 31q14 23 14 90v600h-125v30q74 16 97 46q16 20 24 73l4 27l13 143q12 143 138 281.5t245 138.5q43 0 83 -20.5t40 -42.5q0 -31 -28 -70t-48 -39q-14 0 -39 14q-53 33 -92 33q-113 0 -144 -112q-18 -68 -18 -226v-188h430v82q0 250 129 403 q139 166 268 166q41 0 82 -21.5t41 -41.5q0 -4 -6 -27q96 27 199 88l18 -4v-1333q0 -68 14 -90q18 -31 78 -31h45v-41q-94 4 -206 4q-119 0 -218 -4v41h45q59 0 78 31q14 23 15 90v1016q0 94 -9 118q-16 55 -88 62q-23 -29 -41 -29q-12 0 -41 14q-53 33 -92 33 q-113 0 -143 -112q-18 -68 -18 -226v-188h278v-88h-278v-600q0 -68 14 -90q18 -31 78 -31h45v-41q-84 4 -209 4q-127 0 -215 -4v41h45q59 0 78 31q14 23 14 90v600h-430v-600q0 -68 14 -90q18 -31 78 -31h45v-41q-84 4 -209 4q-127 0 -215 -4z" />
</font>
</defs>
</svg>
